%TF.GenerationSoftware,Altium Limited,Altium Designer,24.5.1 (21)*%
G04 Layer_Color=16711935*
%FSLAX45Y45*%
%MOMM*%
%TF.SameCoordinates,583913BB-816E-4693-BEF2-A62C45BB8311*%
%TF.FilePolarity,Negative*%
%TF.FileFunction,Soldermask,Bot*%
%TF.Part,Single*%
G01*
G75*
%TA.AperFunction,ComponentPad*%
%ADD42P,2.26274X4X370.0*%
%ADD43C,1.80000*%
%ADD44C,1.60000*%
%ADD50P,2.26274X4X80.0*%
%ADD51R,1.60000X1.60000*%
%ADD52R,1.60000X1.60000*%
%ADD87R,3.90000X3.90000*%
%ADD88R,3.15000X3.15000*%
%ADD89C,1.67400*%
%ADD90C,1.55800*%
%ADD91R,1.92800X1.92800*%
%TA.AperFunction,ViaPad*%
%ADD92C,0.85000*%
%ADD93C,0.65000*%
D42*
X5227536Y8096559D02*
D03*
X5112820Y7932728D02*
D03*
D43*
X5435600Y7950871D02*
D03*
X3488064Y8105688D02*
D03*
X1244600Y6680200D02*
D03*
X7747000D02*
D03*
D44*
X5320885Y7787040D02*
D03*
X3602780Y7941858D02*
D03*
X1244600Y6480200D02*
D03*
X7747000D02*
D03*
X7260000Y4960000D02*
D03*
D50*
X3394715Y7796170D02*
D03*
X3280000Y7960000D02*
D03*
D51*
X990600Y6480200D02*
D03*
Y6680200D02*
D03*
X7493000Y6480200D02*
D03*
Y6680200D02*
D03*
D52*
X7260000Y4710000D02*
D03*
D87*
X8310000Y5352300D02*
D03*
X8310000Y5890000D02*
D03*
D88*
X2238094Y2132559D02*
D03*
Y3796259D02*
D03*
X6455000Y3787525D02*
D03*
Y2123825D02*
D03*
D89*
X3761894Y3459524D02*
D03*
Y3261404D02*
D03*
Y3060744D02*
D03*
Y2860084D02*
D03*
Y2664504D02*
D03*
Y2461304D02*
D03*
X4931199Y2460560D02*
D03*
Y2658680D02*
D03*
Y2859340D02*
D03*
Y3060000D02*
D03*
Y3255580D02*
D03*
Y3458780D02*
D03*
D90*
X7850000Y5530000D02*
D03*
Y5780000D02*
D03*
Y6030000D02*
D03*
X7250000Y5530000D02*
D03*
Y5780000D02*
D03*
Y6030000D02*
D03*
D91*
X5684300Y270000D02*
D03*
X5938300D02*
D03*
X4564000D02*
D03*
X4310000D02*
D03*
X4056000D02*
D03*
X4818000D02*
D03*
X2644000Y260000D02*
D03*
X2898000D02*
D03*
X3152000D02*
D03*
X2390000D02*
D03*
X2136000D02*
D03*
D92*
X3851100Y4370610D02*
D03*
Y4517700D02*
D03*
X3621100Y4370610D02*
D03*
Y4517700D02*
D03*
X3731100Y4370610D02*
D03*
Y4517700D02*
D03*
X5440000Y4370000D02*
D03*
X5320000Y4500000D02*
D03*
Y4370000D02*
D03*
X5440000Y4500000D02*
D03*
X5210000D02*
D03*
Y4370000D02*
D03*
D93*
X6510000Y5580000D02*
D03*
X6390000D02*
D03*
%TF.MD5,86e4d546e517e8f30181495a5ec1888d*%
M02*
