%TF.GenerationSoftware,Altium Limited,Altium Designer,24.5.1 (21)*%
G04 Layer_Color=32896*
%FSLAX45Y45*%
%MOMM*%
%TF.SameCoordinates,583913BB-816E-4693-BEF2-A62C45BB8311*%
%TF.FilePolarity,Positive*%
%TF.FileFunction,Legend,Bot*%
%TF.Part,Single*%
G01*
G75*
G36*
X2855290Y7331310D02*
X2860460D01*
Y7326140D01*
X2865630D01*
Y7320970D01*
X2870800D01*
Y7310630D01*
X2875970D01*
Y7289950D01*
X2881140D01*
Y7274440D01*
X2886310D01*
Y7258930D01*
Y7253760D01*
X2891480D01*
Y7238250D01*
X2896650D01*
Y7222740D01*
X2891480D01*
Y7217570D01*
X2886310D01*
Y7212400D01*
X2881140D01*
Y7207230D01*
X2875970D01*
Y7202060D01*
X2870800D01*
Y7196890D01*
X2865630D01*
Y7191720D01*
X2860460D01*
Y7196890D01*
X2855290D01*
Y7217570D01*
X2850120D01*
Y7233080D01*
X2844950D01*
Y7248590D01*
X2839780D01*
Y7264100D01*
X2829440D01*
Y7258930D01*
X2824270D01*
Y7253760D01*
X2819100D01*
Y7248590D01*
X2813930D01*
Y7243420D01*
X2808760D01*
Y7238250D01*
X2803590D01*
Y7233080D01*
X2798420D01*
Y7227910D01*
X2793250D01*
Y7222740D01*
X2788080D01*
Y7217570D01*
X2782910D01*
Y7212400D01*
X2777740D01*
Y7217570D01*
X2772570D01*
Y7233080D01*
X2767400D01*
Y7253760D01*
X2762230D01*
Y7264100D01*
X2767400D01*
Y7269270D01*
X2772570D01*
Y7274440D01*
X2777740D01*
Y7279610D01*
X2782910D01*
Y7284780D01*
X2788080D01*
Y7289950D01*
X2793250D01*
Y7295120D01*
X2798420D01*
Y7300290D01*
X2803590D01*
Y7305460D01*
X2808760D01*
Y7310630D01*
X2813930D01*
Y7315800D01*
X2819100D01*
Y7320970D01*
X2824270D01*
Y7326140D01*
X2829440D01*
Y7331310D01*
X2839780D01*
Y7336480D01*
X2855290D01*
Y7331310D01*
D02*
G37*
G36*
X2875970Y7176210D02*
X2896650D01*
Y7171040D01*
X2912160D01*
Y7165870D01*
X2917330D01*
Y7150360D01*
X2922500D01*
Y7129680D01*
X2927670D01*
Y7114170D01*
X2932840D01*
Y7098660D01*
X2938010D01*
Y7077980D01*
X2943180D01*
Y7067640D01*
X2938010D01*
Y7057300D01*
X2932840D01*
Y7052130D01*
X2927670D01*
Y7046960D01*
X2896650D01*
Y7052130D01*
X2875970D01*
Y7057300D01*
X2855290D01*
Y7062470D01*
X2834610D01*
Y7067640D01*
X2819100D01*
Y7077980D01*
X2813930D01*
Y7093490D01*
X2808760D01*
Y7109000D01*
X2803590D01*
Y7119340D01*
X2808760D01*
Y7114170D01*
X2829440D01*
Y7109000D01*
X2855290D01*
Y7103830D01*
X2875970D01*
Y7098660D01*
X2881140D01*
Y7103830D01*
X2886310D01*
Y7109000D01*
X2881140D01*
Y7129680D01*
X2875970D01*
Y7145190D01*
X2870800D01*
Y7160700D01*
X2865630D01*
Y7181380D01*
X2875970D01*
Y7176210D01*
D02*
G37*
G36*
X2726040Y7212400D02*
X2751890D01*
Y7207230D01*
X2772570D01*
Y7202060D01*
X2767400D01*
Y7196890D01*
X2762230D01*
Y7191720D01*
X2757060D01*
Y7186550D01*
X2751890D01*
Y7181380D01*
X2746720D01*
Y7171040D01*
X2741550D01*
Y7165870D01*
X2736380D01*
Y7160700D01*
X2731210D01*
Y7155530D01*
X2726040D01*
Y7150360D01*
X2720870D01*
Y7145190D01*
X2715700D01*
Y7140020D01*
X2726040D01*
Y7134850D01*
X2746720D01*
Y7129680D01*
X2767400D01*
Y7124510D01*
X2788080D01*
Y7119340D01*
X2793250D01*
Y7114170D01*
X2788080D01*
Y7109000D01*
X2782910D01*
Y7103830D01*
X2777740D01*
Y7098660D01*
X2772570D01*
Y7093490D01*
X2767400D01*
Y7088320D01*
X2762230D01*
Y7083150D01*
X2746720D01*
Y7088320D01*
X2726040D01*
Y7093490D01*
X2705360D01*
Y7098660D01*
X2684680D01*
Y7103830D01*
X2664000D01*
Y7109000D01*
X2658830D01*
Y7114170D01*
X2653660D01*
Y7119340D01*
X2648490D01*
Y7140020D01*
X2653660D01*
Y7150360D01*
X2658830D01*
Y7155530D01*
X2664000D01*
Y7160700D01*
X2669170D01*
Y7165870D01*
X2674340D01*
Y7171040D01*
X2679510D01*
Y7176210D01*
X2684680D01*
Y7181380D01*
X2689850D01*
Y7186550D01*
X2695020D01*
Y7191720D01*
X2700190D01*
Y7196890D01*
X2705360D01*
Y7202060D01*
X2710530D01*
Y7207230D01*
X2715700D01*
Y7212400D01*
X2720870D01*
Y7217570D01*
X2726040D01*
Y7212400D01*
D02*
G37*
G36*
X2028090Y6762610D02*
X2043600D01*
Y6757440D01*
X2059110D01*
Y6752270D01*
X2069450D01*
Y6747100D01*
X2084960D01*
Y6741930D01*
X2095300D01*
Y6736760D01*
X2105640D01*
Y6731590D01*
X2115980D01*
Y6726420D01*
X2126320D01*
Y6721250D01*
X2136660D01*
Y6716080D01*
X2147000D01*
Y6710910D01*
X2157340D01*
Y6705740D01*
X2167680D01*
Y6700570D01*
X2178020D01*
Y6695400D01*
X2188360D01*
Y6690230D01*
X2193530D01*
Y6685060D01*
X2203870D01*
Y6679890D01*
X2214210D01*
Y6674720D01*
X2219380D01*
Y6669550D01*
X2229720D01*
Y6664380D01*
X2240060D01*
Y6659210D01*
X2245230D01*
Y6654040D01*
X2255570D01*
Y6648870D01*
X2260740D01*
Y6643700D01*
X2271080D01*
Y6638530D01*
X2276250D01*
Y6633360D01*
X2286590D01*
Y6628190D01*
X2296930D01*
Y6623020D01*
X2302100D01*
Y6617850D01*
X2307270D01*
Y6612680D01*
X2317610D01*
Y6607510D01*
X2322780D01*
Y6602340D01*
X2333120D01*
Y6597170D01*
X2338290D01*
Y6592000D01*
X2343460D01*
Y6586830D01*
X2353800D01*
Y6581660D01*
X2358970D01*
Y6576490D01*
X2364140D01*
Y6571320D01*
X2369310D01*
Y6566150D01*
X2379650D01*
Y6560980D01*
X2384820D01*
Y6555810D01*
X2389990D01*
Y6550640D01*
X2395160D01*
Y6545470D01*
X2400330D01*
Y6540300D01*
X2405500D01*
Y6535130D01*
X2410670D01*
Y6529960D01*
X2415840D01*
Y6524790D01*
X2421010D01*
Y6519620D01*
X2426180D01*
Y6514450D01*
X2431350D01*
Y6509280D01*
X2436520D01*
Y6504110D01*
X2441690D01*
Y6498940D01*
X2446860D01*
Y6488600D01*
X2452030D01*
Y6467920D01*
X2446860D01*
Y6462750D01*
X2415840D01*
Y6467920D01*
X2395160D01*
Y6473090D01*
X2379650D01*
Y6478260D01*
X2364140D01*
Y6483430D01*
X2353800D01*
Y6488600D01*
X2343460D01*
Y6493770D01*
X2327950D01*
Y6498940D01*
X2317610D01*
Y6504110D01*
X2307270D01*
Y6509280D01*
X2296930D01*
Y6514450D01*
X2286590D01*
Y6519620D01*
X2276250D01*
Y6524790D01*
X2271080D01*
Y6529960D01*
X2260740D01*
Y6535130D01*
X2250400D01*
Y6540300D01*
X2240060D01*
Y6545470D01*
X2229720D01*
Y6550640D01*
X2224550D01*
Y6555810D01*
X2214210D01*
Y6560980D01*
X2203870D01*
Y6566150D01*
X2198700D01*
Y6571320D01*
X2188360D01*
Y6576490D01*
X2178020D01*
Y6581660D01*
X2172850D01*
Y6586830D01*
X2162510D01*
Y6592000D01*
X2157340D01*
Y6597170D01*
X2147000D01*
Y6602340D01*
X2141830D01*
Y6607510D01*
X2131490D01*
Y6612680D01*
X2126320D01*
Y6617850D01*
X2121150D01*
Y6623020D01*
X2110810D01*
Y6628190D01*
X2105640D01*
Y6633360D01*
X2095300D01*
Y6638530D01*
X2090130D01*
Y6643700D01*
X2084960D01*
Y6648870D01*
X2074620D01*
Y6654040D01*
X2069450D01*
Y6659210D01*
X2064280D01*
Y6664380D01*
X2059110D01*
Y6669550D01*
X2048770D01*
Y6674720D01*
X2043600D01*
Y6679890D01*
X2038430D01*
Y6685060D01*
X2033260D01*
Y6690230D01*
X2028090D01*
Y6695400D01*
X2022920D01*
Y6700570D01*
X2017750D01*
Y6705740D01*
X2012580D01*
Y6710910D01*
X2007410D01*
Y6716080D01*
X2002240D01*
Y6721250D01*
X1997070D01*
Y6726420D01*
X1991900D01*
Y6731590D01*
X1986730D01*
Y6741930D01*
X1981560D01*
Y6752270D01*
X1976390D01*
Y6762610D01*
X1981560D01*
Y6767780D01*
X2028090D01*
Y6762610D01*
D02*
G37*
G36*
X2167680Y6255950D02*
X2214210D01*
Y6250780D01*
X2250400D01*
Y6245610D01*
X2271080D01*
Y6240440D01*
X2291760D01*
Y6235270D01*
X2307270D01*
Y6230100D01*
X2317610D01*
Y6224930D01*
X2322780D01*
Y6219760D01*
X2327950D01*
Y6204250D01*
X2322780D01*
Y6199080D01*
X2317610D01*
Y6193910D01*
X2307270D01*
Y6188740D01*
X2291760D01*
Y6183570D01*
X2271080D01*
Y6178400D01*
X2245230D01*
Y6173230D01*
X2209040D01*
Y6168060D01*
X2157340D01*
Y6162890D01*
X1950540D01*
Y6168060D01*
X1893670D01*
Y6173230D01*
X1862650D01*
Y6178400D01*
X1836800D01*
Y6183570D01*
X1816120D01*
Y6188740D01*
X1800610D01*
Y6193910D01*
X1790270D01*
Y6199080D01*
X1779930D01*
Y6204250D01*
X1774760D01*
Y6219760D01*
X1779930D01*
Y6224930D01*
X1785100D01*
Y6230100D01*
X1795440D01*
Y6235270D01*
X1810950D01*
Y6240440D01*
X1831630D01*
Y6245610D01*
X1857480D01*
Y6250780D01*
X1888500D01*
Y6255950D01*
X1940200D01*
Y6261120D01*
X2167680D01*
Y6255950D01*
D02*
G37*
G36*
X2441690Y5956090D02*
X2446860D01*
Y5940580D01*
X2441690D01*
Y5930240D01*
X2436520D01*
Y5925070D01*
X2431350D01*
Y5914730D01*
X2426180D01*
Y5909560D01*
X2421010D01*
Y5904390D01*
X2415840D01*
Y5899220D01*
X2410670D01*
Y5894050D01*
X2400330D01*
Y5888880D01*
X2395160D01*
Y5883710D01*
X2389990D01*
Y5878540D01*
X2384820D01*
Y5873370D01*
X2379650D01*
Y5868200D01*
X2369310D01*
Y5863030D01*
X2364140D01*
Y5857860D01*
X2358970D01*
Y5852690D01*
X2348630D01*
Y5847520D01*
X2343460D01*
Y5842350D01*
X2338290D01*
Y5837180D01*
X2327950D01*
Y5832010D01*
X2322780D01*
Y5826840D01*
X2312440D01*
Y5821670D01*
X2307270D01*
Y5816500D01*
X2296930D01*
Y5811330D01*
X2291760D01*
Y5806160D01*
X2281420D01*
Y5800990D01*
X2276250D01*
Y5795820D01*
X2265910D01*
Y5790650D01*
X2255570D01*
Y5785480D01*
X2250400D01*
Y5780310D01*
X2240060D01*
Y5775140D01*
X2229720D01*
Y5769970D01*
X2224550D01*
Y5764800D01*
X2214210D01*
Y5759630D01*
X2203870D01*
Y5754460D01*
X2193530D01*
Y5749290D01*
X2183190D01*
Y5744120D01*
X2172850D01*
Y5738950D01*
X2162510D01*
Y5733780D01*
X2152170D01*
Y5728610D01*
X2141830D01*
Y5723440D01*
X2131490D01*
Y5718270D01*
X2121150D01*
Y5713100D01*
X2110810D01*
Y5707930D01*
X2100470D01*
Y5702760D01*
X2084960D01*
Y5697590D01*
X2074620D01*
Y5692420D01*
X2059110D01*
Y5687250D01*
X2048770D01*
Y5682080D01*
X2033260D01*
Y5676910D01*
X2012580D01*
Y5671740D01*
X1966050D01*
Y5682080D01*
X1960880D01*
Y5687250D01*
X1966050D01*
Y5697590D01*
X1971220D01*
Y5707930D01*
X1976390D01*
Y5713100D01*
X1981560D01*
Y5718270D01*
X1986730D01*
Y5723440D01*
X1991900D01*
Y5728610D01*
X1997070D01*
Y5733780D01*
X2002240D01*
Y5738950D01*
X2007410D01*
Y5744120D01*
X2012580D01*
Y5749290D01*
X2022920D01*
Y5754460D01*
X2028090D01*
Y5759630D01*
X2033260D01*
Y5764800D01*
X2038430D01*
Y5769970D01*
X2048770D01*
Y5775140D01*
X2053940D01*
Y5780310D01*
X2059110D01*
Y5785480D01*
X2069450D01*
Y5790650D01*
X2074620D01*
Y5795820D01*
X2084960D01*
Y5800990D01*
X2090130D01*
Y5806160D01*
X2100470D01*
Y5811330D01*
X2105640D01*
Y5816500D01*
X2115980D01*
Y5821670D01*
X2121150D01*
Y5826840D01*
X2131490D01*
Y5832010D01*
X2136660D01*
Y5837180D01*
X2147000D01*
Y5842350D01*
X2157340D01*
Y5847520D01*
X2162510D01*
Y5852690D01*
X2172850D01*
Y5857860D01*
X2183190D01*
Y5863030D01*
X2188360D01*
Y5868200D01*
X2198700D01*
Y5873370D01*
X2209040D01*
Y5878540D01*
X2219380D01*
Y5883710D01*
X2229720D01*
Y5888880D01*
X2240060D01*
Y5894050D01*
X2250400D01*
Y5899220D01*
X2260740D01*
Y5904390D01*
X2265910D01*
Y5909560D01*
X2281420D01*
Y5914730D01*
X2291760D01*
Y5919900D01*
X2302100D01*
Y5925070D01*
X2312440D01*
Y5930240D01*
X2327950D01*
Y5935410D01*
X2338290D01*
Y5940580D01*
X2353800D01*
Y5945750D01*
X2364140D01*
Y5950920D01*
X2384820D01*
Y5956090D01*
X2400330D01*
Y5961260D01*
X2441690D01*
Y5956090D01*
D02*
G37*
G36*
X5548860Y6297310D02*
X5579880D01*
Y6292140D01*
X5605730D01*
Y6286970D01*
X5621240D01*
Y6281800D01*
X5636750D01*
Y6276630D01*
X5652260D01*
Y6271460D01*
X5662600D01*
Y6266290D01*
X5678110D01*
Y6261120D01*
X5688450D01*
Y6255950D01*
X5693620D01*
Y6250780D01*
X5703960D01*
Y6245610D01*
X5714300D01*
Y6240440D01*
X5724640D01*
Y6235270D01*
X5729810D01*
Y6230100D01*
X5734980D01*
Y6224930D01*
X5745320D01*
Y6219760D01*
X5750490D01*
Y6214590D01*
X5755660D01*
Y6209420D01*
X5766000D01*
Y6204250D01*
X5771170D01*
Y6199080D01*
X5776340D01*
Y6193910D01*
X5781510D01*
Y6188740D01*
X5786680D01*
Y6183570D01*
X5791850D01*
Y6178400D01*
X5797020D01*
Y6173230D01*
X5802190D01*
Y6168060D01*
X5807360D01*
Y6162890D01*
X5812530D01*
Y6152550D01*
X5817700D01*
Y6147380D01*
X5822870D01*
Y6142210D01*
X5828040D01*
Y6137040D01*
X5833210D01*
Y6126700D01*
X5838380D01*
Y6121530D01*
X5843550D01*
Y6111190D01*
X5848720D01*
Y6100850D01*
X5853890D01*
Y6095680D01*
X5859060D01*
Y6085340D01*
X5864230D01*
Y6075000D01*
X5869400D01*
Y6064660D01*
X5874570D01*
Y6049150D01*
X5879740D01*
Y6038810D01*
X5884910D01*
Y6023300D01*
X5890080D01*
Y6007790D01*
X5895250D01*
Y5987110D01*
X5900420D01*
Y5961260D01*
X5905590D01*
Y5837180D01*
X5900420D01*
Y5811330D01*
X5895250D01*
Y5790650D01*
X5890080D01*
Y5769970D01*
X5884910D01*
Y5754460D01*
X5879740D01*
Y5744120D01*
X5874570D01*
Y5728610D01*
X5869400D01*
Y5718270D01*
X5864230D01*
Y5707930D01*
X5859060D01*
Y5702760D01*
X5853890D01*
Y5692420D01*
X5848720D01*
Y5682080D01*
X5843550D01*
Y5676910D01*
X5838380D01*
Y5666570D01*
X5833210D01*
Y5661400D01*
X5828040D01*
Y5651060D01*
X5822870D01*
Y5645890D01*
X5817700D01*
Y5640720D01*
X5812530D01*
Y5635550D01*
X5807360D01*
Y5625210D01*
X5802190D01*
Y5620040D01*
X5797020D01*
Y5614870D01*
X5791850D01*
Y5609700D01*
X5786680D01*
Y5604530D01*
X5781510D01*
Y5599360D01*
X5776340D01*
Y5594190D01*
X5766000D01*
Y5589020D01*
X5760830D01*
Y5583850D01*
X5755660D01*
Y5578680D01*
X5750490D01*
Y5573510D01*
X5740150D01*
Y5568340D01*
X5734980D01*
Y5563170D01*
X5729810D01*
Y5558000D01*
X5719470D01*
Y5552830D01*
X5709130D01*
Y5547660D01*
X5703960D01*
Y5542490D01*
X5693620D01*
Y5537320D01*
X5683280D01*
Y5532150D01*
X5672940D01*
Y5526980D01*
X5662600D01*
Y5521810D01*
X5647090D01*
Y5516640D01*
X5636750D01*
Y5511470D01*
X5616070D01*
Y5506300D01*
X5600560D01*
Y5501130D01*
X5574710D01*
Y5495960D01*
X5533350D01*
Y5490790D01*
X5471310D01*
Y5495960D01*
X5429950D01*
Y5501130D01*
X5409270D01*
Y5506300D01*
X5388590D01*
Y5511470D01*
X5373080D01*
Y5516640D01*
X5357570D01*
Y5521810D01*
X5342060D01*
Y5526980D01*
X5331720D01*
Y5532150D01*
X5321380D01*
Y5537320D01*
X5311040D01*
Y5542490D01*
X5300700D01*
Y5547660D01*
X5295530D01*
Y5552830D01*
X5285190D01*
Y5558000D01*
X5274850D01*
Y5563170D01*
X5269680D01*
Y5568340D01*
X5264510D01*
Y5573510D01*
X5254170D01*
Y5578680D01*
X5249000D01*
Y5583850D01*
X5243830D01*
Y5589020D01*
X5238660D01*
Y5594190D01*
X5233490D01*
Y5599360D01*
X5223150D01*
Y5604530D01*
X5217980D01*
Y5609700D01*
X5212810D01*
Y5614870D01*
X5207640D01*
Y5620040D01*
X5202470D01*
Y5630380D01*
X5197300D01*
Y5635550D01*
X5192130D01*
Y5640720D01*
X5186960D01*
Y5645890D01*
X5181790D01*
Y5651060D01*
X5176620D01*
Y5661400D01*
X5171450D01*
Y5666570D01*
X5166280D01*
Y5676910D01*
X5161110D01*
Y5682080D01*
X5155940D01*
Y5692420D01*
X5150770D01*
Y5702760D01*
X5145600D01*
Y5713100D01*
X5140430D01*
Y5718270D01*
X5135260D01*
Y5733780D01*
X5130090D01*
Y5744120D01*
X5124920D01*
Y5759630D01*
X5119750D01*
Y5769970D01*
X5114580D01*
Y5790650D01*
X5109410D01*
Y5811330D01*
X5104240D01*
Y5837180D01*
X5099070D01*
Y5956090D01*
X5104240D01*
Y5981940D01*
X5109410D01*
Y6002620D01*
X5114580D01*
Y6023300D01*
X5119750D01*
Y6038810D01*
X5124920D01*
Y6049150D01*
X5130090D01*
Y6064660D01*
X5135260D01*
Y6075000D01*
X5140430D01*
Y6085340D01*
X5145600D01*
Y6095680D01*
X5150770D01*
Y6100850D01*
X5155940D01*
Y6111190D01*
X5161110D01*
Y6121530D01*
X5166280D01*
Y6126700D01*
X5171450D01*
Y6131870D01*
X5176620D01*
Y6142210D01*
X5181790D01*
Y6147380D01*
X5186960D01*
Y6152550D01*
X5192130D01*
Y6162890D01*
X5197300D01*
Y6168060D01*
X5202470D01*
Y6173230D01*
X5207640D01*
Y6178400D01*
X5212810D01*
Y6183570D01*
X5217980D01*
Y6188740D01*
X5223150D01*
Y6193910D01*
X5228320D01*
Y6199080D01*
X5233490D01*
Y6204250D01*
X5243830D01*
Y6209420D01*
X5249000D01*
Y6214590D01*
X5254170D01*
Y6219760D01*
X5259340D01*
Y6224930D01*
X5269680D01*
Y6230100D01*
X5274850D01*
Y6235270D01*
X5285190D01*
Y6240440D01*
X5290360D01*
Y6245610D01*
X5300700D01*
Y6250780D01*
X5311040D01*
Y6255950D01*
X5321380D01*
Y6261120D01*
X5331720D01*
Y6266290D01*
X5342060D01*
Y6271460D01*
X5352400D01*
Y6276630D01*
X5367910D01*
Y6281800D01*
X5383420D01*
Y6286970D01*
X5398930D01*
Y6292140D01*
X5424780D01*
Y6297310D01*
X5455800D01*
Y6302480D01*
X5548860D01*
Y6297310D01*
D02*
G37*
G36*
X2989710Y7026280D02*
X3005220D01*
Y7021110D01*
X3015560D01*
Y7015940D01*
X3025900D01*
Y7010770D01*
X3031070D01*
Y7005600D01*
X3041410D01*
Y7000430D01*
X3046580D01*
Y6995260D01*
X3056920D01*
Y6990090D01*
X3062090D01*
Y6984920D01*
X3072430D01*
Y6979750D01*
X3077600D01*
Y6974580D01*
X3087940D01*
Y6969410D01*
X3093110D01*
Y6964240D01*
X3098280D01*
Y6959070D01*
X3108620D01*
Y6953900D01*
X3113790D01*
Y6948730D01*
X3118960D01*
Y6943560D01*
X3124130D01*
Y6938390D01*
X3134470D01*
Y6933220D01*
X3139640D01*
Y6928050D01*
X3144810D01*
Y6922880D01*
X3149980D01*
Y6917710D01*
X3155150D01*
Y6912540D01*
X3160320D01*
Y6907370D01*
X3165490D01*
Y6902200D01*
X3170660D01*
Y6897030D01*
X3175830D01*
Y6891860D01*
X3186170D01*
Y6886690D01*
X3191340D01*
Y6881520D01*
X3196510D01*
Y6876350D01*
X3201680D01*
Y6866010D01*
X3206850D01*
Y6860840D01*
X3212020D01*
Y6855670D01*
X3217190D01*
Y6850500D01*
X3222360D01*
Y6845330D01*
X3227530D01*
Y6840160D01*
X3232700D01*
Y6834990D01*
X3237870D01*
Y6824650D01*
X3243040D01*
Y6819480D01*
X3248210D01*
Y6814310D01*
X3253380D01*
Y6809140D01*
X3258550D01*
Y6798800D01*
X3263720D01*
Y6793630D01*
X3268890D01*
Y6783290D01*
X3274060D01*
Y6778120D01*
X3279230D01*
Y6767780D01*
X3284400D01*
Y6762610D01*
X3289570D01*
Y6752270D01*
X3294740D01*
Y6747100D01*
X3299910D01*
Y6736760D01*
X3305080D01*
Y6726420D01*
X3310250D01*
Y6716080D01*
X3315420D01*
Y6705740D01*
X3320590D01*
Y6690230D01*
X3325760D01*
Y6679890D01*
X3330930D01*
Y6664380D01*
X3336100D01*
Y6648870D01*
X3341270D01*
Y6628190D01*
X3346440D01*
Y6602340D01*
X3351610D01*
Y6509280D01*
X3346440D01*
Y6483430D01*
X3341270D01*
Y6457580D01*
X3336100D01*
Y6436900D01*
X3330930D01*
Y6421390D01*
X3325760D01*
Y6405880D01*
X3320590D01*
Y6390370D01*
X3315420D01*
Y6380030D01*
X3310250D01*
Y6364520D01*
X3305080D01*
Y6354180D01*
X3299910D01*
Y6343840D01*
X3294740D01*
Y6338670D01*
X3289570D01*
Y6328330D01*
X3284400D01*
Y6323160D01*
X3279230D01*
Y6312820D01*
X3274060D01*
Y6307650D01*
X3268890D01*
Y6302480D01*
X3263720D01*
Y6297310D01*
X3258550D01*
Y6286970D01*
X3253380D01*
Y6281800D01*
X3248210D01*
Y6276630D01*
X3243040D01*
Y6271460D01*
X3237870D01*
Y6266290D01*
X3232700D01*
Y6261120D01*
X3227530D01*
Y6250780D01*
X3222360D01*
Y6245610D01*
X3217190D01*
Y6240440D01*
X3212020D01*
Y6235270D01*
X3206850D01*
Y6230100D01*
X3201680D01*
Y6224930D01*
X3196510D01*
Y6219760D01*
X3191340D01*
Y6209420D01*
X3186170D01*
Y6204250D01*
X3181000D01*
Y6199080D01*
X3175830D01*
Y6193910D01*
X3170660D01*
Y6188740D01*
X3165490D01*
Y6183570D01*
X3160320D01*
Y6178400D01*
X3155150D01*
Y6168060D01*
X3149980D01*
Y6162890D01*
X3144810D01*
Y6157720D01*
X3139640D01*
Y6152550D01*
X3134470D01*
Y6147380D01*
X3129300D01*
Y6142210D01*
X3124130D01*
Y6137040D01*
X3118960D01*
Y6131870D01*
X3113790D01*
Y6126700D01*
X3108620D01*
Y6121530D01*
X3103450D01*
Y6116360D01*
X3098280D01*
Y6111190D01*
X3093110D01*
Y6106020D01*
X3087940D01*
Y6100850D01*
X3082770D01*
Y6095680D01*
X3077600D01*
Y6090510D01*
X3072430D01*
Y6085340D01*
X3067260D01*
Y6080170D01*
X3062090D01*
Y6075000D01*
X3056920D01*
Y6069830D01*
X3051750D01*
Y6059490D01*
X3046580D01*
Y6054320D01*
X3041410D01*
Y6049150D01*
X3036240D01*
Y6043980D01*
X3031070D01*
Y6038810D01*
X3025900D01*
Y6033640D01*
X3020730D01*
Y6028470D01*
X3015560D01*
Y6018130D01*
X3010390D01*
Y6012960D01*
X3005220D01*
Y6007790D01*
X3000050D01*
Y6002620D01*
X2994880D01*
Y5992280D01*
X2989710D01*
Y5987110D01*
X2984540D01*
Y5976770D01*
X2979370D01*
Y5971600D01*
X2974200D01*
Y5961260D01*
X2969030D01*
Y5950920D01*
X2963860D01*
Y5945750D01*
X2958690D01*
Y5935410D01*
X2953520D01*
Y5925070D01*
X2948350D01*
Y5914730D01*
X2943180D01*
Y5899220D01*
X2938010D01*
Y5888880D01*
X2932840D01*
Y5873370D01*
X2927670D01*
Y5857860D01*
X2922500D01*
Y5837180D01*
X2917330D01*
Y5806160D01*
X2912160D01*
Y5697590D01*
X2917330D01*
Y5676910D01*
X2922500D01*
Y5656230D01*
X2927670D01*
Y5640720D01*
X2932840D01*
Y5625210D01*
X2938010D01*
Y5614870D01*
X2943180D01*
Y5599360D01*
X2948350D01*
Y5589020D01*
X2953520D01*
Y5583850D01*
X2958690D01*
Y5573510D01*
X2963860D01*
Y5563170D01*
X2969030D01*
Y5552830D01*
X2974200D01*
Y5547660D01*
X2979370D01*
Y5537320D01*
X2984540D01*
Y5532150D01*
X2989710D01*
Y5521810D01*
X2994880D01*
Y5516640D01*
X3000050D01*
Y5511470D01*
X3005220D01*
Y5501130D01*
X3010390D01*
Y5495960D01*
X3015560D01*
Y5490790D01*
X3020730D01*
Y5485620D01*
X3025900D01*
Y5480450D01*
X3031070D01*
Y5470110D01*
X3036240D01*
Y5464940D01*
X3041410D01*
Y5459770D01*
X3046580D01*
Y5454600D01*
X3051750D01*
Y5449430D01*
X3056920D01*
Y5444260D01*
X3062090D01*
Y5439090D01*
X3067260D01*
Y5433920D01*
X3072430D01*
Y5428750D01*
X3077600D01*
Y5423580D01*
X3082770D01*
Y5418410D01*
X3087940D01*
Y5413240D01*
X3093110D01*
Y5408070D01*
X3103450D01*
Y5402900D01*
X3108620D01*
Y5397730D01*
X3113790D01*
Y5392560D01*
X3118960D01*
Y5387390D01*
X3124130D01*
Y5382220D01*
X3134470D01*
Y5377050D01*
X3139640D01*
Y5371880D01*
X3144810D01*
Y5366710D01*
X3149980D01*
Y5361540D01*
X3160320D01*
Y5356370D01*
X3165490D01*
Y5351200D01*
X3170660D01*
Y5346030D01*
X3181000D01*
Y5340860D01*
X3186170D01*
Y5335690D01*
X3196510D01*
Y5330520D01*
X3201680D01*
Y5325350D01*
X3212020D01*
Y5320180D01*
X3217190D01*
Y5315010D01*
X3227530D01*
Y5309840D01*
X3237870D01*
Y5304670D01*
X3243040D01*
Y5299500D01*
X3253380D01*
Y5294330D01*
X3258550D01*
Y5289160D01*
X3268890D01*
Y5283990D01*
X3279230D01*
Y5278820D01*
X3289570D01*
Y5273650D01*
X3299910D01*
Y5268480D01*
X3310250D01*
Y5263310D01*
X3320590D01*
Y5258140D01*
X3330930D01*
Y5252970D01*
X3341270D01*
Y5247800D01*
X3351610D01*
Y5242630D01*
X3361950D01*
Y5237460D01*
X3372290D01*
Y5232290D01*
X3387800D01*
Y5227120D01*
X3398140D01*
Y5221950D01*
X3413650D01*
Y5216780D01*
X3429160D01*
Y5211610D01*
X3439500D01*
Y5206440D01*
X3455010D01*
Y5201270D01*
X3475690D01*
Y5196100D01*
X3491200D01*
Y5190930D01*
X3517050D01*
Y5185760D01*
X3542900D01*
Y5180590D01*
X3579090D01*
Y5175420D01*
X3625620D01*
Y5180590D01*
X3651470D01*
Y5185760D01*
X3666980D01*
Y5190930D01*
X3677320D01*
Y5196100D01*
X3682490D01*
Y5201270D01*
X3687660D01*
Y5211610D01*
X3677320D01*
Y5216780D01*
X3672150D01*
Y5221950D01*
X3666980D01*
Y5232290D01*
X3661810D01*
Y5237460D01*
X3656640D01*
Y5242630D01*
X3651470D01*
Y5247800D01*
X3646300D01*
Y5258140D01*
X3641130D01*
Y5268480D01*
X3635960D01*
Y5273650D01*
X3630790D01*
Y5283990D01*
X3625620D01*
Y5294330D01*
X3620450D01*
Y5304670D01*
X3615280D01*
Y5315010D01*
X3610110D01*
Y5330520D01*
X3604940D01*
Y5340860D01*
X3599770D01*
Y5356370D01*
X3594600D01*
Y5371880D01*
X3589430D01*
Y5387390D01*
X3584260D01*
Y5402900D01*
X3579090D01*
Y5418410D01*
X3573920D01*
Y5439090D01*
X3568750D01*
Y5459770D01*
X3563580D01*
Y5485620D01*
X3558410D01*
Y5506300D01*
X3553240D01*
Y5537320D01*
X3548070D01*
Y5568340D01*
X3542900D01*
Y5604530D01*
X3537730D01*
Y5692420D01*
X3542900D01*
Y5718270D01*
X3548070D01*
Y5738950D01*
X3553240D01*
Y5759630D01*
X3558410D01*
Y5775140D01*
X3563580D01*
Y5790650D01*
X3568750D01*
Y5806160D01*
X3573920D01*
Y5821670D01*
X3579090D01*
Y5832010D01*
X3584260D01*
Y5842350D01*
X3589430D01*
Y5852690D01*
X3594600D01*
Y5863030D01*
X3599770D01*
Y5873370D01*
X3604940D01*
Y5878540D01*
X3610110D01*
Y5888880D01*
X3615280D01*
Y5899220D01*
X3620450D01*
Y5904390D01*
X3625620D01*
Y5909560D01*
X3630790D01*
Y5919900D01*
X3635960D01*
Y5925070D01*
X3641130D01*
Y5930240D01*
X3646300D01*
Y5935410D01*
X3651470D01*
Y5945750D01*
X3656640D01*
Y5950920D01*
X3661810D01*
Y5956090D01*
X3666980D01*
Y5961260D01*
X3672150D01*
Y5966430D01*
X3677320D01*
Y5971600D01*
X3687660D01*
Y5976770D01*
X3692830D01*
Y5981940D01*
X3698000D01*
Y5987110D01*
X3703170D01*
Y5992280D01*
X3708340D01*
Y5997450D01*
X3718680D01*
Y6002620D01*
X3723850D01*
Y6007790D01*
X3734190D01*
Y6012960D01*
X3739360D01*
Y6018130D01*
X3749700D01*
Y6023300D01*
X3760040D01*
Y6028470D01*
X3765210D01*
Y6033640D01*
X3775550D01*
Y6038810D01*
X3785890D01*
Y6043980D01*
X3801400D01*
Y6049150D01*
X3811740D01*
Y6054320D01*
X3822080D01*
Y6059490D01*
X3837590D01*
Y6064660D01*
X3853100D01*
Y6069830D01*
X3868610D01*
Y6075000D01*
X3889290D01*
Y6080170D01*
X3909970D01*
Y6085340D01*
X3935820D01*
Y6090510D01*
X3972010D01*
Y6095680D01*
X4018540D01*
Y6100850D01*
X4173640D01*
Y6095680D01*
X4235680D01*
Y6090510D01*
X4277040D01*
Y6085340D01*
X4308060D01*
Y6080170D01*
X4344250D01*
Y6075000D01*
X4370100D01*
Y6069830D01*
X4395950D01*
Y6064660D01*
X4421800D01*
Y6059490D01*
X4442480D01*
Y6054320D01*
X4468330D01*
Y6049150D01*
X4489010D01*
Y6043980D01*
X4509690D01*
Y6038810D01*
X4530370D01*
Y6033640D01*
X4545880D01*
Y6028470D01*
X4566560D01*
Y6023300D01*
X4587240D01*
Y6018130D01*
X4602750D01*
Y6012960D01*
X4618260D01*
Y6007790D01*
X4638940D01*
Y6002620D01*
X4654450D01*
Y5997450D01*
X4669960D01*
Y5992280D01*
X4685470D01*
Y5987110D01*
X4700980D01*
Y5981940D01*
X4716490D01*
Y5976770D01*
X4732000D01*
Y5971600D01*
X4742340D01*
Y5966430D01*
X4757850D01*
Y5961260D01*
X4773360D01*
Y5956090D01*
X4788870D01*
Y5950920D01*
X4799210D01*
Y5945750D01*
X4814720D01*
Y5940580D01*
X4830230D01*
Y5935410D01*
X4840570D01*
Y5930240D01*
X4856080D01*
Y5925070D01*
X4866420D01*
Y5919900D01*
X4881930D01*
Y5914730D01*
X4892270D01*
Y5909560D01*
X4902610D01*
Y5904390D01*
X4918120D01*
Y5899220D01*
X4928460D01*
Y5894050D01*
X4938800D01*
Y5888880D01*
X4949140D01*
Y5883710D01*
X4964650D01*
Y5878540D01*
X4974990D01*
Y5873370D01*
X4985330D01*
Y5868200D01*
X4995670D01*
Y5863030D01*
X5006010D01*
Y5857860D01*
X5016350D01*
Y5852690D01*
X5026690D01*
Y5847520D01*
X5037030D01*
Y5842350D01*
X5047370D01*
Y5837180D01*
X5052540D01*
Y5832010D01*
X5062880D01*
Y5811330D01*
X5068050D01*
Y5790650D01*
X5073220D01*
Y5769970D01*
X5078390D01*
Y5754460D01*
X5083560D01*
Y5738950D01*
X5088730D01*
Y5728610D01*
X5093900D01*
Y5713100D01*
X5099070D01*
Y5702760D01*
X5104240D01*
Y5692420D01*
X5109410D01*
Y5682080D01*
X5114580D01*
Y5671740D01*
X5119750D01*
Y5666570D01*
X5124920D01*
Y5656230D01*
X5130090D01*
Y5651060D01*
X5135260D01*
Y5640720D01*
X5140430D01*
Y5635550D01*
X5145600D01*
Y5625210D01*
X5150770D01*
Y5620040D01*
X5155940D01*
Y5614870D01*
X5161110D01*
Y5609700D01*
X5166280D01*
Y5599360D01*
X5171450D01*
Y5594190D01*
X5176620D01*
Y5589020D01*
X5181790D01*
Y5583850D01*
X5186960D01*
Y5578680D01*
X5192130D01*
Y5573510D01*
X5197300D01*
Y5568340D01*
X5202470D01*
Y5563170D01*
X5207640D01*
Y5558000D01*
X5217980D01*
Y5552830D01*
X5223150D01*
Y5547660D01*
X5228320D01*
Y5542490D01*
X5233490D01*
Y5537320D01*
X5243830D01*
Y5532150D01*
X5249000D01*
Y5526980D01*
X5259340D01*
Y5521810D01*
X5264510D01*
Y5516640D01*
X5274850D01*
Y5511470D01*
X5280020D01*
Y5506300D01*
X5290360D01*
Y5501130D01*
X5300700D01*
Y5495960D01*
X5316210D01*
Y5490790D01*
X5326550D01*
Y5485620D01*
X5342060D01*
Y5480450D01*
X5362740D01*
Y5475280D01*
X5378250D01*
Y5470110D01*
X5398930D01*
Y5464940D01*
X5419610D01*
Y5459770D01*
X5445460D01*
Y5454600D01*
X5476480D01*
Y5449430D01*
X5523010D01*
Y5444260D01*
X5590220D01*
Y5449430D01*
X5631580D01*
Y5454600D01*
X5652260D01*
Y5459770D01*
X5667770D01*
Y5464940D01*
X5683280D01*
Y5470110D01*
X5693620D01*
Y5475280D01*
X5703960D01*
Y5480450D01*
X5714300D01*
Y5485620D01*
X5719470D01*
Y5490790D01*
X5729810D01*
Y5495960D01*
X5734980D01*
Y5501130D01*
X5745320D01*
Y5506300D01*
X5755660D01*
Y5501130D01*
X5766000D01*
Y5495960D01*
X5776340D01*
Y5490790D01*
X5791850D01*
Y5485620D01*
X5802190D01*
Y5480450D01*
X5817700D01*
Y5475280D01*
X5828040D01*
Y5470110D01*
X5843550D01*
Y5464940D01*
X5853890D01*
Y5459770D01*
X5864230D01*
Y5454600D01*
X5874570D01*
Y5449430D01*
X5890080D01*
Y5444260D01*
X5900420D01*
Y5439090D01*
X5910760D01*
Y5433920D01*
X5921100D01*
Y5428750D01*
X5936610D01*
Y5423580D01*
X5946950D01*
Y5418410D01*
X5957290D01*
Y5413240D01*
X5967630D01*
Y5408070D01*
X5977970D01*
Y5402900D01*
X5988310D01*
Y5397730D01*
X5998650D01*
Y5392560D01*
X6008990D01*
Y5387390D01*
X6019330D01*
Y5382220D01*
X6029670D01*
Y5377050D01*
X6040010D01*
Y5371880D01*
X6050350D01*
Y5366710D01*
X6060690D01*
Y5361540D01*
X6071030D01*
Y5356370D01*
X6076200D01*
Y5351200D01*
X6086540D01*
Y5346030D01*
X6096880D01*
Y5340860D01*
X6102050D01*
Y5335690D01*
X6112390D01*
Y5330520D01*
X6122730D01*
Y5325350D01*
X6127900D01*
Y5320180D01*
X6138240D01*
Y5315010D01*
X6143410D01*
Y5309840D01*
X6153750D01*
Y5304670D01*
X6158920D01*
Y5299500D01*
X6169260D01*
Y5294330D01*
X6174430D01*
Y5289160D01*
X6184770D01*
Y5283990D01*
X6189940D01*
Y5278820D01*
X6195110D01*
Y5273650D01*
X6200280D01*
Y5268480D01*
X6205450D01*
Y5263310D01*
X6210620D01*
Y5258140D01*
X6215790D01*
Y5252970D01*
X6220960D01*
Y5247800D01*
X6226130D01*
Y5242630D01*
X6231300D01*
Y5237460D01*
X6236470D01*
Y5232290D01*
X6241640D01*
Y5221950D01*
X6246810D01*
Y5211610D01*
X6251980D01*
Y5185760D01*
X6246810D01*
Y5175420D01*
X6241640D01*
Y5165080D01*
X6236470D01*
Y5159910D01*
X6231300D01*
Y5154740D01*
X6226130D01*
Y5149570D01*
X6220960D01*
Y5144400D01*
X6215790D01*
Y5139230D01*
X6205450D01*
Y5134060D01*
X6200280D01*
Y5128890D01*
X6189940D01*
Y5123720D01*
X6179600D01*
Y5118550D01*
X6169260D01*
Y5113380D01*
X6153750D01*
Y5108210D01*
X6138240D01*
Y5103040D01*
X6122730D01*
Y5097870D01*
X6102050D01*
Y5092700D01*
X6081370D01*
Y5087530D01*
X6060690D01*
Y5082360D01*
X6029670D01*
Y5077190D01*
X5998650D01*
Y5072020D01*
X5962460D01*
Y5066850D01*
X5921100D01*
Y5061680D01*
X5864230D01*
Y5056510D01*
X5791850D01*
Y5051340D01*
X5693620D01*
Y5046170D01*
X5088730D01*
Y5051340D01*
X4907780D01*
Y5056510D01*
X4757850D01*
Y5061680D01*
X4628600D01*
Y5066850D01*
X4494180D01*
Y5072020D01*
X4364930D01*
Y5077190D01*
X4220170D01*
Y5082360D01*
X4034050D01*
Y5087530D01*
X3816910D01*
Y5082360D01*
X3615280D01*
Y5087530D01*
X3573920D01*
Y5092700D01*
X3537730D01*
Y5097870D01*
X3511880D01*
Y5103040D01*
X3491200D01*
Y5108210D01*
X3470520D01*
Y5113380D01*
X3449840D01*
Y5118550D01*
X3434330D01*
Y5123720D01*
X3418820D01*
Y5128890D01*
X3403310D01*
Y5134060D01*
X3387800D01*
Y5139230D01*
X3372290D01*
Y5144400D01*
X3361950D01*
Y5149570D01*
X3346440D01*
Y5154740D01*
X3336100D01*
Y5159910D01*
X3320590D01*
Y5165080D01*
X3310250D01*
Y5170250D01*
X3299910D01*
Y5175420D01*
X3289570D01*
Y5180590D01*
X3279230D01*
Y5185760D01*
X3268890D01*
Y5190930D01*
X3258550D01*
Y5196100D01*
X3248210D01*
Y5201270D01*
X3237870D01*
Y5206440D01*
X3227530D01*
Y5211610D01*
X3217190D01*
Y5216780D01*
X3206850D01*
Y5221950D01*
X3201680D01*
Y5227120D01*
X3191340D01*
Y5232290D01*
X3181000D01*
Y5237460D01*
X3175830D01*
Y5242630D01*
X3165490D01*
Y5247800D01*
X3155150D01*
Y5252970D01*
X3149980D01*
Y5258140D01*
X3139640D01*
Y5263310D01*
X3134470D01*
Y5268480D01*
X3124130D01*
Y5273650D01*
X3118960D01*
Y5278820D01*
X3113790D01*
Y5283990D01*
X3103450D01*
Y5289160D01*
X3098280D01*
Y5294330D01*
X3093110D01*
Y5299500D01*
X3082770D01*
Y5304670D01*
X3077600D01*
Y5309840D01*
X3072430D01*
Y5315010D01*
X3062090D01*
Y5320180D01*
X3056920D01*
Y5325350D01*
X3051750D01*
Y5330520D01*
X3046580D01*
Y5335690D01*
X3041410D01*
Y5340860D01*
X3031070D01*
Y5346030D01*
X3025900D01*
Y5351200D01*
X3020730D01*
Y5356370D01*
X3015560D01*
Y5361540D01*
X3010390D01*
Y5366710D01*
X3005220D01*
Y5371880D01*
X3000050D01*
Y5377050D01*
X2994880D01*
Y5382220D01*
X2989710D01*
Y5387390D01*
X2984540D01*
Y5392560D01*
X2979370D01*
Y5397730D01*
X2974200D01*
Y5402900D01*
X2969030D01*
Y5408070D01*
X2963860D01*
Y5413240D01*
X2958690D01*
Y5418410D01*
X2953520D01*
Y5423580D01*
X2948350D01*
Y5433920D01*
X2943180D01*
Y5439090D01*
X2938010D01*
Y5444260D01*
X2932840D01*
Y5449430D01*
X2927670D01*
Y5454600D01*
X2922500D01*
Y5464940D01*
X2917330D01*
Y5470110D01*
X2912160D01*
Y5475280D01*
X2906990D01*
Y5485620D01*
X2901820D01*
Y5490790D01*
X2896650D01*
Y5501130D01*
X2891480D01*
Y5506300D01*
X2886310D01*
Y5516640D01*
X2881140D01*
Y5521810D01*
X2875970D01*
Y5532150D01*
X2870800D01*
Y5542490D01*
X2865630D01*
Y5552830D01*
X2860460D01*
Y5563170D01*
X2855290D01*
Y5573510D01*
X2850120D01*
Y5583850D01*
X2844950D01*
Y5594190D01*
X2839780D01*
Y5609700D01*
X2834610D01*
Y5625210D01*
X2829440D01*
Y5640720D01*
X2824270D01*
Y5661400D01*
X2819100D01*
Y5687250D01*
X2813930D01*
Y5811330D01*
X2819100D01*
Y5842350D01*
X2824270D01*
Y5868200D01*
X2829440D01*
Y5883710D01*
X2834610D01*
Y5899220D01*
X2839780D01*
Y5914730D01*
X2844950D01*
Y5925070D01*
X2850120D01*
Y5940580D01*
X2855290D01*
Y5950920D01*
X2860460D01*
Y5961260D01*
X2865630D01*
Y5971600D01*
X2870800D01*
Y5976770D01*
X2875970D01*
Y5987110D01*
X2881140D01*
Y5997450D01*
X2886310D01*
Y6002620D01*
X2891480D01*
Y6012960D01*
X2896650D01*
Y6018130D01*
X2901820D01*
Y6028470D01*
X2906990D01*
Y6033640D01*
X2912160D01*
Y6043980D01*
X2917330D01*
Y6049150D01*
X2922500D01*
Y6054320D01*
X2927670D01*
Y6059490D01*
X2932840D01*
Y6069830D01*
X2938010D01*
Y6075000D01*
X2943180D01*
Y6080170D01*
X2948350D01*
Y6085340D01*
X2953520D01*
Y6090510D01*
X2958690D01*
Y6100850D01*
X2963860D01*
Y6106020D01*
X2969030D01*
Y6111190D01*
X2974200D01*
Y6116360D01*
X2979370D01*
Y6121530D01*
X2984540D01*
Y6126700D01*
X2989710D01*
Y6131870D01*
X2994880D01*
Y6137040D01*
X3000050D01*
Y6142210D01*
X3005220D01*
Y6147380D01*
X3010390D01*
Y6152550D01*
X3015560D01*
Y6157720D01*
X3020730D01*
Y6162890D01*
X3025900D01*
Y6168060D01*
X3031070D01*
Y6173230D01*
X3036240D01*
Y6178400D01*
X3041410D01*
Y6183570D01*
X3046580D01*
Y6188740D01*
X3051750D01*
Y6193910D01*
X3056920D01*
Y6204250D01*
X3062090D01*
Y6209420D01*
X3067260D01*
Y6214590D01*
X3072430D01*
Y6219760D01*
X3077600D01*
Y6224930D01*
X3082770D01*
Y6230100D01*
X3087940D01*
Y6235270D01*
X3093110D01*
Y6240440D01*
X3098280D01*
Y6245610D01*
X3103450D01*
Y6250780D01*
X3108620D01*
Y6261120D01*
X3113790D01*
Y6266290D01*
X3118960D01*
Y6271460D01*
X3124130D01*
Y6276630D01*
X3129300D01*
Y6281800D01*
X3134470D01*
Y6286970D01*
X3139640D01*
Y6297310D01*
X3144810D01*
Y6302480D01*
X3149980D01*
Y6307650D01*
X3155150D01*
Y6312820D01*
X3160320D01*
Y6323160D01*
X3165490D01*
Y6328330D01*
X3170660D01*
Y6333500D01*
X3175830D01*
Y6343840D01*
X3181000D01*
Y6349010D01*
X3186170D01*
Y6354180D01*
X3191340D01*
Y6364520D01*
X3196510D01*
Y6369690D01*
X3201680D01*
Y6380030D01*
X3206850D01*
Y6385200D01*
X3212020D01*
Y6395540D01*
X3217190D01*
Y6405880D01*
X3222360D01*
Y6416220D01*
X3227530D01*
Y6426560D01*
X3232700D01*
Y6436900D01*
X3237870D01*
Y6447240D01*
X3243040D01*
Y6462750D01*
X3248210D01*
Y6478260D01*
X3253380D01*
Y6498940D01*
X3258550D01*
Y6592000D01*
X3253380D01*
Y6612680D01*
X3248210D01*
Y6628190D01*
X3243040D01*
Y6643700D01*
X3237870D01*
Y6659210D01*
X3232700D01*
Y6674720D01*
X3227530D01*
Y6685060D01*
X3222360D01*
Y6695400D01*
X3217190D01*
Y6710910D01*
X3212020D01*
Y6721250D01*
X3206850D01*
Y6731590D01*
X3201680D01*
Y6741930D01*
X3196510D01*
Y6747100D01*
X3191340D01*
Y6757440D01*
X3186170D01*
Y6762610D01*
X3181000D01*
Y6772950D01*
X3175830D01*
Y6778120D01*
X3170660D01*
Y6788460D01*
X3165490D01*
Y6793630D01*
X3160320D01*
Y6798800D01*
X3155150D01*
Y6809140D01*
X3149980D01*
Y6814310D01*
X3144810D01*
Y6819480D01*
X3139640D01*
Y6824650D01*
X3134470D01*
Y6829820D01*
X3129300D01*
Y6834990D01*
X3124130D01*
Y6840160D01*
X3118960D01*
Y6845330D01*
X3113790D01*
Y6850500D01*
X3108620D01*
Y6855670D01*
X3103450D01*
Y6860840D01*
X3098280D01*
Y6866010D01*
X3093110D01*
Y6871180D01*
X3087940D01*
Y6876350D01*
X3077600D01*
Y6881520D01*
X3072430D01*
Y6886690D01*
X3067260D01*
Y6891860D01*
X3062090D01*
Y6897030D01*
X3056920D01*
Y6902200D01*
X3046580D01*
Y6907370D01*
X3041410D01*
Y6912540D01*
X3036240D01*
Y6917710D01*
X3031070D01*
Y6922880D01*
X3025900D01*
Y6928050D01*
X3020730D01*
Y6933220D01*
X3010390D01*
Y6938390D01*
X3005220D01*
Y6943560D01*
X3000050D01*
Y6948730D01*
X2994880D01*
Y6953900D01*
X2989710D01*
Y6964240D01*
X2984540D01*
Y6969410D01*
X2979370D01*
Y6974580D01*
X2974200D01*
Y6984920D01*
X2969030D01*
Y6995260D01*
X2963860D01*
Y7021110D01*
X2969030D01*
Y7026280D01*
X2979370D01*
Y7031450D01*
X2989710D01*
Y7026280D01*
D02*
G37*
%LPC*%
G36*
X2788080Y7258930D02*
X2777740D01*
Y7253760D01*
Y7248590D01*
Y7243420D01*
X2793250D01*
Y7253760D01*
X2788080D01*
Y7258930D01*
D02*
G37*
G36*
X2881140Y7233080D02*
X2865630D01*
Y7222740D01*
X2870800D01*
Y7217570D01*
X2875970D01*
Y7222740D01*
X2881140D01*
Y7233080D01*
D02*
G37*
G36*
X2901820Y7160700D02*
X2886310D01*
Y7150360D01*
X2891480D01*
Y7145190D01*
X2896650D01*
Y7150360D01*
X2901820D01*
Y7160700D01*
D02*
G37*
G36*
X2839780Y7093490D02*
X2824270D01*
Y7083150D01*
X2829440D01*
Y7077980D01*
X2834610D01*
Y7083150D01*
X2839780D01*
Y7093490D01*
D02*
G37*
G36*
X2736380Y7202060D02*
X2726040D01*
Y7186550D01*
X2736380D01*
Y7191720D01*
X2741550D01*
Y7196890D01*
X2736380D01*
Y7202060D01*
D02*
G37*
G36*
X2762230Y7114170D02*
X2751890D01*
Y7098660D01*
X2762230D01*
Y7103830D01*
X2767400D01*
Y7109000D01*
X2762230D01*
Y7114170D01*
D02*
G37*
%LPD*%
%TF.MD5,74283485edf78500bda8b990597bcc5a*%
M02*
