%TF.GenerationSoftware,Altium Limited,Altium Designer,24.5.1 (21)*%
G04 Layer_Physical_Order=4*
G04 Layer_Color=16711680*
%FSLAX45Y45*%
%MOMM*%
%TF.SameCoordinates,583913BB-816E-4693-BEF2-A62C45BB8311*%
%TF.FilePolarity,Positive*%
%TF.FileFunction,Copper,L4,Bot,Signal*%
%TF.Part,Single*%
G01*
G75*
%TA.AperFunction,Conductor*%
%ADD38C,0.20000*%
%TA.AperFunction,ComponentPad*%
%ADD42P,2.26274X4X370.0*%
%ADD43C,1.80000*%
%ADD44C,1.60000*%
%ADD45R,3.75000X3.75000*%
%ADD46R,3.00000X3.00000*%
%ADD47C,1.52400*%
%ADD48C,1.40800*%
%ADD49R,1.77800X1.77800*%
%ADD50P,2.26274X4X80.0*%
%ADD51R,1.60000X1.60000*%
%ADD52R,1.60000X1.60000*%
%TA.AperFunction,ViaPad*%
%ADD53C,0.70000*%
%ADD54C,0.50000*%
%ADD55C,0.60000*%
%TA.AperFunction,Conductor*%
%ADD56C,2.54000*%
D38*
X2136000Y144000D02*
Y260000D01*
X2200000Y80000D02*
X3310000D01*
X2136000Y144000D02*
X2200000Y80000D01*
X2390000Y260000D02*
Y690000D01*
X2644000Y260000D02*
Y644000D01*
X4150000Y920000D02*
Y4771310D01*
X3310000Y80000D02*
X4150000Y920000D01*
X5610000Y344300D02*
X5684300Y270000D01*
X5610000Y344300D02*
Y5210000D01*
X5330000Y5490000D02*
X5610000Y5210000D01*
X4040000Y5250000D02*
X4420000Y5630000D01*
X4540000Y5161310D02*
Y5890000D01*
X4040000Y2040000D02*
Y5250000D01*
X4150000Y4771310D02*
X4540000Y5161310D01*
X2644000Y644000D02*
X4040000Y2040000D01*
X4450000Y4680000D02*
X4730000Y4960000D01*
X4310000Y810000D02*
X4450000Y950000D01*
Y4680000D01*
X4310000Y270000D02*
Y810000D01*
X4040000Y286000D02*
Y740000D01*
X4260000Y960000D02*
Y4720000D01*
X4040000Y740000D02*
X4260000Y960000D01*
X4040000Y286000D02*
X4056000Y270000D01*
X3940000Y2240000D02*
Y5300000D01*
X2390000Y690000D02*
X3940000Y2240000D01*
X4260000Y4720000D02*
X4610000Y5070000D01*
X3940000Y5300000D02*
X4250000Y5610000D01*
Y6250000D01*
X5010000Y6330000D02*
X5330000Y6010000D01*
Y5490000D02*
Y6010000D01*
X4420000Y5630000D02*
Y6660000D01*
X4730000Y6970000D01*
Y4960000D02*
Y6580000D01*
X4610000Y5070000D02*
Y6440000D01*
X4650000Y6480000D01*
X3720000Y6090000D02*
Y6330000D01*
X3210000Y5580000D02*
X3720000Y6090000D01*
X3130000Y5580000D02*
X3210000D01*
D42*
X5227536Y8096559D02*
D03*
X5112820Y7932728D02*
D03*
D43*
X5435600Y7950871D02*
D03*
X3488064Y8105688D02*
D03*
X1244600Y6680200D02*
D03*
X7747000D02*
D03*
D44*
X5320885Y7787040D02*
D03*
X3602780Y7941858D02*
D03*
X1244600Y6480200D02*
D03*
X7747000D02*
D03*
X7260000Y4960000D02*
D03*
D45*
X8310000Y5352300D02*
D03*
X8310000Y5890000D02*
D03*
D46*
X2238094Y2132559D02*
D03*
Y3796259D02*
D03*
X6455000Y3787525D02*
D03*
Y2123825D02*
D03*
D47*
X3761894Y3459524D02*
D03*
Y3261404D02*
D03*
Y3060744D02*
D03*
Y2860084D02*
D03*
Y2664504D02*
D03*
Y2461304D02*
D03*
X4931199Y2460560D02*
D03*
Y2658680D02*
D03*
Y2859340D02*
D03*
Y3060000D02*
D03*
Y3255580D02*
D03*
Y3458780D02*
D03*
D48*
X7850000Y5530000D02*
D03*
Y5780000D02*
D03*
Y6030000D02*
D03*
X7250000Y5530000D02*
D03*
Y5780000D02*
D03*
Y6030000D02*
D03*
D49*
X5684300Y270000D02*
D03*
X5938300D02*
D03*
X4564000D02*
D03*
X4310000D02*
D03*
X4056000D02*
D03*
X4818000D02*
D03*
X2644000Y260000D02*
D03*
X2898000D02*
D03*
X3152000D02*
D03*
X2390000D02*
D03*
X2136000D02*
D03*
D50*
X3394715Y7796170D02*
D03*
X3280000Y7960000D02*
D03*
D51*
X990600Y6480200D02*
D03*
Y6680200D02*
D03*
X7493000Y6480200D02*
D03*
Y6680200D02*
D03*
D52*
X7260000Y4710000D02*
D03*
D53*
X5680000Y4830000D02*
D03*
X4100000Y4840000D02*
D03*
X3851100Y4370610D02*
D03*
Y4517700D02*
D03*
X3621100Y4370610D02*
D03*
X3791100Y3990610D02*
D03*
X3621100Y4517700D02*
D03*
X3221100Y4030610D02*
D03*
X3731100Y4370610D02*
D03*
X3021100Y4030610D02*
D03*
X3731100Y4517700D02*
D03*
X3361100Y4160610D02*
D03*
X5440000Y4370000D02*
D03*
X5320000Y4500000D02*
D03*
X4820000Y4020000D02*
D03*
X4970000Y4720000D02*
D03*
X5320000Y4370000D02*
D03*
X5440000Y4500000D02*
D03*
X5210000D02*
D03*
X5380000Y3980000D02*
D03*
X4960000Y4060000D02*
D03*
Y4560000D02*
D03*
X5210000Y4370000D02*
D03*
X4620000Y4020000D02*
D03*
D54*
X6350000Y6170000D02*
D03*
X5855000Y6404843D02*
D03*
X2720000Y5700000D02*
D03*
X4176600Y5890300D02*
D03*
X3720000Y6330000D02*
D03*
X3130000Y5580000D02*
D03*
X7010000Y7198508D02*
D03*
X4600000Y8000000D02*
D03*
X4000000Y7475000D02*
D03*
X6690000Y5620000D02*
D03*
X6510000Y5580000D02*
D03*
X6390000D02*
D03*
X5250000Y7240000D02*
D03*
X4070000Y5990000D02*
D03*
X5981700Y7975600D02*
D03*
X3604100Y7045300D02*
D03*
X3516600Y6962800D02*
D03*
X5171600Y6487800D02*
D03*
X5119100Y6412800D02*
D03*
X4759100Y7465300D02*
D03*
X4094100Y7582800D02*
D03*
X4831600Y7397800D02*
D03*
D55*
X6560000Y6430000D02*
D03*
X5180000Y6930000D02*
D03*
X700000Y5012500D02*
D03*
Y5122500D02*
D03*
Y5482500D02*
D03*
Y5592500D02*
D03*
X690000Y5932500D02*
D03*
Y6052500D02*
D03*
X7080000Y5680000D02*
D03*
X6970000Y5580000D02*
D03*
X6970000Y5380000D02*
D03*
Y5480000D02*
D03*
X7080000Y5380000D02*
D03*
X7080000Y5580000D02*
D03*
X7080000Y5480000D02*
D03*
X6970000Y5680000D02*
D03*
X3220000Y4440000D02*
D03*
X3371100Y4560610D02*
D03*
Y4720610D02*
D03*
X3031100Y4512700D02*
D03*
X5430000Y5280000D02*
D03*
X4610000Y4520000D02*
D03*
X4820000Y4440000D02*
D03*
X5430000Y5510000D02*
D03*
X2150000Y4970000D02*
D03*
Y5120000D02*
D03*
X5144300Y570000D02*
D03*
X6090000Y4910000D02*
D03*
X2150000Y5260000D02*
D03*
X4540000Y5890000D02*
D03*
X5010000Y6330000D02*
D03*
X4730000Y6580000D02*
D03*
X4650000Y6480000D02*
D03*
X4730000Y6970000D02*
D03*
X4250000Y6250000D02*
D03*
X4390000Y8500000D02*
D03*
X5390000Y6010000D02*
D03*
X2850000Y5960000D02*
D03*
Y5850000D02*
D03*
X6240000Y5880000D02*
D03*
Y5970000D02*
D03*
X2990000Y5580000D02*
D03*
X4827300Y5382300D02*
D03*
Y5512300D02*
D03*
Y5642300D02*
D03*
X6137300Y5112300D02*
D03*
X2019599Y6902200D02*
D03*
X1861700Y7405400D02*
D03*
X6310000Y7190000D02*
D03*
D56*
X7250000Y5530000D02*
X7690000Y5090000D01*
X8047700D01*
X8310000Y5352300D01*
%TF.MD5,50ff61b83f77d4e7029926d608855742*%
M02*
