%TF.GenerationSoftware,Altium Limited,Altium Designer,24.5.1 (21)*%
G04 Layer_Color=32768*
%FSLAX45Y45*%
%MOMM*%
%TF.SameCoordinates,583913BB-816E-4693-BEF2-A62C45BB8311*%
%TF.FilePolarity,Positive*%
%TF.FileFunction,Other,Top_Courtyard*%
%TF.Part,Single*%
G01*
G75*
%TA.AperFunction,NonConductor*%
%ADD60C,0.20000*%
%ADD63C,0.15240*%
%ADD96C,0.10000*%
%ADD98C,0.05000*%
G36*
X2916985Y5954345D02*
Y6046785D01*
X2959025D01*
D01*
X3184825D01*
D01*
X3226865D01*
Y5954345D01*
D01*
Y5778545D01*
D01*
Y5686105D01*
X3184825D01*
D01*
X2959025D01*
D01*
X2916985D01*
Y5778545D01*
D01*
Y5954345D01*
D01*
D02*
G37*
G36*
X3487260Y4665400D02*
Y4811450D01*
X3974940D01*
Y4665400D01*
X4006690D01*
Y4215820D01*
X3974940D01*
Y4069770D01*
X3487260D01*
Y4215820D01*
X3455510D01*
Y4665400D01*
X3487260D01*
D02*
G37*
G36*
X5076160Y4664790D02*
Y4810840D01*
X5563840D01*
Y4664790D01*
X5595590D01*
Y4215210D01*
X5563840D01*
Y4069160D01*
X5076160D01*
Y4215210D01*
X5044410D01*
Y4664790D01*
X5076160D01*
D02*
G37*
D60*
X7260000Y4485000D02*
G03*
X7260000Y5185000I0J350000D01*
G01*
D02*
G03*
X7260000Y4485000I0J-350000D01*
G01*
X5705000Y6680000D02*
X6015000D01*
X5705000Y6342929D02*
Y6680000D01*
Y6342929D02*
X6015000D01*
Y6680000D01*
D63*
X3487260Y4665400D02*
Y4811450D01*
X3455510Y4665400D02*
X3487260D01*
X3455510Y4215820D02*
Y4665400D01*
Y4215820D02*
X3487260D01*
Y4069770D02*
Y4215820D01*
Y4069770D02*
X3974940D01*
Y4215820D01*
X4006690D01*
Y4665400D01*
X3974940D02*
X4006690D01*
X3974940D02*
Y4811450D01*
X3487260D02*
X3974940D01*
X2916985Y5954345D02*
Y6046785D01*
Y5778545D02*
Y5954345D01*
Y5686105D02*
Y5778545D01*
Y5686105D02*
X2959025D01*
X3184825D01*
X3226865D01*
Y5778545D01*
Y5954345D01*
Y6046785D01*
X3184825D02*
X3226865D01*
X2959025D02*
X3184825D01*
X2916985D02*
X2959025D01*
X5076160Y4664790D02*
Y4810840D01*
X5044410Y4664790D02*
X5076160D01*
X5044410Y4215210D02*
Y4664790D01*
Y4215210D02*
X5076160D01*
Y4069160D02*
Y4215210D01*
Y4069160D02*
X5563840D01*
Y4215210D01*
X5595590D01*
Y4664790D01*
X5563840D02*
X5595590D01*
X5563840D02*
Y4810840D01*
X5076160D02*
X5563840D01*
D96*
X4319168Y6700612D02*
X4389879Y6771323D01*
X4319168Y6771323D02*
X4389879Y6700612D01*
X5304800Y5512300D02*
X5404800D01*
X5354800Y5462300D02*
Y5562300D01*
D98*
X7125000Y5355000D02*
Y6205000D01*
X7975000D01*
Y5355000D02*
Y6205000D01*
X7125000Y5355000D02*
X7975000D01*
X4354524Y7683491D02*
X5302047Y6735967D01*
X3407001D02*
X4354524Y5788444D01*
X5302047Y6735967D01*
X3407001D02*
X4354524Y7683491D01*
X5779800Y5152300D02*
Y5872300D01*
X4929800Y5152300D02*
Y5872300D01*
Y5152300D02*
X5779800D01*
X4929800Y5872300D02*
X5779800D01*
X757900Y6246000D02*
X1232900D01*
Y5866000D02*
Y6246000D01*
X757900Y5866000D02*
X1232900D01*
X757900D02*
Y6246000D01*
Y5786000D02*
X1232900D01*
Y5406000D02*
Y5786000D01*
X757900Y5406000D02*
X1232900D01*
X757900D02*
Y5786000D01*
Y5315600D02*
X1232900D01*
Y4935600D02*
Y5315600D01*
X757900Y4935600D02*
X1232900D01*
X757900D02*
Y5315600D01*
%TF.MD5,421002e26655dc0a2c96a1990dd28ff2*%
M02*
