%TF.GenerationSoftware,Altium Limited,Altium Designer,24.5.1 (21)*%
G04 Layer_Color=16711935*
%FSLAX45Y45*%
%MOMM*%
%TF.SameCoordinates,583913BB-816E-4693-BEF2-A62C45BB8311*%
%TF.FilePolarity,Positive*%
%TF.FileFunction,Other,Top_3D_Body*%
%TF.Part,Single*%
G01*
G75*
%TA.AperFunction,NonConductor*%
%ADD59C,0.12700*%
%ADD60C,0.20000*%
%ADD62C,0.15000*%
%ADD96C,0.10000*%
%ADD97C,0.00000*%
%ADD98C,0.05000*%
%ADD99C,0.02540*%
%ADD100C,0.07000*%
%ADD101C,0.07620*%
%ADD102R,0.60000X0.25000*%
%ADD103R,0.25000X0.60000*%
G36*
X2284857Y6490010D02*
X2280511D01*
X2263731Y6515158D01*
Y6490010D01*
X2259662D01*
Y6522000D01*
X2264054D01*
X2280789Y6496898D01*
Y6522000D01*
X2284857D01*
Y6490010D01*
D02*
G37*
G36*
X2249400Y6521954D02*
Y6521815D01*
Y6521630D01*
X2249354Y6521353D01*
Y6520983D01*
X2249307Y6520521D01*
X2249261Y6520012D01*
X2249215Y6519457D01*
X2249123Y6518810D01*
X2249030Y6518163D01*
X2248891Y6517377D01*
X2248753Y6516591D01*
X2248614Y6515759D01*
X2248429Y6514835D01*
X2247967Y6512939D01*
Y6512893D01*
X2247921Y6512708D01*
X2247828Y6512431D01*
X2247689Y6512015D01*
X2247551Y6511552D01*
X2247366Y6510998D01*
X2247181Y6510350D01*
X2246904Y6509657D01*
X2246626Y6508871D01*
X2246349Y6508085D01*
X2245655Y6506329D01*
X2244823Y6504479D01*
X2243899Y6502630D01*
X2243853Y6502584D01*
X2243760Y6502399D01*
X2243621Y6502168D01*
X2243436Y6501798D01*
X2243205Y6501382D01*
X2242882Y6500874D01*
X2242558Y6500319D01*
X2242188Y6499718D01*
X2241310Y6498377D01*
X2240385Y6496991D01*
X2239322Y6495557D01*
X2238213Y6494217D01*
X2253884D01*
Y6490426D01*
X2233174D01*
Y6493523D01*
X2233220Y6493570D01*
X2233313Y6493662D01*
X2233497Y6493847D01*
X2233682Y6494124D01*
X2233960Y6494448D01*
X2234330Y6494818D01*
X2234699Y6495280D01*
X2235115Y6495835D01*
X2235531Y6496390D01*
X2236040Y6497037D01*
X2236548Y6497776D01*
X2237057Y6498516D01*
X2237612Y6499348D01*
X2238166Y6500227D01*
X2238721Y6501197D01*
X2239276Y6502168D01*
X2239322Y6502214D01*
X2239415Y6502399D01*
X2239553Y6502677D01*
X2239784Y6503093D01*
X2240016Y6503601D01*
X2240293Y6504156D01*
X2240617Y6504803D01*
X2240940Y6505543D01*
X2241310Y6506375D01*
X2241726Y6507207D01*
X2242096Y6508132D01*
X2242466Y6509102D01*
X2243205Y6511090D01*
X2243899Y6513217D01*
Y6513263D01*
X2243945Y6513402D01*
X2243991Y6513633D01*
X2244084Y6513910D01*
X2244176Y6514280D01*
X2244269Y6514742D01*
X2244407Y6515251D01*
X2244500Y6515805D01*
X2244638Y6516453D01*
X2244777Y6517146D01*
X2245008Y6518625D01*
X2245239Y6520243D01*
X2245378Y6522000D01*
X2249400D01*
Y6521954D01*
D02*
G37*
G36*
X2311854D02*
Y6521769D01*
Y6521491D01*
X2311808Y6521122D01*
X2311761Y6520706D01*
X2311669Y6520243D01*
X2311577Y6519781D01*
X2311392Y6519272D01*
Y6519226D01*
X2311345Y6519180D01*
X2311253Y6518903D01*
X2311068Y6518487D01*
X2310791Y6517932D01*
X2310421Y6517285D01*
X2309959Y6516545D01*
X2309450Y6515805D01*
X2308803Y6515019D01*
Y6514973D01*
X2308710Y6514927D01*
X2308479Y6514650D01*
X2308063Y6514234D01*
X2307462Y6513633D01*
X2306769Y6512939D01*
X2305890Y6512107D01*
X2304827Y6511183D01*
X2303672Y6510212D01*
X2303625Y6510166D01*
X2303440Y6510027D01*
X2303163Y6509796D01*
X2302839Y6509518D01*
X2302423Y6509149D01*
X2301915Y6508732D01*
X2301406Y6508270D01*
X2300805Y6507762D01*
X2299650Y6506652D01*
X2298494Y6505543D01*
X2297939Y6504988D01*
X2297431Y6504433D01*
X2296968Y6503925D01*
X2296599Y6503416D01*
Y6503370D01*
X2296506Y6503324D01*
X2296414Y6503185D01*
X2296321Y6503000D01*
X2295998Y6502492D01*
X2295628Y6501891D01*
X2295304Y6501151D01*
X2294981Y6500365D01*
X2294796Y6499487D01*
X2294703Y6498655D01*
Y6498609D01*
Y6498562D01*
X2294750Y6498285D01*
X2294796Y6497823D01*
X2294934Y6497314D01*
X2295119Y6496667D01*
X2295443Y6496020D01*
X2295859Y6495373D01*
X2296414Y6494725D01*
X2296506Y6494633D01*
X2296737Y6494448D01*
X2297061Y6494217D01*
X2297569Y6493893D01*
X2298217Y6493616D01*
X2298956Y6493339D01*
X2299835Y6493154D01*
X2300805Y6493107D01*
X2301083D01*
X2301268Y6493154D01*
X2301822Y6493200D01*
X2302470Y6493339D01*
X2303163Y6493523D01*
X2303949Y6493847D01*
X2304689Y6494263D01*
X2305382Y6494818D01*
X2305474Y6494910D01*
X2305659Y6495141D01*
X2305937Y6495511D01*
X2306214Y6496066D01*
X2306538Y6496713D01*
X2306815Y6497545D01*
X2307000Y6498470D01*
X2307092Y6499533D01*
X2311114Y6499117D01*
Y6499071D01*
X2311068Y6498932D01*
Y6498701D01*
X2311022Y6498377D01*
X2310929Y6498008D01*
X2310837Y6497592D01*
X2310698Y6497083D01*
X2310560Y6496575D01*
X2310190Y6495465D01*
X2309635Y6494356D01*
X2309311Y6493801D01*
X2308895Y6493246D01*
X2308479Y6492738D01*
X2308017Y6492275D01*
X2307971Y6492229D01*
X2307878Y6492183D01*
X2307740Y6492044D01*
X2307508Y6491905D01*
X2307231Y6491721D01*
X2306908Y6491536D01*
X2306538Y6491305D01*
X2306075Y6491073D01*
X2305567Y6490842D01*
X2305012Y6490611D01*
X2304411Y6490426D01*
X2303764Y6490241D01*
X2303071Y6490103D01*
X2302331Y6489964D01*
X2301545Y6489918D01*
X2300713Y6489871D01*
X2300251D01*
X2299927Y6489918D01*
X2299557Y6489964D01*
X2299095Y6490010D01*
X2298586Y6490103D01*
X2298078Y6490195D01*
X2296876Y6490519D01*
X2295674Y6490981D01*
X2295073Y6491258D01*
X2294472Y6491582D01*
X2293917Y6491998D01*
X2293409Y6492460D01*
X2293363Y6492506D01*
X2293270Y6492553D01*
X2293178Y6492738D01*
X2292993Y6492922D01*
X2292762Y6493154D01*
X2292531Y6493477D01*
X2292299Y6493801D01*
X2292022Y6494217D01*
X2291560Y6495095D01*
X2291098Y6496205D01*
X2290913Y6496759D01*
X2290820Y6497407D01*
X2290728Y6498054D01*
X2290681Y6498747D01*
Y6498840D01*
Y6499071D01*
X2290728Y6499441D01*
X2290774Y6499949D01*
X2290866Y6500504D01*
X2291051Y6501151D01*
X2291236Y6501845D01*
X2291514Y6502538D01*
X2291560Y6502630D01*
X2291652Y6502862D01*
X2291837Y6503231D01*
X2292115Y6503740D01*
X2292484Y6504295D01*
X2292947Y6504988D01*
X2293501Y6505681D01*
X2294149Y6506467D01*
X2294241Y6506560D01*
X2294472Y6506837D01*
X2294703Y6507068D01*
X2294934Y6507299D01*
X2295212Y6507577D01*
X2295582Y6507947D01*
X2295951Y6508316D01*
X2296414Y6508732D01*
X2296876Y6509195D01*
X2297431Y6509703D01*
X2298032Y6510212D01*
X2298679Y6510813D01*
X2299419Y6511414D01*
X2300158Y6512061D01*
X2300204Y6512107D01*
X2300297Y6512200D01*
X2300482Y6512338D01*
X2300713Y6512523D01*
X2300990Y6512801D01*
X2301314Y6513078D01*
X2302054Y6513679D01*
X2302839Y6514372D01*
X2303579Y6515066D01*
X2304226Y6515667D01*
X2304504Y6515898D01*
X2304735Y6516129D01*
X2304781Y6516175D01*
X2304920Y6516314D01*
X2305105Y6516499D01*
X2305336Y6516776D01*
X2305567Y6517100D01*
X2305844Y6517423D01*
X2306399Y6518209D01*
X2290635D01*
Y6522000D01*
X2311854D01*
Y6521954D01*
D02*
G37*
G36*
X2219629Y6522508D02*
X2219999Y6522462D01*
X2220461Y6522370D01*
X2220970Y6522277D01*
X2221524Y6522139D01*
X2222079Y6521954D01*
X2222680Y6521769D01*
X2223281Y6521491D01*
X2223882Y6521168D01*
X2224483Y6520798D01*
X2225084Y6520336D01*
X2225639Y6519827D01*
X2226147Y6519272D01*
X2226193Y6519226D01*
X2226286Y6519088D01*
X2226425Y6518856D01*
X2226656Y6518487D01*
X2226887Y6518071D01*
X2227118Y6517516D01*
X2227442Y6516869D01*
X2227719Y6516129D01*
X2227996Y6515297D01*
X2228274Y6514326D01*
X2228551Y6513263D01*
X2228782Y6512061D01*
X2229013Y6510767D01*
X2229152Y6509380D01*
X2229244Y6507854D01*
X2229291Y6506236D01*
Y6506190D01*
Y6506005D01*
Y6505681D01*
Y6505312D01*
X2229244Y6504803D01*
Y6504248D01*
X2229198Y6503647D01*
X2229152Y6502954D01*
X2229013Y6501521D01*
X2228782Y6499995D01*
X2228505Y6498470D01*
X2228320Y6497776D01*
X2228135Y6497083D01*
Y6497037D01*
X2228089Y6496944D01*
X2227996Y6496759D01*
X2227904Y6496528D01*
X2227811Y6496205D01*
X2227626Y6495881D01*
X2227257Y6495095D01*
X2226794Y6494263D01*
X2226193Y6493385D01*
X2225500Y6492506D01*
X2224668Y6491767D01*
X2224622D01*
X2224575Y6491674D01*
X2224437Y6491582D01*
X2224252Y6491489D01*
X2224021Y6491305D01*
X2223743Y6491166D01*
X2223050Y6490796D01*
X2222218Y6490472D01*
X2221247Y6490149D01*
X2220091Y6489964D01*
X2218843Y6489871D01*
X2218427D01*
X2217919Y6489918D01*
X2217318Y6490010D01*
X2216624Y6490149D01*
X2215885Y6490334D01*
X2215099Y6490565D01*
X2214359Y6490935D01*
X2214313D01*
X2214267Y6490981D01*
X2214035Y6491120D01*
X2213666Y6491351D01*
X2213203Y6491674D01*
X2212695Y6492137D01*
X2212140Y6492645D01*
X2211632Y6493246D01*
X2211123Y6493940D01*
X2211077Y6494032D01*
X2210892Y6494263D01*
X2210707Y6494679D01*
X2210383Y6495280D01*
X2210106Y6495974D01*
X2209736Y6496759D01*
X2209413Y6497684D01*
X2209135Y6498701D01*
Y6498747D01*
X2209089Y6498840D01*
X2209043Y6498978D01*
X2208997Y6499210D01*
X2208950Y6499487D01*
X2208904Y6499810D01*
X2208812Y6500227D01*
X2208765Y6500689D01*
X2208673Y6501197D01*
X2208627Y6501752D01*
X2208581Y6502399D01*
X2208488Y6503046D01*
X2208442Y6503786D01*
Y6504526D01*
X2208396Y6505358D01*
Y6506236D01*
Y6506282D01*
Y6506467D01*
Y6506791D01*
Y6507161D01*
X2208442Y6507669D01*
Y6508224D01*
X2208488Y6508825D01*
X2208534Y6509472D01*
X2208673Y6510951D01*
X2208904Y6512477D01*
X2209182Y6513956D01*
X2209366Y6514650D01*
X2209598Y6515343D01*
Y6515389D01*
X2209644Y6515482D01*
X2209736Y6515667D01*
X2209829Y6515898D01*
X2209921Y6516221D01*
X2210106Y6516545D01*
X2210476Y6517331D01*
X2210938Y6518163D01*
X2211539Y6519088D01*
X2212233Y6519920D01*
X2213065Y6520706D01*
X2213111D01*
X2213157Y6520798D01*
X2213296Y6520890D01*
X2213481Y6520983D01*
X2213712Y6521122D01*
X2213943Y6521306D01*
X2214636Y6521630D01*
X2215469Y6521954D01*
X2216439Y6522277D01*
X2217595Y6522462D01*
X2218843Y6522555D01*
X2219305D01*
X2219629Y6522508D01*
D02*
G37*
G36*
X2194758D02*
X2195128Y6522462D01*
X2195590Y6522370D01*
X2196099Y6522277D01*
X2196654Y6522139D01*
X2197208Y6521954D01*
X2197809Y6521769D01*
X2198410Y6521491D01*
X2199011Y6521168D01*
X2199612Y6520798D01*
X2200213Y6520336D01*
X2200768Y6519827D01*
X2201277Y6519272D01*
X2201323Y6519226D01*
X2201415Y6519088D01*
X2201554Y6518856D01*
X2201785Y6518487D01*
X2202016Y6518071D01*
X2202247Y6517516D01*
X2202571Y6516869D01*
X2202848Y6516129D01*
X2203126Y6515297D01*
X2203403Y6514326D01*
X2203680Y6513263D01*
X2203912Y6512061D01*
X2204143Y6510767D01*
X2204281Y6509380D01*
X2204374Y6507854D01*
X2204420Y6506236D01*
Y6506190D01*
Y6506005D01*
Y6505681D01*
Y6505312D01*
X2204374Y6504803D01*
Y6504248D01*
X2204328Y6503647D01*
X2204281Y6502954D01*
X2204143Y6501521D01*
X2203912Y6499995D01*
X2203634Y6498470D01*
X2203449Y6497776D01*
X2203264Y6497083D01*
Y6497037D01*
X2203218Y6496944D01*
X2203126Y6496759D01*
X2203033Y6496528D01*
X2202941Y6496205D01*
X2202756Y6495881D01*
X2202386Y6495095D01*
X2201924Y6494263D01*
X2201323Y6493385D01*
X2200629Y6492506D01*
X2199797Y6491767D01*
X2199751D01*
X2199705Y6491674D01*
X2199566Y6491582D01*
X2199381Y6491489D01*
X2199150Y6491305D01*
X2198873Y6491166D01*
X2198179Y6490796D01*
X2197347Y6490472D01*
X2196376Y6490149D01*
X2195221Y6489964D01*
X2193972Y6489871D01*
X2193556D01*
X2193048Y6489918D01*
X2192447Y6490010D01*
X2191754Y6490149D01*
X2191014Y6490334D01*
X2190228Y6490565D01*
X2189488Y6490935D01*
X2189442D01*
X2189396Y6490981D01*
X2189165Y6491120D01*
X2188795Y6491351D01*
X2188333Y6491674D01*
X2187824Y6492137D01*
X2187269Y6492645D01*
X2186761Y6493246D01*
X2186252Y6493940D01*
X2186206Y6494032D01*
X2186021Y6494263D01*
X2185836Y6494679D01*
X2185513Y6495280D01*
X2185235Y6495974D01*
X2184866Y6496759D01*
X2184542Y6497684D01*
X2184265Y6498701D01*
Y6498747D01*
X2184218Y6498840D01*
X2184172Y6498978D01*
X2184126Y6499210D01*
X2184080Y6499487D01*
X2184033Y6499810D01*
X2183941Y6500227D01*
X2183895Y6500689D01*
X2183802Y6501197D01*
X2183756Y6501752D01*
X2183710Y6502399D01*
X2183617Y6503046D01*
X2183571Y6503786D01*
Y6504526D01*
X2183525Y6505358D01*
Y6506236D01*
Y6506282D01*
Y6506467D01*
Y6506791D01*
Y6507161D01*
X2183571Y6507669D01*
Y6508224D01*
X2183617Y6508825D01*
X2183664Y6509472D01*
X2183802Y6510951D01*
X2184033Y6512477D01*
X2184311Y6513956D01*
X2184496Y6514650D01*
X2184727Y6515343D01*
Y6515389D01*
X2184773Y6515482D01*
X2184866Y6515667D01*
X2184958Y6515898D01*
X2185050Y6516221D01*
X2185235Y6516545D01*
X2185605Y6517331D01*
X2186068Y6518163D01*
X2186668Y6519088D01*
X2187362Y6519920D01*
X2188194Y6520706D01*
X2188240D01*
X2188286Y6520798D01*
X2188425Y6520890D01*
X2188610Y6520983D01*
X2188841Y6521122D01*
X2189072Y6521306D01*
X2189766Y6521630D01*
X2190598Y6521954D01*
X2191569Y6522277D01*
X2192724Y6522462D01*
X2193972Y6522555D01*
X2194435D01*
X2194758Y6522508D01*
D02*
G37*
G36*
X2180104Y6521954D02*
Y6521769D01*
Y6521491D01*
X2180058Y6521122D01*
X2180012Y6520706D01*
X2179919Y6520243D01*
X2179827Y6519781D01*
X2179642Y6519272D01*
Y6519226D01*
X2179596Y6519180D01*
X2179503Y6518903D01*
X2179318Y6518487D01*
X2179041Y6517932D01*
X2178671Y6517285D01*
X2178209Y6516545D01*
X2177700Y6515805D01*
X2177053Y6515019D01*
Y6514973D01*
X2176961Y6514927D01*
X2176729Y6514650D01*
X2176313Y6514234D01*
X2175712Y6513633D01*
X2175019Y6512939D01*
X2174141Y6512107D01*
X2173077Y6511183D01*
X2171922Y6510212D01*
X2171876Y6510166D01*
X2171691Y6510027D01*
X2171413Y6509796D01*
X2171090Y6509518D01*
X2170674Y6509149D01*
X2170165Y6508732D01*
X2169657Y6508270D01*
X2169056Y6507762D01*
X2167900Y6506652D01*
X2166744Y6505543D01*
X2166189Y6504988D01*
X2165681Y6504433D01*
X2165219Y6503925D01*
X2164849Y6503416D01*
Y6503370D01*
X2164756Y6503324D01*
X2164664Y6503185D01*
X2164571Y6503000D01*
X2164248Y6502492D01*
X2163878Y6501891D01*
X2163554Y6501151D01*
X2163231Y6500365D01*
X2163046Y6499487D01*
X2162954Y6498655D01*
Y6498609D01*
Y6498562D01*
X2163000Y6498285D01*
X2163046Y6497823D01*
X2163185Y6497314D01*
X2163370Y6496667D01*
X2163693Y6496020D01*
X2164109Y6495373D01*
X2164664Y6494725D01*
X2164756Y6494633D01*
X2164988Y6494448D01*
X2165311Y6494217D01*
X2165820Y6493893D01*
X2166467Y6493616D01*
X2167206Y6493339D01*
X2168085Y6493154D01*
X2169056Y6493107D01*
X2169333D01*
X2169518Y6493154D01*
X2170073Y6493200D01*
X2170720Y6493339D01*
X2171413Y6493523D01*
X2172199Y6493847D01*
X2172939Y6494263D01*
X2173632Y6494818D01*
X2173725Y6494910D01*
X2173910Y6495141D01*
X2174187Y6495511D01*
X2174464Y6496066D01*
X2174788Y6496713D01*
X2175065Y6497545D01*
X2175250Y6498470D01*
X2175343Y6499533D01*
X2179364Y6499117D01*
Y6499071D01*
X2179318Y6498932D01*
Y6498701D01*
X2179272Y6498377D01*
X2179180Y6498008D01*
X2179087Y6497592D01*
X2178948Y6497083D01*
X2178810Y6496575D01*
X2178440Y6495465D01*
X2177885Y6494356D01*
X2177562Y6493801D01*
X2177146Y6493246D01*
X2176729Y6492738D01*
X2176267Y6492275D01*
X2176221Y6492229D01*
X2176128Y6492183D01*
X2175990Y6492044D01*
X2175759Y6491905D01*
X2175481Y6491721D01*
X2175158Y6491536D01*
X2174788Y6491305D01*
X2174326Y6491073D01*
X2173817Y6490842D01*
X2173262Y6490611D01*
X2172661Y6490426D01*
X2172014Y6490241D01*
X2171321Y6490103D01*
X2170581Y6489964D01*
X2169795Y6489918D01*
X2168963Y6489871D01*
X2168501D01*
X2168177Y6489918D01*
X2167807Y6489964D01*
X2167345Y6490010D01*
X2166837Y6490103D01*
X2166328Y6490195D01*
X2165126Y6490519D01*
X2163924Y6490981D01*
X2163323Y6491258D01*
X2162722Y6491582D01*
X2162168Y6491998D01*
X2161659Y6492460D01*
X2161613Y6492506D01*
X2161520Y6492553D01*
X2161428Y6492738D01*
X2161243Y6492922D01*
X2161012Y6493154D01*
X2160781Y6493477D01*
X2160550Y6493801D01*
X2160272Y6494217D01*
X2159810Y6495095D01*
X2159348Y6496205D01*
X2159163Y6496759D01*
X2159070Y6497407D01*
X2158978Y6498054D01*
X2158932Y6498747D01*
Y6498840D01*
Y6499071D01*
X2158978Y6499441D01*
X2159024Y6499949D01*
X2159117Y6500504D01*
X2159301Y6501151D01*
X2159486Y6501845D01*
X2159764Y6502538D01*
X2159810Y6502630D01*
X2159902Y6502862D01*
X2160087Y6503231D01*
X2160365Y6503740D01*
X2160735Y6504295D01*
X2161197Y6504988D01*
X2161752Y6505681D01*
X2162399Y6506467D01*
X2162491Y6506560D01*
X2162722Y6506837D01*
X2162954Y6507068D01*
X2163185Y6507299D01*
X2163462Y6507577D01*
X2163832Y6507947D01*
X2164202Y6508316D01*
X2164664Y6508732D01*
X2165126Y6509195D01*
X2165681Y6509703D01*
X2166282Y6510212D01*
X2166929Y6510813D01*
X2167669Y6511414D01*
X2168408Y6512061D01*
X2168455Y6512107D01*
X2168547Y6512200D01*
X2168732Y6512338D01*
X2168963Y6512523D01*
X2169241Y6512801D01*
X2169564Y6513078D01*
X2170304Y6513679D01*
X2171090Y6514372D01*
X2171829Y6515066D01*
X2172476Y6515667D01*
X2172754Y6515898D01*
X2172985Y6516129D01*
X2173031Y6516175D01*
X2173170Y6516314D01*
X2173355Y6516499D01*
X2173586Y6516776D01*
X2173817Y6517100D01*
X2174094Y6517423D01*
X2174649Y6518209D01*
X2158885D01*
Y6522000D01*
X2180104D01*
Y6521954D01*
D02*
G37*
G36*
X2266366Y6454491D02*
X2266412Y6454537D01*
X2266643Y6454722D01*
X2266920Y6454999D01*
X2267383Y6455323D01*
X2267891Y6455739D01*
X2268538Y6456201D01*
X2269278Y6456709D01*
X2270110Y6457218D01*
X2270156D01*
X2270202Y6457264D01*
X2270480Y6457449D01*
X2270942Y6457680D01*
X2271497Y6457958D01*
X2272144Y6458281D01*
X2272837Y6458605D01*
X2273531Y6458928D01*
X2274224Y6459206D01*
Y6455415D01*
X2274178D01*
X2274086Y6455323D01*
X2273901Y6455276D01*
X2273670Y6455138D01*
X2273392Y6454999D01*
X2273069Y6454814D01*
X2272283Y6454352D01*
X2271358Y6453843D01*
X2270434Y6453196D01*
X2269463Y6452456D01*
X2268492Y6451671D01*
X2268446Y6451624D01*
X2268400Y6451578D01*
X2268261Y6451439D01*
X2268076Y6451301D01*
X2267660Y6450839D01*
X2267105Y6450284D01*
X2266550Y6449637D01*
X2265949Y6448897D01*
X2265441Y6448157D01*
X2264979Y6447371D01*
X2262436D01*
Y6479500D01*
X2266366D01*
Y6454491D01*
D02*
G37*
G36*
X2282083Y6481950D02*
X2282268Y6481857D01*
X2282545Y6481765D01*
X2282869Y6481626D01*
X2283239Y6481441D01*
X2283655Y6481257D01*
X2284117Y6481025D01*
X2285134Y6480471D01*
X2286290Y6479823D01*
X2287538Y6478991D01*
X2288832Y6478067D01*
X2288879D01*
X2288971Y6478159D01*
X2289202Y6478252D01*
X2289433Y6478390D01*
X2289803Y6478529D01*
X2290173Y6478714D01*
X2290635Y6478853D01*
X2291144Y6479038D01*
X2291698Y6479223D01*
X2292299Y6479407D01*
X2293640Y6479731D01*
X2295119Y6479962D01*
X2295905Y6480008D01*
X2296691Y6480055D01*
X2297107D01*
X2297431Y6480008D01*
X2297801D01*
X2298263Y6479962D01*
X2298771Y6479870D01*
X2299326Y6479777D01*
X2300528Y6479546D01*
X2301869Y6479176D01*
X2303255Y6478668D01*
X2303903Y6478344D01*
X2304596Y6477974D01*
X2304642Y6477928D01*
X2304735Y6477882D01*
X2304920Y6477743D01*
X2305151Y6477605D01*
X2305474Y6477373D01*
X2305798Y6477096D01*
X2306584Y6476449D01*
X2307462Y6475617D01*
X2308341Y6474600D01*
X2309219Y6473444D01*
X2310005Y6472103D01*
Y6472057D01*
X2310097Y6471918D01*
X2310190Y6471734D01*
X2310282Y6471456D01*
X2310421Y6471086D01*
X2310606Y6470670D01*
X2310791Y6470162D01*
X2310929Y6469607D01*
X2311114Y6469006D01*
X2311299Y6468359D01*
X2311438Y6467665D01*
X2311623Y6466880D01*
X2311808Y6465262D01*
X2311900Y6463551D01*
Y6463505D01*
Y6463320D01*
Y6463089D01*
X2311854Y6462765D01*
Y6462349D01*
X2311808Y6461841D01*
X2311761Y6461286D01*
X2311669Y6460685D01*
X2311438Y6459344D01*
X2311114Y6457911D01*
X2310652Y6456386D01*
X2310005Y6454907D01*
X2309959Y6454860D01*
X2309912Y6454722D01*
X2309820Y6454537D01*
X2309635Y6454259D01*
X2309450Y6453936D01*
X2309219Y6453566D01*
X2308572Y6452688D01*
X2307832Y6451763D01*
X2306861Y6450792D01*
X2305798Y6449821D01*
X2304550Y6448989D01*
X2304504Y6448943D01*
X2304365Y6448897D01*
X2304180Y6448804D01*
X2303903Y6448666D01*
X2303579Y6448527D01*
X2303209Y6448342D01*
X2302747Y6448157D01*
X2302238Y6447972D01*
X2301638Y6447787D01*
X2301037Y6447603D01*
X2299696Y6447279D01*
X2298217Y6447048D01*
X2297431Y6446955D01*
X2296183D01*
X2295859Y6447002D01*
X2295443D01*
X2295027Y6447048D01*
X2294472Y6447140D01*
X2293917Y6447233D01*
X2292716Y6447464D01*
X2291329Y6447834D01*
X2289988Y6448388D01*
X2289295Y6448712D01*
X2288601Y6449082D01*
X2288555Y6449128D01*
X2288463Y6449174D01*
X2288278Y6449313D01*
X2288000Y6449452D01*
X2287723Y6449683D01*
X2287353Y6449960D01*
X2286567Y6450607D01*
X2285735Y6451439D01*
X2284811Y6452456D01*
X2283932Y6453658D01*
X2283193Y6454999D01*
Y6455045D01*
X2283100Y6455184D01*
X2283008Y6455369D01*
X2282915Y6455646D01*
X2282730Y6456016D01*
X2282592Y6456432D01*
X2282407Y6456941D01*
X2282222Y6457495D01*
X2282083Y6458096D01*
X2281898Y6458743D01*
X2281713Y6459437D01*
X2281575Y6460177D01*
X2281390Y6461795D01*
X2281297Y6463505D01*
Y6463551D01*
Y6463690D01*
Y6463875D01*
Y6464152D01*
X2281343Y6464522D01*
Y6464938D01*
X2281390Y6465400D01*
X2281436Y6465863D01*
X2281575Y6466972D01*
X2281806Y6468174D01*
X2282083Y6469422D01*
X2282499Y6470624D01*
Y6470670D01*
X2282545Y6470763D01*
X2282638Y6470948D01*
X2282730Y6471133D01*
X2282869Y6471410D01*
X2283008Y6471734D01*
X2283377Y6472473D01*
X2283886Y6473352D01*
X2284533Y6474276D01*
X2285273Y6475201D01*
X2286105Y6476125D01*
X2286059D01*
X2285966Y6476218D01*
X2285828Y6476310D01*
X2285596Y6476449D01*
X2285365Y6476634D01*
X2285042Y6476819D01*
X2284348Y6477235D01*
X2283516Y6477743D01*
X2282592Y6478252D01*
X2281621Y6478668D01*
X2280696Y6479084D01*
X2281944Y6481996D01*
X2281991D01*
X2282083Y6481950D01*
D02*
G37*
G36*
X4326438Y8160500D02*
X4322046D01*
X4305311Y8185602D01*
Y8160500D01*
X4301243D01*
Y8192490D01*
X4305589D01*
X4322370Y8167342D01*
Y8192490D01*
X4326438D01*
Y8160500D01*
D02*
G37*
G36*
X4417923Y8192582D02*
X4418293Y8192536D01*
X4418755Y8192490D01*
X4419263Y8192397D01*
X4419772Y8192305D01*
X4420974Y8191981D01*
X4422176Y8191519D01*
X4422777Y8191242D01*
X4423378Y8190918D01*
X4423932Y8190502D01*
X4424441Y8190040D01*
X4424487Y8189994D01*
X4424580Y8189947D01*
X4424672Y8189762D01*
X4424857Y8189577D01*
X4425088Y8189346D01*
X4425319Y8189023D01*
X4425550Y8188699D01*
X4425828Y8188283D01*
X4426290Y8187405D01*
X4426752Y8186295D01*
X4426937Y8185741D01*
X4427030Y8185093D01*
X4427122Y8184446D01*
X4427168Y8183753D01*
Y8183660D01*
Y8183429D01*
X4427122Y8183059D01*
X4427076Y8182551D01*
X4426984Y8181996D01*
X4426799Y8181349D01*
X4426614Y8180655D01*
X4426336Y8179962D01*
X4426290Y8179870D01*
X4426198Y8179638D01*
X4426013Y8179269D01*
X4425735Y8178760D01*
X4425366Y8178205D01*
X4424903Y8177512D01*
X4424349Y8176819D01*
X4423701Y8176033D01*
X4423609Y8175940D01*
X4423378Y8175663D01*
X4423147Y8175432D01*
X4422915Y8175201D01*
X4422638Y8174923D01*
X4422268Y8174553D01*
X4421898Y8174184D01*
X4421436Y8173767D01*
X4420974Y8173305D01*
X4420419Y8172797D01*
X4419818Y8172288D01*
X4419171Y8171687D01*
X4418431Y8171086D01*
X4417692Y8170439D01*
X4417645Y8170393D01*
X4417553Y8170300D01*
X4417368Y8170162D01*
X4417137Y8169977D01*
X4416860Y8169699D01*
X4416536Y8169422D01*
X4415796Y8168821D01*
X4415010Y8168128D01*
X4414271Y8167434D01*
X4413624Y8166833D01*
X4413346Y8166602D01*
X4413115Y8166371D01*
X4413069Y8166325D01*
X4412930Y8166186D01*
X4412745Y8166001D01*
X4412514Y8165724D01*
X4412283Y8165400D01*
X4412006Y8165077D01*
X4411451Y8164291D01*
X4427215D01*
Y8160500D01*
X4405996D01*
Y8160546D01*
Y8160731D01*
Y8161009D01*
X4406042Y8161378D01*
X4406088Y8161794D01*
X4406181Y8162257D01*
X4406273Y8162719D01*
X4406458Y8163228D01*
Y8163274D01*
X4406505Y8163320D01*
X4406597Y8163597D01*
X4406782Y8164013D01*
X4407059Y8164568D01*
X4407429Y8165215D01*
X4407891Y8165955D01*
X4408400Y8166695D01*
X4409047Y8167480D01*
Y8167527D01*
X4409140Y8167573D01*
X4409371Y8167850D01*
X4409787Y8168266D01*
X4410388Y8168867D01*
X4411081Y8169561D01*
X4411959Y8170393D01*
X4413023Y8171317D01*
X4414178Y8172288D01*
X4414225Y8172334D01*
X4414410Y8172473D01*
X4414687Y8172704D01*
X4415010Y8172982D01*
X4415427Y8173351D01*
X4415935Y8173767D01*
X4416444Y8174230D01*
X4417045Y8174738D01*
X4418200Y8175848D01*
X4419356Y8176957D01*
X4419911Y8177512D01*
X4420419Y8178067D01*
X4420881Y8178575D01*
X4421251Y8179084D01*
Y8179130D01*
X4421344Y8179176D01*
X4421436Y8179315D01*
X4421529Y8179500D01*
X4421852Y8180008D01*
X4422222Y8180609D01*
X4422546Y8181349D01*
X4422869Y8182135D01*
X4423054Y8183013D01*
X4423147Y8183845D01*
Y8183891D01*
Y8183938D01*
X4423100Y8184215D01*
X4423054Y8184677D01*
X4422915Y8185186D01*
X4422731Y8185833D01*
X4422407Y8186480D01*
X4421991Y8187127D01*
X4421436Y8187775D01*
X4421344Y8187867D01*
X4421113Y8188052D01*
X4420789Y8188283D01*
X4420280Y8188607D01*
X4419633Y8188884D01*
X4418894Y8189161D01*
X4418015Y8189346D01*
X4417045Y8189393D01*
X4416767D01*
X4416582Y8189346D01*
X4416027Y8189300D01*
X4415380Y8189161D01*
X4414687Y8188977D01*
X4413901Y8188653D01*
X4413161Y8188237D01*
X4412468Y8187682D01*
X4412375Y8187590D01*
X4412191Y8187359D01*
X4411913Y8186989D01*
X4411636Y8186434D01*
X4411312Y8185787D01*
X4411035Y8184955D01*
X4410850Y8184030D01*
X4410757Y8182967D01*
X4406736Y8183383D01*
Y8183429D01*
X4406782Y8183568D01*
Y8183799D01*
X4406828Y8184123D01*
X4406921Y8184492D01*
X4407013Y8184908D01*
X4407152Y8185417D01*
X4407290Y8185925D01*
X4407660Y8187035D01*
X4408215Y8188144D01*
X4408539Y8188699D01*
X4408955Y8189254D01*
X4409371Y8189762D01*
X4409833Y8190225D01*
X4409879Y8190271D01*
X4409972Y8190317D01*
X4410110Y8190456D01*
X4410341Y8190594D01*
X4410619Y8190779D01*
X4410942Y8190964D01*
X4411312Y8191195D01*
X4411775Y8191427D01*
X4412283Y8191658D01*
X4412838Y8191889D01*
X4413439Y8192074D01*
X4414086Y8192259D01*
X4414779Y8192397D01*
X4415519Y8192536D01*
X4416305Y8192582D01*
X4417137Y8192629D01*
X4417599D01*
X4417923Y8192582D01*
D02*
G37*
G36*
X4352926Y8188977D02*
X4352880Y8188930D01*
X4352788Y8188838D01*
X4352603Y8188653D01*
X4352418Y8188376D01*
X4352140Y8188052D01*
X4351771Y8187682D01*
X4351401Y8187220D01*
X4350985Y8186665D01*
X4350569Y8186110D01*
X4350060Y8185463D01*
X4349552Y8184724D01*
X4349043Y8183984D01*
X4348488Y8183152D01*
X4347934Y8182273D01*
X4347379Y8181303D01*
X4346824Y8180332D01*
X4346778Y8180286D01*
X4346685Y8180101D01*
X4346547Y8179823D01*
X4346316Y8179407D01*
X4346085Y8178899D01*
X4345807Y8178344D01*
X4345484Y8177697D01*
X4345160Y8176957D01*
X4344790Y8176125D01*
X4344374Y8175293D01*
X4344004Y8174368D01*
X4343634Y8173398D01*
X4342895Y8171410D01*
X4342201Y8169283D01*
Y8169237D01*
X4342155Y8169098D01*
X4342109Y8168867D01*
X4342016Y8168590D01*
X4341924Y8168220D01*
X4341832Y8167758D01*
X4341693Y8167249D01*
X4341600Y8166695D01*
X4341462Y8166047D01*
X4341323Y8165354D01*
X4341092Y8163875D01*
X4340861Y8162257D01*
X4340722Y8160500D01*
X4336700D01*
Y8160546D01*
Y8160685D01*
Y8160870D01*
X4336746Y8161147D01*
Y8161517D01*
X4336793Y8161979D01*
X4336839Y8162488D01*
X4336885Y8163043D01*
X4336978Y8163690D01*
X4337070Y8164337D01*
X4337209Y8165123D01*
X4337347Y8165909D01*
X4337486Y8166741D01*
X4337671Y8167665D01*
X4338133Y8169561D01*
Y8169607D01*
X4338180Y8169792D01*
X4338272Y8170069D01*
X4338411Y8170485D01*
X4338549Y8170948D01*
X4338734Y8171502D01*
X4338919Y8172150D01*
X4339197Y8172843D01*
X4339474Y8173629D01*
X4339751Y8174415D01*
X4340445Y8176171D01*
X4341277Y8178020D01*
X4342201Y8179870D01*
X4342248Y8179916D01*
X4342340Y8180101D01*
X4342479Y8180332D01*
X4342664Y8180702D01*
X4342895Y8181118D01*
X4343218Y8181626D01*
X4343542Y8182181D01*
X4343912Y8182782D01*
X4344790Y8184123D01*
X4345715Y8185509D01*
X4346778Y8186942D01*
X4347887Y8188283D01*
X4332216D01*
Y8192074D01*
X4352926D01*
Y8188977D01*
D02*
G37*
G36*
X4286173Y8192582D02*
X4286543Y8192536D01*
X4287005Y8192490D01*
X4287514Y8192397D01*
X4288022Y8192305D01*
X4289224Y8191981D01*
X4290426Y8191519D01*
X4291027Y8191242D01*
X4291628Y8190918D01*
X4292183Y8190502D01*
X4292691Y8190040D01*
X4292737Y8189994D01*
X4292830Y8189947D01*
X4292922Y8189762D01*
X4293107Y8189577D01*
X4293338Y8189346D01*
X4293570Y8189023D01*
X4293801Y8188699D01*
X4294078Y8188283D01*
X4294540Y8187405D01*
X4295003Y8186295D01*
X4295187Y8185741D01*
X4295280Y8185093D01*
X4295372Y8184446D01*
X4295419Y8183753D01*
Y8183660D01*
Y8183429D01*
X4295372Y8183059D01*
X4295326Y8182551D01*
X4295234Y8181996D01*
X4295049Y8181349D01*
X4294864Y8180655D01*
X4294587Y8179962D01*
X4294540Y8179870D01*
X4294448Y8179638D01*
X4294263Y8179269D01*
X4293986Y8178760D01*
X4293616Y8178205D01*
X4293153Y8177512D01*
X4292599Y8176819D01*
X4291952Y8176033D01*
X4291859Y8175940D01*
X4291628Y8175663D01*
X4291397Y8175432D01*
X4291166Y8175201D01*
X4290888Y8174923D01*
X4290518Y8174553D01*
X4290149Y8174184D01*
X4289686Y8173767D01*
X4289224Y8173305D01*
X4288669Y8172797D01*
X4288068Y8172288D01*
X4287421Y8171687D01*
X4286682Y8171086D01*
X4285942Y8170439D01*
X4285896Y8170393D01*
X4285803Y8170300D01*
X4285618Y8170162D01*
X4285387Y8169977D01*
X4285110Y8169699D01*
X4284786Y8169422D01*
X4284047Y8168821D01*
X4283261Y8168128D01*
X4282521Y8167434D01*
X4281874Y8166833D01*
X4281596Y8166602D01*
X4281365Y8166371D01*
X4281319Y8166325D01*
X4281180Y8166186D01*
X4280996Y8166001D01*
X4280764Y8165724D01*
X4280533Y8165400D01*
X4280256Y8165077D01*
X4279701Y8164291D01*
X4295465D01*
Y8160500D01*
X4274246D01*
Y8160546D01*
Y8160731D01*
Y8161009D01*
X4274292Y8161378D01*
X4274339Y8161794D01*
X4274431Y8162257D01*
X4274524Y8162719D01*
X4274708Y8163228D01*
Y8163274D01*
X4274755Y8163320D01*
X4274847Y8163597D01*
X4275032Y8164013D01*
X4275309Y8164568D01*
X4275679Y8165215D01*
X4276142Y8165955D01*
X4276650Y8166695D01*
X4277297Y8167480D01*
Y8167527D01*
X4277390Y8167573D01*
X4277621Y8167850D01*
X4278037Y8168266D01*
X4278638Y8168867D01*
X4279331Y8169561D01*
X4280210Y8170393D01*
X4281273Y8171317D01*
X4282429Y8172288D01*
X4282475Y8172334D01*
X4282660Y8172473D01*
X4282937Y8172704D01*
X4283261Y8172982D01*
X4283677Y8173351D01*
X4284185Y8173767D01*
X4284694Y8174230D01*
X4285295Y8174738D01*
X4286450Y8175848D01*
X4287606Y8176957D01*
X4288161Y8177512D01*
X4288669Y8178067D01*
X4289132Y8178575D01*
X4289501Y8179084D01*
Y8179130D01*
X4289594Y8179176D01*
X4289686Y8179315D01*
X4289779Y8179500D01*
X4290102Y8180008D01*
X4290472Y8180609D01*
X4290796Y8181349D01*
X4291119Y8182135D01*
X4291304Y8183013D01*
X4291397Y8183845D01*
Y8183891D01*
Y8183938D01*
X4291351Y8184215D01*
X4291304Y8184677D01*
X4291166Y8185186D01*
X4290981Y8185833D01*
X4290657Y8186480D01*
X4290241Y8187127D01*
X4289686Y8187775D01*
X4289594Y8187867D01*
X4289363Y8188052D01*
X4289039Y8188283D01*
X4288531Y8188607D01*
X4287883Y8188884D01*
X4287144Y8189161D01*
X4286265Y8189346D01*
X4285295Y8189393D01*
X4285017D01*
X4284832Y8189346D01*
X4284278Y8189300D01*
X4283630Y8189161D01*
X4282937Y8188977D01*
X4282151Y8188653D01*
X4281412Y8188237D01*
X4280718Y8187682D01*
X4280626Y8187590D01*
X4280441Y8187359D01*
X4280163Y8186989D01*
X4279886Y8186434D01*
X4279562Y8185787D01*
X4279285Y8184955D01*
X4279100Y8184030D01*
X4279008Y8182967D01*
X4274986Y8183383D01*
Y8183429D01*
X4275032Y8183568D01*
Y8183799D01*
X4275078Y8184123D01*
X4275171Y8184492D01*
X4275263Y8184908D01*
X4275402Y8185417D01*
X4275541Y8185925D01*
X4275910Y8187035D01*
X4276465Y8188144D01*
X4276789Y8188699D01*
X4277205Y8189254D01*
X4277621Y8189762D01*
X4278083Y8190225D01*
X4278129Y8190271D01*
X4278222Y8190317D01*
X4278361Y8190456D01*
X4278592Y8190594D01*
X4278869Y8190779D01*
X4279193Y8190964D01*
X4279562Y8191195D01*
X4280025Y8191427D01*
X4280533Y8191658D01*
X4281088Y8191889D01*
X4281689Y8192074D01*
X4282336Y8192259D01*
X4283030Y8192397D01*
X4283769Y8192536D01*
X4284555Y8192582D01*
X4285387Y8192629D01*
X4285849D01*
X4286173Y8192582D01*
D02*
G37*
G36*
X4393052D02*
X4393653Y8192490D01*
X4394347Y8192351D01*
X4395086Y8192166D01*
X4395872Y8191935D01*
X4396612Y8191565D01*
X4396658D01*
X4396704Y8191519D01*
X4396935Y8191380D01*
X4397305Y8191149D01*
X4397767Y8190826D01*
X4398276Y8190363D01*
X4398831Y8189855D01*
X4399339Y8189254D01*
X4399848Y8188560D01*
X4399894Y8188468D01*
X4400079Y8188237D01*
X4400264Y8187821D01*
X4400587Y8187220D01*
X4400865Y8186526D01*
X4401235Y8185741D01*
X4401558Y8184816D01*
X4401835Y8183799D01*
Y8183753D01*
X4401882Y8183660D01*
X4401928Y8183522D01*
X4401974Y8183290D01*
X4402020Y8183013D01*
X4402067Y8182690D01*
X4402159Y8182273D01*
X4402205Y8181811D01*
X4402298Y8181303D01*
X4402344Y8180748D01*
X4402390Y8180101D01*
X4402483Y8179454D01*
X4402529Y8178714D01*
Y8177974D01*
X4402575Y8177142D01*
Y8176264D01*
Y8176218D01*
Y8176033D01*
Y8175709D01*
Y8175339D01*
X4402529Y8174831D01*
Y8174276D01*
X4402483Y8173675D01*
X4402436Y8173028D01*
X4402298Y8171549D01*
X4402067Y8170023D01*
X4401789Y8168544D01*
X4401604Y8167850D01*
X4401373Y8167157D01*
Y8167111D01*
X4401327Y8167018D01*
X4401235Y8166833D01*
X4401142Y8166602D01*
X4401050Y8166279D01*
X4400865Y8165955D01*
X4400495Y8165169D01*
X4400033Y8164337D01*
X4399432Y8163412D01*
X4398738Y8162580D01*
X4397906Y8161794D01*
X4397860D01*
X4397814Y8161702D01*
X4397675Y8161610D01*
X4397490Y8161517D01*
X4397259Y8161378D01*
X4397028Y8161193D01*
X4396334Y8160870D01*
X4395502Y8160546D01*
X4394531Y8160223D01*
X4393376Y8160038D01*
X4392128Y8159945D01*
X4391665D01*
X4391342Y8159992D01*
X4390972Y8160038D01*
X4390510Y8160130D01*
X4390001Y8160223D01*
X4389446Y8160361D01*
X4388892Y8160546D01*
X4388291Y8160731D01*
X4387690Y8161009D01*
X4387089Y8161332D01*
X4386488Y8161702D01*
X4385887Y8162164D01*
X4385332Y8162673D01*
X4384824Y8163228D01*
X4384777Y8163274D01*
X4384685Y8163412D01*
X4384546Y8163644D01*
X4384315Y8164013D01*
X4384084Y8164429D01*
X4383853Y8164984D01*
X4383529Y8165631D01*
X4383252Y8166371D01*
X4382974Y8167203D01*
X4382697Y8168174D01*
X4382420Y8169237D01*
X4382189Y8170439D01*
X4381957Y8171733D01*
X4381819Y8173120D01*
X4381726Y8174646D01*
X4381680Y8176264D01*
Y8176310D01*
Y8176495D01*
Y8176819D01*
Y8177188D01*
X4381726Y8177697D01*
Y8178252D01*
X4381773Y8178853D01*
X4381819Y8179546D01*
X4381957Y8180979D01*
X4382189Y8182505D01*
X4382466Y8184030D01*
X4382651Y8184724D01*
X4382836Y8185417D01*
Y8185463D01*
X4382882Y8185556D01*
X4382974Y8185741D01*
X4383067Y8185972D01*
X4383159Y8186295D01*
X4383344Y8186619D01*
X4383714Y8187405D01*
X4384176Y8188237D01*
X4384777Y8189115D01*
X4385471Y8189994D01*
X4386303Y8190733D01*
X4386349D01*
X4386395Y8190826D01*
X4386534Y8190918D01*
X4386719Y8191011D01*
X4386950Y8191195D01*
X4387227Y8191334D01*
X4387921Y8191704D01*
X4388753Y8192028D01*
X4389724Y8192351D01*
X4390879Y8192536D01*
X4392128Y8192629D01*
X4392544D01*
X4393052Y8192582D01*
D02*
G37*
G36*
X4368182D02*
X4368782Y8192490D01*
X4369476Y8192351D01*
X4370216Y8192166D01*
X4371001Y8191935D01*
X4371741Y8191565D01*
X4371787D01*
X4371834Y8191519D01*
X4372065Y8191380D01*
X4372434Y8191149D01*
X4372897Y8190826D01*
X4373405Y8190363D01*
X4373960Y8189855D01*
X4374469Y8189254D01*
X4374977Y8188560D01*
X4375023Y8188468D01*
X4375208Y8188237D01*
X4375393Y8187821D01*
X4375717Y8187220D01*
X4375994Y8186526D01*
X4376364Y8185741D01*
X4376687Y8184816D01*
X4376965Y8183799D01*
Y8183753D01*
X4377011Y8183660D01*
X4377057Y8183522D01*
X4377104Y8183290D01*
X4377150Y8183013D01*
X4377196Y8182690D01*
X4377288Y8182273D01*
X4377335Y8181811D01*
X4377427Y8181303D01*
X4377473Y8180748D01*
X4377520Y8180101D01*
X4377612Y8179454D01*
X4377658Y8178714D01*
Y8177974D01*
X4377704Y8177142D01*
Y8176264D01*
Y8176218D01*
Y8176033D01*
Y8175709D01*
Y8175339D01*
X4377658Y8174831D01*
Y8174276D01*
X4377612Y8173675D01*
X4377566Y8173028D01*
X4377427Y8171549D01*
X4377196Y8170023D01*
X4376919Y8168544D01*
X4376734Y8167850D01*
X4376503Y8167157D01*
Y8167111D01*
X4376456Y8167018D01*
X4376364Y8166833D01*
X4376271Y8166602D01*
X4376179Y8166279D01*
X4375994Y8165955D01*
X4375624Y8165169D01*
X4375162Y8164337D01*
X4374561Y8163412D01*
X4373868Y8162580D01*
X4373035Y8161794D01*
X4372989D01*
X4372943Y8161702D01*
X4372804Y8161610D01*
X4372619Y8161517D01*
X4372388Y8161378D01*
X4372157Y8161193D01*
X4371464Y8160870D01*
X4370632Y8160546D01*
X4369661Y8160223D01*
X4368505Y8160038D01*
X4367257Y8159945D01*
X4366795D01*
X4366471Y8159992D01*
X4366101Y8160038D01*
X4365639Y8160130D01*
X4365130Y8160223D01*
X4364576Y8160361D01*
X4364021Y8160546D01*
X4363420Y8160731D01*
X4362819Y8161009D01*
X4362218Y8161332D01*
X4361617Y8161702D01*
X4361016Y8162164D01*
X4360461Y8162673D01*
X4359953Y8163228D01*
X4359907Y8163274D01*
X4359814Y8163412D01*
X4359676Y8163644D01*
X4359444Y8164013D01*
X4359213Y8164429D01*
X4358982Y8164984D01*
X4358659Y8165631D01*
X4358381Y8166371D01*
X4358104Y8167203D01*
X4357826Y8168174D01*
X4357549Y8169237D01*
X4357318Y8170439D01*
X4357087Y8171733D01*
X4356948Y8173120D01*
X4356856Y8174646D01*
X4356809Y8176264D01*
Y8176310D01*
Y8176495D01*
Y8176819D01*
Y8177188D01*
X4356856Y8177697D01*
Y8178252D01*
X4356902Y8178853D01*
X4356948Y8179546D01*
X4357087Y8180979D01*
X4357318Y8182505D01*
X4357595Y8184030D01*
X4357780Y8184724D01*
X4357965Y8185417D01*
Y8185463D01*
X4358011Y8185556D01*
X4358104Y8185741D01*
X4358196Y8185972D01*
X4358289Y8186295D01*
X4358474Y8186619D01*
X4358843Y8187405D01*
X4359306Y8188237D01*
X4359907Y8189115D01*
X4360600Y8189994D01*
X4361432Y8190733D01*
X4361478D01*
X4361525Y8190826D01*
X4361663Y8190918D01*
X4361848Y8191011D01*
X4362079Y8191195D01*
X4362357Y8191334D01*
X4363050Y8191704D01*
X4363882Y8192028D01*
X4364853Y8192351D01*
X4366009Y8192536D01*
X4367257Y8192629D01*
X4367673D01*
X4368182Y8192582D01*
D02*
G37*
G36*
X4320243Y8235082D02*
X4320613Y8235036D01*
X4321075Y8234990D01*
X4321584Y8234897D01*
X4322092Y8234805D01*
X4323294Y8234481D01*
X4324496Y8234019D01*
X4325097Y8233742D01*
X4325698Y8233418D01*
X4326253Y8233002D01*
X4326761Y8232540D01*
X4326807Y8232494D01*
X4326900Y8232447D01*
X4326992Y8232262D01*
X4327177Y8232078D01*
X4327408Y8231846D01*
X4327640Y8231523D01*
X4327871Y8231199D01*
X4328148Y8230783D01*
X4328610Y8229905D01*
X4329073Y8228795D01*
X4329258Y8228241D01*
X4329350Y8227593D01*
X4329442Y8226946D01*
X4329489Y8226253D01*
Y8226160D01*
Y8225929D01*
X4329442Y8225559D01*
X4329396Y8225051D01*
X4329304Y8224496D01*
X4329119Y8223849D01*
X4328934Y8223156D01*
X4328657Y8222462D01*
X4328610Y8222370D01*
X4328518Y8222138D01*
X4328333Y8221769D01*
X4328056Y8221260D01*
X4327686Y8220705D01*
X4327224Y8220012D01*
X4326669Y8219319D01*
X4326022Y8218533D01*
X4325929Y8218440D01*
X4325698Y8218163D01*
X4325467Y8217932D01*
X4325236Y8217701D01*
X4324958Y8217423D01*
X4324589Y8217053D01*
X4324219Y8216684D01*
X4323756Y8216268D01*
X4323294Y8215805D01*
X4322739Y8215297D01*
X4322138Y8214788D01*
X4321491Y8214187D01*
X4320752Y8213586D01*
X4320012Y8212939D01*
X4319966Y8212893D01*
X4319873Y8212800D01*
X4319688Y8212662D01*
X4319457Y8212477D01*
X4319180Y8212199D01*
X4318856Y8211922D01*
X4318117Y8211321D01*
X4317331Y8210628D01*
X4316591Y8209934D01*
X4315944Y8209333D01*
X4315667Y8209102D01*
X4315435Y8208871D01*
X4315389Y8208825D01*
X4315250Y8208686D01*
X4315066Y8208501D01*
X4314834Y8208224D01*
X4314603Y8207900D01*
X4314326Y8207577D01*
X4313771Y8206791D01*
X4329535D01*
Y8203000D01*
X4308316D01*
Y8203046D01*
Y8203231D01*
Y8203509D01*
X4308362Y8203878D01*
X4308409Y8204294D01*
X4308501Y8204757D01*
X4308594Y8205219D01*
X4308779Y8205728D01*
Y8205774D01*
X4308825Y8205820D01*
X4308917Y8206097D01*
X4309102Y8206513D01*
X4309379Y8207068D01*
X4309749Y8207715D01*
X4310212Y8208455D01*
X4310720Y8209195D01*
X4311367Y8209981D01*
Y8210027D01*
X4311460Y8210073D01*
X4311691Y8210350D01*
X4312107Y8210766D01*
X4312708Y8211367D01*
X4313401Y8212061D01*
X4314280Y8212893D01*
X4315343Y8213817D01*
X4316499Y8214788D01*
X4316545Y8214834D01*
X4316730Y8214973D01*
X4317007Y8215204D01*
X4317331Y8215482D01*
X4317747Y8215851D01*
X4318255Y8216268D01*
X4318764Y8216730D01*
X4319365Y8217238D01*
X4320520Y8218348D01*
X4321676Y8219457D01*
X4322231Y8220012D01*
X4322739Y8220567D01*
X4323202Y8221075D01*
X4323571Y8221584D01*
Y8221630D01*
X4323664Y8221676D01*
X4323756Y8221815D01*
X4323849Y8222000D01*
X4324172Y8222508D01*
X4324542Y8223109D01*
X4324866Y8223849D01*
X4325189Y8224635D01*
X4325374Y8225513D01*
X4325467Y8226345D01*
Y8226391D01*
Y8226438D01*
X4325421Y8226715D01*
X4325374Y8227177D01*
X4325236Y8227686D01*
X4325051Y8228333D01*
X4324727Y8228980D01*
X4324311Y8229627D01*
X4323756Y8230275D01*
X4323664Y8230367D01*
X4323433Y8230552D01*
X4323109Y8230783D01*
X4322601Y8231107D01*
X4321954Y8231384D01*
X4321214Y8231661D01*
X4320336Y8231846D01*
X4319365Y8231893D01*
X4319087D01*
X4318902Y8231846D01*
X4318348Y8231800D01*
X4317701Y8231661D01*
X4317007Y8231477D01*
X4316221Y8231153D01*
X4315482Y8230737D01*
X4314788Y8230182D01*
X4314696Y8230090D01*
X4314511Y8229859D01*
X4314233Y8229489D01*
X4313956Y8228934D01*
X4313632Y8228287D01*
X4313355Y8227455D01*
X4313170Y8226530D01*
X4313078Y8225467D01*
X4309056Y8225883D01*
Y8225929D01*
X4309102Y8226068D01*
Y8226299D01*
X4309148Y8226623D01*
X4309241Y8226992D01*
X4309333Y8227408D01*
X4309472Y8227917D01*
X4309611Y8228426D01*
X4309980Y8229535D01*
X4310535Y8230644D01*
X4310859Y8231199D01*
X4311275Y8231754D01*
X4311691Y8232262D01*
X4312153Y8232725D01*
X4312199Y8232771D01*
X4312292Y8232817D01*
X4312431Y8232956D01*
X4312662Y8233095D01*
X4312939Y8233279D01*
X4313263Y8233464D01*
X4313632Y8233695D01*
X4314095Y8233927D01*
X4314603Y8234158D01*
X4315158Y8234389D01*
X4315759Y8234574D01*
X4316406Y8234759D01*
X4317100Y8234897D01*
X4317839Y8235036D01*
X4318625Y8235082D01*
X4319457Y8235129D01*
X4319919D01*
X4320243Y8235082D01*
D02*
G37*
G36*
X4290241Y8235498D02*
X4290657D01*
X4291073Y8235452D01*
X4291628Y8235360D01*
X4292183Y8235267D01*
X4293385Y8235036D01*
X4294771Y8234666D01*
X4296112Y8234112D01*
X4296805Y8233788D01*
X4297499Y8233418D01*
X4297545Y8233372D01*
X4297638Y8233326D01*
X4297822Y8233187D01*
X4298100Y8233048D01*
X4298377Y8232817D01*
X4298747Y8232540D01*
X4299533Y8231893D01*
X4300365Y8231060D01*
X4301290Y8230043D01*
X4302168Y8228842D01*
X4302908Y8227501D01*
Y8227455D01*
X4303000Y8227316D01*
X4303092Y8227131D01*
X4303185Y8226854D01*
X4303370Y8226484D01*
X4303509Y8226068D01*
X4303693Y8225559D01*
X4303878Y8225005D01*
X4304017Y8224404D01*
X4304202Y8223756D01*
X4304387Y8223063D01*
X4304526Y8222323D01*
X4304710Y8220705D01*
X4304803Y8218995D01*
Y8218949D01*
Y8218810D01*
Y8218625D01*
Y8218348D01*
X4304757Y8217978D01*
Y8217562D01*
X4304710Y8217100D01*
X4304664Y8216637D01*
X4304526Y8215528D01*
X4304294Y8214326D01*
X4304017Y8213078D01*
X4303601Y8211876D01*
Y8211830D01*
X4303555Y8211737D01*
X4303462Y8211552D01*
X4303370Y8211367D01*
X4303231Y8211090D01*
X4303092Y8210766D01*
X4302723Y8210027D01*
X4302214Y8209148D01*
X4301567Y8208224D01*
X4300827Y8207299D01*
X4299995Y8206375D01*
X4300041D01*
X4300134Y8206282D01*
X4300273Y8206190D01*
X4300504Y8206051D01*
X4300735Y8205866D01*
X4301058Y8205681D01*
X4301752Y8205265D01*
X4302584Y8204757D01*
X4303509Y8204248D01*
X4304479Y8203832D01*
X4305404Y8203416D01*
X4304156Y8200504D01*
X4304110D01*
X4304017Y8200550D01*
X4303832Y8200642D01*
X4303555Y8200735D01*
X4303231Y8200874D01*
X4302861Y8201059D01*
X4302445Y8201243D01*
X4301983Y8201475D01*
X4300966Y8202029D01*
X4299810Y8202677D01*
X4298562Y8203509D01*
X4297268Y8204433D01*
X4297222D01*
X4297129Y8204341D01*
X4296898Y8204248D01*
X4296667Y8204110D01*
X4296297Y8203971D01*
X4295927Y8203786D01*
X4295465Y8203647D01*
X4294956Y8203462D01*
X4294402Y8203277D01*
X4293801Y8203093D01*
X4292460Y8202769D01*
X4290981Y8202538D01*
X4290195Y8202492D01*
X4289409Y8202445D01*
X4288993D01*
X4288669Y8202492D01*
X4288300D01*
X4287837Y8202538D01*
X4287329Y8202630D01*
X4286774Y8202723D01*
X4285572Y8202954D01*
X4284231Y8203324D01*
X4282845Y8203832D01*
X4282197Y8204156D01*
X4281504Y8204526D01*
X4281458Y8204572D01*
X4281365Y8204618D01*
X4281180Y8204757D01*
X4280949Y8204895D01*
X4280626Y8205127D01*
X4280302Y8205404D01*
X4279516Y8206051D01*
X4278638Y8206883D01*
X4277760Y8207900D01*
X4276881Y8209056D01*
X4276095Y8210397D01*
Y8210443D01*
X4276003Y8210581D01*
X4275910Y8210766D01*
X4275818Y8211044D01*
X4275679Y8211414D01*
X4275494Y8211830D01*
X4275309Y8212338D01*
X4275171Y8212893D01*
X4274986Y8213494D01*
X4274801Y8214141D01*
X4274662Y8214834D01*
X4274477Y8215620D01*
X4274292Y8217238D01*
X4274200Y8218949D01*
Y8218995D01*
Y8219180D01*
Y8219411D01*
X4274246Y8219735D01*
Y8220151D01*
X4274292Y8220659D01*
X4274339Y8221214D01*
X4274431Y8221815D01*
X4274662Y8223156D01*
X4274986Y8224589D01*
X4275448Y8226114D01*
X4276095Y8227593D01*
X4276142Y8227640D01*
X4276188Y8227778D01*
X4276280Y8227963D01*
X4276465Y8228241D01*
X4276650Y8228564D01*
X4276881Y8228934D01*
X4277528Y8229812D01*
X4278268Y8230737D01*
X4279239Y8231708D01*
X4280302Y8232678D01*
X4281550Y8233511D01*
X4281596Y8233557D01*
X4281735Y8233603D01*
X4281920Y8233695D01*
X4282197Y8233834D01*
X4282521Y8233973D01*
X4282891Y8234158D01*
X4283353Y8234343D01*
X4283862Y8234528D01*
X4284463Y8234713D01*
X4285064Y8234897D01*
X4286404Y8235221D01*
X4287883Y8235452D01*
X4288669Y8235545D01*
X4289918D01*
X4290241Y8235498D01*
D02*
G37*
G36*
X6015538Y7347700D02*
X6011146D01*
X5994411Y7372802D01*
Y7347700D01*
X5990343D01*
Y7379690D01*
X5994689D01*
X6011470Y7354542D01*
Y7379690D01*
X6015538D01*
Y7347700D01*
D02*
G37*
G36*
X6107023Y7379782D02*
X6107393Y7379736D01*
X6107855Y7379690D01*
X6108363Y7379597D01*
X6108872Y7379505D01*
X6110074Y7379181D01*
X6111276Y7378719D01*
X6111877Y7378442D01*
X6112478Y7378118D01*
X6113032Y7377702D01*
X6113541Y7377240D01*
X6113587Y7377194D01*
X6113680Y7377147D01*
X6113772Y7376962D01*
X6113957Y7376777D01*
X6114188Y7376546D01*
X6114419Y7376223D01*
X6114650Y7375899D01*
X6114928Y7375483D01*
X6115390Y7374605D01*
X6115852Y7373495D01*
X6116037Y7372941D01*
X6116130Y7372293D01*
X6116222Y7371646D01*
X6116268Y7370953D01*
Y7370860D01*
Y7370629D01*
X6116222Y7370259D01*
X6116176Y7369751D01*
X6116084Y7369196D01*
X6115899Y7368549D01*
X6115714Y7367855D01*
X6115436Y7367162D01*
X6115390Y7367070D01*
X6115298Y7366838D01*
X6115113Y7366469D01*
X6114835Y7365960D01*
X6114466Y7365405D01*
X6114003Y7364712D01*
X6113449Y7364019D01*
X6112801Y7363233D01*
X6112709Y7363140D01*
X6112478Y7362863D01*
X6112247Y7362632D01*
X6112015Y7362401D01*
X6111738Y7362123D01*
X6111368Y7361753D01*
X6110998Y7361384D01*
X6110536Y7360967D01*
X6110074Y7360505D01*
X6109519Y7359997D01*
X6108918Y7359488D01*
X6108271Y7358887D01*
X6107531Y7358286D01*
X6106792Y7357639D01*
X6106745Y7357593D01*
X6106653Y7357500D01*
X6106468Y7357362D01*
X6106237Y7357177D01*
X6105960Y7356899D01*
X6105636Y7356622D01*
X6104896Y7356021D01*
X6104110Y7355328D01*
X6103371Y7354634D01*
X6102724Y7354033D01*
X6102446Y7353802D01*
X6102215Y7353571D01*
X6102169Y7353525D01*
X6102030Y7353386D01*
X6101845Y7353201D01*
X6101614Y7352924D01*
X6101383Y7352600D01*
X6101106Y7352277D01*
X6100551Y7351491D01*
X6116315D01*
Y7347700D01*
X6095096D01*
Y7347746D01*
Y7347931D01*
Y7348209D01*
X6095142Y7348578D01*
X6095188Y7348994D01*
X6095281Y7349457D01*
X6095373Y7349919D01*
X6095558Y7350428D01*
Y7350474D01*
X6095605Y7350520D01*
X6095697Y7350797D01*
X6095882Y7351213D01*
X6096159Y7351768D01*
X6096529Y7352415D01*
X6096991Y7353155D01*
X6097500Y7353895D01*
X6098147Y7354680D01*
Y7354727D01*
X6098240Y7354773D01*
X6098471Y7355050D01*
X6098887Y7355466D01*
X6099488Y7356067D01*
X6100181Y7356761D01*
X6101059Y7357593D01*
X6102123Y7358517D01*
X6103278Y7359488D01*
X6103325Y7359534D01*
X6103510Y7359673D01*
X6103787Y7359904D01*
X6104110Y7360182D01*
X6104527Y7360551D01*
X6105035Y7360967D01*
X6105544Y7361430D01*
X6106145Y7361938D01*
X6107300Y7363048D01*
X6108456Y7364157D01*
X6109011Y7364712D01*
X6109519Y7365267D01*
X6109981Y7365775D01*
X6110351Y7366284D01*
Y7366330D01*
X6110444Y7366376D01*
X6110536Y7366515D01*
X6110629Y7366700D01*
X6110952Y7367208D01*
X6111322Y7367809D01*
X6111646Y7368549D01*
X6111969Y7369335D01*
X6112154Y7370213D01*
X6112247Y7371045D01*
Y7371091D01*
Y7371138D01*
X6112200Y7371415D01*
X6112154Y7371877D01*
X6112015Y7372386D01*
X6111831Y7373033D01*
X6111507Y7373680D01*
X6111091Y7374327D01*
X6110536Y7374975D01*
X6110444Y7375067D01*
X6110213Y7375252D01*
X6109889Y7375483D01*
X6109380Y7375807D01*
X6108733Y7376084D01*
X6107994Y7376361D01*
X6107115Y7376546D01*
X6106145Y7376593D01*
X6105867D01*
X6105682Y7376546D01*
X6105127Y7376500D01*
X6104480Y7376361D01*
X6103787Y7376177D01*
X6103001Y7375853D01*
X6102261Y7375437D01*
X6101568Y7374882D01*
X6101475Y7374790D01*
X6101291Y7374559D01*
X6101013Y7374189D01*
X6100736Y7373634D01*
X6100412Y7372987D01*
X6100135Y7372155D01*
X6099950Y7371230D01*
X6099857Y7370167D01*
X6095836Y7370583D01*
Y7370629D01*
X6095882Y7370768D01*
Y7370999D01*
X6095928Y7371323D01*
X6096021Y7371692D01*
X6096113Y7372108D01*
X6096252Y7372617D01*
X6096390Y7373125D01*
X6096760Y7374235D01*
X6097315Y7375344D01*
X6097639Y7375899D01*
X6098055Y7376454D01*
X6098471Y7376962D01*
X6098933Y7377425D01*
X6098979Y7377471D01*
X6099072Y7377517D01*
X6099210Y7377656D01*
X6099441Y7377794D01*
X6099719Y7377979D01*
X6100042Y7378164D01*
X6100412Y7378395D01*
X6100875Y7378627D01*
X6101383Y7378858D01*
X6101938Y7379089D01*
X6102539Y7379274D01*
X6103186Y7379459D01*
X6103879Y7379597D01*
X6104619Y7379736D01*
X6105405Y7379782D01*
X6106237Y7379829D01*
X6106699D01*
X6107023Y7379782D01*
D02*
G37*
G36*
X6042026Y7376177D02*
X6041980Y7376130D01*
X6041888Y7376038D01*
X6041703Y7375853D01*
X6041518Y7375576D01*
X6041240Y7375252D01*
X6040871Y7374882D01*
X6040501Y7374420D01*
X6040085Y7373865D01*
X6039669Y7373310D01*
X6039160Y7372663D01*
X6038652Y7371924D01*
X6038143Y7371184D01*
X6037588Y7370352D01*
X6037034Y7369473D01*
X6036479Y7368503D01*
X6035924Y7367532D01*
X6035878Y7367486D01*
X6035785Y7367301D01*
X6035647Y7367023D01*
X6035416Y7366607D01*
X6035185Y7366099D01*
X6034907Y7365544D01*
X6034584Y7364897D01*
X6034260Y7364157D01*
X6033890Y7363325D01*
X6033474Y7362493D01*
X6033104Y7361568D01*
X6032734Y7360598D01*
X6031995Y7358610D01*
X6031301Y7356483D01*
Y7356437D01*
X6031255Y7356298D01*
X6031209Y7356067D01*
X6031116Y7355790D01*
X6031024Y7355420D01*
X6030932Y7354958D01*
X6030793Y7354449D01*
X6030700Y7353895D01*
X6030562Y7353247D01*
X6030423Y7352554D01*
X6030192Y7351075D01*
X6029961Y7349457D01*
X6029822Y7347700D01*
X6025800D01*
Y7347746D01*
Y7347885D01*
Y7348070D01*
X6025846Y7348347D01*
Y7348717D01*
X6025893Y7349179D01*
X6025939Y7349688D01*
X6025985Y7350243D01*
X6026078Y7350890D01*
X6026170Y7351537D01*
X6026309Y7352323D01*
X6026447Y7353109D01*
X6026586Y7353941D01*
X6026771Y7354865D01*
X6027233Y7356761D01*
Y7356807D01*
X6027280Y7356992D01*
X6027372Y7357269D01*
X6027511Y7357685D01*
X6027649Y7358148D01*
X6027834Y7358702D01*
X6028019Y7359350D01*
X6028297Y7360043D01*
X6028574Y7360829D01*
X6028851Y7361615D01*
X6029545Y7363371D01*
X6030377Y7365220D01*
X6031301Y7367070D01*
X6031348Y7367116D01*
X6031440Y7367301D01*
X6031579Y7367532D01*
X6031764Y7367902D01*
X6031995Y7368318D01*
X6032318Y7368826D01*
X6032642Y7369381D01*
X6033012Y7369982D01*
X6033890Y7371323D01*
X6034815Y7372709D01*
X6035878Y7374142D01*
X6036987Y7375483D01*
X6021316D01*
Y7379274D01*
X6042026D01*
Y7376177D01*
D02*
G37*
G36*
X5975273Y7379782D02*
X5975643Y7379736D01*
X5976105Y7379690D01*
X5976614Y7379597D01*
X5977122Y7379505D01*
X5978324Y7379181D01*
X5979526Y7378719D01*
X5980127Y7378442D01*
X5980728Y7378118D01*
X5981283Y7377702D01*
X5981791Y7377240D01*
X5981837Y7377194D01*
X5981930Y7377147D01*
X5982022Y7376962D01*
X5982207Y7376777D01*
X5982438Y7376546D01*
X5982670Y7376223D01*
X5982901Y7375899D01*
X5983178Y7375483D01*
X5983640Y7374605D01*
X5984103Y7373495D01*
X5984287Y7372941D01*
X5984380Y7372293D01*
X5984472Y7371646D01*
X5984519Y7370953D01*
Y7370860D01*
Y7370629D01*
X5984472Y7370259D01*
X5984426Y7369751D01*
X5984334Y7369196D01*
X5984149Y7368549D01*
X5983964Y7367855D01*
X5983687Y7367162D01*
X5983640Y7367070D01*
X5983548Y7366838D01*
X5983363Y7366469D01*
X5983086Y7365960D01*
X5982716Y7365405D01*
X5982253Y7364712D01*
X5981699Y7364019D01*
X5981052Y7363233D01*
X5980959Y7363140D01*
X5980728Y7362863D01*
X5980497Y7362632D01*
X5980266Y7362401D01*
X5979988Y7362123D01*
X5979618Y7361753D01*
X5979249Y7361384D01*
X5978786Y7360967D01*
X5978324Y7360505D01*
X5977769Y7359997D01*
X5977168Y7359488D01*
X5976521Y7358887D01*
X5975782Y7358286D01*
X5975042Y7357639D01*
X5974996Y7357593D01*
X5974903Y7357500D01*
X5974718Y7357362D01*
X5974487Y7357177D01*
X5974210Y7356899D01*
X5973886Y7356622D01*
X5973147Y7356021D01*
X5972361Y7355328D01*
X5971621Y7354634D01*
X5970974Y7354033D01*
X5970696Y7353802D01*
X5970465Y7353571D01*
X5970419Y7353525D01*
X5970280Y7353386D01*
X5970096Y7353201D01*
X5969864Y7352924D01*
X5969633Y7352600D01*
X5969356Y7352277D01*
X5968801Y7351491D01*
X5984565D01*
Y7347700D01*
X5963346D01*
Y7347746D01*
Y7347931D01*
Y7348209D01*
X5963392Y7348578D01*
X5963439Y7348994D01*
X5963531Y7349457D01*
X5963624Y7349919D01*
X5963808Y7350428D01*
Y7350474D01*
X5963855Y7350520D01*
X5963947Y7350797D01*
X5964132Y7351213D01*
X5964409Y7351768D01*
X5964779Y7352415D01*
X5965242Y7353155D01*
X5965750Y7353895D01*
X5966397Y7354680D01*
Y7354727D01*
X5966490Y7354773D01*
X5966721Y7355050D01*
X5967137Y7355466D01*
X5967738Y7356067D01*
X5968431Y7356761D01*
X5969310Y7357593D01*
X5970373Y7358517D01*
X5971529Y7359488D01*
X5971575Y7359534D01*
X5971760Y7359673D01*
X5972037Y7359904D01*
X5972361Y7360182D01*
X5972777Y7360551D01*
X5973285Y7360967D01*
X5973794Y7361430D01*
X5974395Y7361938D01*
X5975550Y7363048D01*
X5976706Y7364157D01*
X5977261Y7364712D01*
X5977769Y7365267D01*
X5978232Y7365775D01*
X5978601Y7366284D01*
Y7366330D01*
X5978694Y7366376D01*
X5978786Y7366515D01*
X5978879Y7366700D01*
X5979202Y7367208D01*
X5979572Y7367809D01*
X5979896Y7368549D01*
X5980219Y7369335D01*
X5980404Y7370213D01*
X5980497Y7371045D01*
Y7371091D01*
Y7371138D01*
X5980451Y7371415D01*
X5980404Y7371877D01*
X5980266Y7372386D01*
X5980081Y7373033D01*
X5979757Y7373680D01*
X5979341Y7374327D01*
X5978786Y7374975D01*
X5978694Y7375067D01*
X5978463Y7375252D01*
X5978139Y7375483D01*
X5977631Y7375807D01*
X5976983Y7376084D01*
X5976244Y7376361D01*
X5975365Y7376546D01*
X5974395Y7376593D01*
X5974117D01*
X5973932Y7376546D01*
X5973378Y7376500D01*
X5972730Y7376361D01*
X5972037Y7376177D01*
X5971251Y7375853D01*
X5970512Y7375437D01*
X5969818Y7374882D01*
X5969726Y7374790D01*
X5969541Y7374559D01*
X5969263Y7374189D01*
X5968986Y7373634D01*
X5968662Y7372987D01*
X5968385Y7372155D01*
X5968200Y7371230D01*
X5968108Y7370167D01*
X5964086Y7370583D01*
Y7370629D01*
X5964132Y7370768D01*
Y7370999D01*
X5964178Y7371323D01*
X5964271Y7371692D01*
X5964363Y7372108D01*
X5964502Y7372617D01*
X5964641Y7373125D01*
X5965010Y7374235D01*
X5965565Y7375344D01*
X5965889Y7375899D01*
X5966305Y7376454D01*
X5966721Y7376962D01*
X5967183Y7377425D01*
X5967229Y7377471D01*
X5967322Y7377517D01*
X5967461Y7377656D01*
X5967692Y7377794D01*
X5967969Y7377979D01*
X5968293Y7378164D01*
X5968662Y7378395D01*
X5969125Y7378627D01*
X5969633Y7378858D01*
X5970188Y7379089D01*
X5970789Y7379274D01*
X5971436Y7379459D01*
X5972130Y7379597D01*
X5972869Y7379736D01*
X5973655Y7379782D01*
X5974487Y7379829D01*
X5974949D01*
X5975273Y7379782D01*
D02*
G37*
G36*
X6082152D02*
X6082753Y7379690D01*
X6083447Y7379551D01*
X6084186Y7379366D01*
X6084972Y7379135D01*
X6085712Y7378765D01*
X6085758D01*
X6085804Y7378719D01*
X6086035Y7378580D01*
X6086405Y7378349D01*
X6086867Y7378026D01*
X6087376Y7377563D01*
X6087931Y7377055D01*
X6088439Y7376454D01*
X6088948Y7375760D01*
X6088994Y7375668D01*
X6089179Y7375437D01*
X6089364Y7375021D01*
X6089687Y7374420D01*
X6089965Y7373726D01*
X6090335Y7372941D01*
X6090658Y7372016D01*
X6090935Y7370999D01*
Y7370953D01*
X6090982Y7370860D01*
X6091028Y7370722D01*
X6091074Y7370490D01*
X6091120Y7370213D01*
X6091167Y7369890D01*
X6091259Y7369473D01*
X6091305Y7369011D01*
X6091398Y7368503D01*
X6091444Y7367948D01*
X6091490Y7367301D01*
X6091583Y7366654D01*
X6091629Y7365914D01*
Y7365174D01*
X6091675Y7364342D01*
Y7363464D01*
Y7363418D01*
Y7363233D01*
Y7362909D01*
Y7362539D01*
X6091629Y7362031D01*
Y7361476D01*
X6091583Y7360875D01*
X6091536Y7360228D01*
X6091398Y7358749D01*
X6091167Y7357223D01*
X6090889Y7355744D01*
X6090704Y7355050D01*
X6090473Y7354357D01*
Y7354311D01*
X6090427Y7354218D01*
X6090335Y7354033D01*
X6090242Y7353802D01*
X6090150Y7353479D01*
X6089965Y7353155D01*
X6089595Y7352369D01*
X6089133Y7351537D01*
X6088532Y7350612D01*
X6087838Y7349780D01*
X6087006Y7348994D01*
X6086960D01*
X6086914Y7348902D01*
X6086775Y7348810D01*
X6086590Y7348717D01*
X6086359Y7348578D01*
X6086128Y7348393D01*
X6085434Y7348070D01*
X6084602Y7347746D01*
X6083631Y7347423D01*
X6082476Y7347238D01*
X6081228Y7347145D01*
X6080765D01*
X6080442Y7347192D01*
X6080072Y7347238D01*
X6079610Y7347330D01*
X6079101Y7347423D01*
X6078546Y7347561D01*
X6077992Y7347746D01*
X6077391Y7347931D01*
X6076790Y7348209D01*
X6076189Y7348532D01*
X6075588Y7348902D01*
X6074987Y7349364D01*
X6074432Y7349873D01*
X6073924Y7350428D01*
X6073877Y7350474D01*
X6073785Y7350612D01*
X6073646Y7350844D01*
X6073415Y7351213D01*
X6073184Y7351629D01*
X6072953Y7352184D01*
X6072629Y7352831D01*
X6072352Y7353571D01*
X6072074Y7354403D01*
X6071797Y7355374D01*
X6071520Y7356437D01*
X6071289Y7357639D01*
X6071057Y7358933D01*
X6070919Y7360320D01*
X6070826Y7361846D01*
X6070780Y7363464D01*
Y7363510D01*
Y7363695D01*
Y7364019D01*
Y7364388D01*
X6070826Y7364897D01*
Y7365452D01*
X6070873Y7366053D01*
X6070919Y7366746D01*
X6071057Y7368179D01*
X6071289Y7369705D01*
X6071566Y7371230D01*
X6071751Y7371924D01*
X6071936Y7372617D01*
Y7372663D01*
X6071982Y7372756D01*
X6072074Y7372941D01*
X6072167Y7373172D01*
X6072259Y7373495D01*
X6072444Y7373819D01*
X6072814Y7374605D01*
X6073276Y7375437D01*
X6073877Y7376315D01*
X6074571Y7377194D01*
X6075403Y7377933D01*
X6075449D01*
X6075495Y7378026D01*
X6075634Y7378118D01*
X6075819Y7378211D01*
X6076050Y7378395D01*
X6076327Y7378534D01*
X6077021Y7378904D01*
X6077853Y7379228D01*
X6078824Y7379551D01*
X6079979Y7379736D01*
X6081228Y7379829D01*
X6081644D01*
X6082152Y7379782D01*
D02*
G37*
G36*
X6057282D02*
X6057882Y7379690D01*
X6058576Y7379551D01*
X6059316Y7379366D01*
X6060101Y7379135D01*
X6060841Y7378765D01*
X6060887D01*
X6060934Y7378719D01*
X6061165Y7378580D01*
X6061534Y7378349D01*
X6061997Y7378026D01*
X6062505Y7377563D01*
X6063060Y7377055D01*
X6063569Y7376454D01*
X6064077Y7375760D01*
X6064123Y7375668D01*
X6064308Y7375437D01*
X6064493Y7375021D01*
X6064817Y7374420D01*
X6065094Y7373726D01*
X6065464Y7372941D01*
X6065787Y7372016D01*
X6066065Y7370999D01*
Y7370953D01*
X6066111Y7370860D01*
X6066157Y7370722D01*
X6066204Y7370490D01*
X6066250Y7370213D01*
X6066296Y7369890D01*
X6066388Y7369473D01*
X6066435Y7369011D01*
X6066527Y7368503D01*
X6066573Y7367948D01*
X6066620Y7367301D01*
X6066712Y7366654D01*
X6066758Y7365914D01*
Y7365174D01*
X6066804Y7364342D01*
Y7363464D01*
Y7363418D01*
Y7363233D01*
Y7362909D01*
Y7362539D01*
X6066758Y7362031D01*
Y7361476D01*
X6066712Y7360875D01*
X6066666Y7360228D01*
X6066527Y7358749D01*
X6066296Y7357223D01*
X6066019Y7355744D01*
X6065834Y7355050D01*
X6065603Y7354357D01*
Y7354311D01*
X6065556Y7354218D01*
X6065464Y7354033D01*
X6065371Y7353802D01*
X6065279Y7353479D01*
X6065094Y7353155D01*
X6064724Y7352369D01*
X6064262Y7351537D01*
X6063661Y7350612D01*
X6062968Y7349780D01*
X6062135Y7348994D01*
X6062089D01*
X6062043Y7348902D01*
X6061904Y7348810D01*
X6061719Y7348717D01*
X6061488Y7348578D01*
X6061257Y7348393D01*
X6060564Y7348070D01*
X6059732Y7347746D01*
X6058761Y7347423D01*
X6057605Y7347238D01*
X6056357Y7347145D01*
X6055895D01*
X6055571Y7347192D01*
X6055201Y7347238D01*
X6054739Y7347330D01*
X6054230Y7347423D01*
X6053676Y7347561D01*
X6053121Y7347746D01*
X6052520Y7347931D01*
X6051919Y7348209D01*
X6051318Y7348532D01*
X6050717Y7348902D01*
X6050116Y7349364D01*
X6049561Y7349873D01*
X6049053Y7350428D01*
X6049007Y7350474D01*
X6048914Y7350612D01*
X6048776Y7350844D01*
X6048544Y7351213D01*
X6048313Y7351629D01*
X6048082Y7352184D01*
X6047759Y7352831D01*
X6047481Y7353571D01*
X6047204Y7354403D01*
X6046926Y7355374D01*
X6046649Y7356437D01*
X6046418Y7357639D01*
X6046187Y7358933D01*
X6046048Y7360320D01*
X6045956Y7361846D01*
X6045909Y7363464D01*
Y7363510D01*
Y7363695D01*
Y7364019D01*
Y7364388D01*
X6045956Y7364897D01*
Y7365452D01*
X6046002Y7366053D01*
X6046048Y7366746D01*
X6046187Y7368179D01*
X6046418Y7369705D01*
X6046695Y7371230D01*
X6046880Y7371924D01*
X6047065Y7372617D01*
Y7372663D01*
X6047111Y7372756D01*
X6047204Y7372941D01*
X6047296Y7373172D01*
X6047389Y7373495D01*
X6047574Y7373819D01*
X6047943Y7374605D01*
X6048406Y7375437D01*
X6049007Y7376315D01*
X6049700Y7377194D01*
X6050532Y7377933D01*
X6050578D01*
X6050625Y7378026D01*
X6050763Y7378118D01*
X6050948Y7378211D01*
X6051179Y7378395D01*
X6051457Y7378534D01*
X6052150Y7378904D01*
X6052982Y7379228D01*
X6053953Y7379551D01*
X6055109Y7379736D01*
X6056357Y7379829D01*
X6056773D01*
X6057282Y7379782D01*
D02*
G37*
G36*
X6008973Y7422282D02*
X6009574Y7422190D01*
X6010314Y7422051D01*
X6011146Y7421820D01*
X6011978Y7421543D01*
X6012810Y7421173D01*
X6012856D01*
X6012903Y7421127D01*
X6013180Y7420988D01*
X6013596Y7420711D01*
X6014058Y7420387D01*
X6014613Y7419925D01*
X6015168Y7419416D01*
X6015723Y7418815D01*
X6016185Y7418122D01*
X6016231Y7418029D01*
X6016370Y7417798D01*
X6016555Y7417382D01*
X6016786Y7416874D01*
X6017017Y7416273D01*
X6017202Y7415579D01*
X6017341Y7414793D01*
X6017387Y7414008D01*
Y7413915D01*
Y7413638D01*
X6017341Y7413268D01*
X6017248Y7412759D01*
X6017109Y7412158D01*
X6016878Y7411511D01*
X6016601Y7410864D01*
X6016231Y7410217D01*
X6016185Y7410124D01*
X6016046Y7409939D01*
X6015769Y7409616D01*
X6015399Y7409246D01*
X6014937Y7408830D01*
X6014382Y7408368D01*
X6013735Y7407952D01*
X6012949Y7407536D01*
X6012995D01*
X6013088Y7407489D01*
X6013226Y7407443D01*
X6013411Y7407397D01*
X6013920Y7407212D01*
X6014567Y7406935D01*
X6015306Y7406565D01*
X6016046Y7406103D01*
X6016740Y7405502D01*
X6017387Y7404808D01*
X6017433Y7404716D01*
X6017618Y7404438D01*
X6017895Y7403976D01*
X6018173Y7403375D01*
X6018450Y7402635D01*
X6018727Y7401757D01*
X6018912Y7400740D01*
X6018958Y7399631D01*
Y7399584D01*
Y7399446D01*
Y7399215D01*
X6018912Y7398937D01*
X6018866Y7398567D01*
X6018774Y7398151D01*
X6018681Y7397689D01*
X6018589Y7397181D01*
X6018219Y7396071D01*
X6017941Y7395470D01*
X6017664Y7394915D01*
X6017294Y7394314D01*
X6016878Y7393713D01*
X6016416Y7393112D01*
X6015861Y7392558D01*
X6015815Y7392512D01*
X6015723Y7392419D01*
X6015538Y7392280D01*
X6015306Y7392095D01*
X6015029Y7391864D01*
X6014659Y7391633D01*
X6014243Y7391356D01*
X6013735Y7391125D01*
X6013226Y7390847D01*
X6012625Y7390570D01*
X6012024Y7390339D01*
X6011331Y7390108D01*
X6010591Y7389923D01*
X6009805Y7389784D01*
X6009019Y7389692D01*
X6008141Y7389645D01*
X6007725D01*
X6007448Y7389692D01*
X6007078Y7389738D01*
X6006662Y7389784D01*
X6006200Y7389877D01*
X6005691Y7389969D01*
X6004582Y7390246D01*
X6003426Y7390709D01*
X6002825Y7390986D01*
X6002270Y7391310D01*
X6001715Y7391726D01*
X6001161Y7392142D01*
X6001114Y7392188D01*
X6001022Y7392280D01*
X6000883Y7392419D01*
X6000745Y7392604D01*
X6000514Y7392835D01*
X6000282Y7393159D01*
X6000005Y7393482D01*
X5999728Y7393898D01*
X5999450Y7394361D01*
X5999173Y7394823D01*
X5998664Y7395932D01*
X5998248Y7397227D01*
X5998110Y7397920D01*
X5998017Y7398660D01*
X6001947Y7399168D01*
Y7399122D01*
X6001993Y7399030D01*
X6002039Y7398845D01*
X6002085Y7398614D01*
X6002132Y7398336D01*
X6002224Y7398013D01*
X6002455Y7397319D01*
X6002779Y7396487D01*
X6003195Y7395701D01*
X6003657Y7394962D01*
X6004212Y7394314D01*
X6004304Y7394268D01*
X6004489Y7394083D01*
X6004859Y7393852D01*
X6005321Y7393621D01*
X6005876Y7393344D01*
X6006569Y7393112D01*
X6007355Y7392928D01*
X6008187Y7392881D01*
X6008465D01*
X6008650Y7392928D01*
X6009158Y7392974D01*
X6009805Y7393112D01*
X6010545Y7393344D01*
X6011331Y7393667D01*
X6012117Y7394129D01*
X6012856Y7394777D01*
X6012949Y7394869D01*
X6013180Y7395146D01*
X6013457Y7395563D01*
X6013827Y7396117D01*
X6014197Y7396811D01*
X6014474Y7397597D01*
X6014706Y7398521D01*
X6014798Y7399538D01*
Y7399584D01*
Y7399677D01*
Y7399816D01*
X6014752Y7400000D01*
X6014706Y7400509D01*
X6014567Y7401110D01*
X6014382Y7401850D01*
X6014058Y7402589D01*
X6013596Y7403329D01*
X6012995Y7404022D01*
X6012903Y7404115D01*
X6012671Y7404300D01*
X6012302Y7404577D01*
X6011793Y7404901D01*
X6011146Y7405224D01*
X6010360Y7405502D01*
X6009482Y7405686D01*
X6008511Y7405779D01*
X6008095D01*
X6007771Y7405733D01*
X6007355Y7405686D01*
X6006893Y7405594D01*
X6006338Y7405502D01*
X6005737Y7405363D01*
X6006200Y7408830D01*
X6006431D01*
X6006616Y7408784D01*
X6007217D01*
X6007725Y7408876D01*
X6008326Y7408969D01*
X6009019Y7409107D01*
X6009805Y7409338D01*
X6010545Y7409662D01*
X6011331Y7410078D01*
X6011377D01*
X6011423Y7410124D01*
X6011654Y7410309D01*
X6011978Y7410633D01*
X6012348Y7411049D01*
X6012718Y7411650D01*
X6013041Y7412343D01*
X6013272Y7413129D01*
X6013365Y7413591D01*
Y7414100D01*
Y7414146D01*
Y7414192D01*
Y7414470D01*
X6013272Y7414840D01*
X6013180Y7415348D01*
X6012995Y7415903D01*
X6012764Y7416504D01*
X6012394Y7417105D01*
X6011886Y7417660D01*
X6011839Y7417706D01*
X6011608Y7417891D01*
X6011285Y7418122D01*
X6010869Y7418399D01*
X6010314Y7418630D01*
X6009667Y7418861D01*
X6008927Y7419046D01*
X6008095Y7419093D01*
X6007725D01*
X6007309Y7419000D01*
X6006754Y7418908D01*
X6006153Y7418723D01*
X6005552Y7418492D01*
X6004905Y7418122D01*
X6004304Y7417660D01*
X6004258Y7417613D01*
X6004073Y7417382D01*
X6003796Y7417059D01*
X6003472Y7416596D01*
X6003149Y7415995D01*
X6002825Y7415256D01*
X6002548Y7414377D01*
X6002363Y7413360D01*
X5998433Y7414054D01*
Y7414100D01*
X5998479Y7414239D01*
X5998526Y7414424D01*
X5998572Y7414701D01*
X5998664Y7415025D01*
X5998803Y7415394D01*
X5999080Y7416273D01*
X5999543Y7417290D01*
X6000097Y7418307D01*
X6000791Y7419278D01*
X6001669Y7420156D01*
X6001715Y7420202D01*
X6001808Y7420248D01*
X6001947Y7420341D01*
X6002132Y7420479D01*
X6002363Y7420664D01*
X6002686Y7420849D01*
X6003010Y7421034D01*
X6003426Y7421265D01*
X6004350Y7421635D01*
X6005414Y7422005D01*
X6006662Y7422236D01*
X6007309Y7422329D01*
X6008465D01*
X6008973Y7422282D01*
D02*
G37*
G36*
X5979341Y7422698D02*
X5979757D01*
X5980173Y7422652D01*
X5980728Y7422560D01*
X5981283Y7422467D01*
X5982485Y7422236D01*
X5983871Y7421866D01*
X5985212Y7421312D01*
X5985905Y7420988D01*
X5986599Y7420618D01*
X5986645Y7420572D01*
X5986738Y7420526D01*
X5986922Y7420387D01*
X5987200Y7420248D01*
X5987477Y7420017D01*
X5987847Y7419740D01*
X5988633Y7419093D01*
X5989465Y7418260D01*
X5990390Y7417243D01*
X5991268Y7416042D01*
X5992008Y7414701D01*
Y7414655D01*
X5992100Y7414516D01*
X5992192Y7414331D01*
X5992285Y7414054D01*
X5992470Y7413684D01*
X5992609Y7413268D01*
X5992793Y7412759D01*
X5992978Y7412205D01*
X5993117Y7411604D01*
X5993302Y7410956D01*
X5993487Y7410263D01*
X5993626Y7409523D01*
X5993810Y7407905D01*
X5993903Y7406195D01*
Y7406149D01*
Y7406010D01*
Y7405825D01*
Y7405548D01*
X5993857Y7405178D01*
Y7404762D01*
X5993810Y7404300D01*
X5993764Y7403837D01*
X5993626Y7402728D01*
X5993394Y7401526D01*
X5993117Y7400278D01*
X5992701Y7399076D01*
Y7399030D01*
X5992655Y7398937D01*
X5992562Y7398752D01*
X5992470Y7398567D01*
X5992331Y7398290D01*
X5992192Y7397966D01*
X5991823Y7397227D01*
X5991314Y7396348D01*
X5990667Y7395424D01*
X5989927Y7394499D01*
X5989095Y7393575D01*
X5989141D01*
X5989234Y7393482D01*
X5989373Y7393390D01*
X5989604Y7393251D01*
X5989835Y7393066D01*
X5990158Y7392881D01*
X5990852Y7392465D01*
X5991684Y7391957D01*
X5992609Y7391448D01*
X5993579Y7391032D01*
X5994504Y7390616D01*
X5993256Y7387704D01*
X5993210D01*
X5993117Y7387750D01*
X5992932Y7387842D01*
X5992655Y7387935D01*
X5992331Y7388074D01*
X5991961Y7388259D01*
X5991545Y7388443D01*
X5991083Y7388675D01*
X5990066Y7389229D01*
X5988910Y7389877D01*
X5987662Y7390709D01*
X5986368Y7391633D01*
X5986322D01*
X5986229Y7391541D01*
X5985998Y7391448D01*
X5985767Y7391310D01*
X5985397Y7391171D01*
X5985027Y7390986D01*
X5984565Y7390847D01*
X5984056Y7390662D01*
X5983502Y7390477D01*
X5982901Y7390293D01*
X5981560Y7389969D01*
X5980081Y7389738D01*
X5979295Y7389692D01*
X5978509Y7389645D01*
X5978093D01*
X5977769Y7389692D01*
X5977400D01*
X5976937Y7389738D01*
X5976429Y7389830D01*
X5975874Y7389923D01*
X5974672Y7390154D01*
X5973331Y7390524D01*
X5971945Y7391032D01*
X5971297Y7391356D01*
X5970604Y7391726D01*
X5970558Y7391772D01*
X5970465Y7391818D01*
X5970280Y7391957D01*
X5970049Y7392095D01*
X5969726Y7392327D01*
X5969402Y7392604D01*
X5968616Y7393251D01*
X5967738Y7394083D01*
X5966860Y7395100D01*
X5965981Y7396256D01*
X5965195Y7397597D01*
Y7397643D01*
X5965103Y7397781D01*
X5965010Y7397966D01*
X5964918Y7398244D01*
X5964779Y7398614D01*
X5964594Y7399030D01*
X5964409Y7399538D01*
X5964271Y7400093D01*
X5964086Y7400694D01*
X5963901Y7401341D01*
X5963762Y7402034D01*
X5963577Y7402820D01*
X5963392Y7404438D01*
X5963300Y7406149D01*
Y7406195D01*
Y7406380D01*
Y7406611D01*
X5963346Y7406935D01*
Y7407351D01*
X5963392Y7407859D01*
X5963439Y7408414D01*
X5963531Y7409015D01*
X5963762Y7410356D01*
X5964086Y7411789D01*
X5964548Y7413314D01*
X5965195Y7414793D01*
X5965242Y7414840D01*
X5965288Y7414978D01*
X5965380Y7415163D01*
X5965565Y7415441D01*
X5965750Y7415764D01*
X5965981Y7416134D01*
X5966628Y7417012D01*
X5967368Y7417937D01*
X5968339Y7418908D01*
X5969402Y7419878D01*
X5970650Y7420711D01*
X5970696Y7420757D01*
X5970835Y7420803D01*
X5971020Y7420895D01*
X5971297Y7421034D01*
X5971621Y7421173D01*
X5971991Y7421358D01*
X5972453Y7421543D01*
X5972962Y7421728D01*
X5973563Y7421913D01*
X5974164Y7422097D01*
X5975504Y7422421D01*
X5976983Y7422652D01*
X5977769Y7422745D01*
X5979018D01*
X5979341Y7422698D01*
D02*
G37*
G36*
X6713378Y6779907D02*
X6713795Y6779861D01*
X6714257Y6779769D01*
X6714719Y6779676D01*
X6715228Y6779491D01*
X6715274D01*
X6715320Y6779445D01*
X6715597Y6779353D01*
X6716013Y6779168D01*
X6716568Y6778890D01*
X6717215Y6778521D01*
X6717955Y6778058D01*
X6718695Y6777550D01*
X6719481Y6776903D01*
X6719527D01*
X6719573Y6776810D01*
X6719850Y6776579D01*
X6720266Y6776163D01*
X6720867Y6775562D01*
X6721561Y6774869D01*
X6722393Y6773990D01*
X6723318Y6772927D01*
X6724288Y6771771D01*
X6724335Y6771725D01*
X6724473Y6771540D01*
X6724704Y6771263D01*
X6724982Y6770939D01*
X6725352Y6770523D01*
X6725768Y6770015D01*
X6726230Y6769506D01*
X6726738Y6768905D01*
X6727848Y6767749D01*
X6728957Y6766594D01*
X6729512Y6766039D01*
X6730067Y6765531D01*
X6730575Y6765068D01*
X6731084Y6764698D01*
X6731130D01*
X6731176Y6764606D01*
X6731315Y6764514D01*
X6731500Y6764421D01*
X6732008Y6764097D01*
X6732609Y6763728D01*
X6733349Y6763404D01*
X6734135Y6763080D01*
X6735013Y6762896D01*
X6735845Y6762803D01*
X6735892D01*
X6735938D01*
X6736215Y6762849D01*
X6736677Y6762896D01*
X6737186Y6763034D01*
X6737833Y6763219D01*
X6738480Y6763543D01*
X6739127Y6763959D01*
X6739775Y6764514D01*
X6739867Y6764606D01*
X6740052Y6764837D01*
X6740283Y6765161D01*
X6740607Y6765669D01*
X6740884Y6766316D01*
X6741162Y6767056D01*
X6741346Y6767934D01*
X6741393Y6768905D01*
Y6769183D01*
X6741346Y6769367D01*
X6741300Y6769922D01*
X6741162Y6770569D01*
X6740977Y6771263D01*
X6740653Y6772049D01*
X6740237Y6772788D01*
X6739682Y6773482D01*
X6739590Y6773574D01*
X6739359Y6773759D01*
X6738989Y6774036D01*
X6738434Y6774314D01*
X6737787Y6774637D01*
X6736955Y6774915D01*
X6736030Y6775100D01*
X6734967Y6775192D01*
X6735383Y6779214D01*
X6735429D01*
X6735568Y6779168D01*
X6735799D01*
X6736123Y6779122D01*
X6736492Y6779029D01*
X6736909Y6778937D01*
X6737417Y6778798D01*
X6737926Y6778659D01*
X6739035Y6778289D01*
X6740145Y6777735D01*
X6740699Y6777411D01*
X6741254Y6776995D01*
X6741762Y6776579D01*
X6742225Y6776117D01*
X6742271Y6776071D01*
X6742317Y6775978D01*
X6742456Y6775839D01*
X6742595Y6775608D01*
X6742780Y6775331D01*
X6742964Y6775007D01*
X6743196Y6774637D01*
X6743427Y6774175D01*
X6743658Y6773667D01*
X6743889Y6773112D01*
X6744074Y6772511D01*
X6744259Y6771864D01*
X6744397Y6771170D01*
X6744536Y6770431D01*
X6744582Y6769645D01*
X6744629Y6768813D01*
Y6768350D01*
X6744582Y6768027D01*
X6744536Y6767657D01*
X6744490Y6767195D01*
X6744397Y6766686D01*
X6744305Y6766178D01*
X6743981Y6764976D01*
X6743519Y6763774D01*
X6743242Y6763173D01*
X6742918Y6762572D01*
X6742502Y6762017D01*
X6742040Y6761509D01*
X6741994Y6761462D01*
X6741947Y6761370D01*
X6741762Y6761278D01*
X6741578Y6761093D01*
X6741346Y6760862D01*
X6741023Y6760630D01*
X6740699Y6760399D01*
X6740283Y6760122D01*
X6739405Y6759660D01*
X6738295Y6759197D01*
X6737741Y6759012D01*
X6737093Y6758920D01*
X6736446Y6758827D01*
X6735753Y6758781D01*
X6735660D01*
X6735429D01*
X6735059Y6758827D01*
X6734551Y6758874D01*
X6733996Y6758966D01*
X6733349Y6759151D01*
X6732656Y6759336D01*
X6731962Y6759613D01*
X6731870Y6759660D01*
X6731639Y6759752D01*
X6731269Y6759937D01*
X6730760Y6760214D01*
X6730205Y6760584D01*
X6729512Y6761046D01*
X6728819Y6761601D01*
X6728033Y6762248D01*
X6727940Y6762341D01*
X6727663Y6762572D01*
X6727432Y6762803D01*
X6727201Y6763034D01*
X6726923Y6763312D01*
X6726553Y6763681D01*
X6726184Y6764051D01*
X6725768Y6764514D01*
X6725305Y6764976D01*
X6724797Y6765531D01*
X6724288Y6766132D01*
X6723687Y6766779D01*
X6723086Y6767518D01*
X6722439Y6768258D01*
X6722393Y6768304D01*
X6722300Y6768397D01*
X6722162Y6768582D01*
X6721977Y6768813D01*
X6721700Y6769090D01*
X6721422Y6769414D01*
X6720821Y6770153D01*
X6720128Y6770939D01*
X6719434Y6771679D01*
X6718833Y6772326D01*
X6718602Y6772603D01*
X6718371Y6772835D01*
X6718325Y6772881D01*
X6718186Y6773019D01*
X6718001Y6773204D01*
X6717724Y6773436D01*
X6717400Y6773667D01*
X6717077Y6773944D01*
X6716291Y6774499D01*
Y6758735D01*
X6712500D01*
Y6779954D01*
X6712546D01*
X6712731D01*
X6713009D01*
X6713378Y6779907D01*
D02*
G37*
G36*
X6744490Y6748611D02*
X6719342Y6731830D01*
X6744490D01*
Y6727762D01*
X6712500D01*
Y6732154D01*
X6737602Y6748888D01*
X6712500D01*
Y6752957D01*
X6744490D01*
Y6748611D01*
D02*
G37*
G36*
X6744074Y6701274D02*
X6740977D01*
X6740930Y6701320D01*
X6740838Y6701412D01*
X6740653Y6701597D01*
X6740376Y6701782D01*
X6740052Y6702059D01*
X6739682Y6702429D01*
X6739220Y6702799D01*
X6738665Y6703215D01*
X6738110Y6703631D01*
X6737463Y6704140D01*
X6736724Y6704648D01*
X6735984Y6705157D01*
X6735152Y6705712D01*
X6734274Y6706266D01*
X6733303Y6706821D01*
X6732332Y6707376D01*
X6732286Y6707422D01*
X6732101Y6707514D01*
X6731823Y6707653D01*
X6731407Y6707884D01*
X6730899Y6708115D01*
X6730344Y6708393D01*
X6729697Y6708716D01*
X6728957Y6709040D01*
X6728125Y6709410D01*
X6727293Y6709826D01*
X6726369Y6710196D01*
X6725398Y6710565D01*
X6723410Y6711305D01*
X6721283Y6711999D01*
X6721237D01*
X6721099Y6712045D01*
X6720867Y6712091D01*
X6720590Y6712183D01*
X6720220Y6712276D01*
X6719758Y6712368D01*
X6719249Y6712507D01*
X6718695Y6712599D01*
X6718048Y6712738D01*
X6717354Y6712877D01*
X6715875Y6713108D01*
X6714257Y6713339D01*
X6712500Y6713478D01*
Y6717500D01*
X6712546D01*
X6712685D01*
X6712870D01*
X6713147Y6717453D01*
X6713517D01*
X6713979Y6717407D01*
X6714488Y6717361D01*
X6715043Y6717315D01*
X6715690Y6717222D01*
X6716337Y6717130D01*
X6717123Y6716991D01*
X6717909Y6716852D01*
X6718741Y6716714D01*
X6719666Y6716529D01*
X6721561Y6716067D01*
X6721607D01*
X6721792Y6716020D01*
X6722069Y6715928D01*
X6722485Y6715789D01*
X6722948Y6715651D01*
X6723502Y6715466D01*
X6724150Y6715281D01*
X6724843Y6715003D01*
X6725629Y6714726D01*
X6726415Y6714449D01*
X6728171Y6713755D01*
X6730021Y6712923D01*
X6731870Y6711999D01*
X6731916Y6711952D01*
X6732101Y6711860D01*
X6732332Y6711721D01*
X6732702Y6711536D01*
X6733118Y6711305D01*
X6733626Y6710981D01*
X6734181Y6710658D01*
X6734782Y6710288D01*
X6736123Y6709410D01*
X6737510Y6708485D01*
X6738943Y6707422D01*
X6740283Y6706312D01*
Y6721984D01*
X6744074D01*
Y6701274D01*
D02*
G37*
G36*
X6729697Y6697344D02*
X6730252D01*
X6730853Y6697298D01*
X6731546Y6697252D01*
X6732979Y6697113D01*
X6734505Y6696882D01*
X6736030Y6696605D01*
X6736724Y6696420D01*
X6737417Y6696235D01*
X6737463D01*
X6737556Y6696189D01*
X6737741Y6696096D01*
X6737972Y6696004D01*
X6738295Y6695911D01*
X6738619Y6695726D01*
X6739405Y6695356D01*
X6740237Y6694894D01*
X6741115Y6694293D01*
X6741994Y6693600D01*
X6742733Y6692768D01*
Y6692721D01*
X6742826Y6692675D01*
X6742918Y6692537D01*
X6743011Y6692352D01*
X6743196Y6692120D01*
X6743334Y6691843D01*
X6743704Y6691150D01*
X6744028Y6690318D01*
X6744351Y6689347D01*
X6744536Y6688191D01*
X6744629Y6686943D01*
Y6686527D01*
X6744582Y6686018D01*
X6744490Y6685417D01*
X6744351Y6684724D01*
X6744166Y6683984D01*
X6743935Y6683198D01*
X6743565Y6682459D01*
Y6682413D01*
X6743519Y6682366D01*
X6743380Y6682135D01*
X6743149Y6681765D01*
X6742826Y6681303D01*
X6742363Y6680795D01*
X6741855Y6680240D01*
X6741254Y6679731D01*
X6740561Y6679223D01*
X6740468Y6679177D01*
X6740237Y6678992D01*
X6739821Y6678807D01*
X6739220Y6678483D01*
X6738527Y6678206D01*
X6737741Y6677836D01*
X6736816Y6677512D01*
X6735799Y6677235D01*
X6735753D01*
X6735660Y6677189D01*
X6735522Y6677143D01*
X6735291Y6677096D01*
X6735013Y6677050D01*
X6734690Y6677004D01*
X6734274Y6676911D01*
X6733811Y6676865D01*
X6733303Y6676773D01*
X6732748Y6676727D01*
X6732101Y6676680D01*
X6731454Y6676588D01*
X6730714Y6676542D01*
X6729974D01*
X6729142Y6676495D01*
X6728264D01*
X6728218D01*
X6728033D01*
X6727709D01*
X6727339D01*
X6726831Y6676542D01*
X6726276D01*
X6725675Y6676588D01*
X6725028Y6676634D01*
X6723549Y6676773D01*
X6722023Y6677004D01*
X6720544Y6677281D01*
X6719850Y6677466D01*
X6719157Y6677697D01*
X6719111D01*
X6719018Y6677744D01*
X6718833Y6677836D01*
X6718602Y6677928D01*
X6718279Y6678021D01*
X6717955Y6678206D01*
X6717169Y6678576D01*
X6716337Y6679038D01*
X6715413Y6679639D01*
X6714580Y6680332D01*
X6713795Y6681164D01*
Y6681211D01*
X6713702Y6681257D01*
X6713610Y6681396D01*
X6713517Y6681580D01*
X6713378Y6681812D01*
X6713194Y6682043D01*
X6712870Y6682736D01*
X6712546Y6683568D01*
X6712223Y6684539D01*
X6712038Y6685695D01*
X6711945Y6686943D01*
Y6687405D01*
X6711992Y6687729D01*
X6712038Y6688099D01*
X6712130Y6688561D01*
X6712223Y6689069D01*
X6712361Y6689624D01*
X6712546Y6690179D01*
X6712731Y6690780D01*
X6713009Y6691381D01*
X6713332Y6691982D01*
X6713702Y6692583D01*
X6714164Y6693184D01*
X6714673Y6693738D01*
X6715228Y6694247D01*
X6715274Y6694293D01*
X6715413Y6694386D01*
X6715644Y6694524D01*
X6716013Y6694755D01*
X6716430Y6694987D01*
X6716984Y6695218D01*
X6717631Y6695541D01*
X6718371Y6695819D01*
X6719203Y6696096D01*
X6720174Y6696373D01*
X6721237Y6696651D01*
X6722439Y6696882D01*
X6723734Y6697113D01*
X6725120Y6697252D01*
X6726646Y6697344D01*
X6728264Y6697390D01*
X6728310D01*
X6728495D01*
X6728819D01*
X6729188D01*
X6729697Y6697344D01*
D02*
G37*
G36*
Y6672474D02*
X6730252D01*
X6730853Y6672427D01*
X6731546Y6672381D01*
X6732979Y6672242D01*
X6734505Y6672011D01*
X6736030Y6671734D01*
X6736724Y6671549D01*
X6737417Y6671364D01*
X6737463D01*
X6737556Y6671318D01*
X6737741Y6671225D01*
X6737972Y6671133D01*
X6738295Y6671041D01*
X6738619Y6670856D01*
X6739405Y6670486D01*
X6740237Y6670023D01*
X6741115Y6669423D01*
X6741994Y6668729D01*
X6742733Y6667897D01*
Y6667851D01*
X6742826Y6667805D01*
X6742918Y6667666D01*
X6743011Y6667481D01*
X6743196Y6667250D01*
X6743334Y6666972D01*
X6743704Y6666279D01*
X6744028Y6665447D01*
X6744351Y6664476D01*
X6744536Y6663320D01*
X6744629Y6662072D01*
Y6661656D01*
X6744582Y6661148D01*
X6744490Y6660547D01*
X6744351Y6659853D01*
X6744166Y6659114D01*
X6743935Y6658328D01*
X6743565Y6657588D01*
Y6657542D01*
X6743519Y6657496D01*
X6743380Y6657265D01*
X6743149Y6656895D01*
X6742826Y6656432D01*
X6742363Y6655924D01*
X6741855Y6655369D01*
X6741254Y6654861D01*
X6740561Y6654352D01*
X6740468Y6654306D01*
X6740237Y6654121D01*
X6739821Y6653936D01*
X6739220Y6653613D01*
X6738527Y6653335D01*
X6737741Y6652965D01*
X6736816Y6652642D01*
X6735799Y6652364D01*
X6735753D01*
X6735660Y6652318D01*
X6735522Y6652272D01*
X6735291Y6652226D01*
X6735013Y6652179D01*
X6734690Y6652133D01*
X6734274Y6652041D01*
X6733811Y6651995D01*
X6733303Y6651902D01*
X6732748Y6651856D01*
X6732101Y6651810D01*
X6731454Y6651717D01*
X6730714Y6651671D01*
X6729974D01*
X6729142Y6651625D01*
X6728264D01*
X6728218D01*
X6728033D01*
X6727709D01*
X6727339D01*
X6726831Y6651671D01*
X6726276D01*
X6725675Y6651717D01*
X6725028Y6651763D01*
X6723549Y6651902D01*
X6722023Y6652133D01*
X6720544Y6652411D01*
X6719850Y6652596D01*
X6719157Y6652827D01*
X6719111D01*
X6719018Y6652873D01*
X6718833Y6652965D01*
X6718602Y6653058D01*
X6718279Y6653150D01*
X6717955Y6653335D01*
X6717169Y6653705D01*
X6716337Y6654167D01*
X6715413Y6654768D01*
X6714580Y6655462D01*
X6713795Y6656294D01*
Y6656340D01*
X6713702Y6656386D01*
X6713610Y6656525D01*
X6713517Y6656710D01*
X6713378Y6656941D01*
X6713194Y6657172D01*
X6712870Y6657866D01*
X6712546Y6658698D01*
X6712223Y6659668D01*
X6712038Y6660824D01*
X6711945Y6662072D01*
Y6662535D01*
X6711992Y6662858D01*
X6712038Y6663228D01*
X6712130Y6663690D01*
X6712223Y6664199D01*
X6712361Y6664753D01*
X6712546Y6665308D01*
X6712731Y6665909D01*
X6713009Y6666510D01*
X6713332Y6667111D01*
X6713702Y6667712D01*
X6714164Y6668313D01*
X6714673Y6668868D01*
X6715228Y6669376D01*
X6715274Y6669423D01*
X6715413Y6669515D01*
X6715644Y6669654D01*
X6716013Y6669885D01*
X6716430Y6670116D01*
X6716984Y6670347D01*
X6717631Y6670671D01*
X6718371Y6670948D01*
X6719203Y6671225D01*
X6720174Y6671503D01*
X6721237Y6671780D01*
X6722439Y6672011D01*
X6723734Y6672242D01*
X6725120Y6672381D01*
X6726646Y6672474D01*
X6728264Y6672520D01*
X6728310D01*
X6728495D01*
X6728819D01*
X6729188D01*
X6729697Y6672474D01*
D02*
G37*
G36*
X6713378Y6648158D02*
X6713795Y6648111D01*
X6714257Y6648019D01*
X6714719Y6647927D01*
X6715228Y6647742D01*
X6715274D01*
X6715320Y6647695D01*
X6715597Y6647603D01*
X6716013Y6647418D01*
X6716568Y6647141D01*
X6717215Y6646771D01*
X6717955Y6646309D01*
X6718695Y6645800D01*
X6719481Y6645153D01*
X6719527D01*
X6719573Y6645060D01*
X6719850Y6644829D01*
X6720266Y6644413D01*
X6720867Y6643812D01*
X6721561Y6643119D01*
X6722393Y6642240D01*
X6723318Y6641177D01*
X6724288Y6640022D01*
X6724335Y6639975D01*
X6724473Y6639790D01*
X6724704Y6639513D01*
X6724982Y6639189D01*
X6725352Y6638773D01*
X6725768Y6638265D01*
X6726230Y6637756D01*
X6726738Y6637155D01*
X6727848Y6636000D01*
X6728957Y6634844D01*
X6729512Y6634289D01*
X6730067Y6633781D01*
X6730575Y6633318D01*
X6731084Y6632949D01*
X6731130D01*
X6731176Y6632856D01*
X6731315Y6632764D01*
X6731500Y6632671D01*
X6732008Y6632348D01*
X6732609Y6631978D01*
X6733349Y6631654D01*
X6734135Y6631331D01*
X6735013Y6631146D01*
X6735845Y6631053D01*
X6735892D01*
X6735938D01*
X6736215Y6631100D01*
X6736677Y6631146D01*
X6737186Y6631284D01*
X6737833Y6631469D01*
X6738480Y6631793D01*
X6739127Y6632209D01*
X6739775Y6632764D01*
X6739867Y6632856D01*
X6740052Y6633087D01*
X6740283Y6633411D01*
X6740607Y6633919D01*
X6740884Y6634567D01*
X6741162Y6635306D01*
X6741346Y6636185D01*
X6741393Y6637155D01*
Y6637433D01*
X6741346Y6637618D01*
X6741300Y6638172D01*
X6741162Y6638820D01*
X6740977Y6639513D01*
X6740653Y6640299D01*
X6740237Y6641039D01*
X6739682Y6641732D01*
X6739590Y6641824D01*
X6739359Y6642009D01*
X6738989Y6642287D01*
X6738434Y6642564D01*
X6737787Y6642888D01*
X6736955Y6643165D01*
X6736030Y6643350D01*
X6734967Y6643442D01*
X6735383Y6647464D01*
X6735429D01*
X6735568Y6647418D01*
X6735799D01*
X6736123Y6647372D01*
X6736492Y6647279D01*
X6736909Y6647187D01*
X6737417Y6647048D01*
X6737926Y6646909D01*
X6739035Y6646540D01*
X6740145Y6645985D01*
X6740699Y6645661D01*
X6741254Y6645245D01*
X6741762Y6644829D01*
X6742225Y6644367D01*
X6742271Y6644321D01*
X6742317Y6644228D01*
X6742456Y6644090D01*
X6742595Y6643858D01*
X6742780Y6643581D01*
X6742964Y6643257D01*
X6743196Y6642888D01*
X6743427Y6642425D01*
X6743658Y6641917D01*
X6743889Y6641362D01*
X6744074Y6640761D01*
X6744259Y6640114D01*
X6744397Y6639421D01*
X6744536Y6638681D01*
X6744582Y6637895D01*
X6744629Y6637063D01*
Y6636601D01*
X6744582Y6636277D01*
X6744536Y6635907D01*
X6744490Y6635445D01*
X6744397Y6634936D01*
X6744305Y6634428D01*
X6743981Y6633226D01*
X6743519Y6632024D01*
X6743242Y6631423D01*
X6742918Y6630822D01*
X6742502Y6630267D01*
X6742040Y6629759D01*
X6741994Y6629713D01*
X6741947Y6629620D01*
X6741762Y6629528D01*
X6741578Y6629343D01*
X6741346Y6629112D01*
X6741023Y6628881D01*
X6740699Y6628649D01*
X6740283Y6628372D01*
X6739405Y6627910D01*
X6738295Y6627448D01*
X6737741Y6627263D01*
X6737093Y6627170D01*
X6736446Y6627078D01*
X6735753Y6627031D01*
X6735660D01*
X6735429D01*
X6735059Y6627078D01*
X6734551Y6627124D01*
X6733996Y6627216D01*
X6733349Y6627401D01*
X6732656Y6627586D01*
X6731962Y6627864D01*
X6731870Y6627910D01*
X6731639Y6628002D01*
X6731269Y6628187D01*
X6730760Y6628465D01*
X6730205Y6628834D01*
X6729512Y6629297D01*
X6728819Y6629851D01*
X6728033Y6630499D01*
X6727940Y6630591D01*
X6727663Y6630822D01*
X6727432Y6631053D01*
X6727201Y6631284D01*
X6726923Y6631562D01*
X6726553Y6631932D01*
X6726184Y6632301D01*
X6725768Y6632764D01*
X6725305Y6633226D01*
X6724797Y6633781D01*
X6724288Y6634382D01*
X6723687Y6635029D01*
X6723086Y6635769D01*
X6722439Y6636508D01*
X6722393Y6636554D01*
X6722300Y6636647D01*
X6722162Y6636832D01*
X6721977Y6637063D01*
X6721700Y6637340D01*
X6721422Y6637664D01*
X6720821Y6638404D01*
X6720128Y6639189D01*
X6719434Y6639929D01*
X6718833Y6640576D01*
X6718602Y6640854D01*
X6718371Y6641085D01*
X6718325Y6641131D01*
X6718186Y6641270D01*
X6718001Y6641455D01*
X6717724Y6641686D01*
X6717400Y6641917D01*
X6717077Y6642194D01*
X6716291Y6642749D01*
Y6626985D01*
X6712500D01*
Y6648204D01*
X6712546D01*
X6712731D01*
X6713009D01*
X6713378Y6648158D01*
D02*
G37*
G36*
X6771735Y6779954D02*
X6772151D01*
X6772659Y6779907D01*
X6773214Y6779861D01*
X6773815Y6779769D01*
X6775156Y6779538D01*
X6776589Y6779214D01*
X6778114Y6778752D01*
X6779594Y6778105D01*
X6779640Y6778058D01*
X6779778Y6778012D01*
X6779963Y6777920D01*
X6780241Y6777735D01*
X6780564Y6777550D01*
X6780934Y6777319D01*
X6781812Y6776671D01*
X6782737Y6775932D01*
X6783708Y6774961D01*
X6784679Y6773898D01*
X6785511Y6772650D01*
X6785557Y6772603D01*
X6785603Y6772465D01*
X6785696Y6772280D01*
X6785834Y6772002D01*
X6785973Y6771679D01*
X6786158Y6771309D01*
X6786343Y6770847D01*
X6786528Y6770338D01*
X6786713Y6769737D01*
X6786898Y6769136D01*
X6787221Y6767796D01*
X6787452Y6766316D01*
X6787545Y6765531D01*
Y6764282D01*
X6787498Y6763959D01*
Y6763543D01*
X6787452Y6763127D01*
X6787360Y6762572D01*
X6787267Y6762017D01*
X6787036Y6760815D01*
X6786666Y6759428D01*
X6786112Y6758088D01*
X6785788Y6757394D01*
X6785418Y6756701D01*
X6785372Y6756655D01*
X6785326Y6756562D01*
X6785187Y6756377D01*
X6785048Y6756100D01*
X6784817Y6755823D01*
X6784540Y6755453D01*
X6783893Y6754667D01*
X6783061Y6753835D01*
X6782044Y6752910D01*
X6780842Y6752032D01*
X6779501Y6751292D01*
X6779455D01*
X6779316Y6751200D01*
X6779131Y6751107D01*
X6778854Y6751015D01*
X6778484Y6750830D01*
X6778068Y6750691D01*
X6777559Y6750506D01*
X6777005Y6750322D01*
X6776404Y6750183D01*
X6775757Y6749998D01*
X6775063Y6749813D01*
X6774324Y6749674D01*
X6772706Y6749489D01*
X6770995Y6749397D01*
X6770949D01*
X6770810D01*
X6770625D01*
X6770348D01*
X6769978Y6749443D01*
X6769562D01*
X6769100Y6749489D01*
X6768637Y6749536D01*
X6767528Y6749674D01*
X6766326Y6749905D01*
X6765078Y6750183D01*
X6763876Y6750599D01*
X6763830D01*
X6763737Y6750645D01*
X6763552Y6750738D01*
X6763367Y6750830D01*
X6763090Y6750969D01*
X6762767Y6751107D01*
X6762027Y6751477D01*
X6761149Y6751986D01*
X6760224Y6752633D01*
X6759299Y6753373D01*
X6758375Y6754205D01*
Y6754158D01*
X6758282Y6754066D01*
X6758190Y6753927D01*
X6758051Y6753696D01*
X6757866Y6753465D01*
X6757681Y6753141D01*
X6757265Y6752448D01*
X6756757Y6751616D01*
X6756248Y6750691D01*
X6755832Y6749721D01*
X6755416Y6748796D01*
X6752504Y6750044D01*
Y6750090D01*
X6752550Y6750183D01*
X6752643Y6750368D01*
X6752735Y6750645D01*
X6752874Y6750969D01*
X6753059Y6751339D01*
X6753244Y6751755D01*
X6753475Y6752217D01*
X6754029Y6753234D01*
X6754677Y6754390D01*
X6755509Y6755638D01*
X6756433Y6756932D01*
Y6756978D01*
X6756341Y6757071D01*
X6756248Y6757302D01*
X6756110Y6757533D01*
X6755971Y6757903D01*
X6755786Y6758273D01*
X6755647Y6758735D01*
X6755462Y6759244D01*
X6755278Y6759798D01*
X6755093Y6760399D01*
X6754769Y6761740D01*
X6754538Y6763219D01*
X6754492Y6764005D01*
X6754445Y6764791D01*
Y6765207D01*
X6754492Y6765531D01*
Y6765900D01*
X6754538Y6766363D01*
X6754630Y6766871D01*
X6754723Y6767426D01*
X6754954Y6768628D01*
X6755324Y6769968D01*
X6755832Y6771355D01*
X6756156Y6772002D01*
X6756526Y6772696D01*
X6756572Y6772742D01*
X6756618Y6772835D01*
X6756757Y6773019D01*
X6756896Y6773251D01*
X6757127Y6773574D01*
X6757404Y6773898D01*
X6758051Y6774684D01*
X6758883Y6775562D01*
X6759900Y6776440D01*
X6761056Y6777319D01*
X6762397Y6778105D01*
X6762443D01*
X6762582Y6778197D01*
X6762767Y6778289D01*
X6763044Y6778382D01*
X6763414Y6778521D01*
X6763830Y6778706D01*
X6764338Y6778890D01*
X6764893Y6779029D01*
X6765494Y6779214D01*
X6766141Y6779399D01*
X6766835Y6779538D01*
X6767620Y6779723D01*
X6769238Y6779907D01*
X6770949Y6780000D01*
X6770995D01*
X6771180D01*
X6771411D01*
X6771735Y6779954D01*
D02*
G37*
G36*
X6786990Y6732015D02*
Y6728826D01*
X6766280D01*
Y6724480D01*
X6762674D01*
Y6728826D01*
X6755000D01*
Y6732755D01*
X6762674D01*
Y6746670D01*
X6766280D01*
X6786990Y6732015D01*
D02*
G37*
%LPC*%
G36*
X2218843Y6519319D02*
X2218566D01*
X2218381Y6519272D01*
X2217919Y6519180D01*
X2217271Y6518995D01*
X2216578Y6518671D01*
X2215792Y6518209D01*
X2215422Y6517932D01*
X2215052Y6517562D01*
X2214683Y6517192D01*
X2214313Y6516730D01*
Y6516684D01*
X2214220Y6516591D01*
X2214128Y6516453D01*
X2214035Y6516221D01*
X2213851Y6515898D01*
X2213712Y6515482D01*
X2213527Y6515019D01*
X2213342Y6514465D01*
X2213203Y6513771D01*
X2213018Y6513032D01*
X2212834Y6512153D01*
X2212695Y6511229D01*
X2212602Y6510119D01*
X2212510Y6508964D01*
X2212417Y6507669D01*
Y6506236D01*
Y6506190D01*
Y6506144D01*
Y6505913D01*
Y6505497D01*
X2212464Y6504942D01*
Y6504341D01*
X2212510Y6503601D01*
X2212556Y6502815D01*
X2212649Y6501937D01*
X2212880Y6500180D01*
X2213018Y6499302D01*
X2213203Y6498470D01*
X2213388Y6497684D01*
X2213666Y6496944D01*
X2213943Y6496297D01*
X2214267Y6495742D01*
Y6495696D01*
X2214359Y6495650D01*
X2214452Y6495511D01*
X2214590Y6495326D01*
X2215006Y6494910D01*
X2215515Y6494402D01*
X2216208Y6493940D01*
X2216994Y6493523D01*
X2217410Y6493339D01*
X2217872Y6493200D01*
X2218381Y6493154D01*
X2218889Y6493107D01*
X2219167D01*
X2219352Y6493154D01*
X2219860Y6493246D01*
X2220461Y6493385D01*
X2221155Y6493662D01*
X2221894Y6494078D01*
X2222264Y6494356D01*
X2222634Y6494633D01*
X2222957Y6495003D01*
X2223281Y6495419D01*
Y6495465D01*
X2223374Y6495557D01*
X2223466Y6495742D01*
X2223605Y6495974D01*
X2223743Y6496343D01*
X2223928Y6496759D01*
X2224067Y6497268D01*
X2224252Y6497869D01*
X2224437Y6498562D01*
X2224622Y6499348D01*
X2224807Y6500227D01*
X2224945Y6501197D01*
X2225084Y6502307D01*
X2225176Y6503509D01*
X2225223Y6504803D01*
X2225269Y6506236D01*
Y6506329D01*
Y6506560D01*
Y6506976D01*
X2225223Y6507531D01*
Y6508132D01*
X2225176Y6508871D01*
X2225130Y6509657D01*
X2225038Y6510489D01*
X2224807Y6512292D01*
X2224668Y6513170D01*
X2224483Y6514002D01*
X2224298Y6514788D01*
X2224021Y6515528D01*
X2223743Y6516175D01*
X2223420Y6516730D01*
Y6516776D01*
X2223327Y6516822D01*
X2223096Y6517146D01*
X2222680Y6517562D01*
X2222172Y6518024D01*
X2221478Y6518487D01*
X2220692Y6518903D01*
X2219814Y6519226D01*
X2219352Y6519272D01*
X2218843Y6519319D01*
D02*
G37*
G36*
X2193972D02*
X2193695D01*
X2193510Y6519272D01*
X2193048Y6519180D01*
X2192401Y6518995D01*
X2191707Y6518671D01*
X2190921Y6518209D01*
X2190552Y6517932D01*
X2190182Y6517562D01*
X2189812Y6517192D01*
X2189442Y6516730D01*
Y6516684D01*
X2189350Y6516591D01*
X2189257Y6516453D01*
X2189165Y6516221D01*
X2188980Y6515898D01*
X2188841Y6515482D01*
X2188656Y6515019D01*
X2188471Y6514465D01*
X2188333Y6513771D01*
X2188148Y6513032D01*
X2187963Y6512153D01*
X2187824Y6511229D01*
X2187732Y6510119D01*
X2187639Y6508964D01*
X2187547Y6507669D01*
Y6506236D01*
Y6506190D01*
Y6506144D01*
Y6505913D01*
Y6505497D01*
X2187593Y6504942D01*
Y6504341D01*
X2187639Y6503601D01*
X2187685Y6502815D01*
X2187778Y6501937D01*
X2188009Y6500180D01*
X2188148Y6499302D01*
X2188333Y6498470D01*
X2188518Y6497684D01*
X2188795Y6496944D01*
X2189072Y6496297D01*
X2189396Y6495742D01*
Y6495696D01*
X2189488Y6495650D01*
X2189581Y6495511D01*
X2189720Y6495326D01*
X2190136Y6494910D01*
X2190644Y6494402D01*
X2191338Y6493940D01*
X2192123Y6493523D01*
X2192539Y6493339D01*
X2193002Y6493200D01*
X2193510Y6493154D01*
X2194019Y6493107D01*
X2194296D01*
X2194481Y6493154D01*
X2194990Y6493246D01*
X2195590Y6493385D01*
X2196284Y6493662D01*
X2197024Y6494078D01*
X2197393Y6494356D01*
X2197763Y6494633D01*
X2198087Y6495003D01*
X2198410Y6495419D01*
Y6495465D01*
X2198503Y6495557D01*
X2198595Y6495742D01*
X2198734Y6495974D01*
X2198873Y6496343D01*
X2199058Y6496759D01*
X2199196Y6497268D01*
X2199381Y6497869D01*
X2199566Y6498562D01*
X2199751Y6499348D01*
X2199936Y6500227D01*
X2200075Y6501197D01*
X2200213Y6502307D01*
X2200306Y6503509D01*
X2200352Y6504803D01*
X2200398Y6506236D01*
Y6506329D01*
Y6506560D01*
Y6506976D01*
X2200352Y6507531D01*
Y6508132D01*
X2200306Y6508871D01*
X2200260Y6509657D01*
X2200167Y6510489D01*
X2199936Y6512292D01*
X2199797Y6513170D01*
X2199612Y6514002D01*
X2199427Y6514788D01*
X2199150Y6515528D01*
X2198873Y6516175D01*
X2198549Y6516730D01*
Y6516776D01*
X2198457Y6516822D01*
X2198225Y6517146D01*
X2197809Y6517562D01*
X2197301Y6518024D01*
X2196607Y6518487D01*
X2195822Y6518903D01*
X2194943Y6519226D01*
X2194481Y6519272D01*
X2193972Y6519319D01*
D02*
G37*
G36*
X2296599Y6476449D02*
X2296183D01*
X2295767Y6476403D01*
X2295212Y6476356D01*
X2294518Y6476264D01*
X2293825Y6476079D01*
X2293039Y6475894D01*
X2292299Y6475617D01*
X2292392Y6475570D01*
X2292623Y6475386D01*
X2293039Y6475154D01*
X2293548Y6474877D01*
X2294195Y6474600D01*
X2294888Y6474276D01*
X2295674Y6473999D01*
X2296506Y6473768D01*
X2295443Y6470717D01*
X2295397D01*
X2295258Y6470763D01*
X2295073Y6470809D01*
X2294842Y6470901D01*
X2294518Y6470994D01*
X2294149Y6471133D01*
X2293316Y6471456D01*
X2292346Y6471918D01*
X2291329Y6472427D01*
X2290358Y6473028D01*
X2289387Y6473768D01*
X2289341Y6473721D01*
X2289202Y6473629D01*
X2289017Y6473398D01*
X2288786Y6473120D01*
X2288509Y6472751D01*
X2288185Y6472335D01*
X2287862Y6471826D01*
X2287492Y6471225D01*
X2287168Y6470532D01*
X2286845Y6469746D01*
X2286521Y6468914D01*
X2286244Y6468035D01*
X2285966Y6467018D01*
X2285781Y6465955D01*
X2285689Y6464799D01*
X2285643Y6463551D01*
Y6463505D01*
Y6463366D01*
Y6463181D01*
Y6462904D01*
X2285689Y6462534D01*
Y6462164D01*
X2285735Y6461702D01*
X2285828Y6461240D01*
X2285966Y6460177D01*
X2286197Y6459021D01*
X2286521Y6457865D01*
X2286983Y6456756D01*
Y6456709D01*
X2287029Y6456617D01*
X2287122Y6456478D01*
X2287214Y6456293D01*
X2287538Y6455739D01*
X2287954Y6455091D01*
X2288509Y6454352D01*
X2289202Y6453612D01*
X2289988Y6452873D01*
X2290866Y6452225D01*
X2290913D01*
X2290959Y6452133D01*
X2291098Y6452087D01*
X2291329Y6451948D01*
X2291560Y6451856D01*
X2291837Y6451717D01*
X2292531Y6451393D01*
X2293363Y6451116D01*
X2294333Y6450839D01*
X2295443Y6450654D01*
X2296599Y6450607D01*
X2297061D01*
X2297385Y6450654D01*
X2297801Y6450700D01*
X2298263Y6450792D01*
X2298771Y6450885D01*
X2299326Y6451023D01*
X2299973Y6451208D01*
X2300574Y6451393D01*
X2301221Y6451671D01*
X2301915Y6451994D01*
X2302562Y6452364D01*
X2303209Y6452826D01*
X2303856Y6453289D01*
X2304457Y6453890D01*
X2304504Y6453936D01*
X2304596Y6454028D01*
X2304735Y6454213D01*
X2304920Y6454491D01*
X2305197Y6454814D01*
X2305428Y6455230D01*
X2305706Y6455739D01*
X2305983Y6456293D01*
X2306307Y6456941D01*
X2306584Y6457680D01*
X2306815Y6458466D01*
X2307046Y6459344D01*
X2307277Y6460269D01*
X2307416Y6461286D01*
X2307508Y6462396D01*
X2307555Y6463551D01*
Y6463644D01*
Y6463829D01*
Y6464152D01*
X2307508Y6464568D01*
X2307462Y6465077D01*
X2307370Y6465678D01*
X2307277Y6466371D01*
X2307185Y6467065D01*
X2306815Y6468636D01*
X2306584Y6469422D01*
X2306260Y6470208D01*
X2305937Y6470994D01*
X2305521Y6471734D01*
X2305058Y6472473D01*
X2304504Y6473120D01*
X2304457Y6473167D01*
X2304365Y6473259D01*
X2304180Y6473444D01*
X2303949Y6473629D01*
X2303625Y6473906D01*
X2303255Y6474184D01*
X2302839Y6474461D01*
X2302331Y6474785D01*
X2301822Y6475108D01*
X2301221Y6475386D01*
X2300574Y6475663D01*
X2299881Y6475940D01*
X2299095Y6476125D01*
X2298309Y6476310D01*
X2297477Y6476403D01*
X2296599Y6476449D01*
D02*
G37*
G36*
X4392081Y8189393D02*
X4391804D01*
X4391619Y8189346D01*
X4391111Y8189254D01*
X4390510Y8189115D01*
X4389816Y8188838D01*
X4389077Y8188422D01*
X4388707Y8188144D01*
X4388337Y8187867D01*
X4388013Y8187497D01*
X4387690Y8187081D01*
Y8187035D01*
X4387597Y8186942D01*
X4387505Y8186758D01*
X4387366Y8186526D01*
X4387227Y8186157D01*
X4387043Y8185741D01*
X4386904Y8185232D01*
X4386719Y8184631D01*
X4386534Y8183938D01*
X4386349Y8183152D01*
X4386164Y8182273D01*
X4386026Y8181303D01*
X4385887Y8180193D01*
X4385794Y8178991D01*
X4385748Y8177697D01*
X4385702Y8176264D01*
Y8176171D01*
Y8175940D01*
Y8175524D01*
X4385748Y8174969D01*
Y8174368D01*
X4385794Y8173629D01*
X4385841Y8172843D01*
X4385933Y8172011D01*
X4386164Y8170208D01*
X4386303Y8169330D01*
X4386488Y8168498D01*
X4386673Y8167712D01*
X4386950Y8166972D01*
X4387227Y8166325D01*
X4387551Y8165770D01*
Y8165724D01*
X4387643Y8165678D01*
X4387875Y8165354D01*
X4388291Y8164938D01*
X4388799Y8164476D01*
X4389493Y8164013D01*
X4390278Y8163597D01*
X4391157Y8163274D01*
X4391619Y8163228D01*
X4392128Y8163181D01*
X4392405D01*
X4392590Y8163228D01*
X4393052Y8163320D01*
X4393699Y8163505D01*
X4394393Y8163828D01*
X4395179Y8164291D01*
X4395548Y8164568D01*
X4395918Y8164938D01*
X4396288Y8165308D01*
X4396658Y8165770D01*
Y8165816D01*
X4396750Y8165909D01*
X4396843Y8166047D01*
X4396935Y8166279D01*
X4397120Y8166602D01*
X4397259Y8167018D01*
X4397444Y8167480D01*
X4397629Y8168035D01*
X4397767Y8168729D01*
X4397952Y8169468D01*
X4398137Y8170347D01*
X4398276Y8171271D01*
X4398368Y8172381D01*
X4398461Y8173536D01*
X4398553Y8174831D01*
Y8176264D01*
Y8176310D01*
Y8176356D01*
Y8176587D01*
Y8177003D01*
X4398507Y8177558D01*
Y8178159D01*
X4398461Y8178899D01*
X4398415Y8179685D01*
X4398322Y8180563D01*
X4398091Y8182320D01*
X4397952Y8183198D01*
X4397767Y8184030D01*
X4397583Y8184816D01*
X4397305Y8185556D01*
X4397028Y8186203D01*
X4396704Y8186758D01*
Y8186804D01*
X4396612Y8186850D01*
X4396519Y8186989D01*
X4396381Y8187174D01*
X4395965Y8187590D01*
X4395456Y8188098D01*
X4394763Y8188560D01*
X4393977Y8188977D01*
X4393561Y8189161D01*
X4393098Y8189300D01*
X4392590Y8189346D01*
X4392081Y8189393D01*
D02*
G37*
G36*
X4367211D02*
X4366933D01*
X4366748Y8189346D01*
X4366240Y8189254D01*
X4365639Y8189115D01*
X4364946Y8188838D01*
X4364206Y8188422D01*
X4363836Y8188144D01*
X4363466Y8187867D01*
X4363143Y8187497D01*
X4362819Y8187081D01*
Y8187035D01*
X4362727Y8186942D01*
X4362634Y8186758D01*
X4362495Y8186526D01*
X4362357Y8186157D01*
X4362172Y8185741D01*
X4362033Y8185232D01*
X4361848Y8184631D01*
X4361663Y8183938D01*
X4361478Y8183152D01*
X4361294Y8182273D01*
X4361155Y8181303D01*
X4361016Y8180193D01*
X4360924Y8178991D01*
X4360877Y8177697D01*
X4360831Y8176264D01*
Y8176171D01*
Y8175940D01*
Y8175524D01*
X4360877Y8174969D01*
Y8174368D01*
X4360924Y8173629D01*
X4360970Y8172843D01*
X4361062Y8172011D01*
X4361294Y8170208D01*
X4361432Y8169330D01*
X4361617Y8168498D01*
X4361802Y8167712D01*
X4362079Y8166972D01*
X4362357Y8166325D01*
X4362680Y8165770D01*
Y8165724D01*
X4362773Y8165678D01*
X4363004Y8165354D01*
X4363420Y8164938D01*
X4363929Y8164476D01*
X4364622Y8164013D01*
X4365408Y8163597D01*
X4366286Y8163274D01*
X4366748Y8163228D01*
X4367257Y8163181D01*
X4367534D01*
X4367719Y8163228D01*
X4368182Y8163320D01*
X4368829Y8163505D01*
X4369522Y8163828D01*
X4370308Y8164291D01*
X4370678Y8164568D01*
X4371048Y8164938D01*
X4371417Y8165308D01*
X4371787Y8165770D01*
Y8165816D01*
X4371880Y8165909D01*
X4371972Y8166047D01*
X4372065Y8166279D01*
X4372250Y8166602D01*
X4372388Y8167018D01*
X4372573Y8167480D01*
X4372758Y8168035D01*
X4372897Y8168729D01*
X4373082Y8169468D01*
X4373267Y8170347D01*
X4373405Y8171271D01*
X4373498Y8172381D01*
X4373590Y8173536D01*
X4373683Y8174831D01*
Y8176264D01*
Y8176310D01*
Y8176356D01*
Y8176587D01*
Y8177003D01*
X4373636Y8177558D01*
Y8178159D01*
X4373590Y8178899D01*
X4373544Y8179685D01*
X4373452Y8180563D01*
X4373220Y8182320D01*
X4373082Y8183198D01*
X4372897Y8184030D01*
X4372712Y8184816D01*
X4372434Y8185556D01*
X4372157Y8186203D01*
X4371834Y8186758D01*
Y8186804D01*
X4371741Y8186850D01*
X4371649Y8186989D01*
X4371510Y8187174D01*
X4371094Y8187590D01*
X4370585Y8188098D01*
X4369892Y8188560D01*
X4369106Y8188977D01*
X4368690Y8189161D01*
X4368228Y8189300D01*
X4367719Y8189346D01*
X4367211Y8189393D01*
D02*
G37*
G36*
X4289501Y8231893D02*
X4289039D01*
X4288716Y8231846D01*
X4288300Y8231800D01*
X4287837Y8231708D01*
X4287329Y8231615D01*
X4286774Y8231477D01*
X4286127Y8231292D01*
X4285526Y8231107D01*
X4284879Y8230829D01*
X4284185Y8230506D01*
X4283538Y8230136D01*
X4282891Y8229674D01*
X4282244Y8229211D01*
X4281643Y8228610D01*
X4281596Y8228564D01*
X4281504Y8228472D01*
X4281365Y8228287D01*
X4281180Y8228009D01*
X4280903Y8227686D01*
X4280672Y8227270D01*
X4280395Y8226761D01*
X4280117Y8226207D01*
X4279794Y8225559D01*
X4279516Y8224820D01*
X4279285Y8224034D01*
X4279054Y8223156D01*
X4278823Y8222231D01*
X4278684Y8221214D01*
X4278592Y8220104D01*
X4278545Y8218949D01*
Y8218856D01*
Y8218671D01*
Y8218348D01*
X4278592Y8217932D01*
X4278638Y8217423D01*
X4278730Y8216822D01*
X4278823Y8216129D01*
X4278915Y8215435D01*
X4279285Y8213864D01*
X4279516Y8213078D01*
X4279840Y8212292D01*
X4280163Y8211506D01*
X4280579Y8210766D01*
X4281042Y8210027D01*
X4281596Y8209380D01*
X4281643Y8209333D01*
X4281735Y8209241D01*
X4281920Y8209056D01*
X4282151Y8208871D01*
X4282475Y8208594D01*
X4282845Y8208316D01*
X4283261Y8208039D01*
X4283769Y8207715D01*
X4284278Y8207392D01*
X4284879Y8207114D01*
X4285526Y8206837D01*
X4286219Y8206560D01*
X4287005Y8206375D01*
X4287791Y8206190D01*
X4288623Y8206097D01*
X4289501Y8206051D01*
X4289918D01*
X4290334Y8206097D01*
X4290888Y8206144D01*
X4291582Y8206236D01*
X4292275Y8206421D01*
X4293061Y8206606D01*
X4293801Y8206883D01*
X4293708Y8206929D01*
X4293477Y8207114D01*
X4293061Y8207346D01*
X4292553Y8207623D01*
X4291905Y8207900D01*
X4291212Y8208224D01*
X4290426Y8208501D01*
X4289594Y8208732D01*
X4290657Y8211783D01*
X4290703D01*
X4290842Y8211737D01*
X4291027Y8211691D01*
X4291258Y8211599D01*
X4291582Y8211506D01*
X4291952Y8211367D01*
X4292784Y8211044D01*
X4293754Y8210581D01*
X4294771Y8210073D01*
X4295742Y8209472D01*
X4296713Y8208732D01*
X4296759Y8208779D01*
X4296898Y8208871D01*
X4297083Y8209102D01*
X4297314Y8209380D01*
X4297591Y8209749D01*
X4297915Y8210165D01*
X4298239Y8210674D01*
X4298608Y8211275D01*
X4298932Y8211968D01*
X4299256Y8212754D01*
X4299579Y8213586D01*
X4299857Y8214465D01*
X4300134Y8215482D01*
X4300319Y8216545D01*
X4300411Y8217701D01*
X4300457Y8218949D01*
Y8218995D01*
Y8219134D01*
Y8219319D01*
Y8219596D01*
X4300411Y8219966D01*
Y8220336D01*
X4300365Y8220798D01*
X4300273Y8221260D01*
X4300134Y8222323D01*
X4299903Y8223479D01*
X4299579Y8224635D01*
X4299117Y8225744D01*
Y8225791D01*
X4299071Y8225883D01*
X4298978Y8226022D01*
X4298886Y8226207D01*
X4298562Y8226761D01*
X4298146Y8227408D01*
X4297591Y8228148D01*
X4296898Y8228888D01*
X4296112Y8229627D01*
X4295234Y8230275D01*
X4295187D01*
X4295141Y8230367D01*
X4295003Y8230413D01*
X4294771Y8230552D01*
X4294540Y8230644D01*
X4294263Y8230783D01*
X4293570Y8231107D01*
X4292737Y8231384D01*
X4291767Y8231661D01*
X4290657Y8231846D01*
X4289501Y8231893D01*
D02*
G37*
G36*
X6081181Y7376593D02*
X6080904D01*
X6080719Y7376546D01*
X6080211Y7376454D01*
X6079610Y7376315D01*
X6078916Y7376038D01*
X6078177Y7375622D01*
X6077807Y7375344D01*
X6077437Y7375067D01*
X6077113Y7374697D01*
X6076790Y7374281D01*
Y7374235D01*
X6076697Y7374142D01*
X6076605Y7373958D01*
X6076466Y7373726D01*
X6076327Y7373357D01*
X6076143Y7372941D01*
X6076004Y7372432D01*
X6075819Y7371831D01*
X6075634Y7371138D01*
X6075449Y7370352D01*
X6075264Y7369473D01*
X6075126Y7368503D01*
X6074987Y7367393D01*
X6074894Y7366191D01*
X6074848Y7364897D01*
X6074802Y7363464D01*
Y7363371D01*
Y7363140D01*
Y7362724D01*
X6074848Y7362169D01*
Y7361568D01*
X6074894Y7360829D01*
X6074941Y7360043D01*
X6075033Y7359211D01*
X6075264Y7357408D01*
X6075403Y7356530D01*
X6075588Y7355698D01*
X6075773Y7354912D01*
X6076050Y7354172D01*
X6076327Y7353525D01*
X6076651Y7352970D01*
Y7352924D01*
X6076743Y7352878D01*
X6076975Y7352554D01*
X6077391Y7352138D01*
X6077899Y7351676D01*
X6078593Y7351213D01*
X6079378Y7350797D01*
X6080257Y7350474D01*
X6080719Y7350428D01*
X6081228Y7350381D01*
X6081505D01*
X6081690Y7350428D01*
X6082152Y7350520D01*
X6082799Y7350705D01*
X6083493Y7351028D01*
X6084279Y7351491D01*
X6084648Y7351768D01*
X6085018Y7352138D01*
X6085388Y7352508D01*
X6085758Y7352970D01*
Y7353016D01*
X6085850Y7353109D01*
X6085943Y7353247D01*
X6086035Y7353479D01*
X6086220Y7353802D01*
X6086359Y7354218D01*
X6086544Y7354680D01*
X6086729Y7355235D01*
X6086867Y7355929D01*
X6087052Y7356668D01*
X6087237Y7357547D01*
X6087376Y7358471D01*
X6087468Y7359581D01*
X6087561Y7360736D01*
X6087653Y7362031D01*
Y7363464D01*
Y7363510D01*
Y7363556D01*
Y7363787D01*
Y7364203D01*
X6087607Y7364758D01*
Y7365359D01*
X6087561Y7366099D01*
X6087515Y7366885D01*
X6087422Y7367763D01*
X6087191Y7369520D01*
X6087052Y7370398D01*
X6086867Y7371230D01*
X6086683Y7372016D01*
X6086405Y7372756D01*
X6086128Y7373403D01*
X6085804Y7373958D01*
Y7374004D01*
X6085712Y7374050D01*
X6085619Y7374189D01*
X6085481Y7374374D01*
X6085065Y7374790D01*
X6084556Y7375298D01*
X6083863Y7375760D01*
X6083077Y7376177D01*
X6082661Y7376361D01*
X6082198Y7376500D01*
X6081690Y7376546D01*
X6081181Y7376593D01*
D02*
G37*
G36*
X6056311D02*
X6056033D01*
X6055848Y7376546D01*
X6055340Y7376454D01*
X6054739Y7376315D01*
X6054046Y7376038D01*
X6053306Y7375622D01*
X6052936Y7375344D01*
X6052566Y7375067D01*
X6052243Y7374697D01*
X6051919Y7374281D01*
Y7374235D01*
X6051827Y7374142D01*
X6051734Y7373958D01*
X6051595Y7373726D01*
X6051457Y7373357D01*
X6051272Y7372941D01*
X6051133Y7372432D01*
X6050948Y7371831D01*
X6050763Y7371138D01*
X6050578Y7370352D01*
X6050394Y7369473D01*
X6050255Y7368503D01*
X6050116Y7367393D01*
X6050024Y7366191D01*
X6049977Y7364897D01*
X6049931Y7363464D01*
Y7363371D01*
Y7363140D01*
Y7362724D01*
X6049977Y7362169D01*
Y7361568D01*
X6050024Y7360829D01*
X6050070Y7360043D01*
X6050162Y7359211D01*
X6050394Y7357408D01*
X6050532Y7356530D01*
X6050717Y7355698D01*
X6050902Y7354912D01*
X6051179Y7354172D01*
X6051457Y7353525D01*
X6051780Y7352970D01*
Y7352924D01*
X6051873Y7352878D01*
X6052104Y7352554D01*
X6052520Y7352138D01*
X6053029Y7351676D01*
X6053722Y7351213D01*
X6054508Y7350797D01*
X6055386Y7350474D01*
X6055848Y7350428D01*
X6056357Y7350381D01*
X6056634D01*
X6056819Y7350428D01*
X6057282Y7350520D01*
X6057929Y7350705D01*
X6058622Y7351028D01*
X6059408Y7351491D01*
X6059778Y7351768D01*
X6060148Y7352138D01*
X6060517Y7352508D01*
X6060887Y7352970D01*
Y7353016D01*
X6060980Y7353109D01*
X6061072Y7353247D01*
X6061165Y7353479D01*
X6061350Y7353802D01*
X6061488Y7354218D01*
X6061673Y7354680D01*
X6061858Y7355235D01*
X6061997Y7355929D01*
X6062182Y7356668D01*
X6062367Y7357547D01*
X6062505Y7358471D01*
X6062598Y7359581D01*
X6062690Y7360736D01*
X6062783Y7362031D01*
Y7363464D01*
Y7363510D01*
Y7363556D01*
Y7363787D01*
Y7364203D01*
X6062736Y7364758D01*
Y7365359D01*
X6062690Y7366099D01*
X6062644Y7366885D01*
X6062552Y7367763D01*
X6062320Y7369520D01*
X6062182Y7370398D01*
X6061997Y7371230D01*
X6061812Y7372016D01*
X6061534Y7372756D01*
X6061257Y7373403D01*
X6060934Y7373958D01*
Y7374004D01*
X6060841Y7374050D01*
X6060749Y7374189D01*
X6060610Y7374374D01*
X6060194Y7374790D01*
X6059685Y7375298D01*
X6058992Y7375760D01*
X6058206Y7376177D01*
X6057790Y7376361D01*
X6057328Y7376500D01*
X6056819Y7376546D01*
X6056311Y7376593D01*
D02*
G37*
G36*
X5978601Y7419093D02*
X5978139D01*
X5977816Y7419046D01*
X5977400Y7419000D01*
X5976937Y7418908D01*
X5976429Y7418815D01*
X5975874Y7418677D01*
X5975227Y7418492D01*
X5974626Y7418307D01*
X5973979Y7418029D01*
X5973285Y7417706D01*
X5972638Y7417336D01*
X5971991Y7416874D01*
X5971344Y7416411D01*
X5970743Y7415810D01*
X5970696Y7415764D01*
X5970604Y7415672D01*
X5970465Y7415487D01*
X5970280Y7415209D01*
X5970003Y7414886D01*
X5969772Y7414470D01*
X5969495Y7413961D01*
X5969217Y7413407D01*
X5968894Y7412759D01*
X5968616Y7412020D01*
X5968385Y7411234D01*
X5968154Y7410356D01*
X5967923Y7409431D01*
X5967784Y7408414D01*
X5967692Y7407304D01*
X5967645Y7406149D01*
Y7406056D01*
Y7405871D01*
Y7405548D01*
X5967692Y7405132D01*
X5967738Y7404623D01*
X5967830Y7404022D01*
X5967923Y7403329D01*
X5968015Y7402635D01*
X5968385Y7401064D01*
X5968616Y7400278D01*
X5968940Y7399492D01*
X5969263Y7398706D01*
X5969679Y7397966D01*
X5970142Y7397227D01*
X5970696Y7396580D01*
X5970743Y7396533D01*
X5970835Y7396441D01*
X5971020Y7396256D01*
X5971251Y7396071D01*
X5971575Y7395794D01*
X5971945Y7395516D01*
X5972361Y7395239D01*
X5972869Y7394915D01*
X5973378Y7394592D01*
X5973979Y7394314D01*
X5974626Y7394037D01*
X5975319Y7393760D01*
X5976105Y7393575D01*
X5976891Y7393390D01*
X5977723Y7393297D01*
X5978601Y7393251D01*
X5979018D01*
X5979434Y7393297D01*
X5979988Y7393344D01*
X5980682Y7393436D01*
X5981375Y7393621D01*
X5982161Y7393806D01*
X5982901Y7394083D01*
X5982808Y7394129D01*
X5982577Y7394314D01*
X5982161Y7394546D01*
X5981653Y7394823D01*
X5981005Y7395100D01*
X5980312Y7395424D01*
X5979526Y7395701D01*
X5978694Y7395932D01*
X5979757Y7398983D01*
X5979803D01*
X5979942Y7398937D01*
X5980127Y7398891D01*
X5980358Y7398799D01*
X5980682Y7398706D01*
X5981052Y7398567D01*
X5981884Y7398244D01*
X5982854Y7397781D01*
X5983871Y7397273D01*
X5984842Y7396672D01*
X5985813Y7395932D01*
X5985859Y7395979D01*
X5985998Y7396071D01*
X5986183Y7396302D01*
X5986414Y7396580D01*
X5986691Y7396949D01*
X5987015Y7397365D01*
X5987339Y7397874D01*
X5987708Y7398475D01*
X5988032Y7399168D01*
X5988356Y7399954D01*
X5988679Y7400786D01*
X5988957Y7401665D01*
X5989234Y7402682D01*
X5989419Y7403745D01*
X5989511Y7404901D01*
X5989557Y7406149D01*
Y7406195D01*
Y7406334D01*
Y7406519D01*
Y7406796D01*
X5989511Y7407166D01*
Y7407536D01*
X5989465Y7407998D01*
X5989373Y7408460D01*
X5989234Y7409523D01*
X5989003Y7410679D01*
X5988679Y7411835D01*
X5988217Y7412944D01*
Y7412991D01*
X5988171Y7413083D01*
X5988078Y7413222D01*
X5987986Y7413407D01*
X5987662Y7413961D01*
X5987246Y7414608D01*
X5986691Y7415348D01*
X5985998Y7416088D01*
X5985212Y7416827D01*
X5984334Y7417475D01*
X5984287D01*
X5984241Y7417567D01*
X5984103Y7417613D01*
X5983871Y7417752D01*
X5983640Y7417844D01*
X5983363Y7417983D01*
X5982670Y7418307D01*
X5981837Y7418584D01*
X5980867Y7418861D01*
X5979757Y7419046D01*
X5978601Y7419093D01*
D02*
G37*
G36*
X6728264Y6693369D02*
X6728171D01*
X6727940D01*
X6727524D01*
X6726970Y6693322D01*
X6726369D01*
X6725629Y6693276D01*
X6724843Y6693230D01*
X6724011Y6693137D01*
X6722208Y6692906D01*
X6721330Y6692768D01*
X6720498Y6692583D01*
X6719712Y6692398D01*
X6718972Y6692120D01*
X6718325Y6691843D01*
X6717770Y6691520D01*
X6717724D01*
X6717678Y6691427D01*
X6717354Y6691196D01*
X6716938Y6690780D01*
X6716476Y6690271D01*
X6716013Y6689578D01*
X6715597Y6688792D01*
X6715274Y6687914D01*
X6715228Y6687451D01*
X6715181Y6686943D01*
Y6686666D01*
X6715228Y6686481D01*
X6715320Y6686018D01*
X6715505Y6685371D01*
X6715829Y6684678D01*
X6716291Y6683892D01*
X6716568Y6683522D01*
X6716938Y6683152D01*
X6717308Y6682782D01*
X6717770Y6682413D01*
X6717816D01*
X6717909Y6682320D01*
X6718048Y6682228D01*
X6718279Y6682135D01*
X6718602Y6681950D01*
X6719018Y6681812D01*
X6719481Y6681627D01*
X6720035Y6681442D01*
X6720729Y6681303D01*
X6721468Y6681118D01*
X6722347Y6680933D01*
X6723271Y6680795D01*
X6724381Y6680702D01*
X6725536Y6680610D01*
X6726831Y6680517D01*
X6728264D01*
X6728310D01*
X6728356D01*
X6728588D01*
X6729004D01*
X6729558Y6680563D01*
X6730159D01*
X6730899Y6680610D01*
X6731685Y6680656D01*
X6732563Y6680748D01*
X6734320Y6680980D01*
X6735198Y6681118D01*
X6736030Y6681303D01*
X6736816Y6681488D01*
X6737556Y6681765D01*
X6738203Y6682043D01*
X6738758Y6682366D01*
X6738804D01*
X6738850Y6682459D01*
X6738989Y6682551D01*
X6739174Y6682690D01*
X6739590Y6683106D01*
X6740098Y6683615D01*
X6740561Y6684308D01*
X6740977Y6685094D01*
X6741162Y6685510D01*
X6741300Y6685972D01*
X6741346Y6686481D01*
X6741393Y6686989D01*
Y6687267D01*
X6741346Y6687451D01*
X6741254Y6687960D01*
X6741115Y6688561D01*
X6740838Y6689254D01*
X6740422Y6689994D01*
X6740145Y6690364D01*
X6739867Y6690734D01*
X6739497Y6691057D01*
X6739081Y6691381D01*
X6739035D01*
X6738943Y6691473D01*
X6738758Y6691566D01*
X6738527Y6691704D01*
X6738157Y6691843D01*
X6737741Y6692028D01*
X6737232Y6692167D01*
X6736631Y6692352D01*
X6735938Y6692537D01*
X6735152Y6692721D01*
X6734274Y6692906D01*
X6733303Y6693045D01*
X6732193Y6693184D01*
X6730991Y6693276D01*
X6729697Y6693322D01*
X6728264Y6693369D01*
D02*
G37*
G36*
Y6668498D02*
X6728171D01*
X6727940D01*
X6727524D01*
X6726970Y6668452D01*
X6726369D01*
X6725629Y6668406D01*
X6724843Y6668359D01*
X6724011Y6668267D01*
X6722208Y6668036D01*
X6721330Y6667897D01*
X6720498Y6667712D01*
X6719712Y6667527D01*
X6718972Y6667250D01*
X6718325Y6666972D01*
X6717770Y6666649D01*
X6717724D01*
X6717678Y6666556D01*
X6717354Y6666325D01*
X6716938Y6665909D01*
X6716476Y6665401D01*
X6716013Y6664707D01*
X6715597Y6663921D01*
X6715274Y6663043D01*
X6715228Y6662581D01*
X6715181Y6662072D01*
Y6661795D01*
X6715228Y6661610D01*
X6715320Y6661148D01*
X6715505Y6660501D01*
X6715829Y6659807D01*
X6716291Y6659021D01*
X6716568Y6658651D01*
X6716938Y6658282D01*
X6717308Y6657912D01*
X6717770Y6657542D01*
X6717816D01*
X6717909Y6657449D01*
X6718048Y6657357D01*
X6718279Y6657265D01*
X6718602Y6657080D01*
X6719018Y6656941D01*
X6719481Y6656756D01*
X6720035Y6656571D01*
X6720729Y6656432D01*
X6721468Y6656248D01*
X6722347Y6656063D01*
X6723271Y6655924D01*
X6724381Y6655831D01*
X6725536Y6655739D01*
X6726831Y6655647D01*
X6728264D01*
X6728310D01*
X6728356D01*
X6728588D01*
X6729004D01*
X6729558Y6655693D01*
X6730159D01*
X6730899Y6655739D01*
X6731685Y6655785D01*
X6732563Y6655878D01*
X6734320Y6656109D01*
X6735198Y6656248D01*
X6736030Y6656432D01*
X6736816Y6656617D01*
X6737556Y6656895D01*
X6738203Y6657172D01*
X6738758Y6657496D01*
X6738804D01*
X6738850Y6657588D01*
X6738989Y6657681D01*
X6739174Y6657819D01*
X6739590Y6658235D01*
X6740098Y6658744D01*
X6740561Y6659437D01*
X6740977Y6660223D01*
X6741162Y6660639D01*
X6741300Y6661101D01*
X6741346Y6661610D01*
X6741393Y6662119D01*
Y6662396D01*
X6741346Y6662581D01*
X6741254Y6663089D01*
X6741115Y6663690D01*
X6740838Y6664384D01*
X6740422Y6665123D01*
X6740145Y6665493D01*
X6739867Y6665863D01*
X6739497Y6666187D01*
X6739081Y6666510D01*
X6739035D01*
X6738943Y6666603D01*
X6738758Y6666695D01*
X6738527Y6666834D01*
X6738157Y6666972D01*
X6737741Y6667157D01*
X6737232Y6667296D01*
X6736631Y6667481D01*
X6735938Y6667666D01*
X6735152Y6667851D01*
X6734274Y6668036D01*
X6733303Y6668174D01*
X6732193Y6668313D01*
X6730991Y6668406D01*
X6729697Y6668452D01*
X6728264Y6668498D01*
D02*
G37*
G36*
X6770949Y6775654D02*
X6770856D01*
X6770671D01*
X6770348D01*
X6769932Y6775608D01*
X6769423Y6775562D01*
X6768822Y6775470D01*
X6768129Y6775377D01*
X6767436Y6775285D01*
X6765864Y6774915D01*
X6765078Y6774684D01*
X6764292Y6774360D01*
X6763506Y6774036D01*
X6762767Y6773620D01*
X6762027Y6773158D01*
X6761380Y6772603D01*
X6761333Y6772557D01*
X6761241Y6772465D01*
X6761056Y6772280D01*
X6760871Y6772049D01*
X6760594Y6771725D01*
X6760316Y6771355D01*
X6760039Y6770939D01*
X6759715Y6770431D01*
X6759392Y6769922D01*
X6759114Y6769321D01*
X6758837Y6768674D01*
X6758560Y6767981D01*
X6758375Y6767195D01*
X6758190Y6766409D01*
X6758097Y6765577D01*
X6758051Y6764698D01*
Y6764282D01*
X6758097Y6763866D01*
X6758144Y6763312D01*
X6758236Y6762618D01*
X6758421Y6761925D01*
X6758606Y6761139D01*
X6758883Y6760399D01*
X6758930Y6760492D01*
X6759114Y6760723D01*
X6759346Y6761139D01*
X6759623Y6761647D01*
X6759900Y6762295D01*
X6760224Y6762988D01*
X6760501Y6763774D01*
X6760732Y6764606D01*
X6763784Y6763543D01*
Y6763497D01*
X6763737Y6763358D01*
X6763691Y6763173D01*
X6763599Y6762942D01*
X6763506Y6762618D01*
X6763367Y6762248D01*
X6763044Y6761416D01*
X6762582Y6760445D01*
X6762073Y6759428D01*
X6761472Y6758458D01*
X6760732Y6757487D01*
X6760779Y6757441D01*
X6760871Y6757302D01*
X6761102Y6757117D01*
X6761380Y6756886D01*
X6761749Y6756609D01*
X6762166Y6756285D01*
X6762674Y6755961D01*
X6763275Y6755592D01*
X6763968Y6755268D01*
X6764754Y6754944D01*
X6765586Y6754621D01*
X6766465Y6754343D01*
X6767482Y6754066D01*
X6768545Y6753881D01*
X6769701Y6753789D01*
X6770949Y6753742D01*
X6770995D01*
X6771134D01*
X6771319D01*
X6771596D01*
X6771966Y6753789D01*
X6772336D01*
X6772798Y6753835D01*
X6773260Y6753927D01*
X6774324Y6754066D01*
X6775479Y6754297D01*
X6776635Y6754621D01*
X6777744Y6755083D01*
X6777791D01*
X6777883Y6755129D01*
X6778022Y6755222D01*
X6778207Y6755314D01*
X6778761Y6755638D01*
X6779409Y6756054D01*
X6780148Y6756609D01*
X6780888Y6757302D01*
X6781628Y6758088D01*
X6782275Y6758966D01*
Y6759012D01*
X6782367Y6759059D01*
X6782413Y6759197D01*
X6782552Y6759428D01*
X6782645Y6759660D01*
X6782783Y6759937D01*
X6783107Y6760630D01*
X6783384Y6761462D01*
X6783662Y6762433D01*
X6783846Y6763543D01*
X6783893Y6764698D01*
Y6765161D01*
X6783846Y6765484D01*
X6783800Y6765900D01*
X6783708Y6766363D01*
X6783615Y6766871D01*
X6783477Y6767426D01*
X6783292Y6768073D01*
X6783107Y6768674D01*
X6782829Y6769321D01*
X6782506Y6770015D01*
X6782136Y6770662D01*
X6781674Y6771309D01*
X6781211Y6771956D01*
X6780611Y6772557D01*
X6780564Y6772603D01*
X6780472Y6772696D01*
X6780287Y6772835D01*
X6780010Y6773019D01*
X6779686Y6773297D01*
X6779270Y6773528D01*
X6778761Y6773805D01*
X6778207Y6774083D01*
X6777559Y6774406D01*
X6776820Y6774684D01*
X6776034Y6774915D01*
X6775156Y6775146D01*
X6774231Y6775377D01*
X6773214Y6775516D01*
X6772105Y6775608D01*
X6770949Y6775654D01*
D02*
G37*
G36*
X6766280Y6742833D02*
Y6732755D01*
X6780611D01*
X6766280Y6742833D01*
D02*
G37*
%LPD*%
D59*
X7150000Y5380000D02*
Y6180000D01*
X7950000D01*
Y5380000D02*
Y6180000D01*
X7150000Y5380000D02*
X7950000D01*
X1150400Y5891000D02*
Y6221000D01*
X840400Y5891000D02*
Y6221000D01*
Y5891000D02*
X1150400D01*
X840400Y6221000D02*
X1150400D01*
Y5431000D02*
Y5761000D01*
X840400Y5431000D02*
Y5761000D01*
Y5431000D02*
X1150400D01*
X840400Y5761000D02*
X1150400D01*
Y4960600D02*
Y5290600D01*
X840400Y4960600D02*
Y5290600D01*
Y4960600D02*
X1150400D01*
X840400Y5290600D02*
X1150400D01*
D60*
X8010000Y5526000D02*
G03*
X8010000Y5526000I-10000J0D01*
G01*
X715400Y6166000D02*
G03*
X715400Y6166000I-10000J0D01*
G01*
Y5706000D02*
G03*
X715400Y5706000I-10000J0D01*
G01*
Y5235600D02*
G03*
X715400Y5235600I-10000J0D01*
G01*
X5715000Y6591465D02*
X6005000D01*
X5715000Y6431464D02*
Y6591465D01*
Y6431464D02*
X6005000D01*
Y6591465D01*
D62*
X7600000Y4835000D02*
G03*
X7600000Y4835000I-340000J0D01*
G01*
D96*
X4984351Y6735967D02*
G03*
X4984351Y6735967I-50000J0D01*
G01*
X4354523Y7443074D02*
X5061630Y6735967D01*
X3647417D02*
X4354523Y6028861D01*
X5061630Y6735967D01*
X3647417D02*
X4354523Y7443074D01*
X5539800Y5177300D02*
Y5847300D01*
X5169800Y5177300D02*
Y5847300D01*
Y5177300D02*
X5539800D01*
X5169800Y5847300D02*
X5539800D01*
X2061900Y6429500D02*
Y6684500D01*
X2321900Y6429500D02*
Y6684500D01*
X2061900Y6429500D02*
X2321900D01*
X2061900Y6684500D02*
X2321900D01*
X4524200Y7998000D02*
Y8253000D01*
X4264200Y7998000D02*
Y8253000D01*
X4524200D01*
X4264200Y7998000D02*
X4524200D01*
X6213300Y7185200D02*
Y7440200D01*
X5953300Y7185200D02*
Y7440200D01*
X6213300D01*
X5953300Y7185200D02*
X6213300D01*
X6550000Y6530000D02*
X6805000D01*
X6550000Y6790000D02*
X6805000D01*
Y6530000D02*
Y6790000D01*
X6550000Y6530000D02*
Y6790000D01*
D97*
X3981290Y4471090D02*
G03*
X3981290Y4410130I0J-30480D01*
G01*
X5570190Y4470480D02*
G03*
X5570190Y4409520I0J-30480D01*
G01*
D98*
X6564956Y5637300D02*
G03*
X6564956Y5637300I-20156J0D01*
G01*
D99*
X3480910Y4640000D02*
X3981290D01*
Y4241220D02*
Y4640000D01*
X3480910Y4241220D02*
X3981290D01*
X3480910D02*
Y4640000D01*
X3947000Y4130730D02*
Y4241220D01*
X3896200Y4130730D02*
X3947000D01*
X3896200D02*
Y4241220D01*
X3947000D01*
X3820000Y4130730D02*
Y4241220D01*
X3769200Y4130730D02*
X3820000D01*
X3769200D02*
Y4241220D01*
X3820000D01*
X3693000Y4130730D02*
Y4241220D01*
X3642200Y4130730D02*
X3693000D01*
X3642200D02*
Y4241220D01*
X3693000D01*
X3566000Y4130730D02*
Y4241220D01*
X3515200Y4130730D02*
X3566000D01*
X3515200D02*
Y4241220D01*
X3566000D01*
X3515200Y4640000D02*
Y4750490D01*
X3566000D01*
Y4640000D02*
Y4750490D01*
X3515200Y4640000D02*
X3566000D01*
X3642200D02*
Y4750490D01*
X3693000D01*
Y4640000D02*
Y4750490D01*
X3642200Y4640000D02*
X3693000D01*
X3769200D02*
Y4750490D01*
X3820000D01*
Y4640000D02*
Y4750490D01*
X3769200Y4640000D02*
X3820000D01*
X3896200D02*
Y4750490D01*
X3947000D01*
Y4640000D02*
Y4750490D01*
X3896200Y4640000D02*
X3947000D01*
X2942385Y6021385D02*
X3201465D01*
Y5711505D02*
Y6021385D01*
X2942385Y5711505D02*
X3201465D01*
X2942385D02*
Y6021385D01*
X3159425Y5711505D02*
Y5721665D01*
X3134425D02*
X3159425D01*
X3134425Y5711505D02*
Y5721665D01*
Y5711505D02*
X3159425D01*
X3109425D02*
Y5721665D01*
X3084425D02*
X3109425D01*
X3084425Y5711505D02*
Y5721665D01*
Y5711505D02*
X3109425D01*
X3059425D02*
Y5721665D01*
X3034425D02*
X3059425D01*
X3034425Y5711505D02*
Y5721665D01*
Y5711505D02*
X3059425D01*
X3009425D02*
Y5721665D01*
X2984425D02*
X3009425D01*
X2984425Y5711505D02*
Y5721665D01*
Y5711505D02*
X3009425D01*
X2942385Y5803945D02*
X2952545D01*
Y5828945D01*
X2942385D02*
X2952545D01*
X2942385Y5803945D02*
Y5828945D01*
Y5853945D02*
X2952545D01*
Y5878946D01*
X2942385D02*
X2952545D01*
X2942385Y5853945D02*
Y5878946D01*
Y5903946D02*
X2952545D01*
Y5928945D01*
X2942385D02*
X2952545D01*
X2942385Y5903946D02*
Y5928945D01*
X2984425Y6011225D02*
Y6021385D01*
Y6011225D02*
X3009425D01*
Y6021385D01*
X2984425D02*
X3009425D01*
X3034425Y6011225D02*
Y6021385D01*
Y6011225D02*
X3059425D01*
Y6021385D01*
X3034425D02*
X3059425D01*
X3084425Y6011225D02*
Y6021385D01*
Y6011225D02*
X3109425D01*
Y6021385D01*
X3084425D02*
X3109425D01*
X3134425Y6011225D02*
Y6021385D01*
Y6011225D02*
X3159425D01*
Y6021385D01*
X3134425D02*
X3159425D01*
X3191305Y5928945D02*
X3201465D01*
X3191305Y5903946D02*
Y5928945D01*
Y5903946D02*
X3201465D01*
Y5928945D01*
X3191305Y5878946D02*
X3201465D01*
X3191305Y5853945D02*
Y5878946D01*
Y5853945D02*
X3201465D01*
Y5878946D01*
X3191305Y5828945D02*
X3201465D01*
X3191305Y5803945D02*
Y5828945D01*
Y5803945D02*
X3201465D01*
Y5828945D01*
X3074465Y6021385D02*
X3201465Y5894385D01*
X5069810Y4639390D02*
X5570190D01*
Y4240610D02*
Y4639390D01*
X5069810Y4240610D02*
X5570190D01*
X5069810D02*
Y4639390D01*
X5535900Y4130120D02*
Y4240610D01*
X5485100Y4130120D02*
X5535900D01*
X5485100D02*
Y4240610D01*
X5535900D01*
X5408900Y4130120D02*
Y4240610D01*
X5358100Y4130120D02*
X5408900D01*
X5358100D02*
Y4240610D01*
X5408900D01*
X5281900Y4130120D02*
Y4240610D01*
X5231100Y4130120D02*
X5281900D01*
X5231100D02*
Y4240610D01*
X5281900D01*
X5154900Y4130120D02*
Y4240610D01*
X5104100Y4130120D02*
X5154900D01*
X5104100D02*
Y4240610D01*
X5154900D01*
X5104100Y4639390D02*
Y4749880D01*
X5154900D01*
Y4639390D02*
Y4749880D01*
X5104100Y4639390D02*
X5154900D01*
X5231100D02*
Y4749880D01*
X5281900D01*
Y4639390D02*
Y4749880D01*
X5231100Y4639390D02*
X5281900D01*
X5358100D02*
Y4749880D01*
X5408900D01*
Y4639390D02*
Y4749880D01*
X5358100Y4639390D02*
X5408900D01*
X5485100D02*
Y4749880D01*
X5535900D01*
Y4639390D02*
Y4749880D01*
X5485100Y4639390D02*
X5535900D01*
D100*
X6299800Y5724800D02*
X6604800D01*
X6299800Y5439800D02*
X6604800D01*
X6299800D02*
Y5724800D01*
X6604800Y5439800D02*
Y5724800D01*
D101*
X3952469Y4633650D02*
X3867830Y4549011D01*
Y4633650D02*
X3952469Y4549011D01*
X3910149Y4633650D02*
Y4549011D01*
X3867830Y4591330D02*
X3952469D01*
X3214224Y5995475D02*
X3129585Y5910836D01*
Y5995475D02*
X3214224Y5910836D01*
X3171905Y5995475D02*
Y5910836D01*
X3129585Y5953156D02*
X3214224D01*
X5541369Y4633040D02*
X5456729Y4548401D01*
Y4633040D02*
X5541369Y4548401D01*
X5499049Y4633040D02*
Y4548401D01*
X5456729Y4590720D02*
X5541369D01*
D102*
X2191897Y6416997D02*
D03*
X2284397Y6694497D02*
D03*
X2099397D02*
D03*
X4394206Y8265505D02*
D03*
X4301706Y7988006D02*
D03*
X4486706D02*
D03*
X6083303Y7452697D02*
D03*
X5990803Y7175197D02*
D03*
X6175803D02*
D03*
D103*
X6817496Y6659992D02*
D03*
X6539996Y6752492D02*
D03*
Y6567492D02*
D03*
%TF.MD5,d218c6bde2b69b9eea8f5886d331176b*%
M02*
