%TF.GenerationSoftware,Altium Limited,Altium Designer,24.5.1 (21)*%
G04 Layer_Color=8421504*
%FSLAX45Y45*%
%MOMM*%
%TF.SameCoordinates,583913BB-816E-4693-BEF2-A62C45BB8311*%
%TF.FilePolarity,Positive*%
%TF.FileFunction,Paste,Top*%
%TF.Part,Single*%
G01*
G75*
%TA.AperFunction,SMDPad,CuDef*%
%ADD10C,1.00000*%
%ADD11R,0.95000X0.80000*%
%ADD12R,1.00000X0.80000*%
G04:AMPARAMS|DCode=13|XSize=1.03828mm|YSize=0.53796mm|CornerRadius=0.26898mm|HoleSize=0mm|Usage=FLASHONLY|Rotation=270.000|XOffset=0mm|YOffset=0mm|HoleType=Round|Shape=RoundedRectangle|*
%AMROUNDEDRECTD13*
21,1,1.03828,0.00000,0,0,270.0*
21,1,0.50032,0.53796,0,0,270.0*
1,1,0.53796,0.00000,-0.25016*
1,1,0.53796,0.00000,0.25016*
1,1,0.53796,0.00000,0.25016*
1,1,0.53796,0.00000,-0.25016*
%
%ADD13ROUNDEDRECTD13*%
%ADD14R,0.53796X1.03828*%
%ADD15R,0.80000X1.00000*%
%ADD17R,0.55880X1.46050*%
%ADD18R,1.50000X0.90000*%
%ADD19R,1.50000X1.30000*%
%ADD20R,1.30000X1.50000*%
%ADD21R,0.90000X1.50000*%
%ADD22R,0.80000X0.95000*%
%ADD23R,0.57658X0.35154*%
%ADD24R,0.35154X0.57658*%
G04:AMPARAMS|DCode=25|XSize=0.95mm|YSize=0.8mm|CornerRadius=0mm|HoleSize=0mm|Usage=FLASHONLY|Rotation=45.000|XOffset=0mm|YOffset=0mm|HoleType=Round|Shape=Rectangle|*
%AMROTATEDRECTD25*
4,1,4,-0.05303,-0.61872,-0.61872,-0.05303,0.05303,0.61872,0.61872,0.05303,-0.05303,-0.61872,0.0*
%
%ADD25ROTATEDRECTD25*%

G04:AMPARAMS|DCode=26|XSize=0.95mm|YSize=0.8mm|CornerRadius=0mm|HoleSize=0mm|Usage=FLASHONLY|Rotation=135.000|XOffset=0mm|YOffset=0mm|HoleType=Round|Shape=Rectangle|*
%AMROTATEDRECTD26*
4,1,4,0.61872,-0.05303,0.05303,-0.61872,-0.61872,0.05303,-0.05303,0.61872,0.61872,-0.05303,0.0*
%
%ADD26ROTATEDRECTD26*%

G04:AMPARAMS|DCode=27|XSize=0.3mm|YSize=1.6mm|CornerRadius=0mm|HoleSize=0mm|Usage=FLASHONLY|Rotation=315.000|XOffset=0mm|YOffset=0mm|HoleType=Round|Shape=Round|*
%AMOVALD27*
21,1,1.30000,0.30000,0.00000,0.00000,45.0*
1,1,0.30000,-0.45962,-0.45962*
1,1,0.30000,0.45962,0.45962*
%
%ADD27OVALD27*%

G04:AMPARAMS|DCode=28|XSize=0.3mm|YSize=1.6mm|CornerRadius=0mm|HoleSize=0mm|Usage=FLASHONLY|Rotation=225.000|XOffset=0mm|YOffset=0mm|HoleType=Round|Shape=Round|*
%AMOVALD28*
21,1,1.30000,0.30000,0.00000,0.00000,315.0*
1,1,0.30000,-0.45962,0.45962*
1,1,0.30000,0.45962,-0.45962*
%
%ADD28OVALD28*%

G04:AMPARAMS|DCode=31|XSize=0.9mm|YSize=1.75mm|CornerRadius=0.0495mm|HoleSize=0mm|Usage=FLASHONLY|Rotation=270.000|XOffset=0mm|YOffset=0mm|HoleType=Round|Shape=RoundedRectangle|*
%AMROUNDEDRECTD31*
21,1,0.90000,1.65100,0,0,270.0*
21,1,0.80100,1.75000,0,0,270.0*
1,1,0.09900,-0.82550,-0.40050*
1,1,0.09900,-0.82550,0.40050*
1,1,0.09900,0.82550,0.40050*
1,1,0.09900,0.82550,-0.40050*
%
%ADD31ROUNDEDRECTD31*%
G04:AMPARAMS|DCode=32|XSize=3.2mm|YSize=1.75mm|CornerRadius=0.0525mm|HoleSize=0mm|Usage=FLASHONLY|Rotation=270.000|XOffset=0mm|YOffset=0mm|HoleType=Round|Shape=RoundedRectangle|*
%AMROUNDEDRECTD32*
21,1,3.20000,1.64500,0,0,270.0*
21,1,3.09500,1.75000,0,0,270.0*
1,1,0.10500,-0.82250,-1.54750*
1,1,0.10500,-0.82250,1.54750*
1,1,0.10500,0.82250,1.54750*
1,1,0.10500,0.82250,-1.54750*
%
%ADD32ROUNDEDRECTD32*%
%ADD34R,0.90000X0.95000*%
%ADD35R,0.95000X0.90000*%
%TA.AperFunction,SMDPad,SMDef*%
%ADD94R,0.40000X0.50000*%
%TA.AperFunction,SMDPad,CuDef*%
%ADD95R,1.20000X0.60000*%
G36*
X6543195Y5634202D02*
X6544152Y5633912D01*
X6545033Y5633441D01*
X6545806Y5632806D01*
X6546441Y5632033D01*
X6546912Y5631152D01*
X6547202Y5630195D01*
X6547300Y5629200D01*
Y5535400D01*
X6547202Y5534405D01*
X6546912Y5533448D01*
X6546441Y5532567D01*
X6545806Y5531794D01*
X6545033Y5531159D01*
X6544152Y5530688D01*
X6543195Y5530398D01*
X6542200Y5530300D01*
X6467400D01*
X6466405Y5530398D01*
X6465448Y5530688D01*
X6464567Y5531159D01*
X6463794Y5531794D01*
X6463160Y5532567D01*
X6462688Y5533448D01*
X6462398Y5534405D01*
X6462300Y5535400D01*
Y5629200D01*
X6462398Y5630195D01*
X6462688Y5631152D01*
X6463160Y5632033D01*
X6463794Y5632806D01*
X6464567Y5633441D01*
X6465448Y5633912D01*
X6466405Y5634202D01*
X6467400Y5634300D01*
X6542200D01*
X6543195Y5634202D01*
D02*
G37*
G36*
X6438195D02*
X6439152Y5633912D01*
X6440033Y5633441D01*
X6440806Y5632806D01*
X6441441Y5632033D01*
X6441912Y5631152D01*
X6442202Y5630195D01*
X6442300Y5629200D01*
Y5535400D01*
X6442202Y5534405D01*
X6441912Y5533448D01*
X6441441Y5532567D01*
X6440806Y5531794D01*
X6440033Y5531159D01*
X6439152Y5530688D01*
X6438195Y5530398D01*
X6437200Y5530300D01*
X6362400D01*
X6361405Y5530398D01*
X6360448Y5530688D01*
X6359567Y5531159D01*
X6358794Y5531794D01*
X6358159Y5532567D01*
X6357688Y5533448D01*
X6357398Y5534405D01*
X6357300Y5535400D01*
Y5629200D01*
X6357398Y5630195D01*
X6357688Y5631152D01*
X6358159Y5632033D01*
X6358794Y5632806D01*
X6359567Y5633441D01*
X6360448Y5633912D01*
X6361405Y5634202D01*
X6362400Y5634300D01*
X6437200D01*
X6438195Y5634202D01*
D02*
G37*
G36*
X3891280Y4450610D02*
X3741100D01*
Y4566500D01*
X3891280D01*
Y4450610D01*
D02*
G37*
G36*
X3721100D02*
X3570920D01*
Y4566500D01*
X3721100D01*
Y4450610D01*
D02*
G37*
G36*
X5480180Y4450000D02*
X5330000D01*
Y4565890D01*
X5480180D01*
Y4450000D01*
D02*
G37*
G36*
X5310000D02*
X5159820D01*
Y4565890D01*
X5310000D01*
Y4450000D01*
D02*
G37*
G36*
X3891280Y4314720D02*
X3741100D01*
Y4430610D01*
X3891280D01*
Y4314720D01*
D02*
G37*
G36*
X3721100D02*
X3570920D01*
Y4430610D01*
X3721100D01*
Y4314720D01*
D02*
G37*
G36*
X5480180Y4314110D02*
X5330000D01*
Y4430000D01*
X5480180D01*
Y4314110D01*
D02*
G37*
G36*
X5310000D02*
X5159820D01*
Y4430000D01*
X5310000D01*
Y4314110D01*
D02*
G37*
D10*
X2546646Y6899692D02*
D03*
D11*
X5988000Y6231465D02*
D03*
X5832000D02*
D03*
X2712000Y5580000D02*
D03*
X2868000D02*
D03*
X5665300Y6012300D02*
D03*
X5509300D02*
D03*
D12*
X5580000Y6610000D02*
D03*
Y6450000D02*
D03*
X6140000Y6600000D02*
D03*
Y6440000D02*
D03*
X6327438Y6595100D02*
D03*
Y6755101D02*
D03*
D13*
X5955000Y6404843D02*
D03*
X5765000D02*
D03*
Y6618086D02*
D03*
X5860000D02*
D03*
D14*
X5955000D02*
D03*
D15*
X6636940Y6169998D02*
D03*
X6476940D02*
D03*
X6990000Y6170000D02*
D03*
X6830000D02*
D03*
X6170000Y7000000D02*
D03*
X6010000D02*
D03*
X4474200Y7835900D02*
D03*
X4314200D02*
D03*
X2130000Y6900000D02*
D03*
X2290000D02*
D03*
X5680000Y4980000D02*
D03*
X5520000D02*
D03*
X4091100Y4990610D02*
D03*
X3931100D02*
D03*
X6407300Y4932300D02*
D03*
X6247300D02*
D03*
Y5282300D02*
D03*
X6407300D02*
D03*
X6407299Y5109707D02*
D03*
X6247299D02*
D03*
X1548300Y5125600D02*
D03*
X1708300D02*
D03*
X1705400Y5926000D02*
D03*
X1545400D02*
D03*
X1548300Y4974767D02*
D03*
X1708300D02*
D03*
X1548299Y5276391D02*
D03*
X1708300D02*
D03*
X1705400Y6086123D02*
D03*
X1545400D02*
D03*
X1705400Y6246134D02*
D03*
X1545400D02*
D03*
X1705400Y5766000D02*
D03*
X1545400D02*
D03*
X1705400Y5606000D02*
D03*
X1545400D02*
D03*
X1705400Y5446000D02*
D03*
X1545400D02*
D03*
D17*
X3921600Y4168195D02*
D03*
X3794600D02*
D03*
X3667600D02*
D03*
X3540600D02*
D03*
Y4713025D02*
D03*
X3667600D02*
D03*
X3794600D02*
D03*
X3921600D02*
D03*
X5510500Y4167585D02*
D03*
X5383500D02*
D03*
X5256500D02*
D03*
X5129500D02*
D03*
Y4712415D02*
D03*
X5256500D02*
D03*
X5383500D02*
D03*
X5510500D02*
D03*
D18*
X5314300Y370000D02*
D03*
Y570000D02*
D03*
X1849001Y6481171D02*
D03*
Y6681171D02*
D03*
X4070000Y8050000D02*
D03*
Y8250000D02*
D03*
X7010000Y6457439D02*
D03*
Y6657440D02*
D03*
X7010000Y6900000D02*
D03*
Y7100000D02*
D03*
X5977313Y7648968D02*
D03*
Y7848968D02*
D03*
X1861700Y7075200D02*
D03*
Y7275200D02*
D03*
X5740000Y7640000D02*
D03*
Y7440000D02*
D03*
D19*
X6108700Y5867400D02*
D03*
Y5664200D02*
D03*
X3029100Y4380010D02*
D03*
Y4176810D02*
D03*
X4611800Y4379400D02*
D03*
Y4176200D02*
D03*
D20*
X6362700Y5930900D02*
D03*
X6565900D02*
D03*
D21*
X4050000Y8500000D02*
D03*
X4250000D02*
D03*
D22*
X2720000Y5812000D02*
D03*
Y5968000D02*
D03*
X4820000Y4318000D02*
D03*
Y4162000D02*
D03*
X4820000Y4562000D02*
D03*
Y4718000D02*
D03*
X3219600Y4318310D02*
D03*
Y4162310D02*
D03*
X3221100Y4562610D02*
D03*
Y4718610D02*
D03*
X6790000Y5638000D02*
D03*
Y5482000D02*
D03*
X5917300Y5430300D02*
D03*
Y5274300D02*
D03*
D23*
X3167555Y5916445D02*
D03*
Y5866445D02*
D03*
Y5816446D02*
D03*
X2976295D02*
D03*
Y5866445D02*
D03*
Y5916445D02*
D03*
D24*
X3146925Y5745415D02*
D03*
X3096925D02*
D03*
X3046925D02*
D03*
X2996925D02*
D03*
Y5987475D02*
D03*
X3046925D02*
D03*
X3096925D02*
D03*
X3146925D02*
D03*
D25*
X3446754Y7267954D02*
D03*
X3336446Y7157646D02*
D03*
X3551754Y7152954D02*
D03*
X3441446Y7042646D02*
D03*
X5204846Y6314846D02*
D03*
X5315154Y6425154D02*
D03*
X4004854Y7675154D02*
D03*
X3894546Y7564846D02*
D03*
D26*
X4004846Y5885154D02*
D03*
X4115154Y5774846D02*
D03*
X4936754Y7490146D02*
D03*
X4826446Y7600454D02*
D03*
X5184254Y7175146D02*
D03*
X5073946Y7285454D02*
D03*
X5056754Y7617646D02*
D03*
X4946446Y7727954D02*
D03*
D27*
X5029810Y6880925D02*
D03*
X4994455Y6916280D02*
D03*
X4959100Y6951635D02*
D03*
X4923745Y6986990D02*
D03*
X4888389Y7022346D02*
D03*
X4853034Y7057701D02*
D03*
X4817678Y7093056D02*
D03*
X4782323Y7128412D02*
D03*
X4746968Y7163767D02*
D03*
X4711613Y7199123D02*
D03*
X4676257Y7234478D02*
D03*
X4640902Y7269833D02*
D03*
X4605547Y7305188D02*
D03*
X4570191Y7340544D02*
D03*
X4534836Y7375899D02*
D03*
X4499480Y7411254D02*
D03*
X3679236Y6591011D02*
D03*
X3714592Y6555655D02*
D03*
X3749947Y6520300D02*
D03*
X3785303Y6484945D02*
D03*
X3820658Y6449589D02*
D03*
X3856013Y6414234D02*
D03*
X3891369Y6378879D02*
D03*
X3926724Y6343523D02*
D03*
X3962079Y6308168D02*
D03*
X3997435Y6272812D02*
D03*
X4032790Y6237457D02*
D03*
X4068145Y6202102D02*
D03*
X4103501Y6166747D02*
D03*
X4138856Y6131391D02*
D03*
X4174211Y6096036D02*
D03*
X4209567Y6060681D02*
D03*
D28*
Y7411254D02*
D03*
X4174211Y7375899D02*
D03*
X4138856Y7340544D02*
D03*
X4103501Y7305188D02*
D03*
X4068145Y7269833D02*
D03*
X4032790Y7234478D02*
D03*
X3997435Y7199123D02*
D03*
X3962079Y7163767D02*
D03*
X3926724Y7128412D02*
D03*
X3891369Y7093056D02*
D03*
X3856013Y7057701D02*
D03*
X3820658Y7022346D02*
D03*
X3785303Y6986990D02*
D03*
X3749947Y6951635D02*
D03*
X3714592Y6916280D02*
D03*
X3679236Y6880924D02*
D03*
X4499480Y6060681D02*
D03*
X4534836Y6096036D02*
D03*
X4570191Y6131391D02*
D03*
X4605547Y6166747D02*
D03*
X4640902Y6202102D02*
D03*
X4676257Y6237457D02*
D03*
X4711613Y6272812D02*
D03*
X4746968Y6308168D02*
D03*
X4782323Y6343523D02*
D03*
X4817678Y6378879D02*
D03*
X4853034Y6414234D02*
D03*
X4888389Y6449589D02*
D03*
X4923745Y6484945D02*
D03*
X4959100Y6520300D02*
D03*
X4994455Y6555655D02*
D03*
X5029810Y6591010D02*
D03*
D31*
X5667300Y5282300D02*
D03*
Y5512300D02*
D03*
Y5742300D02*
D03*
D32*
X5042300Y5512300D02*
D03*
D34*
X2096900Y6679500D02*
D03*
X2191900Y6429500D02*
D03*
X2286900Y6679500D02*
D03*
X4489200Y8003000D02*
D03*
X4394200Y8253000D02*
D03*
X4299200Y8003000D02*
D03*
X6178300Y7190200D02*
D03*
X6083300Y7440200D02*
D03*
X5988300Y7190200D02*
D03*
D35*
X6555000Y6565000D02*
D03*
X6805000Y6660000D02*
D03*
X6555000Y6755000D02*
D03*
D94*
X6549800Y5687300D02*
D03*
X6484800D02*
D03*
X6419800D02*
D03*
X6354800D02*
D03*
Y5477300D02*
D03*
X6419800D02*
D03*
X6484800D02*
D03*
X6549800D02*
D03*
D95*
X847900Y5946000D02*
D03*
Y6056000D02*
D03*
Y6166000D02*
D03*
X1142900D02*
D03*
Y6056000D02*
D03*
Y5946000D02*
D03*
X847900Y5486000D02*
D03*
Y5596000D02*
D03*
Y5706000D02*
D03*
X1142900D02*
D03*
Y5596000D02*
D03*
Y5486000D02*
D03*
X847900Y5015600D02*
D03*
Y5125600D02*
D03*
Y5235600D02*
D03*
X1142900D02*
D03*
Y5125600D02*
D03*
Y5015600D02*
D03*
%TF.MD5,3e810278201dbc34a475d628138660bb*%
M02*
