%TF.GenerationSoftware,Altium Limited,Altium Designer,24.5.1 (21)*%
G04 Layer_Color=2752767*
%FSLAX45Y45*%
%MOMM*%
%TF.SameCoordinates,583913BB-816E-4693-BEF2-A62C45BB8311*%
%TF.FilePolarity,Positive*%
%TF.FileFunction,Drawing*%
%TF.Part,Single*%
G01*
G75*
%TA.AperFunction,NonConductor*%
%ADD59C,0.12700*%
%ADD123C,0.16933*%
%ADD124C,0.10160*%
D59*
X5227536Y8045759D02*
X5176736Y8147359D01*
X5278336D01*
X5227536Y8045759D01*
X5384800Y7900071D02*
X5410200Y7950871D01*
X5384800Y8001671D01*
X5435600Y7976271D01*
X5486400Y8001671D01*
X5461000Y7950871D01*
X5486400Y7900071D01*
X5435600Y7925471D01*
X5384800Y7900071D01*
X5112820Y7881928D02*
X5062020Y7983528D01*
X5163620D01*
X5112820Y7881928D01*
X5320885Y7736240D02*
X5270085Y7837840D01*
X5371685D01*
X5320885Y7736240D01*
X8284600Y5326900D02*
Y5301500D01*
X8335400D01*
Y5326900D01*
X8360800D01*
Y5377700D01*
X8335400D01*
Y5403100D01*
X8284600D01*
Y5377700D01*
X8259200D01*
Y5326900D01*
X8284600D01*
X3711094Y3408724D02*
Y3510324D01*
X3812694D01*
Y3408724D01*
X3711094D01*
Y3210604D02*
Y3312204D01*
X3812694D01*
Y3210604D01*
X3711094D01*
Y3009944D02*
Y3111544D01*
X3812694D01*
Y3009944D01*
X3711094D01*
Y2809284D02*
Y2910884D01*
X3812694D01*
Y2809284D01*
X3711094D01*
Y2613704D02*
Y2715304D01*
X3812694D01*
Y2613704D01*
X3711094D01*
Y2410504D02*
Y2512104D01*
X3812694D01*
Y2410504D01*
X3711094D01*
X4880399Y2409760D02*
Y2511360D01*
X4981999D01*
Y2409760D01*
X4880399D01*
Y2607880D02*
Y2709480D01*
X4981999D01*
Y2607880D01*
X4880399D01*
Y2808540D02*
Y2910140D01*
X4981999D01*
Y2808540D01*
X4880399D01*
Y3009200D02*
Y3110800D01*
X4981999D01*
Y3009200D01*
X4880399D01*
Y3204780D02*
Y3306380D01*
X4981999D01*
Y3204780D01*
X4880399D01*
Y3407980D02*
Y3509580D01*
X4981999D01*
Y3407980D01*
X4880399D01*
X7850000Y5479200D02*
X7875400Y5504600D01*
X7900800D01*
X7875400Y5530000D01*
X7900800Y5555400D01*
X7875400D01*
X7850000Y5580800D01*
X7824600Y5555400D01*
X7799200D01*
X7824600Y5530000D01*
X7799200Y5504600D01*
X7824600D01*
X7850000Y5479200D01*
Y5729200D02*
X7875400Y5754600D01*
X7900800D01*
X7875400Y5780000D01*
X7900800Y5805400D01*
X7875400D01*
X7850000Y5830800D01*
X7824600Y5805400D01*
X7799200D01*
X7824600Y5780000D01*
X7799200Y5754600D01*
X7824600D01*
X7850000Y5729200D01*
Y5979200D02*
X7875400Y6004600D01*
X7900800D01*
X7875400Y6030000D01*
X7900800Y6055400D01*
X7875400D01*
X7850000Y6080800D01*
X7824600Y6055400D01*
X7799200D01*
X7824600Y6030000D01*
X7799200Y6004600D01*
X7824600D01*
X7850000Y5979200D01*
X7250000Y5479200D02*
X7275400Y5504600D01*
X7300800D01*
X7275400Y5530000D01*
X7300800Y5555400D01*
X7275400D01*
X7250000Y5580800D01*
X7224600Y5555400D01*
X7199200D01*
X7224600Y5530000D01*
X7199200Y5504600D01*
X7224600D01*
X7250000Y5479200D01*
Y5729200D02*
X7275400Y5754600D01*
X7300800D01*
X7275400Y5780000D01*
X7300800Y5805400D01*
X7275400D01*
X7250000Y5830800D01*
X7224600Y5805400D01*
X7199200D01*
X7224600Y5780000D01*
X7199200Y5754600D01*
X7224600D01*
X7250000Y5729200D01*
Y5979200D02*
X7275400Y6004600D01*
X7300800D01*
X7275400Y6030000D01*
X7300800Y6055400D01*
X7275400D01*
X7250000Y6080800D01*
X7224600Y6055400D01*
X7199200D01*
X7224600Y6030000D01*
X7199200Y6004600D01*
X7224600D01*
X7250000Y5979200D01*
X5633500Y219200D02*
Y320800D01*
X5735100D01*
Y219200D01*
X5633500D01*
X5887500D02*
Y320800D01*
X5989100D01*
Y219200D01*
X5887500D01*
X3602780Y7891058D02*
X3551980Y7992658D01*
X3653580D01*
X3602780Y7891058D01*
X3394715Y7745370D02*
X3343915Y7846970D01*
X3445515D01*
X3394715Y7745370D01*
X3437264Y8054888D02*
X3462664Y8105688D01*
X3437264Y8156488D01*
X3488064Y8131088D01*
X3538864Y8156488D01*
X3513464Y8105688D01*
X3538864Y8054888D01*
X3488064Y8080288D01*
X3437264Y8054888D01*
X3280000Y7909200D02*
X3229200Y8010800D01*
X3330800D01*
X3280000Y7909200D01*
X1244600Y6429400D02*
X1193800Y6531000D01*
X1295400D01*
X1244600Y6429400D01*
X990600D02*
X939800Y6531000D01*
X1041400D01*
X990600Y6429400D01*
X1193800Y6629400D02*
X1219200Y6680200D01*
X1193800Y6731000D01*
X1244600Y6705600D01*
X1295400Y6731000D01*
X1270000Y6680200D01*
X1295400Y6629400D01*
X1244600Y6654800D01*
X1193800Y6629400D01*
X990600D02*
X939800Y6731000D01*
X1041400D01*
X990600Y6629400D01*
X7747000Y6429400D02*
X7696200Y6531000D01*
X7797800D01*
X7747000Y6429400D01*
X7493000D02*
X7442200Y6531000D01*
X7543800D01*
X7493000Y6429400D01*
X7696200Y6629400D02*
X7721600Y6680200D01*
X7696200Y6731000D01*
X7747000Y6705600D01*
X7797800Y6731000D01*
X7772400Y6680200D01*
X7797800Y6629400D01*
X7747000Y6654800D01*
X7696200Y6629400D01*
X7493000D02*
X7442200Y6731000D01*
X7543800D01*
X7493000Y6629400D01*
X4513200Y219200D02*
Y320800D01*
X4614800D01*
Y219200D01*
X4513200D01*
X4259200D02*
Y320800D01*
X4360800D01*
Y219200D01*
X4259200D01*
X4005200D02*
Y320800D01*
X4106800D01*
Y219200D01*
X4005200D01*
X4767200D02*
Y320800D01*
X4868800D01*
Y219200D01*
X4767200D01*
X2644000Y209200D02*
X2593200Y310800D01*
X2694800D01*
X2644000Y209200D01*
X2898000D02*
X2847200Y310800D01*
X2948800D01*
X2898000Y209200D01*
X3152000D02*
X3101200Y310800D01*
X3202800D01*
X3152000Y209200D01*
X2390000D02*
X2339200Y310800D01*
X2440800D01*
X2390000Y209200D01*
X2136000D02*
X2085200Y310800D01*
X2186800D01*
X2136000Y209200D01*
X8284600Y5864600D02*
Y5839200D01*
X8335400D01*
Y5864600D01*
X8360800D01*
Y5915400D01*
X8335400D01*
Y5940800D01*
X8284600D01*
Y5915400D01*
X8259200D01*
Y5864600D01*
X8284600D01*
X7260000Y4909200D02*
X7209200Y5010800D01*
X7310800D01*
X7260000Y4909200D01*
Y4659200D02*
X7209200Y4760800D01*
X7310800D01*
X7260000Y4659200D01*
X5654600Y4804600D02*
Y4779200D01*
X5705400D01*
Y4804600D01*
X5730800D01*
Y4855400D01*
X5705400D01*
Y4880800D01*
X5654600D01*
Y4855400D01*
X5629200D01*
Y4804600D01*
X5654600D01*
X5664760Y4814760D02*
Y4799520D01*
X5695240D01*
Y4814760D01*
X5710480D01*
Y4845240D01*
X5695240D01*
Y4860480D01*
X5664760D01*
Y4845240D01*
X5649520D01*
Y4814760D01*
X5664760D01*
X6299200Y6119200D02*
Y6220800D01*
X6400800D01*
Y6119200D01*
X6299200D01*
X6319520Y6139520D02*
Y6200480D01*
X6380480D01*
Y6139520D01*
X6319520D01*
X6509200Y6379200D02*
X6534600Y6430000D01*
X6509200Y6480800D01*
X6560000Y6455400D01*
X6610800Y6480800D01*
X6585400Y6430000D01*
X6610800Y6379200D01*
X6560000Y6404600D01*
X6509200Y6379200D01*
X6529520Y6399520D02*
X6544760Y6430000D01*
X6529520Y6460480D01*
X6560000Y6445240D01*
X6590480Y6460480D01*
X6575240Y6430000D01*
X6590480Y6399520D01*
X6560000Y6414760D01*
X6529520Y6399520D01*
X5804200Y6354043D02*
Y6455643D01*
X5905800D01*
Y6354043D01*
X5804200D01*
X5824520Y6374363D02*
Y6435323D01*
X5885480D01*
Y6374363D01*
X5824520D01*
X5129200Y6879200D02*
X5154600Y6930000D01*
X5129200Y6980800D01*
X5180000Y6955400D01*
X5230800Y6980800D01*
X5205400Y6930000D01*
X5230800Y6879200D01*
X5180000Y6904600D01*
X5129200Y6879200D01*
X5149520Y6899520D02*
X5164760Y6930000D01*
X5149520Y6960480D01*
X5180000Y6945240D01*
X5210480Y6960480D01*
X5195240Y6930000D01*
X5210480Y6899520D01*
X5180000Y6914760D01*
X5149520Y6899520D01*
X649200Y4961700D02*
X674600Y5012500D01*
X649200Y5063300D01*
X700000Y5037900D01*
X750800Y5063300D01*
X725400Y5012500D01*
X750800Y4961700D01*
X700000Y4987100D01*
X649200Y4961700D01*
X669520Y4982020D02*
X684760Y5012500D01*
X669520Y5042980D01*
X700000Y5027740D01*
X730480Y5042980D01*
X715240Y5012500D01*
X730480Y4982020D01*
X700000Y4997260D01*
X669520Y4982020D01*
X649200Y5071700D02*
X674600Y5122500D01*
X649200Y5173300D01*
X700000Y5147900D01*
X750800Y5173300D01*
X725400Y5122500D01*
X750800Y5071700D01*
X700000Y5097100D01*
X649200Y5071700D01*
X669520Y5092020D02*
X684760Y5122500D01*
X669520Y5152980D01*
X700000Y5137740D01*
X730480Y5152980D01*
X715240Y5122500D01*
X730480Y5092020D01*
X700000Y5107260D01*
X669520Y5092020D01*
X649200Y5431700D02*
X674600Y5482500D01*
X649200Y5533300D01*
X700000Y5507900D01*
X750800Y5533300D01*
X725400Y5482500D01*
X750800Y5431700D01*
X700000Y5457100D01*
X649200Y5431700D01*
X669520Y5452020D02*
X684760Y5482500D01*
X669520Y5512980D01*
X700000Y5497740D01*
X730480Y5512980D01*
X715240Y5482500D01*
X730480Y5452020D01*
X700000Y5467260D01*
X669520Y5452020D01*
X649200Y5541700D02*
X674600Y5592500D01*
X649200Y5643300D01*
X700000Y5617900D01*
X750800Y5643300D01*
X725400Y5592500D01*
X750800Y5541700D01*
X700000Y5567100D01*
X649200Y5541700D01*
X669520Y5562020D02*
X684760Y5592500D01*
X669520Y5622980D01*
X700000Y5607740D01*
X730480Y5622980D01*
X715240Y5592500D01*
X730480Y5562020D01*
X700000Y5577260D01*
X669520Y5562020D01*
X639200Y5881700D02*
X664600Y5932500D01*
X639200Y5983300D01*
X690000Y5957900D01*
X740800Y5983300D01*
X715400Y5932500D01*
X740800Y5881700D01*
X690000Y5907100D01*
X639200Y5881700D01*
X659520Y5902020D02*
X674760Y5932500D01*
X659520Y5962980D01*
X690000Y5947740D01*
X720480Y5962980D01*
X705240Y5932500D01*
X720480Y5902020D01*
X690000Y5917260D01*
X659520Y5902020D01*
X639200Y6001700D02*
X664600Y6052500D01*
X639200Y6103300D01*
X690000Y6077900D01*
X740800Y6103300D01*
X715400Y6052500D01*
X740800Y6001700D01*
X690000Y6027100D01*
X639200Y6001700D01*
X659520Y6022020D02*
X674760Y6052500D01*
X659520Y6082980D01*
X690000Y6067740D01*
X720480Y6082980D01*
X705240Y6052500D01*
X720480Y6022020D01*
X690000Y6037260D01*
X659520Y6022020D01*
X2669200Y5649200D02*
Y5750800D01*
X2770800D01*
Y5649200D01*
X2669200D01*
X2689520Y5669520D02*
Y5730480D01*
X2750480D01*
Y5669520D01*
X2689520D01*
X4074600Y4814600D02*
Y4789200D01*
X4125400D01*
Y4814600D01*
X4150800D01*
Y4865400D01*
X4125400D01*
Y4890800D01*
X4074600D01*
Y4865400D01*
X4049200D01*
Y4814600D01*
X4074600D01*
X4084760Y4824760D02*
Y4809520D01*
X4115240D01*
Y4824760D01*
X4130480D01*
Y4855240D01*
X4115240D01*
Y4870480D01*
X4084760D01*
Y4855240D01*
X4069520D01*
Y4824760D01*
X4084760D01*
X7029200Y5629200D02*
X7054600Y5680000D01*
X7029200Y5730800D01*
X7080000Y5705400D01*
X7130800Y5730800D01*
X7105400Y5680000D01*
X7130800Y5629200D01*
X7080000Y5654600D01*
X7029200Y5629200D01*
X7049520Y5649520D02*
X7064760Y5680000D01*
X7049520Y5710480D01*
X7080000Y5695240D01*
X7110480Y5710480D01*
X7095240Y5680000D01*
X7110480Y5649520D01*
X7080000Y5664760D01*
X7049520Y5649520D01*
X6919200Y5529200D02*
X6944600Y5580000D01*
X6919200Y5630800D01*
X6970000Y5605400D01*
X7020800Y5630800D01*
X6995400Y5580000D01*
X7020800Y5529200D01*
X6970000Y5554600D01*
X6919200Y5529200D01*
X6939520Y5549520D02*
X6954760Y5580000D01*
X6939520Y5610480D01*
X6970000Y5595240D01*
X7000480Y5610480D01*
X6985240Y5580000D01*
X7000480Y5549520D01*
X6970000Y5564760D01*
X6939520Y5549520D01*
X6919200Y5329200D02*
X6944600Y5380000D01*
X6919200Y5430800D01*
X6970000Y5405400D01*
X7020800Y5430800D01*
X6995400Y5380000D01*
X7020800Y5329200D01*
X6970000Y5354600D01*
X6919200Y5329200D01*
X6939520Y5349520D02*
X6954760Y5380000D01*
X6939520Y5410480D01*
X6970000Y5395240D01*
X7000480Y5410480D01*
X6985240Y5380000D01*
X7000480Y5349520D01*
X6970000Y5364760D01*
X6939520Y5349520D01*
X6919200Y5429200D02*
X6944600Y5480000D01*
X6919200Y5530800D01*
X6970000Y5505400D01*
X7020800Y5530800D01*
X6995400Y5480000D01*
X7020800Y5429200D01*
X6970000Y5454600D01*
X6919200Y5429200D01*
X6939520Y5449520D02*
X6954760Y5480000D01*
X6939520Y5510480D01*
X6970000Y5495240D01*
X7000480Y5510480D01*
X6985240Y5480000D01*
X7000480Y5449520D01*
X6970000Y5464760D01*
X6939520Y5449520D01*
X7029200Y5329200D02*
X7054600Y5380000D01*
X7029200Y5430800D01*
X7080000Y5405400D01*
X7130800Y5430800D01*
X7105400Y5380000D01*
X7130800Y5329200D01*
X7080000Y5354600D01*
X7029200Y5329200D01*
X7049520Y5349520D02*
X7064760Y5380000D01*
X7049520Y5410480D01*
X7080000Y5395240D01*
X7110480Y5410480D01*
X7095240Y5380000D01*
X7110480Y5349520D01*
X7080000Y5364760D01*
X7049520Y5349520D01*
X7029200Y5529200D02*
X7054600Y5580000D01*
X7029200Y5630800D01*
X7080000Y5605400D01*
X7130800Y5630800D01*
X7105400Y5580000D01*
X7130800Y5529200D01*
X7080000Y5554600D01*
X7029200Y5529200D01*
X7049520Y5549520D02*
X7064760Y5580000D01*
X7049520Y5610480D01*
X7080000Y5595240D01*
X7110480Y5610480D01*
X7095240Y5580000D01*
X7110480Y5549520D01*
X7080000Y5564760D01*
X7049520Y5549520D01*
X7029200Y5429200D02*
X7054600Y5480000D01*
X7029200Y5530800D01*
X7080000Y5505400D01*
X7130800Y5530800D01*
X7105400Y5480000D01*
X7130800Y5429200D01*
X7080000Y5454600D01*
X7029200Y5429200D01*
X7049520Y5449520D02*
X7064760Y5480000D01*
X7049520Y5510480D01*
X7080000Y5495240D01*
X7110480Y5510480D01*
X7095240Y5480000D01*
X7110480Y5449520D01*
X7080000Y5464760D01*
X7049520Y5449520D01*
X6919200Y5629200D02*
X6944600Y5680000D01*
X6919200Y5730800D01*
X6970000Y5705400D01*
X7020800Y5730800D01*
X6995400Y5680000D01*
X7020800Y5629200D01*
X6970000Y5654600D01*
X6919200Y5629200D01*
X6939520Y5649520D02*
X6954760Y5680000D01*
X6939520Y5710480D01*
X6970000Y5695240D01*
X7000480Y5710480D01*
X6985240Y5680000D01*
X7000480Y5649520D01*
X6970000Y5664760D01*
X6939520Y5649520D01*
X3169200Y4389200D02*
X3194600Y4440000D01*
X3169200Y4490800D01*
X3220000Y4465400D01*
X3270800Y4490800D01*
X3245400Y4440000D01*
X3270800Y4389200D01*
X3220000Y4414600D01*
X3169200Y4389200D01*
X3189520Y4409520D02*
X3204760Y4440000D01*
X3189520Y4470480D01*
X3220000Y4455240D01*
X3250480Y4470480D01*
X3235240Y4440000D01*
X3250480Y4409520D01*
X3220000Y4424760D01*
X3189520Y4409520D01*
X3765700Y3965210D02*
Y3939810D01*
X3816500D01*
Y3965210D01*
X3841900D01*
Y4016010D01*
X3816500D01*
Y4041410D01*
X3765700D01*
Y4016010D01*
X3740300D01*
Y3965210D01*
X3765700D01*
X3775860Y3975370D02*
Y3960130D01*
X3806340D01*
Y3975370D01*
X3821580D01*
Y4005850D01*
X3806340D01*
Y4021090D01*
X3775860D01*
Y4005850D01*
X3760620D01*
Y3975370D01*
X3775860D01*
X3320300Y4509810D02*
X3345700Y4560610D01*
X3320300Y4611410D01*
X3371100Y4586010D01*
X3421900Y4611410D01*
X3396500Y4560610D01*
X3421900Y4509810D01*
X3371100Y4535210D01*
X3320300Y4509810D01*
X3340620Y4530130D02*
X3355860Y4560610D01*
X3340620Y4591090D01*
X3371100Y4575850D01*
X3401580Y4591090D01*
X3386340Y4560610D01*
X3401580Y4530130D01*
X3371100Y4545370D01*
X3340620Y4530130D01*
X3195700Y4005210D02*
Y3979810D01*
X3246500D01*
Y4005210D01*
X3271900D01*
Y4056010D01*
X3246500D01*
Y4081410D01*
X3195700D01*
Y4056010D01*
X3170300D01*
Y4005210D01*
X3195700D01*
X3205860Y4015370D02*
Y4000130D01*
X3236340D01*
Y4015370D01*
X3251580D01*
Y4045850D01*
X3236340D01*
Y4061090D01*
X3205860D01*
Y4045850D01*
X3190620D01*
Y4015370D01*
X3205860D01*
X2995700Y4005210D02*
Y3979810D01*
X3046500D01*
Y4005210D01*
X3071900D01*
Y4056010D01*
X3046500D01*
Y4081410D01*
X2995700D01*
Y4056010D01*
X2970300D01*
Y4005210D01*
X2995700D01*
X3005860Y4015370D02*
Y4000130D01*
X3036340D01*
Y4015370D01*
X3051580D01*
Y4045850D01*
X3036340D01*
Y4061090D01*
X3005860D01*
Y4045850D01*
X2990620D01*
Y4015370D01*
X3005860D01*
X3335700Y4135210D02*
Y4109810D01*
X3386500D01*
Y4135210D01*
X3411900D01*
Y4186010D01*
X3386500D01*
Y4211410D01*
X3335700D01*
Y4186010D01*
X3310300D01*
Y4135210D01*
X3335700D01*
X3345860Y4145370D02*
Y4130130D01*
X3376340D01*
Y4145370D01*
X3391580D01*
Y4175850D01*
X3376340D01*
Y4191090D01*
X3345860D01*
Y4175850D01*
X3330620D01*
Y4145370D01*
X3345860D01*
X3320300Y4669810D02*
X3345700Y4720610D01*
X3320300Y4771410D01*
X3371100Y4746010D01*
X3421900Y4771410D01*
X3396500Y4720610D01*
X3421900Y4669810D01*
X3371100Y4695210D01*
X3320300Y4669810D01*
X3340620Y4690130D02*
X3355860Y4720610D01*
X3340620Y4751090D01*
X3371100Y4735850D01*
X3401580Y4751090D01*
X3386340Y4720610D01*
X3401580Y4690130D01*
X3371100Y4705370D01*
X3340620Y4690130D01*
X2980300Y4461900D02*
X3005700Y4512700D01*
X2980300Y4563500D01*
X3031100Y4538100D01*
X3081900Y4563500D01*
X3056500Y4512700D01*
X3081900Y4461900D01*
X3031100Y4487300D01*
X2980300Y4461900D01*
X3000620Y4482220D02*
X3015860Y4512700D01*
X3000620Y4543180D01*
X3031100Y4527940D01*
X3061580Y4543180D01*
X3046340Y4512700D01*
X3061580Y4482220D01*
X3031100Y4497460D01*
X3000620Y4482220D01*
X5379200Y5229200D02*
X5404600Y5280000D01*
X5379200Y5330800D01*
X5430000Y5305400D01*
X5480800Y5330800D01*
X5455400Y5280000D01*
X5480800Y5229200D01*
X5430000Y5254600D01*
X5379200Y5229200D01*
X5399520Y5249520D02*
X5414760Y5280000D01*
X5399520Y5310480D01*
X5430000Y5295240D01*
X5460480Y5310480D01*
X5445240Y5280000D01*
X5460480Y5249520D01*
X5430000Y5264760D01*
X5399520Y5249520D01*
X4794600Y3994600D02*
Y3969200D01*
X4845400D01*
Y3994600D01*
X4870800D01*
Y4045400D01*
X4845400D01*
Y4070800D01*
X4794600D01*
Y4045400D01*
X4769200D01*
Y3994600D01*
X4794600D01*
X4804760Y4004760D02*
Y3989520D01*
X4835240D01*
Y4004760D01*
X4850480D01*
Y4035240D01*
X4835240D01*
Y4050480D01*
X4804760D01*
Y4035240D01*
X4789520D01*
Y4004760D01*
X4804760D01*
X4559200Y4469200D02*
X4584600Y4520000D01*
X4559200Y4570800D01*
X4610000Y4545400D01*
X4660800Y4570800D01*
X4635400Y4520000D01*
X4660800Y4469200D01*
X4610000Y4494600D01*
X4559200Y4469200D01*
X4579520Y4489520D02*
X4594760Y4520000D01*
X4579520Y4550480D01*
X4610000Y4535240D01*
X4640480Y4550480D01*
X4625240Y4520000D01*
X4640480Y4489520D01*
X4610000Y4504760D01*
X4579520Y4489520D01*
X4944600Y4694600D02*
Y4669200D01*
X4995400D01*
Y4694600D01*
X5020800D01*
Y4745400D01*
X4995400D01*
Y4770800D01*
X4944600D01*
Y4745400D01*
X4919200D01*
Y4694600D01*
X4944600D01*
X4954760Y4704760D02*
Y4689520D01*
X4985240D01*
Y4704760D01*
X5000480D01*
Y4735240D01*
X4985240D01*
Y4750480D01*
X4954760D01*
Y4735240D01*
X4939520D01*
Y4704760D01*
X4954760D01*
X5354600Y3954600D02*
Y3929200D01*
X5405400D01*
Y3954600D01*
X5430800D01*
Y4005400D01*
X5405400D01*
Y4030800D01*
X5354600D01*
Y4005400D01*
X5329200D01*
Y3954600D01*
X5354600D01*
X5364760Y3964760D02*
Y3949520D01*
X5395240D01*
Y3964760D01*
X5410480D01*
Y3995240D01*
X5395240D01*
Y4010480D01*
X5364760D01*
Y3995240D01*
X5349520D01*
Y3964760D01*
X5364760D01*
X4769200Y4389200D02*
X4794600Y4440000D01*
X4769200Y4490800D01*
X4820000Y4465400D01*
X4870800Y4490800D01*
X4845400Y4440000D01*
X4870800Y4389200D01*
X4820000Y4414600D01*
X4769200Y4389200D01*
X4789520Y4409520D02*
X4804760Y4440000D01*
X4789520Y4470480D01*
X4820000Y4455240D01*
X4850480Y4470480D01*
X4835240Y4440000D01*
X4850480Y4409520D01*
X4820000Y4424760D01*
X4789520Y4409520D01*
X4934600Y4034600D02*
Y4009200D01*
X4985400D01*
Y4034600D01*
X5010800D01*
Y4085400D01*
X4985400D01*
Y4110800D01*
X4934600D01*
Y4085400D01*
X4909200D01*
Y4034600D01*
X4934600D01*
X4944760Y4044760D02*
Y4029520D01*
X4975240D01*
Y4044760D01*
X4990480D01*
Y4075240D01*
X4975240D01*
Y4090480D01*
X4944760D01*
Y4075240D01*
X4929520D01*
Y4044760D01*
X4944760D01*
X4934600Y4534600D02*
Y4509200D01*
X4985400D01*
Y4534600D01*
X5010800D01*
Y4585400D01*
X4985400D01*
Y4610800D01*
X4934600D01*
Y4585400D01*
X4909200D01*
Y4534600D01*
X4934600D01*
X4944760Y4544760D02*
Y4529520D01*
X4975240D01*
Y4544760D01*
X4990480D01*
Y4575240D01*
X4975240D01*
Y4590480D01*
X4944760D01*
Y4575240D01*
X4929520D01*
Y4544760D01*
X4944760D01*
X4594600Y3994600D02*
Y3969200D01*
X4645400D01*
Y3994600D01*
X4670800D01*
Y4045400D01*
X4645400D01*
Y4070800D01*
X4594600D01*
Y4045400D01*
X4569200D01*
Y3994600D01*
X4594600D01*
X4604760Y4004760D02*
Y3989520D01*
X4635240D01*
Y4004760D01*
X4650480D01*
Y4035240D01*
X4635240D01*
Y4050480D01*
X4604760D01*
Y4035240D01*
X4589520D01*
Y4004760D01*
X4604760D01*
X5379200Y5459200D02*
X5404600Y5510000D01*
X5379200Y5560800D01*
X5430000Y5535400D01*
X5480800Y5560800D01*
X5455400Y5510000D01*
X5480800Y5459200D01*
X5430000Y5484600D01*
X5379200Y5459200D01*
X5399520Y5479520D02*
X5414760Y5510000D01*
X5399520Y5540480D01*
X5430000Y5525240D01*
X5460480Y5540480D01*
X5445240Y5510000D01*
X5460480Y5479520D01*
X5430000Y5494760D01*
X5399520Y5479520D01*
X2099200Y4919200D02*
X2124600Y4970000D01*
X2099200Y5020800D01*
X2150000Y4995400D01*
X2200800Y5020800D01*
X2175400Y4970000D01*
X2200800Y4919200D01*
X2150000Y4944600D01*
X2099200Y4919200D01*
X2119520Y4939520D02*
X2134760Y4970000D01*
X2119520Y5000480D01*
X2150000Y4985240D01*
X2180480Y5000480D01*
X2165240Y4970000D01*
X2180480Y4939520D01*
X2150000Y4954760D01*
X2119520Y4939520D01*
X2099200Y5069200D02*
X2124600Y5120000D01*
X2099200Y5170800D01*
X2150000Y5145400D01*
X2200800Y5170800D01*
X2175400Y5120000D01*
X2200800Y5069200D01*
X2150000Y5094600D01*
X2099200Y5069200D01*
X2119520Y5089520D02*
X2134760Y5120000D01*
X2119520Y5150480D01*
X2150000Y5135240D01*
X2180480Y5150480D01*
X2165240Y5120000D01*
X2180480Y5089520D01*
X2150000Y5104760D01*
X2119520Y5089520D01*
X5093500Y519200D02*
X5118900Y570000D01*
X5093500Y620800D01*
X5144300Y595400D01*
X5195100Y620800D01*
X5169700Y570000D01*
X5195100Y519200D01*
X5144300Y544600D01*
X5093500Y519200D01*
X5113820Y539520D02*
X5129060Y570000D01*
X5113820Y600480D01*
X5144300Y585240D01*
X5174780Y600480D01*
X5159540Y570000D01*
X5174780Y539520D01*
X5144300Y554760D01*
X5113820Y539520D01*
X6039200Y4859200D02*
X6064600Y4910000D01*
X6039200Y4960800D01*
X6090000Y4935400D01*
X6140800Y4960800D01*
X6115400Y4910000D01*
X6140800Y4859200D01*
X6090000Y4884600D01*
X6039200Y4859200D01*
X6059520Y4879520D02*
X6074760Y4910000D01*
X6059520Y4940480D01*
X6090000Y4925240D01*
X6120480Y4940480D01*
X6105240Y4910000D01*
X6120480Y4879520D01*
X6090000Y4894760D01*
X6059520Y4879520D01*
X2099200Y5209200D02*
X2124600Y5260000D01*
X2099200Y5310800D01*
X2150000Y5285400D01*
X2200800Y5310800D01*
X2175400Y5260000D01*
X2200800Y5209200D01*
X2150000Y5234600D01*
X2099200Y5209200D01*
X2119520Y5229520D02*
X2134760Y5260000D01*
X2119520Y5290480D01*
X2150000Y5275240D01*
X2180480Y5290480D01*
X2165240Y5260000D01*
X2180480Y5229520D01*
X2150000Y5244760D01*
X2119520Y5229520D01*
X4125800Y5839500D02*
Y5941100D01*
X4227400D01*
Y5839500D01*
X4125800D01*
X4146120Y5859820D02*
Y5920780D01*
X4207080D01*
Y5859820D01*
X4146120D01*
X4489200Y5839200D02*
X4514600Y5890000D01*
X4489200Y5940800D01*
X4540000Y5915400D01*
X4590800Y5940800D01*
X4565400Y5890000D01*
X4590800Y5839200D01*
X4540000Y5864600D01*
X4489200Y5839200D01*
X4509520Y5859520D02*
X4524760Y5890000D01*
X4509520Y5920480D01*
X4540000Y5905240D01*
X4570480Y5920480D01*
X4555240Y5890000D01*
X4570480Y5859520D01*
X4540000Y5874760D01*
X4509520Y5859520D01*
X4959200Y6279200D02*
X4984600Y6330000D01*
X4959200Y6380800D01*
X5010000Y6355400D01*
X5060800Y6380800D01*
X5035400Y6330000D01*
X5060800Y6279200D01*
X5010000Y6304600D01*
X4959200Y6279200D01*
X4979520Y6299520D02*
X4994760Y6330000D01*
X4979520Y6360480D01*
X5010000Y6345240D01*
X5040480Y6360480D01*
X5025240Y6330000D01*
X5040480Y6299520D01*
X5010000Y6314760D01*
X4979520Y6299520D01*
X4679200Y6529200D02*
X4704600Y6580000D01*
X4679200Y6630800D01*
X4730000Y6605400D01*
X4780800Y6630800D01*
X4755400Y6580000D01*
X4780800Y6529200D01*
X4730000Y6554600D01*
X4679200Y6529200D01*
X4699520Y6549520D02*
X4714760Y6580000D01*
X4699520Y6610480D01*
X4730000Y6595240D01*
X4760480Y6610480D01*
X4745240Y6580000D01*
X4760480Y6549520D01*
X4730000Y6564760D01*
X4699520Y6549520D01*
X4599200Y6429200D02*
X4624600Y6480000D01*
X4599200Y6530800D01*
X4650000Y6505400D01*
X4700800Y6530800D01*
X4675400Y6480000D01*
X4700800Y6429200D01*
X4650000Y6454600D01*
X4599200Y6429200D01*
X4619520Y6449520D02*
X4634760Y6480000D01*
X4619520Y6510480D01*
X4650000Y6495240D01*
X4680480Y6510480D01*
X4665240Y6480000D01*
X4680480Y6449520D01*
X4650000Y6464760D01*
X4619520Y6449520D01*
X4679200Y6919200D02*
X4704600Y6970000D01*
X4679200Y7020800D01*
X4730000Y6995400D01*
X4780800Y7020800D01*
X4755400Y6970000D01*
X4780800Y6919200D01*
X4730000Y6944600D01*
X4679200Y6919200D01*
X4699520Y6939520D02*
X4714760Y6970000D01*
X4699520Y7000480D01*
X4730000Y6985240D01*
X4760480Y7000480D01*
X4745240Y6970000D01*
X4760480Y6939520D01*
X4730000Y6954760D01*
X4699520Y6939520D01*
X4199200Y6199200D02*
X4224600Y6250000D01*
X4199200Y6300800D01*
X4250000Y6275400D01*
X4300800Y6300800D01*
X4275400Y6250000D01*
X4300800Y6199200D01*
X4250000Y6224600D01*
X4199200Y6199200D01*
X4219520Y6219520D02*
X4234760Y6250000D01*
X4219520Y6280480D01*
X4250000Y6265240D01*
X4280480Y6280480D01*
X4265240Y6250000D01*
X4280480Y6219520D01*
X4250000Y6234760D01*
X4219520Y6219520D01*
X3669200Y6279200D02*
Y6380800D01*
X3770800D01*
Y6279200D01*
X3669200D01*
X3689520Y6299520D02*
Y6360480D01*
X3750480D01*
Y6299520D01*
X3689520D01*
X3079200Y5529200D02*
Y5630800D01*
X3180800D01*
Y5529200D01*
X3079200D01*
X3099520Y5549520D02*
Y5610480D01*
X3160480D01*
Y5549520D01*
X3099520D01*
X4339200Y8449200D02*
X4364600Y8500000D01*
X4339200Y8550800D01*
X4390000Y8525400D01*
X4440800Y8550800D01*
X4415400Y8500000D01*
X4440800Y8449200D01*
X4390000Y8474600D01*
X4339200Y8449200D01*
X4359520Y8469520D02*
X4374760Y8500000D01*
X4359520Y8530480D01*
X4390000Y8515240D01*
X4420480Y8530480D01*
X4405240Y8500000D01*
X4420480Y8469520D01*
X4390000Y8484760D01*
X4359520Y8469520D01*
X5339200Y5959200D02*
X5364600Y6010000D01*
X5339200Y6060800D01*
X5390000Y6035400D01*
X5440800Y6060800D01*
X5415400Y6010000D01*
X5440800Y5959200D01*
X5390000Y5984600D01*
X5339200Y5959200D01*
X5359520Y5979520D02*
X5374760Y6010000D01*
X5359520Y6040480D01*
X5390000Y6025240D01*
X5420480Y6040480D01*
X5405240Y6010000D01*
X5420480Y5979520D01*
X5390000Y5994760D01*
X5359520Y5979520D01*
X6959200Y7147708D02*
Y7249308D01*
X7060800D01*
Y7147708D01*
X6959200D01*
X6979520Y7168028D02*
Y7228988D01*
X7040480D01*
Y7168028D01*
X6979520D01*
X4549200Y7949200D02*
Y8050800D01*
X4650800D01*
Y7949200D01*
X4549200D01*
X4569520Y7969520D02*
Y8030480D01*
X4630480D01*
Y7969520D01*
X4569520D01*
X2799200Y5909200D02*
X2824600Y5960000D01*
X2799200Y6010800D01*
X2850000Y5985400D01*
X2900800Y6010800D01*
X2875400Y5960000D01*
X2900800Y5909200D01*
X2850000Y5934600D01*
X2799200Y5909200D01*
X2819520Y5929520D02*
X2834760Y5960000D01*
X2819520Y5990480D01*
X2850000Y5975240D01*
X2880480Y5990480D01*
X2865240Y5960000D01*
X2880480Y5929520D01*
X2850000Y5944760D01*
X2819520Y5929520D01*
X2799200Y5799200D02*
X2824600Y5850000D01*
X2799200Y5900800D01*
X2850000Y5875400D01*
X2900800Y5900800D01*
X2875400Y5850000D01*
X2900800Y5799200D01*
X2850000Y5824600D01*
X2799200Y5799200D01*
X2819520Y5819520D02*
X2834760Y5850000D01*
X2819520Y5880480D01*
X2850000Y5865240D01*
X2880480Y5880480D01*
X2865240Y5850000D01*
X2880480Y5819520D01*
X2850000Y5834760D01*
X2819520Y5819520D01*
X6189200Y5829200D02*
X6214600Y5880000D01*
X6189200Y5930800D01*
X6240000Y5905400D01*
X6290800Y5930800D01*
X6265400Y5880000D01*
X6290800Y5829200D01*
X6240000Y5854600D01*
X6189200Y5829200D01*
X6209520Y5849520D02*
X6224760Y5880000D01*
X6209520Y5910480D01*
X6240000Y5895240D01*
X6270480Y5910480D01*
X6255240Y5880000D01*
X6270480Y5849520D01*
X6240000Y5864760D01*
X6209520Y5849520D01*
X6189200Y5919200D02*
X6214600Y5970000D01*
X6189200Y6020800D01*
X6240000Y5995400D01*
X6290800Y6020800D01*
X6265400Y5970000D01*
X6290800Y5919200D01*
X6240000Y5944600D01*
X6189200Y5919200D01*
X6209520Y5939520D02*
X6224760Y5970000D01*
X6209520Y6000480D01*
X6240000Y5985240D01*
X6270480Y6000480D01*
X6255240Y5970000D01*
X6270480Y5939520D01*
X6240000Y5954760D01*
X6209520Y5939520D01*
X3949200Y7424200D02*
Y7525800D01*
X4050800D01*
Y7424200D01*
X3949200D01*
X3969520Y7444520D02*
Y7505480D01*
X4030480D01*
Y7444520D01*
X3969520D01*
X6639200Y5569200D02*
Y5670800D01*
X6740800D01*
Y5569200D01*
X6639200D01*
X6659520Y5589520D02*
Y5650480D01*
X6720480D01*
Y5589520D01*
X6659520D01*
X6510000Y5529200D02*
X6459200Y5630800D01*
X6560800D01*
X6510000Y5529200D01*
Y5549520D02*
X6479520Y5610480D01*
X6540480D01*
X6510000Y5549520D01*
X6390000Y5529200D02*
X6339200Y5630800D01*
X6440800D01*
X6390000Y5529200D01*
Y5549520D02*
X6359520Y5610480D01*
X6420480D01*
X6390000Y5549520D01*
X5199200Y7189200D02*
Y7290800D01*
X5300800D01*
Y7189200D01*
X5199200D01*
X5219520Y7209520D02*
Y7270480D01*
X5280480D01*
Y7209520D01*
X5219520D01*
X4019200Y5939200D02*
Y6040800D01*
X4120800D01*
Y5939200D01*
X4019200D01*
X4039520Y5959520D02*
Y6020480D01*
X4100480D01*
Y5959520D01*
X4039520D01*
X5930900Y7924800D02*
Y8026400D01*
X6032500D01*
Y7924800D01*
X5930900D01*
X5951220Y7945120D02*
Y8006080D01*
X6012180D01*
Y7945120D01*
X5951220D01*
X2939200Y5529200D02*
X2964600Y5580000D01*
X2939200Y5630800D01*
X2990000Y5605400D01*
X3040800Y5630800D01*
X3015400Y5580000D01*
X3040800Y5529200D01*
X2990000Y5554600D01*
X2939200Y5529200D01*
X2959520Y5549520D02*
X2974760Y5580000D01*
X2959520Y5610480D01*
X2990000Y5595240D01*
X3020480Y5610480D01*
X3005240Y5580000D01*
X3020480Y5549520D01*
X2990000Y5564760D01*
X2959520Y5549520D01*
X3553300Y7045300D02*
X3604100Y7096100D01*
X3654900Y7045300D01*
X3604100Y6994500D01*
X3553300Y7045300D01*
X3465800Y6962800D02*
X3516600Y7013600D01*
X3567400Y6962800D01*
X3516600Y6912000D01*
X3465800Y6962800D01*
X5120800Y6437000D02*
Y6538600D01*
X5222400D01*
Y6437000D01*
X5120800D01*
X5141120Y6457320D02*
Y6518280D01*
X5202080D01*
Y6457320D01*
X5141120D01*
X5068300Y6362000D02*
Y6463600D01*
X5169900D01*
Y6362000D01*
X5068300D01*
X5088620Y6382320D02*
Y6443280D01*
X5149580D01*
Y6382320D01*
X5088620D01*
X4708300Y7414500D02*
Y7516100D01*
X4809900D01*
Y7414500D01*
X4708300D01*
X4728620Y7434820D02*
Y7495780D01*
X4789580D01*
Y7434820D01*
X4728620D01*
X4043300Y7532000D02*
Y7633600D01*
X4144900D01*
Y7532000D01*
X4043300D01*
X4063620Y7552320D02*
Y7613280D01*
X4124580D01*
Y7552320D01*
X4063620D01*
X4776500Y5331500D02*
X4801900Y5382300D01*
X4776500Y5433100D01*
X4827300Y5407700D01*
X4878100Y5433100D01*
X4852700Y5382300D01*
X4878100Y5331500D01*
X4827300Y5356900D01*
X4776500Y5331500D01*
X4796820Y5351820D02*
X4812060Y5382300D01*
X4796820Y5412780D01*
X4827300Y5397540D01*
X4857780Y5412780D01*
X4842540Y5382300D01*
X4857780Y5351820D01*
X4827300Y5367060D01*
X4796820Y5351820D01*
X4776500Y5461500D02*
X4801900Y5512300D01*
X4776500Y5563100D01*
X4827300Y5537700D01*
X4878100Y5563100D01*
X4852700Y5512300D01*
X4878100Y5461500D01*
X4827300Y5486900D01*
X4776500Y5461500D01*
X4796820Y5481820D02*
X4812060Y5512300D01*
X4796820Y5542780D01*
X4827300Y5527540D01*
X4857780Y5542780D01*
X4842540Y5512300D01*
X4857780Y5481820D01*
X4827300Y5497060D01*
X4796820Y5481820D01*
X4776500Y5591500D02*
X4801900Y5642300D01*
X4776500Y5693100D01*
X4827300Y5667700D01*
X4878100Y5693100D01*
X4852700Y5642300D01*
X4878100Y5591500D01*
X4827300Y5616900D01*
X4776500Y5591500D01*
X4796820Y5611820D02*
X4812060Y5642300D01*
X4796820Y5672780D01*
X4827300Y5657540D01*
X4857780Y5672780D01*
X4842540Y5642300D01*
X4857780Y5611820D01*
X4827300Y5627060D01*
X4796820Y5611820D01*
X6086500Y5061500D02*
X6111900Y5112300D01*
X6086500Y5163100D01*
X6137300Y5137700D01*
X6188100Y5163100D01*
X6162700Y5112300D01*
X6188100Y5061500D01*
X6137300Y5086900D01*
X6086500Y5061500D01*
X6106820Y5081820D02*
X6122060Y5112300D01*
X6106820Y5142780D01*
X6137300Y5127540D01*
X6167780Y5142780D01*
X6152540Y5112300D01*
X6167780Y5081820D01*
X6137300Y5097060D01*
X6106820Y5081820D01*
X1968799Y6851400D02*
X1994199Y6902200D01*
X1968799Y6953000D01*
X2019599Y6927600D01*
X2070399Y6953000D01*
X2044999Y6902200D01*
X2070399Y6851400D01*
X2019599Y6876800D01*
X1968799Y6851400D01*
X1989119Y6871720D02*
X2004359Y6902200D01*
X1989119Y6932680D01*
X2019599Y6917440D01*
X2050079Y6932680D01*
X2034839Y6902200D01*
X2050079Y6871720D01*
X2019599Y6886960D01*
X1989119Y6871720D01*
X1810900Y7354600D02*
X1836300Y7405400D01*
X1810900Y7456200D01*
X1861700Y7430800D01*
X1912500Y7456200D01*
X1887100Y7405400D01*
X1912500Y7354600D01*
X1861700Y7380000D01*
X1810900Y7354600D01*
X1831220Y7374920D02*
X1846460Y7405400D01*
X1831220Y7435880D01*
X1861700Y7420640D01*
X1892180Y7435880D01*
X1876940Y7405400D01*
X1892180Y7374920D01*
X1861700Y7390160D01*
X1831220Y7374920D01*
X6259200Y7139200D02*
X6284600Y7190000D01*
X6259200Y7240800D01*
X6310000Y7215400D01*
X6360800Y7240800D01*
X6335400Y7190000D01*
X6360800Y7139200D01*
X6310000Y7164600D01*
X6259200Y7139200D01*
X6279520Y7159520D02*
X6294760Y7190000D01*
X6279520Y7220480D01*
X6310000Y7205240D01*
X6340480Y7220480D01*
X6325240Y7190000D01*
X6340480Y7159520D01*
X6310000Y7174760D01*
X6279520Y7159520D01*
X4780800Y7347000D02*
Y7448600D01*
X4882400D01*
Y7347000D01*
X4780800D01*
X4801120Y7367320D02*
Y7428280D01*
X4862080D01*
Y7367320D01*
X4801120D01*
D123*
X2288894Y2132559D02*
G03*
X2288894Y2132559I-50800J0D01*
G01*
Y3796259D02*
G03*
X2288894Y3796259I-50800J0D01*
G01*
X6505800Y3787525D02*
G03*
X6505800Y3787525I-50800J0D01*
G01*
Y2123825D02*
G03*
X6505800Y2123825I-50800J0D01*
G01*
X3901900Y4370610D02*
G03*
X3901900Y4370610I-50800J0D01*
G01*
Y4517700D02*
G03*
X3901900Y4517700I-50800J0D01*
G01*
X3671900Y4370610D02*
G03*
X3671900Y4370610I-50800J0D01*
G01*
Y4517700D02*
G03*
X3671900Y4517700I-50800J0D01*
G01*
X3781900Y4370610D02*
G03*
X3781900Y4370610I-50800J0D01*
G01*
Y4517700D02*
G03*
X3781900Y4517700I-50800J0D01*
G01*
X5490800Y4370000D02*
G03*
X5490800Y4370000I-50800J0D01*
G01*
X5370800Y4500000D02*
G03*
X5370800Y4500000I-50800J0D01*
G01*
Y4370000D02*
G03*
X5370800Y4370000I-50800J0D01*
G01*
X5490800Y4500000D02*
G03*
X5490800Y4500000I-50800J0D01*
G01*
X5260800D02*
G03*
X5260800Y4500000I-50800J0D01*
G01*
Y4370000D02*
G03*
X5260800Y4370000I-50800J0D01*
G01*
D124*
X3881580Y4370610D02*
G03*
X3881580Y4370610I-30480J0D01*
G01*
Y4517700D02*
G03*
X3881580Y4517700I-30480J0D01*
G01*
X3651580Y4370610D02*
G03*
X3651580Y4370610I-30480J0D01*
G01*
Y4517700D02*
G03*
X3651580Y4517700I-30480J0D01*
G01*
X3761580Y4370610D02*
G03*
X3761580Y4370610I-30480J0D01*
G01*
Y4517700D02*
G03*
X3761580Y4517700I-30480J0D01*
G01*
X5470480Y4370000D02*
G03*
X5470480Y4370000I-30480J0D01*
G01*
X5350480Y4500000D02*
G03*
X5350480Y4500000I-30480J0D01*
G01*
Y4370000D02*
G03*
X5350480Y4370000I-30480J0D01*
G01*
X5470480Y4500000D02*
G03*
X5470480Y4500000I-30480J0D01*
G01*
X5240480D02*
G03*
X5240480Y4500000I-30480J0D01*
G01*
Y4370000D02*
G03*
X5240480Y4370000I-30480J0D01*
G01*
%TF.MD5,8ea56087714bdaa8b776f00738b095ec*%
M02*
