%TF.GenerationSoftware,Altium Limited,Altium Designer,24.5.1 (21)*%
G04 Layer_Color=8388736*
%FSLAX45Y45*%
%MOMM*%
%TF.SameCoordinates,583913BB-816E-4693-BEF2-A62C45BB8311*%
%TF.FilePolarity,Positive*%
%TF.FileFunction,Other,Bottom_Plugging*%
%TF.Part,Single*%
G01*
G75*
%TA.AperFunction,SMDPad,CuDef*%
%ADD104C,0.25000*%
%ADD105C,0.30000*%
%ADD106C,0.35000*%
D104*
X4831600Y7397800D02*
D03*
X4094100Y7582800D02*
D03*
X4759100Y7465300D02*
D03*
X5119100Y6412800D02*
D03*
X5171600Y6487800D02*
D03*
X5981700Y7975600D02*
D03*
X4070000Y5990000D02*
D03*
X5250000Y7240000D02*
D03*
X6690000Y5620000D02*
D03*
X4000000Y7475000D02*
D03*
X4600000Y8000000D02*
D03*
X7010000Y7198508D02*
D03*
X3130000Y5580000D02*
D03*
X3720000Y6330000D02*
D03*
X4176600Y5890300D02*
D03*
X2720000Y5700000D02*
D03*
X5855000Y6404843D02*
D03*
X6350000Y6170000D02*
D03*
D105*
X6310000Y7190000D02*
D03*
X1861700Y7405400D02*
D03*
X2019599Y6902200D02*
D03*
X6137300Y5112300D02*
D03*
X4827300Y5642300D02*
D03*
Y5512300D02*
D03*
Y5382300D02*
D03*
X2990000Y5580000D02*
D03*
X6240000Y5970000D02*
D03*
Y5880000D02*
D03*
X2850000Y5850000D02*
D03*
Y5960000D02*
D03*
X5390000Y6010000D02*
D03*
X4390000Y8500000D02*
D03*
X4250000Y6250000D02*
D03*
X4730000Y6970000D02*
D03*
X4650000Y6480000D02*
D03*
X4730000Y6580000D02*
D03*
X5010000Y6330000D02*
D03*
X4540000Y5890000D02*
D03*
X2150000Y5260000D02*
D03*
X6090000Y4910000D02*
D03*
X5144300Y570000D02*
D03*
X2150000Y5120000D02*
D03*
Y4970000D02*
D03*
X5430000Y5510000D02*
D03*
X4820000Y4440000D02*
D03*
X4610000Y4520000D02*
D03*
X5430000Y5280000D02*
D03*
X3031100Y4512700D02*
D03*
X3371100Y4720610D02*
D03*
Y4560610D02*
D03*
X3220000Y4440000D02*
D03*
X6970000Y5680000D02*
D03*
X7080000Y5480000D02*
D03*
X7080000Y5580000D02*
D03*
X7080000Y5380000D02*
D03*
X6970000Y5480000D02*
D03*
Y5380000D02*
D03*
X6970000Y5580000D02*
D03*
X7080000Y5680000D02*
D03*
X690000Y6052500D02*
D03*
Y5932500D02*
D03*
X700000Y5592500D02*
D03*
Y5482500D02*
D03*
Y5122500D02*
D03*
Y5012500D02*
D03*
X5180000Y6930000D02*
D03*
X6560000Y6430000D02*
D03*
D106*
X4620000Y4020000D02*
D03*
X4960000Y4560000D02*
D03*
Y4060000D02*
D03*
X5380000Y3980000D02*
D03*
X4970000Y4720000D02*
D03*
X4820000Y4020000D02*
D03*
X3361100Y4160610D02*
D03*
X3021100Y4030610D02*
D03*
X3221100D02*
D03*
X3791100Y3990610D02*
D03*
X4100000Y4840000D02*
D03*
X5680000Y4830000D02*
D03*
%TF.MD5,baff8204d7127c3b7d7614aa709e1145*%
M02*
