%TF.GenerationSoftware,Altium Limited,Altium Designer,24.5.1 (21)*%
G04 Layer_Physical_Order=2*
G04 Layer_Color=36540*
%FSLAX45Y45*%
%MOMM*%
%TF.SameCoordinates,583913BB-816E-4693-BEF2-A62C45BB8311*%
%TF.FilePolarity,Positive*%
%TF.FileFunction,Copper,L2,Inr,Signal*%
%TF.Part,Single*%
G01*
G75*
%TA.AperFunction,ComponentPad*%
%ADD42P,2.26274X4X370.0*%
%ADD43C,1.80000*%
%ADD44C,1.60000*%
%ADD45R,3.75000X3.75000*%
%ADD46R,3.00000X3.00000*%
%ADD47C,1.52400*%
%ADD48C,1.40800*%
%ADD49R,1.77800X1.77800*%
%ADD50P,2.26274X4X80.0*%
%ADD51R,1.60000X1.60000*%
%ADD52R,1.60000X1.60000*%
%TA.AperFunction,ViaPad*%
%ADD53C,0.70000*%
%ADD54C,0.50000*%
%ADD55C,0.60000*%
G36*
X4645643Y9425116D02*
X4843741Y9407333D01*
X5040844Y9380704D01*
X5236558Y9345281D01*
X5430499Y9301134D01*
X5622262Y9248354D01*
X5811476Y9187045D01*
X5997750Y9117333D01*
X6180720Y9039354D01*
X6360022Y8953263D01*
X6535288Y8859238D01*
X6706170Y8757463D01*
X6872332Y8648140D01*
X7033430Y8531496D01*
X7189149Y8407757D01*
X7339175Y8277175D01*
X7483209Y8140008D01*
X7620957Y7996536D01*
X7752148Y7847043D01*
X7876518Y7691829D01*
X7993819Y7531204D01*
X8103817Y7365487D01*
X8206284Y7195022D01*
X8301021Y7020140D01*
X8387839Y6841192D01*
X8466562Y6658538D01*
X8537032Y6472547D01*
X8599110Y6283585D01*
X8652669Y6092036D01*
X8674839Y5996442D01*
X8680947Y5935010D01*
X8690316Y5809264D01*
X8696571Y5683326D01*
X8699709Y5557272D01*
X8699728Y5431179D01*
X8696627Y5305113D01*
X8690410Y5179183D01*
X8681078Y5053425D01*
X8675318Y4995318D01*
X8559619Y4879619D01*
X8452597Y4879346D01*
D01*
X8067549Y4878362D01*
X8067242Y4878300D01*
X8066934Y4878351D01*
X8047633Y4877718D01*
X8046648Y4877489D01*
X8045639Y4877555D01*
X8007368Y4872517D01*
X8006094Y4872084D01*
X8004752Y4871996D01*
X7967467Y4862005D01*
X7966260Y4861410D01*
X7964941Y4861148D01*
X7929278Y4846376D01*
X7928160Y4845629D01*
X7926886Y4845197D01*
X7893456Y4825896D01*
X7892445Y4825009D01*
X7891239Y4824414D01*
X7860614Y4800915D01*
X7859727Y4799904D01*
X7858609Y4799157D01*
X7831314Y4771862D01*
X7830567Y4770743D01*
X7829555Y4769856D01*
X7806057Y4739232D01*
X7805461Y4738025D01*
X7804575Y4737014D01*
X7785274Y4703585D01*
X7784842Y4702311D01*
X7784094Y4701193D01*
X7769323Y4665530D01*
X7769060Y4664211D01*
X7768466Y4663004D01*
X7758475Y4625719D01*
X7758387Y4624377D01*
X7757954Y4623103D01*
X7752916Y4584832D01*
X7752982Y4583823D01*
X7752752Y4582838D01*
X7752121Y4563537D01*
X7752176Y4563202D01*
X7752110Y4562870D01*
Y4380000D01*
X7752109Y4129902D01*
X7752111Y4129895D01*
X7752109Y4129889D01*
X7753862Y1361648D01*
X7753927Y1361322D01*
X7753873Y1360993D01*
X7754516Y1341346D01*
X7754746Y1340361D01*
X7754680Y1339351D01*
X7759809Y1300393D01*
X7760241Y1299119D01*
X7760329Y1297777D01*
X7770499Y1259821D01*
X7771094Y1258614D01*
X7771357Y1257295D01*
X7786394Y1220991D01*
X7787141Y1219873D01*
X7787574Y1218599D01*
X7807221Y1184568D01*
X7808108Y1183557D01*
X7808703Y1182351D01*
X7832624Y1151176D01*
X7833636Y1150289D01*
X7834383Y1149170D01*
X7862169Y1121385D01*
X7863288Y1120637D01*
X7864174Y1119626D01*
X7895349Y1095705D01*
X7896556Y1095110D01*
X7897567Y1094223D01*
X7931597Y1074575D01*
X7932871Y1074143D01*
X7933989Y1073395D01*
X7970294Y1058358D01*
X7971613Y1058096D01*
X7972819Y1057501D01*
X8001780Y1049741D01*
X8005576Y1035576D01*
X7880000Y910000D01*
X2260000Y910000D01*
X1860000Y1310000D01*
Y2180000D01*
X2030000Y2350000D01*
X2600000D01*
X2890000Y2640000D01*
Y3330000D01*
X2777866Y3442134D01*
X2197866D01*
X2000000Y3640000D01*
Y4190000D01*
X2380000Y4570000D01*
X3030000D01*
X3120000Y4480000D01*
X3430000D01*
X3530000Y4580000D01*
X4620000D01*
X4720000Y4480000D01*
X5030000D01*
X5130000Y4580000D01*
X5530000D01*
X5730000Y4380000D01*
X6960000D01*
X6757403Y4582597D01*
Y4630000D01*
X6330000D01*
X6310000Y4610000D01*
X5030000D01*
Y4560000D01*
X4970000Y4500000D01*
X4770000D01*
X4640000Y4630000D01*
X3540000D01*
X3420000Y4510000D01*
X3170000D01*
X3080000Y4600000D01*
X2250000D01*
X1900000Y4250000D01*
Y3585368D01*
X2115368Y3370000D01*
X2670000D01*
X2830000Y3210000D01*
X2820000Y3200000D01*
Y2610000D01*
X2610000Y2400000D01*
X1950000D01*
X1810000Y2260000D01*
Y1240000D01*
X2250000Y800000D01*
X6630000Y800000D01*
X8656050D01*
X8656656Y798537D01*
X8668739Y753442D01*
X8674832Y707158D01*
X8674832Y683820D01*
X8674752Y392893D01*
X8674752Y392890D01*
X8674752Y392887D01*
X8674752Y368457D01*
X8668374Y320015D01*
X8655728Y272820D01*
X8637030Y227679D01*
X8612602Y185366D01*
X8582857Y146602D01*
X8548309Y112054D01*
X8509545Y82309D01*
X8467232Y57880D01*
X8422090Y39181D01*
X8374897Y26535D01*
X8326455Y20158D01*
X8302025D01*
X392975Y20158D01*
X368545D01*
X320103Y26536D01*
X272910Y39181D01*
X227767Y57880D01*
X185455Y82309D01*
X146693Y112052D01*
X112143Y146602D01*
X82399Y185366D01*
X57969Y227679D01*
X39271Y272821D01*
X26626Y320014D01*
X20248Y368455D01*
Y392885D01*
X20248Y392888D01*
X20248Y392891D01*
X20168Y683819D01*
X20167Y707156D01*
X26261Y753440D01*
X38344Y798535D01*
X56210Y841668D01*
X79552Y882097D01*
X107973Y919136D01*
X140983Y952147D01*
X178021Y980567D01*
X218451Y1003909D01*
X261584Y1021776D01*
X306679Y1033858D01*
X352963Y1039952D01*
X376306Y1039952D01*
X376344Y1039959D01*
X376382Y1039952D01*
X620417Y1040862D01*
X620711Y1040922D01*
X621008Y1040873D01*
X640656Y1041516D01*
X641641Y1041745D01*
X642650Y1041679D01*
X681608Y1046808D01*
X682883Y1047241D01*
X684225Y1047329D01*
X722181Y1057499D01*
X723387Y1058094D01*
X724706Y1058356D01*
X761010Y1073394D01*
X762129Y1074141D01*
X763403Y1074573D01*
X797433Y1094221D01*
X798444Y1095108D01*
X799651Y1095703D01*
X830826Y1119624D01*
X831713Y1120636D01*
X832831Y1121383D01*
X860617Y1149168D01*
X861364Y1150287D01*
X862375Y1151174D01*
X886297Y1182349D01*
X886892Y1183555D01*
X887779Y1184567D01*
X907426Y1218597D01*
X907858Y1219871D01*
X908606Y1220989D01*
X923643Y1257293D01*
X923906Y1258612D01*
X924501Y1259819D01*
X934671Y1297775D01*
X934759Y1299117D01*
X935191Y1300391D01*
X940320Y1339350D01*
X940254Y1340359D01*
X940484Y1341344D01*
X941127Y1360991D01*
X941073Y1361320D01*
X941138Y1361646D01*
X942891Y4129887D01*
X942889Y4129893D01*
X942891Y4129900D01*
Y4562868D01*
X942824Y4563201D01*
X942880Y4563536D01*
X942248Y4582836D01*
X942018Y4583821D01*
X942084Y4584830D01*
X937046Y4623101D01*
X936613Y4624375D01*
X936525Y4625717D01*
X926534Y4663002D01*
X925939Y4664209D01*
X925677Y4665528D01*
X910905Y4701191D01*
X910158Y4702309D01*
X909726Y4703583D01*
X890425Y4737013D01*
X889538Y4738024D01*
X888943Y4739230D01*
X865445Y4769855D01*
X864433Y4770742D01*
X863686Y4771860D01*
X836391Y4799155D01*
X835272Y4799903D01*
X834385Y4800914D01*
X803761Y4824412D01*
X802554Y4825008D01*
X801543Y4825894D01*
X768114Y4845195D01*
X766840Y4845627D01*
X765722Y4846375D01*
X730059Y4861146D01*
X728740Y4861409D01*
X727533Y4862003D01*
X690248Y4871994D01*
X688906Y4872082D01*
X687632Y4872515D01*
X649361Y4877553D01*
X648352Y4877487D01*
X647367Y4877717D01*
X628066Y4878349D01*
X627757Y4878298D01*
X627450Y4878360D01*
X391490Y4878953D01*
X129338Y4879631D01*
X129311Y4879626D01*
X129285Y4879631D01*
X118545D01*
X97479Y4883822D01*
X77634Y4892042D01*
X59774Y4903975D01*
X44585Y4919164D01*
X32651Y4937024D01*
X24431Y4956870D01*
X20241Y4977935D01*
Y4988676D01*
X20042Y4989674D01*
X20141Y4990687D01*
X13922Y5053422D01*
X4590Y5179181D01*
X-1627Y5305111D01*
X-4728Y5431177D01*
X-4709Y5557270D01*
X-1571Y5683324D01*
X4684Y5809263D01*
X14053Y5935008D01*
X20161Y5996440D01*
X42330Y6092035D01*
X95888Y6283580D01*
X157967Y6472546D01*
X228437Y6658537D01*
X307161Y6841192D01*
X393978Y7020138D01*
X488716Y7195020D01*
X591185Y7365490D01*
X701182Y7531205D01*
X818480Y7691827D01*
X942850Y7847041D01*
X1074042Y7996534D01*
X1211790Y8140007D01*
X1355824Y8277174D01*
X1505850Y8407756D01*
X1661568Y8531494D01*
X1822666Y8648139D01*
X1988826Y8757461D01*
X2159706Y8859234D01*
X2334972Y8953260D01*
X2514274Y9039351D01*
X2697243Y9117330D01*
X2883524Y9187045D01*
X3072736Y9248354D01*
X3264505Y9301135D01*
X3458435Y9345280D01*
X3654149Y9380703D01*
X3851257Y9407333D01*
X4049350Y9425116D01*
X4248054Y9434016D01*
X4446944Y9434016D01*
X4645643Y9425116D01*
D02*
G37*
%LPC*%
G36*
X5205394Y8222127D02*
X5101967Y8074418D01*
X5249677Y7970991D01*
X5353104Y8118700D01*
X5205394Y8222127D01*
D02*
G37*
G36*
X5444405Y8051510D02*
X5418057Y8050360D01*
X5392905Y8042429D01*
X5370663Y8028260D01*
X5352846Y8008816D01*
X5340668Y7985423D01*
X5334960Y7959675D01*
X5336110Y7933328D01*
X5344041Y7908176D01*
X5358211Y7885933D01*
X5364178Y7880465D01*
X5356831Y7869972D01*
X5351988Y7872494D01*
X5328811Y7877632D01*
X5305094Y7876596D01*
X5282453Y7869458D01*
X5262431Y7856703D01*
X5246393Y7839200D01*
X5235431Y7818143D01*
X5230293Y7794966D01*
X5231329Y7771249D01*
X5238467Y7748608D01*
X5251222Y7728586D01*
X5268725Y7712548D01*
X5289782Y7701586D01*
X5312959Y7696448D01*
X5336676Y7697484D01*
X5359317Y7704622D01*
X5379339Y7717378D01*
X5395377Y7734880D01*
X5406339Y7755937D01*
X5411477Y7779114D01*
X5410441Y7802831D01*
X5403303Y7825472D01*
X5390548Y7845494D01*
X5386522Y7849183D01*
X5393869Y7859676D01*
X5401048Y7855939D01*
X5426795Y7850231D01*
X5453143Y7851381D01*
X5478295Y7859312D01*
X5500537Y7873482D01*
X5518354Y7892926D01*
X5530532Y7916318D01*
X5536240Y7942066D01*
X5535090Y7968413D01*
X5527159Y7993565D01*
X5512989Y8015808D01*
X5493545Y8033625D01*
X5470152Y8045802D01*
X5444405Y8051510D01*
D02*
G37*
G36*
X3479260Y8206328D02*
X3453512Y8200620D01*
X3430119Y8188443D01*
X3410675Y8170626D01*
X3396505Y8148383D01*
X3388575Y8123231D01*
X3387425Y8096884D01*
X3393133Y8071136D01*
X3405310Y8047743D01*
X3423127Y8028299D01*
X3445370Y8014129D01*
X3470522Y8006199D01*
X3496869Y8005049D01*
X3522617Y8010757D01*
X3529797Y8014494D01*
X3537144Y8004001D01*
X3533117Y8000312D01*
X3520362Y7980290D01*
X3513224Y7957649D01*
X3512188Y7933932D01*
X3517326Y7910755D01*
X3528288Y7889698D01*
X3544326Y7872195D01*
X3564348Y7859440D01*
X3586989Y7852302D01*
X3610706Y7851266D01*
X3633882Y7856404D01*
X3654940Y7867366D01*
X3672442Y7883404D01*
X3685198Y7903426D01*
X3692336Y7926067D01*
X3693372Y7949784D01*
X3688234Y7972960D01*
X3677272Y7994018D01*
X3661234Y8011520D01*
X3641212Y8024276D01*
X3618571Y8031414D01*
X3594854Y8032450D01*
X3571677Y8027312D01*
X3566833Y8024790D01*
X3559485Y8035283D01*
X3565453Y8040751D01*
X3579624Y8062994D01*
X3587554Y8088146D01*
X3588704Y8114493D01*
X3582996Y8140241D01*
X3570819Y8163633D01*
X3553002Y8183077D01*
X3530759Y8197248D01*
X3505607Y8205178D01*
X3479260Y8206328D01*
D02*
G37*
G36*
X3302141Y8085568D02*
X3154432Y7982141D01*
X3257859Y7834432D01*
X3405568Y7937859D01*
X3302141Y8085568D01*
D02*
G37*
G36*
X5090679Y8058297D02*
X4987252Y7910587D01*
X5134962Y7807160D01*
X5238389Y7954870D01*
X5090679Y8058297D01*
D02*
G37*
G36*
X3416857Y7921738D02*
X3269147Y7818311D01*
X3372574Y7670601D01*
X3520284Y7774028D01*
X3416857Y7921738D01*
D02*
G37*
G36*
X4000000Y7513439D02*
X3985290Y7510513D01*
X3972820Y7502180D01*
X3964487Y7489710D01*
X3961561Y7475000D01*
X3964487Y7460290D01*
X3972820Y7447820D01*
X3985290Y7439488D01*
X4000000Y7436561D01*
X4014710Y7439488D01*
X4027180Y7447820D01*
X4035512Y7460290D01*
X4038438Y7475000D01*
X4035512Y7489710D01*
X4027180Y7502180D01*
X4014710Y7510513D01*
X4000000Y7513439D01*
D02*
G37*
G36*
X4759100Y7503739D02*
X4744390Y7500813D01*
X4731920Y7492480D01*
X4723587Y7480010D01*
X4720661Y7465300D01*
X4723587Y7450590D01*
X4731920Y7438120D01*
X4744390Y7429788D01*
X4759100Y7426861D01*
X4773810Y7429788D01*
X4786280Y7438120D01*
X4794612Y7450590D01*
X4797539Y7465300D01*
X4794612Y7480010D01*
X4786280Y7492480D01*
X4773810Y7500813D01*
X4759100Y7503739D01*
D02*
G37*
G36*
X4730000Y7013536D02*
X4713339Y7010222D01*
X4699215Y7000785D01*
X4689778Y6986661D01*
X4686464Y6970000D01*
X4689778Y6953339D01*
X4699215Y6939215D01*
X4713339Y6929778D01*
X4730000Y6926464D01*
X4746661Y6929778D01*
X4760785Y6939215D01*
X4770222Y6953339D01*
X4773536Y6970000D01*
X4770222Y6986661D01*
X4760785Y7000785D01*
X4746661Y7010222D01*
X4730000Y7013536D01*
D02*
G37*
G36*
X3516600Y7001238D02*
X3501890Y6998312D01*
X3489420Y6989980D01*
X3481088Y6977510D01*
X3478161Y6962800D01*
X3481088Y6948090D01*
X3489420Y6935620D01*
X3501890Y6927287D01*
X3516600Y6924361D01*
X3531310Y6927287D01*
X3543780Y6935620D01*
X3552113Y6948090D01*
X3555039Y6962800D01*
X3552113Y6977510D01*
X3543780Y6989980D01*
X3531310Y6998312D01*
X3516600Y7001238D01*
D02*
G37*
G36*
X5180000Y6973536D02*
X5163339Y6970223D01*
X5149215Y6960785D01*
X5139778Y6946661D01*
X5136464Y6930000D01*
X5139778Y6913339D01*
X5149215Y6899215D01*
X5163339Y6889778D01*
X5180000Y6886464D01*
X5196661Y6889778D01*
X5210785Y6899215D01*
X5220222Y6913339D01*
X5223536Y6930000D01*
X5220222Y6946661D01*
X5210785Y6960785D01*
X5196661Y6970223D01*
X5180000Y6973536D01*
D02*
G37*
G36*
X7583160Y6770360D02*
X7402840D01*
Y6590040D01*
X7583160D01*
Y6770360D01*
D02*
G37*
G36*
X1080760D02*
X900440D01*
Y6590040D01*
X1080760D01*
Y6770360D01*
D02*
G37*
G36*
X4730000Y6623536D02*
X4713339Y6620222D01*
X4699215Y6610785D01*
X4689778Y6596661D01*
X4686464Y6580000D01*
X4689778Y6563339D01*
X4699215Y6549215D01*
X4713339Y6539778D01*
X4730000Y6536464D01*
X4746661Y6539778D01*
X4760785Y6549215D01*
X4770222Y6563339D01*
X4773536Y6580000D01*
X4770222Y6596661D01*
X4760785Y6610785D01*
X4746661Y6620222D01*
X4730000Y6623536D01*
D02*
G37*
G36*
X5171600Y6526239D02*
X5156890Y6523313D01*
X5144420Y6514980D01*
X5136088Y6502510D01*
X5133161Y6487800D01*
X5136088Y6473090D01*
X5144420Y6460620D01*
X5156890Y6452288D01*
X5171600Y6449361D01*
X5186310Y6452288D01*
X5198780Y6460620D01*
X5207113Y6473090D01*
X5210039Y6487800D01*
X5207113Y6502510D01*
X5198780Y6514980D01*
X5186310Y6523313D01*
X5171600Y6526239D01*
D02*
G37*
G36*
X4650000Y6523536D02*
X4633339Y6520222D01*
X4619215Y6510785D01*
X4609778Y6496661D01*
X4606464Y6480000D01*
X4609778Y6463339D01*
X4619215Y6449215D01*
X4633339Y6439778D01*
X4650000Y6436464D01*
X4666661Y6439778D01*
X4680785Y6449215D01*
X4690223Y6463339D01*
X4693536Y6480000D01*
X4690223Y6496661D01*
X4680785Y6510785D01*
X4666661Y6520222D01*
X4650000Y6523536D01*
D02*
G37*
G36*
X7583160Y6570360D02*
X7402840D01*
Y6390040D01*
X7583160D01*
Y6570360D01*
D02*
G37*
G36*
X1080760D02*
X900440D01*
Y6390040D01*
X1080760D01*
Y6570360D01*
D02*
G37*
G36*
X7747000Y6781224D02*
X7720853Y6777782D01*
X7696488Y6767690D01*
X7675565Y6751635D01*
X7659510Y6730712D01*
X7649418Y6706347D01*
X7645976Y6680200D01*
X7649418Y6654053D01*
X7659510Y6629688D01*
X7675565Y6608765D01*
X7696488Y6592710D01*
X7720853Y6582618D01*
X7728878Y6581562D01*
Y6568752D01*
X7723464Y6568039D01*
X7701531Y6558954D01*
X7682697Y6544503D01*
X7668246Y6525669D01*
X7659161Y6503736D01*
X7656062Y6480200D01*
X7659161Y6456663D01*
X7668246Y6434731D01*
X7682697Y6415897D01*
X7701531Y6401445D01*
X7723464Y6392361D01*
X7747000Y6389262D01*
X7770536Y6392361D01*
X7792469Y6401445D01*
X7811303Y6415897D01*
X7825754Y6434731D01*
X7834839Y6456663D01*
X7837938Y6480200D01*
X7834839Y6503736D01*
X7825754Y6525669D01*
X7811303Y6544503D01*
X7792469Y6558954D01*
X7770536Y6568039D01*
X7765122Y6568752D01*
Y6581562D01*
X7773147Y6582618D01*
X7797512Y6592710D01*
X7818435Y6608765D01*
X7834490Y6629688D01*
X7844582Y6654053D01*
X7848024Y6680200D01*
X7844582Y6706347D01*
X7834490Y6730712D01*
X7818435Y6751635D01*
X7797512Y6767690D01*
X7773147Y6777782D01*
X7747000Y6781224D01*
D02*
G37*
G36*
X1244600D02*
X1218453Y6777782D01*
X1194088Y6767690D01*
X1173165Y6751635D01*
X1157110Y6730712D01*
X1147018Y6706347D01*
X1143576Y6680200D01*
X1147018Y6654053D01*
X1157110Y6629688D01*
X1173165Y6608765D01*
X1194088Y6592710D01*
X1218453Y6582618D01*
X1226478Y6581562D01*
Y6568752D01*
X1221064Y6568039D01*
X1199131Y6558954D01*
X1180297Y6544503D01*
X1165846Y6525669D01*
X1156761Y6503736D01*
X1153662Y6480200D01*
X1156761Y6456663D01*
X1165846Y6434731D01*
X1180297Y6415897D01*
X1199131Y6401445D01*
X1221064Y6392361D01*
X1244600Y6389262D01*
X1268136Y6392361D01*
X1290069Y6401445D01*
X1308903Y6415897D01*
X1323354Y6434731D01*
X1332439Y6456663D01*
X1335538Y6480200D01*
X1332439Y6503736D01*
X1323354Y6525669D01*
X1308903Y6544503D01*
X1290069Y6558954D01*
X1268136Y6568039D01*
X1262722Y6568752D01*
Y6581562D01*
X1270747Y6582618D01*
X1295112Y6592710D01*
X1316035Y6608765D01*
X1332090Y6629688D01*
X1342182Y6654053D01*
X1345624Y6680200D01*
X1342182Y6706347D01*
X1332090Y6730712D01*
X1316035Y6751635D01*
X1295112Y6767690D01*
X1270747Y6777782D01*
X1244600Y6781224D01*
D02*
G37*
G36*
X3720000Y6368439D02*
X3705290Y6365513D01*
X3692820Y6357180D01*
X3684487Y6344710D01*
X3681561Y6330000D01*
X3684487Y6315290D01*
X3692820Y6302820D01*
X3705290Y6294488D01*
X3720000Y6291561D01*
X3734710Y6294488D01*
X3747180Y6302820D01*
X3755512Y6315290D01*
X3758439Y6330000D01*
X3755512Y6344710D01*
X3747180Y6357180D01*
X3734710Y6365513D01*
X3720000Y6368439D01*
D02*
G37*
G36*
X5010000Y6373536D02*
X4993339Y6370222D01*
X4979215Y6360785D01*
X4969777Y6346661D01*
X4966464Y6330000D01*
X4969777Y6313339D01*
X4979215Y6299215D01*
X4993339Y6289778D01*
X5010000Y6286464D01*
X5026661Y6289778D01*
X5040785Y6299215D01*
X5050222Y6313339D01*
X5053536Y6330000D01*
X5050222Y6346661D01*
X5040785Y6360785D01*
X5026661Y6370222D01*
X5010000Y6373536D01*
D02*
G37*
G36*
X4250000Y6293536D02*
X4233339Y6290222D01*
X4219215Y6280785D01*
X4209777Y6266661D01*
X4206464Y6250000D01*
X4209777Y6233339D01*
X4219215Y6219215D01*
X4233339Y6209778D01*
X4250000Y6206464D01*
X4266661Y6209778D01*
X4280785Y6219215D01*
X4290222Y6233339D01*
X4293536Y6250000D01*
X4290222Y6266661D01*
X4280785Y6280785D01*
X4266661Y6290222D01*
X4250000Y6293536D01*
D02*
G37*
G36*
X7850000Y6111255D02*
X7828969Y6108487D01*
X7809372Y6100369D01*
X7792544Y6087456D01*
X7779631Y6070628D01*
X7771513Y6051031D01*
X7768745Y6030000D01*
X7771513Y6008970D01*
X7779631Y5989373D01*
X7792544Y5972544D01*
X7809372Y5959631D01*
X7828969Y5951514D01*
X7850000Y5948745D01*
X7871030Y5951514D01*
X7890627Y5959631D01*
X7907456Y5972544D01*
X7920369Y5989373D01*
X7928486Y6008970D01*
X7931255Y6030000D01*
X7928486Y6051031D01*
X7920369Y6070628D01*
X7907456Y6087456D01*
X7890627Y6100369D01*
X7871030Y6108487D01*
X7850000Y6111255D01*
D02*
G37*
G36*
X7250000D02*
X7228970Y6108487D01*
X7209372Y6100369D01*
X7192544Y6087456D01*
X7179631Y6070628D01*
X7171513Y6051031D01*
X7168745Y6030000D01*
X7171513Y6008970D01*
X7179631Y5989373D01*
X7192544Y5972544D01*
X7209372Y5959631D01*
X7228970Y5951514D01*
X7250000Y5948745D01*
X7271030Y5951514D01*
X7290628Y5959631D01*
X7307456Y5972544D01*
X7320369Y5989373D01*
X7328486Y6008970D01*
X7331255Y6030000D01*
X7328486Y6051031D01*
X7320369Y6070628D01*
X7307456Y6087456D01*
X7290628Y6100369D01*
X7271030Y6108487D01*
X7250000Y6111255D01*
D02*
G37*
G36*
X2850000Y6003536D02*
X2833339Y6000222D01*
X2819215Y5990785D01*
X2809777Y5976661D01*
X2806464Y5960000D01*
X2809777Y5943339D01*
X2819215Y5929215D01*
X2833339Y5919778D01*
X2850000Y5916464D01*
X2866661Y5919778D01*
X2880785Y5929215D01*
X2890222Y5943339D01*
X2893536Y5960000D01*
X2890222Y5976661D01*
X2880785Y5990785D01*
X2866661Y6000222D01*
X2850000Y6003536D01*
D02*
G37*
G36*
X4176600Y5928738D02*
X4161890Y5925812D01*
X4149420Y5917480D01*
X4141087Y5905010D01*
X4138161Y5890300D01*
X4141087Y5875590D01*
X4149420Y5863120D01*
X4161890Y5854787D01*
X4176600Y5851861D01*
X4191310Y5854787D01*
X4203780Y5863120D01*
X4212112Y5875590D01*
X4215039Y5890300D01*
X4212112Y5905010D01*
X4203780Y5917480D01*
X4191310Y5925812D01*
X4176600Y5928738D01*
D02*
G37*
G36*
X4540000Y5933536D02*
X4523339Y5930222D01*
X4509215Y5920785D01*
X4499778Y5906661D01*
X4496464Y5890000D01*
X4499778Y5873339D01*
X4509215Y5859215D01*
X4523339Y5849777D01*
X4540000Y5846464D01*
X4556661Y5849777D01*
X4570785Y5859215D01*
X4580222Y5873339D01*
X4583536Y5890000D01*
X4580222Y5906661D01*
X4570785Y5920785D01*
X4556661Y5930222D01*
X4540000Y5933536D01*
D02*
G37*
G36*
X7850000Y5861255D02*
X7828969Y5858487D01*
X7809372Y5850369D01*
X7792544Y5837456D01*
X7779631Y5820628D01*
X7771513Y5801031D01*
X7768745Y5780000D01*
X7771513Y5758970D01*
X7779631Y5739373D01*
X7792544Y5722544D01*
X7809372Y5709631D01*
X7828969Y5701514D01*
X7850000Y5698745D01*
X7871030Y5701514D01*
X7890627Y5709631D01*
X7907456Y5722544D01*
X7920369Y5739373D01*
X7928486Y5758970D01*
X7931255Y5780000D01*
X7928486Y5801031D01*
X7920369Y5820628D01*
X7907456Y5837456D01*
X7890627Y5850369D01*
X7871030Y5858487D01*
X7850000Y5861255D01*
D02*
G37*
G36*
X7250000D02*
X7228970Y5858487D01*
X7209372Y5850369D01*
X7192544Y5837456D01*
X7179631Y5820628D01*
X7171513Y5801031D01*
X7168745Y5780000D01*
X7171513Y5758970D01*
X7179631Y5739373D01*
X7192544Y5722544D01*
X7209372Y5709631D01*
X7228970Y5701514D01*
X7250000Y5698745D01*
X7271030Y5701514D01*
X7290628Y5709631D01*
X7307456Y5722544D01*
X7320369Y5739373D01*
X7328486Y5758970D01*
X7331255Y5780000D01*
X7328486Y5801031D01*
X7320369Y5820628D01*
X7307456Y5837456D01*
X7290628Y5850369D01*
X7271030Y5858487D01*
X7250000Y5861255D01*
D02*
G37*
G36*
X7080000Y5723536D02*
X7063339Y5720222D01*
X7049215Y5710785D01*
X7039778Y5696661D01*
X7036464Y5680000D01*
X7039778Y5663339D01*
X7049215Y5649215D01*
X7063339Y5639778D01*
X7080000Y5636464D01*
X7096661Y5639778D01*
X7110785Y5649215D01*
X7120222Y5663339D01*
X7123536Y5680000D01*
X7120222Y5696661D01*
X7110785Y5710785D01*
X7096661Y5720222D01*
X7080000Y5723536D01*
D02*
G37*
G36*
X6970000D02*
X6953339Y5720222D01*
X6939215Y5710785D01*
X6929778Y5696661D01*
X6926464Y5680000D01*
X6929778Y5663339D01*
X6939215Y5649215D01*
X6953339Y5639778D01*
X6970000Y5636464D01*
X6986661Y5639778D01*
X7000785Y5649215D01*
X7010222Y5663339D01*
X7013536Y5680000D01*
X7010222Y5696661D01*
X7000785Y5710785D01*
X6986661Y5720222D01*
X6970000Y5723536D01*
D02*
G37*
G36*
X4827300Y5685836D02*
X4810639Y5682523D01*
X4796515Y5673085D01*
X4787078Y5658961D01*
X4783764Y5642300D01*
X4787078Y5625639D01*
X4796515Y5611515D01*
X4810639Y5602078D01*
X4827300Y5598764D01*
X4843961Y5602078D01*
X4858085Y5611515D01*
X4867522Y5625639D01*
X4870836Y5642300D01*
X4867522Y5658961D01*
X4858085Y5673085D01*
X4843961Y5682523D01*
X4827300Y5685836D01*
D02*
G37*
G36*
X3130000Y5618439D02*
X3115290Y5615513D01*
X3102820Y5607180D01*
X3094488Y5594710D01*
X3091562Y5580000D01*
X3094488Y5565290D01*
X3102820Y5552820D01*
X3115290Y5544488D01*
X3130000Y5541561D01*
X3144710Y5544488D01*
X3157180Y5552820D01*
X3165513Y5565290D01*
X3168439Y5580000D01*
X3165513Y5594710D01*
X3157180Y5607180D01*
X3144710Y5615513D01*
X3130000Y5618439D01*
D02*
G37*
G36*
X7080000Y5623536D02*
X7063339Y5620222D01*
X7049215Y5610785D01*
X7039778Y5596661D01*
X7036464Y5580000D01*
X7039778Y5563339D01*
X7049215Y5549215D01*
X7063339Y5539778D01*
X7080000Y5536464D01*
X7096661Y5539778D01*
X7110785Y5549215D01*
X7120222Y5563339D01*
X7123536Y5580000D01*
X7120222Y5596661D01*
X7110785Y5610785D01*
X7096661Y5620222D01*
X7080000Y5623536D01*
D02*
G37*
G36*
X2990000D02*
X2973339Y5620222D01*
X2959215Y5610785D01*
X2949778Y5596661D01*
X2946464Y5580000D01*
X2949778Y5563339D01*
X2959215Y5549215D01*
X2973339Y5539778D01*
X2990000Y5536464D01*
X3006661Y5539778D01*
X3020785Y5549215D01*
X3030223Y5563339D01*
X3033536Y5580000D01*
X3030223Y5596661D01*
X3020785Y5610785D01*
X3006661Y5620222D01*
X2990000Y5623536D01*
D02*
G37*
G36*
X6970000Y5623536D02*
X6953339Y5620222D01*
X6939215Y5610785D01*
X6929777Y5596660D01*
X6926463Y5580000D01*
X6929777Y5563339D01*
X6939215Y5549215D01*
X6953339Y5539777D01*
X6970000Y5536463D01*
X6986660Y5539777D01*
X7000785Y5549215D01*
X7010222Y5563339D01*
X7013536Y5580000D01*
X7010222Y5596660D01*
X7000785Y5610785D01*
X6986660Y5620222D01*
X6970000Y5623536D01*
D02*
G37*
G36*
X4827300Y5555836D02*
X4810639Y5552523D01*
X4796515Y5543085D01*
X4787078Y5528961D01*
X4783764Y5512300D01*
X4787078Y5495640D01*
X4796515Y5481515D01*
X4810639Y5472078D01*
X4827300Y5468764D01*
X4843961Y5472078D01*
X4858085Y5481515D01*
X4867522Y5495640D01*
X4870836Y5512300D01*
X4867522Y5528961D01*
X4858085Y5543085D01*
X4843961Y5552523D01*
X4827300Y5555836D01*
D02*
G37*
G36*
X5430000Y5553536D02*
X5413339Y5550222D01*
X5399215Y5540785D01*
X5389778Y5526661D01*
X5386464Y5510000D01*
X5389778Y5493339D01*
X5399215Y5479215D01*
X5413339Y5469777D01*
X5430000Y5466464D01*
X5446661Y5469777D01*
X5460785Y5479215D01*
X5470222Y5493339D01*
X5473536Y5510000D01*
X5470222Y5526661D01*
X5460785Y5540785D01*
X5446661Y5550222D01*
X5430000Y5553536D01*
D02*
G37*
G36*
X7850000Y5611255D02*
X7828969Y5608487D01*
X7809372Y5600369D01*
X7792544Y5587456D01*
X7779631Y5570628D01*
X7771513Y5551031D01*
X7768745Y5530000D01*
X7771513Y5508970D01*
X7779631Y5489373D01*
X7792544Y5472544D01*
X7809372Y5459631D01*
X7828969Y5451514D01*
X7850000Y5448745D01*
X7871030Y5451514D01*
X7890627Y5459631D01*
X7907456Y5472544D01*
X7920369Y5489373D01*
X7928486Y5508970D01*
X7931255Y5530000D01*
X7928486Y5551031D01*
X7920369Y5570628D01*
X7907456Y5587456D01*
X7890627Y5600369D01*
X7871030Y5608487D01*
X7850000Y5611255D01*
D02*
G37*
G36*
X7250000D02*
X7228970Y5608487D01*
X7209372Y5600369D01*
X7192544Y5587456D01*
X7179631Y5570628D01*
X7171513Y5551031D01*
X7168745Y5530000D01*
X7171513Y5508970D01*
X7179631Y5489373D01*
X7192544Y5472544D01*
X7209372Y5459631D01*
X7228970Y5451514D01*
X7250000Y5448745D01*
X7271030Y5451514D01*
X7290628Y5459631D01*
X7307456Y5472544D01*
X7320369Y5489373D01*
X7328486Y5508970D01*
X7331255Y5530000D01*
X7328486Y5551031D01*
X7320369Y5570628D01*
X7307456Y5587456D01*
X7290628Y5600369D01*
X7271030Y5608487D01*
X7250000Y5611255D01*
D02*
G37*
G36*
X7080000Y5523537D02*
X7063340Y5520223D01*
X7049216Y5510785D01*
X7039778Y5496661D01*
X7036464Y5480000D01*
X7039778Y5463340D01*
X7049216Y5449215D01*
X7063340Y5439778D01*
X7080000Y5436464D01*
X7096661Y5439778D01*
X7110785Y5449215D01*
X7120223Y5463340D01*
X7123537Y5480000D01*
X7120223Y5496661D01*
X7110785Y5510785D01*
X7096661Y5520223D01*
X7080000Y5523537D01*
D02*
G37*
G36*
X6970000Y5523536D02*
X6953339Y5520222D01*
X6939215Y5510785D01*
X6929778Y5496661D01*
X6926464Y5480000D01*
X6929778Y5463339D01*
X6939215Y5449215D01*
X6953339Y5439778D01*
X6970000Y5436464D01*
X6986661Y5439778D01*
X7000785Y5449215D01*
X7010222Y5463339D01*
X7013536Y5480000D01*
X7010222Y5496661D01*
X7000785Y5510785D01*
X6986661Y5520222D01*
X6970000Y5523536D01*
D02*
G37*
G36*
X4827300Y5425836D02*
X4810639Y5422523D01*
X4796515Y5413085D01*
X4787078Y5398961D01*
X4783764Y5382300D01*
X4787078Y5365640D01*
X4796515Y5351515D01*
X4810639Y5342078D01*
X4827300Y5338764D01*
X4843961Y5342078D01*
X4858085Y5351515D01*
X4867522Y5365640D01*
X4870836Y5382300D01*
X4867522Y5398961D01*
X4858085Y5413085D01*
X4843961Y5422523D01*
X4827300Y5425836D01*
D02*
G37*
G36*
X7080000Y5423537D02*
X7063340Y5420223D01*
X7049216Y5410785D01*
X7039778Y5396661D01*
X7036464Y5380000D01*
X7039778Y5363340D01*
X7049216Y5349215D01*
X7063340Y5339778D01*
X7080000Y5336464D01*
X7096661Y5339778D01*
X7110785Y5349215D01*
X7120223Y5363340D01*
X7123537Y5380000D01*
X7120223Y5396661D01*
X7110785Y5410785D01*
X7096661Y5420223D01*
X7080000Y5423537D01*
D02*
G37*
G36*
X6970000Y5423536D02*
X6953339Y5420222D01*
X6939215Y5410785D01*
X6929778Y5396661D01*
X6926464Y5380000D01*
X6929778Y5363339D01*
X6939215Y5349215D01*
X6953339Y5339777D01*
X6970000Y5336464D01*
X6986661Y5339777D01*
X7000785Y5349215D01*
X7010222Y5363339D01*
X7013536Y5380000D01*
X7010222Y5396661D01*
X7000785Y5410785D01*
X6986661Y5420222D01*
X6970000Y5423536D01*
D02*
G37*
G36*
X2150000Y5303536D02*
X2133339Y5300222D01*
X2119215Y5290785D01*
X2109778Y5276661D01*
X2106464Y5260000D01*
X2109778Y5243339D01*
X2119215Y5229215D01*
X2133339Y5219777D01*
X2150000Y5216464D01*
X2166661Y5219777D01*
X2180785Y5229215D01*
X2190222Y5243339D01*
X2193536Y5260000D01*
X2190222Y5276661D01*
X2180785Y5290785D01*
X2166661Y5300222D01*
X2150000Y5303536D01*
D02*
G37*
G36*
X8507660Y5549960D02*
X8112340D01*
Y5197403D01*
Y5154640D01*
X8507660D01*
Y5549960D01*
D02*
G37*
G36*
X2150000Y5163536D02*
X2133339Y5160222D01*
X2119215Y5150785D01*
X2109778Y5136661D01*
X2106464Y5120000D01*
X2109778Y5103339D01*
X2119215Y5089215D01*
X2133339Y5079777D01*
X2150000Y5076464D01*
X2166661Y5079777D01*
X2180785Y5089215D01*
X2190222Y5103339D01*
X2193536Y5120000D01*
X2190222Y5136661D01*
X2180785Y5150785D01*
X2166661Y5160222D01*
X2150000Y5163536D01*
D02*
G37*
G36*
Y5013536D02*
X2133339Y5010222D01*
X2119215Y5000785D01*
X2109778Y4986661D01*
X2106464Y4970000D01*
X2109778Y4953339D01*
X2119215Y4939215D01*
X2133339Y4929778D01*
X2150000Y4926464D01*
X2166661Y4929778D01*
X2180785Y4939215D01*
X2190222Y4953339D01*
X2193536Y4970000D01*
X2190222Y4986661D01*
X2180785Y5000785D01*
X2166661Y5010222D01*
X2150000Y5013536D01*
D02*
G37*
G36*
X7265910Y5050160D02*
X7254090D01*
X7242374Y5048617D01*
X7230956Y5045558D01*
X7220038Y5041035D01*
X7209803Y5035127D01*
X7200424Y5027930D01*
X7192070Y5019576D01*
X7184873Y5010196D01*
X7178965Y4999962D01*
X7174442Y4989044D01*
X7171383Y4977626D01*
X7169840Y4965910D01*
Y4954090D01*
X7171383Y4942374D01*
X7174442Y4930956D01*
X7178965Y4920038D01*
X7184873Y4909803D01*
X7192070Y4900424D01*
X7200424Y4892070D01*
X7209803Y4884873D01*
X7220038Y4878965D01*
X7230956Y4874442D01*
X7242374Y4871383D01*
X7254090Y4869840D01*
X7265910D01*
X7277626Y4871383D01*
X7289044Y4874442D01*
X7299962Y4878965D01*
X7310196Y4884873D01*
X7319576Y4892070D01*
X7327930Y4900424D01*
X7335127Y4909803D01*
X7341035Y4920038D01*
X7345558Y4930956D01*
X7348617Y4942374D01*
X7350160Y4954090D01*
Y4965910D01*
X7348617Y4977626D01*
X7345558Y4989044D01*
X7341035Y4999962D01*
X7335127Y5010196D01*
X7327930Y5019576D01*
X7319576Y5027930D01*
X7310196Y5035127D01*
X7299962Y5041035D01*
X7289044Y5045558D01*
X7277626Y5048617D01*
X7265910Y5050160D01*
D02*
G37*
G36*
X6090000Y4953536D02*
X6073339Y4950223D01*
X6059215Y4940785D01*
X6049778Y4926661D01*
X6046464Y4910000D01*
X6049778Y4893339D01*
X6059215Y4879215D01*
X6073339Y4869778D01*
X6090000Y4866464D01*
X6106661Y4869778D01*
X6120785Y4879215D01*
X6130222Y4893339D01*
X6133536Y4910000D01*
X6130222Y4926661D01*
X6120785Y4940785D01*
X6106661Y4950223D01*
X6090000Y4953536D01*
D02*
G37*
G36*
X3371100Y4764146D02*
X3354439Y4760832D01*
X3340315Y4751395D01*
X3330878Y4737271D01*
X3327564Y4720610D01*
X3330878Y4703949D01*
X3340315Y4689825D01*
X3354439Y4680388D01*
X3371100Y4677074D01*
X3387761Y4680388D01*
X3401885Y4689825D01*
X3411322Y4703949D01*
X3414636Y4720610D01*
X3411322Y4737271D01*
X3401885Y4751395D01*
X3387761Y4760832D01*
X3371100Y4764146D01*
D02*
G37*
G36*
X4970000Y4768634D02*
X4951388Y4764932D01*
X4935610Y4754390D01*
X4925067Y4738612D01*
X4921365Y4720000D01*
X4925067Y4701388D01*
X4935610Y4685610D01*
X4951388Y4675068D01*
X4970000Y4671366D01*
X4988611Y4675068D01*
X5004390Y4685610D01*
X5014932Y4701388D01*
X5018634Y4720000D01*
X5014932Y4738612D01*
X5004390Y4754390D01*
X4988611Y4764932D01*
X4970000Y4768634D01*
D02*
G37*
G36*
X3370588Y4208310D02*
X3351612D01*
X3334080Y4201048D01*
X3320662Y4187630D01*
X3313400Y4170098D01*
Y4151122D01*
X3320662Y4133590D01*
X3334080Y4120172D01*
X3351612Y4112910D01*
X3370588D01*
X3388120Y4120172D01*
X3401538Y4133590D01*
X3408800Y4151122D01*
Y4170098D01*
X3401538Y4187630D01*
X3388120Y4201048D01*
X3370588Y4208310D01*
D02*
G37*
G36*
X4969488Y4107700D02*
X4950512D01*
X4932980Y4100438D01*
X4919562Y4087020D01*
X4912300Y4069488D01*
Y4050512D01*
X4919562Y4032980D01*
X4932980Y4019562D01*
X4950512Y4012300D01*
X4969488D01*
X4987019Y4019562D01*
X5000438Y4032980D01*
X5007700Y4050512D01*
Y4069488D01*
X5000438Y4087020D01*
X4987019Y4100438D01*
X4969488Y4107700D01*
D02*
G37*
G36*
X3230588Y4078310D02*
X3211612D01*
X3194080Y4071048D01*
X3180662Y4057630D01*
X3173400Y4040098D01*
Y4021122D01*
X3180662Y4003590D01*
X3194080Y3990172D01*
X3211612Y3982910D01*
X3230588D01*
X3248119Y3990172D01*
X3261538Y4003590D01*
X3268800Y4021122D01*
Y4040098D01*
X3261538Y4057630D01*
X3248119Y4071048D01*
X3230588Y4078310D01*
D02*
G37*
G36*
X3030588D02*
X3011612D01*
X2994080Y4071048D01*
X2980662Y4057630D01*
X2973400Y4040098D01*
Y4021122D01*
X2980662Y4003590D01*
X2994080Y3990172D01*
X3011612Y3982910D01*
X3030588D01*
X3048120Y3990172D01*
X3061538Y4003590D01*
X3068800Y4021122D01*
Y4040098D01*
X3061538Y4057630D01*
X3048120Y4071048D01*
X3030588Y4078310D01*
D02*
G37*
G36*
X4829488Y4067700D02*
X4810512D01*
X4792980Y4060438D01*
X4779562Y4047020D01*
X4772300Y4029488D01*
Y4010512D01*
X4779562Y3992980D01*
X4792980Y3979562D01*
X4810512Y3972300D01*
X4829488D01*
X4847020Y3979562D01*
X4860438Y3992980D01*
X4867700Y4010512D01*
Y4029488D01*
X4860438Y4047020D01*
X4847020Y4060438D01*
X4829488Y4067700D01*
D02*
G37*
G36*
X4629488D02*
X4610512D01*
X4592980Y4060438D01*
X4579562Y4047020D01*
X4572300Y4029488D01*
Y4010512D01*
X4579562Y3992980D01*
X4592980Y3979562D01*
X4610512Y3972300D01*
X4629488D01*
X4647020Y3979562D01*
X4660438Y3992980D01*
X4667700Y4010512D01*
Y4029488D01*
X4660438Y4047020D01*
X4647020Y4060438D01*
X4629488Y4067700D01*
D02*
G37*
G36*
X4942569Y3545140D02*
X4919830D01*
X4897866Y3539255D01*
X4878173Y3527885D01*
X4862094Y3511806D01*
X4850725Y3492114D01*
X4844839Y3470150D01*
Y3447410D01*
X4850725Y3425446D01*
X4862094Y3405754D01*
X4878173Y3389675D01*
X4897866Y3378305D01*
X4919830Y3372420D01*
X4942569D01*
X4964533Y3378305D01*
X4984226Y3389675D01*
X5000305Y3405754D01*
X5011674Y3425446D01*
X5017559Y3447410D01*
Y3470150D01*
X5011674Y3492114D01*
X5000305Y3511806D01*
X4984226Y3527885D01*
X4964533Y3539255D01*
X4942569Y3545140D01*
D02*
G37*
G36*
X3773264Y3347764D02*
X3750525D01*
X3728561Y3341879D01*
X3708868Y3330509D01*
X3692789Y3314431D01*
X3681420Y3294738D01*
X3675534Y3272774D01*
Y3250035D01*
X3681420Y3228071D01*
X3692789Y3208378D01*
X3708868Y3192299D01*
X3728561Y3180929D01*
X3750525Y3175044D01*
X3773264D01*
X3795228Y3180929D01*
X3814921Y3192299D01*
X3831000Y3208378D01*
X3842369Y3228071D01*
X3848254Y3250035D01*
Y3272774D01*
X3842369Y3294738D01*
X3831000Y3314431D01*
X3814921Y3330509D01*
X3795228Y3341879D01*
X3773264Y3347764D01*
D02*
G37*
G36*
X4942569Y3341940D02*
X4919830D01*
X4897866Y3336055D01*
X4878173Y3324685D01*
X4862094Y3308606D01*
X4850725Y3288914D01*
X4844839Y3266950D01*
Y3244210D01*
X4850725Y3222246D01*
X4862094Y3202554D01*
X4878173Y3186475D01*
X4897866Y3175105D01*
X4919830Y3169220D01*
X4942569D01*
X4964533Y3175105D01*
X4984226Y3186475D01*
X5000305Y3202554D01*
X5011674Y3222246D01*
X5017559Y3244210D01*
Y3266950D01*
X5011674Y3288914D01*
X5000305Y3308606D01*
X4984226Y3324685D01*
X4964533Y3336055D01*
X4942569Y3341940D01*
D02*
G37*
G36*
X3773264Y3147104D02*
X3750525D01*
X3728561Y3141219D01*
X3708868Y3129849D01*
X3692789Y3113771D01*
X3681420Y3094078D01*
X3675534Y3072114D01*
Y3049375D01*
X3681420Y3027411D01*
X3692789Y3007718D01*
X3708868Y2991639D01*
X3728561Y2980269D01*
X3750525Y2974384D01*
X3773264D01*
X3795228Y2980269D01*
X3814921Y2991639D01*
X3831000Y3007718D01*
X3842369Y3027411D01*
X3848254Y3049375D01*
Y3072114D01*
X3842369Y3094078D01*
X3831000Y3113771D01*
X3814921Y3129849D01*
X3795228Y3141219D01*
X3773264Y3147104D01*
D02*
G37*
G36*
X4942569Y3146360D02*
X4919830D01*
X4897866Y3140475D01*
X4878173Y3129105D01*
X4862094Y3113026D01*
X4850725Y3093334D01*
X4844839Y3071370D01*
Y3048630D01*
X4850725Y3026666D01*
X4862094Y3006974D01*
X4878173Y2990895D01*
X4897866Y2979525D01*
X4919830Y2973640D01*
X4942569D01*
X4964533Y2979525D01*
X4984226Y2990895D01*
X5000305Y3006974D01*
X5011674Y3026666D01*
X5017559Y3048630D01*
Y3071370D01*
X5011674Y3093334D01*
X5000305Y3113026D01*
X4984226Y3129105D01*
X4964533Y3140475D01*
X4942569Y3146360D01*
D02*
G37*
G36*
X3773264Y2946444D02*
X3750525D01*
X3728561Y2940559D01*
X3708868Y2929189D01*
X3692789Y2913111D01*
X3681420Y2893418D01*
X3675534Y2871454D01*
Y2848715D01*
X3681420Y2826751D01*
X3692789Y2807058D01*
X3708868Y2790979D01*
X3728561Y2779609D01*
X3750525Y2773724D01*
X3773264D01*
X3795228Y2779609D01*
X3814921Y2790979D01*
X3831000Y2807058D01*
X3842369Y2826751D01*
X3848254Y2848715D01*
Y2871454D01*
X3842369Y2893418D01*
X3831000Y2913111D01*
X3814921Y2929189D01*
X3795228Y2940559D01*
X3773264Y2946444D01*
D02*
G37*
G36*
X4942569Y2945700D02*
X4919830D01*
X4897866Y2939815D01*
X4878173Y2928445D01*
X4862094Y2912366D01*
X4850725Y2892674D01*
X4844839Y2870710D01*
Y2847970D01*
X4850725Y2826006D01*
X4862094Y2806314D01*
X4878173Y2790235D01*
X4897866Y2778865D01*
X4919830Y2772980D01*
X4942569D01*
X4964533Y2778865D01*
X4984226Y2790235D01*
X5000305Y2806314D01*
X5011674Y2826006D01*
X5017559Y2847970D01*
Y2870710D01*
X5011674Y2892674D01*
X5000305Y2912366D01*
X4984226Y2928445D01*
X4964533Y2939815D01*
X4942569Y2945700D01*
D02*
G37*
G36*
X3773264Y2750864D02*
X3750525D01*
X3728561Y2744979D01*
X3708868Y2733609D01*
X3692789Y2717531D01*
X3681420Y2697838D01*
X3675534Y2675874D01*
Y2653135D01*
X3681420Y2631171D01*
X3692789Y2611478D01*
X3708868Y2595399D01*
X3728561Y2584029D01*
X3750525Y2578144D01*
X3773264D01*
X3795228Y2584029D01*
X3814921Y2595399D01*
X3831000Y2611478D01*
X3842369Y2631171D01*
X3848254Y2653135D01*
Y2675874D01*
X3842369Y2697838D01*
X3831000Y2717531D01*
X3814921Y2733609D01*
X3795228Y2744979D01*
X3773264Y2750864D01*
D02*
G37*
G36*
X4942569Y2745040D02*
X4919830D01*
X4897866Y2739155D01*
X4878173Y2727785D01*
X4862094Y2711706D01*
X4850725Y2692014D01*
X4844839Y2670050D01*
Y2647310D01*
X4850725Y2625346D01*
X4862094Y2605654D01*
X4878173Y2589575D01*
X4897866Y2578205D01*
X4919830Y2572320D01*
X4942569D01*
X4964533Y2578205D01*
X4984226Y2589575D01*
X5000305Y2605654D01*
X5011674Y2625346D01*
X5017559Y2647310D01*
Y2670050D01*
X5011674Y2692014D01*
X5000305Y2711706D01*
X4984226Y2727785D01*
X4964533Y2739155D01*
X4942569Y2745040D01*
D02*
G37*
G36*
X3773264Y2547664D02*
X3750525D01*
X3728561Y2541779D01*
X3708868Y2530409D01*
X3692789Y2514331D01*
X3681420Y2494638D01*
X3675534Y2472674D01*
Y2449935D01*
X3681420Y2427971D01*
X3692789Y2408278D01*
X3708868Y2392199D01*
X3728561Y2380829D01*
X3750525Y2374944D01*
X3773264D01*
X3795228Y2380829D01*
X3814921Y2392199D01*
X3831000Y2408278D01*
X3842369Y2427971D01*
X3848254Y2449935D01*
Y2472674D01*
X3842369Y2494638D01*
X3831000Y2514331D01*
X3814921Y2530409D01*
X3795228Y2541779D01*
X3773264Y2547664D01*
D02*
G37*
G36*
X6037360Y369060D02*
X5839240D01*
Y170940D01*
X6037360D01*
Y369060D01*
D02*
G37*
G36*
X5783360D02*
X5585240D01*
Y170940D01*
X5783360D01*
Y369060D01*
D02*
G37*
G36*
X4917060D02*
X4718940D01*
Y170940D01*
X4917060D01*
Y369060D01*
D02*
G37*
G36*
X4409060D02*
X4210940D01*
Y170940D01*
X4409060D01*
Y369060D01*
D02*
G37*
G36*
X4155060D02*
X3956940D01*
Y170940D01*
X4155060D01*
Y369060D01*
D02*
G37*
G36*
X2997060Y359060D02*
X2798940D01*
Y160940D01*
X2997060D01*
Y359060D01*
D02*
G37*
G36*
X2743060D02*
X2544940D01*
Y160940D01*
X2743060D01*
Y359060D01*
D02*
G37*
G36*
X2489060D02*
X2290940D01*
Y160940D01*
X2489060D01*
Y359060D01*
D02*
G37*
G36*
X2235060D02*
X2036940D01*
Y160940D01*
X2235060D01*
Y359060D01*
D02*
G37*
%LPD*%
D42*
X5227536Y8096559D02*
D03*
X5112820Y7932728D02*
D03*
D43*
X5435600Y7950871D02*
D03*
X3488064Y8105688D02*
D03*
X1244600Y6680200D02*
D03*
X7747000D02*
D03*
D44*
X5320885Y7787040D02*
D03*
X3602780Y7941858D02*
D03*
X1244600Y6480200D02*
D03*
X7747000D02*
D03*
X7260000Y4960000D02*
D03*
D45*
X8310000Y5352300D02*
D03*
X8310000Y5890000D02*
D03*
D46*
X2238094Y2132559D02*
D03*
Y3796259D02*
D03*
X6455000Y3787525D02*
D03*
Y2123825D02*
D03*
D47*
X3761894Y3459524D02*
D03*
Y3261404D02*
D03*
Y3060744D02*
D03*
Y2860084D02*
D03*
Y2664504D02*
D03*
Y2461304D02*
D03*
X4931199Y2460560D02*
D03*
Y2658680D02*
D03*
Y2859340D02*
D03*
Y3060000D02*
D03*
Y3255580D02*
D03*
Y3458780D02*
D03*
D48*
X7850000Y5530000D02*
D03*
Y5780000D02*
D03*
Y6030000D02*
D03*
X7250000Y5530000D02*
D03*
Y5780000D02*
D03*
Y6030000D02*
D03*
D49*
X5684300Y270000D02*
D03*
X5938300D02*
D03*
X4564000D02*
D03*
X4310000D02*
D03*
X4056000D02*
D03*
X4818000D02*
D03*
X2644000Y260000D02*
D03*
X2898000D02*
D03*
X3152000D02*
D03*
X2390000D02*
D03*
X2136000D02*
D03*
D50*
X3394715Y7796170D02*
D03*
X3280000Y7960000D02*
D03*
D51*
X990600Y6480200D02*
D03*
Y6680200D02*
D03*
X7493000Y6480200D02*
D03*
Y6680200D02*
D03*
D52*
X7260000Y4710000D02*
D03*
D53*
X5680000Y4830000D02*
D03*
X4100000Y4840000D02*
D03*
X3851100Y4370610D02*
D03*
Y4517700D02*
D03*
X3621100Y4370610D02*
D03*
X3791100Y3990610D02*
D03*
X3621100Y4517700D02*
D03*
X3221100Y4030610D02*
D03*
X3731100Y4370610D02*
D03*
X3021100Y4030610D02*
D03*
X3731100Y4517700D02*
D03*
X3361100Y4160610D02*
D03*
X5440000Y4370000D02*
D03*
X5320000Y4500000D02*
D03*
X4820000Y4020000D02*
D03*
X4970000Y4720000D02*
D03*
X5320000Y4370000D02*
D03*
X5440000Y4500000D02*
D03*
X5210000D02*
D03*
X5380000Y3980000D02*
D03*
X4960000Y4060000D02*
D03*
Y4560000D02*
D03*
X5210000Y4370000D02*
D03*
X4620000Y4020000D02*
D03*
D54*
X6350000Y6170000D02*
D03*
X5855000Y6404843D02*
D03*
X2720000Y5700000D02*
D03*
X4176600Y5890300D02*
D03*
X3720000Y6330000D02*
D03*
X3130000Y5580000D02*
D03*
X7010000Y7198508D02*
D03*
X4600000Y8000000D02*
D03*
X4000000Y7475000D02*
D03*
X6690000Y5620000D02*
D03*
X6510000Y5580000D02*
D03*
X6390000D02*
D03*
X5250000Y7240000D02*
D03*
X4070000Y5990000D02*
D03*
X5981700Y7975600D02*
D03*
X3604100Y7045300D02*
D03*
X3516600Y6962800D02*
D03*
X5171600Y6487800D02*
D03*
X5119100Y6412800D02*
D03*
X4759100Y7465300D02*
D03*
X4094100Y7582800D02*
D03*
X4831600Y7397800D02*
D03*
D55*
X6560000Y6430000D02*
D03*
X5180000Y6930000D02*
D03*
X700000Y5012500D02*
D03*
Y5122500D02*
D03*
Y5482500D02*
D03*
Y5592500D02*
D03*
X690000Y5932500D02*
D03*
Y6052500D02*
D03*
X7080000Y5680000D02*
D03*
X6970000Y5580000D02*
D03*
X6970000Y5380000D02*
D03*
Y5480000D02*
D03*
X7080000Y5380000D02*
D03*
X7080000Y5580000D02*
D03*
X7080000Y5480000D02*
D03*
X6970000Y5680000D02*
D03*
X3220000Y4440000D02*
D03*
X3371100Y4560610D02*
D03*
Y4720610D02*
D03*
X3031100Y4512700D02*
D03*
X5430000Y5280000D02*
D03*
X4610000Y4520000D02*
D03*
X4820000Y4440000D02*
D03*
X5430000Y5510000D02*
D03*
X2150000Y4970000D02*
D03*
Y5120000D02*
D03*
X5144300Y570000D02*
D03*
X6090000Y4910000D02*
D03*
X2150000Y5260000D02*
D03*
X4540000Y5890000D02*
D03*
X5010000Y6330000D02*
D03*
X4730000Y6580000D02*
D03*
X4650000Y6480000D02*
D03*
X4730000Y6970000D02*
D03*
X4250000Y6250000D02*
D03*
X4390000Y8500000D02*
D03*
X5390000Y6010000D02*
D03*
X2850000Y5960000D02*
D03*
Y5850000D02*
D03*
X6240000Y5880000D02*
D03*
Y5970000D02*
D03*
X2990000Y5580000D02*
D03*
X4827300Y5382300D02*
D03*
Y5512300D02*
D03*
Y5642300D02*
D03*
X6137300Y5112300D02*
D03*
X2019599Y6902200D02*
D03*
X1861700Y7405400D02*
D03*
X6310000Y7190000D02*
D03*
%TF.MD5,a57679caaf7c68a1c45adfe7c4fd9bd6*%
M02*
