%TF.GenerationSoftware,Altium Limited,Altium Designer,24.5.1 (21)*%
G04 Layer_Physical_Order=3*
G04 Layer_Color=16440176*
%FSLAX45Y45*%
%MOMM*%
%TF.SameCoordinates,583913BB-816E-4693-BEF2-A62C45BB8311*%
%TF.FilePolarity,Positive*%
%TF.FileFunction,Copper,L3,Inr,Signal*%
%TF.Part,Single*%
G01*
G75*
%TA.AperFunction,Conductor*%
%ADD36C,0.40000*%
%ADD39C,0.80000*%
%TA.AperFunction,ComponentPad*%
%ADD42P,2.26274X4X370.0*%
%ADD43C,1.80000*%
%ADD44C,1.60000*%
%ADD45R,3.75000X3.75000*%
%ADD46R,3.00000X3.00000*%
%ADD47C,1.52400*%
%ADD48C,1.40800*%
%ADD49R,1.77800X1.77800*%
%ADD50P,2.26274X4X80.0*%
%ADD51R,1.60000X1.60000*%
%ADD52R,1.60000X1.60000*%
%TA.AperFunction,ViaPad*%
%ADD53C,0.70000*%
%ADD54C,0.50000*%
%ADD55C,0.60000*%
G36*
X4645643Y9425116D02*
X4843741Y9407333D01*
X5040844Y9380704D01*
X5236558Y9345281D01*
X5430499Y9301134D01*
X5622262Y9248354D01*
X5811476Y9187045D01*
X5997750Y9117333D01*
X6180720Y9039354D01*
X6360022Y8953263D01*
X6535288Y8859238D01*
X6706170Y8757463D01*
X6872332Y8648140D01*
X7033430Y8531496D01*
X7189149Y8407757D01*
X7339175Y8277175D01*
X7483209Y8140008D01*
X7620957Y7996536D01*
X7752148Y7847043D01*
X7876518Y7691829D01*
X7993819Y7531204D01*
X8103817Y7365487D01*
X8206284Y7195022D01*
X8301021Y7020140D01*
X8387839Y6841192D01*
X8466562Y6658538D01*
X8537032Y6472547D01*
X8599110Y6283585D01*
X8625245Y6190118D01*
X8617568Y6180000D01*
X6386664D01*
X6381961Y6191355D01*
X6371355Y6201961D01*
X6357499Y6207700D01*
X6342501D01*
X6328645Y6201961D01*
X6318039Y6191355D01*
X6313336Y6180000D01*
X6130000D01*
X5860000Y5910000D01*
Y5890000D01*
X5600000D01*
X5470000Y5760000D01*
Y5490000D01*
X5540000Y5420000D01*
X5910000D01*
X5919733Y4699733D01*
X5850000Y4630000D01*
X2840000D01*
X2300000Y5170000D01*
X1990000D01*
Y3730000D01*
X2077934Y3642066D01*
Y3636099D01*
X2083901D01*
X2470000Y3250000D01*
X3675544D01*
X3681420Y3228071D01*
X3692789Y3208378D01*
X3708868Y3192299D01*
X3728561Y3180929D01*
X3750525Y3175044D01*
X3773264D01*
X3795228Y3180929D01*
X3814921Y3192299D01*
X3831000Y3208378D01*
X3842369Y3228071D01*
X3848245Y3250000D01*
X4844839D01*
Y3244210D01*
X4850725Y3222246D01*
X4862094Y3202554D01*
X4878173Y3186475D01*
X4897866Y3175105D01*
X4919830Y3169220D01*
X4942569D01*
X4964533Y3175105D01*
X4984226Y3186475D01*
X5000305Y3202554D01*
X5011674Y3222246D01*
X5017559Y3244210D01*
Y3250000D01*
X7752666D01*
X7753862Y1361648D01*
X7753927Y1361322D01*
X7753873Y1360993D01*
X7754516Y1341346D01*
X7754746Y1340361D01*
X7754680Y1339351D01*
X7759809Y1300393D01*
X7760241Y1299119D01*
X7760329Y1297777D01*
X7770499Y1259821D01*
X7771094Y1258614D01*
X7771357Y1257295D01*
X7786394Y1220991D01*
X7787141Y1219873D01*
X7787574Y1218599D01*
X7807221Y1184568D01*
X7808108Y1183557D01*
X7808703Y1182351D01*
X7832624Y1151176D01*
X7833636Y1150289D01*
X7834383Y1149170D01*
X7862169Y1121385D01*
X7863288Y1120637D01*
X7864174Y1119626D01*
X7895349Y1095705D01*
X7896556Y1095110D01*
X7897567Y1094223D01*
X7931597Y1074575D01*
X7932871Y1074143D01*
X7933989Y1073395D01*
X7970294Y1058358D01*
X7971613Y1058096D01*
X7972819Y1057501D01*
X8010775Y1047331D01*
X8012117Y1047243D01*
X8013391Y1046810D01*
X8052350Y1041681D01*
X8053359Y1041747D01*
X8054345Y1041518D01*
X8073992Y1040874D01*
X8074289Y1040923D01*
X8074583Y1040864D01*
X8318618Y1039954D01*
X8318655Y1039962D01*
X8318693Y1039954D01*
X8342036Y1039954D01*
X8388321Y1033860D01*
X8433417Y1021777D01*
X8476549Y1003910D01*
X8516978Y980569D01*
X8554016Y952148D01*
X8587028Y919137D01*
X8615447Y882100D01*
X8638789Y841670D01*
X8656656Y798537D01*
X8668739Y753442D01*
X8674832Y707158D01*
X8674832Y683820D01*
X8674752Y392893D01*
X8674752Y392890D01*
X8674752Y392887D01*
X8674752Y368457D01*
X8668374Y320015D01*
X8655728Y272820D01*
X8637030Y227679D01*
X8612602Y185366D01*
X8582857Y146602D01*
X8548309Y112054D01*
X8509545Y82309D01*
X8467232Y57880D01*
X8422090Y39181D01*
X8374897Y26535D01*
X8326455Y20158D01*
X8302025D01*
X392975Y20158D01*
X368545D01*
X320103Y26536D01*
X272910Y39181D01*
X227767Y57880D01*
X185455Y82309D01*
X146693Y112052D01*
X112143Y146602D01*
X82399Y185366D01*
X57969Y227679D01*
X39271Y272821D01*
X26626Y320014D01*
X20248Y368455D01*
Y392885D01*
X20248Y392888D01*
X20248Y392891D01*
X20168Y683819D01*
X20167Y707156D01*
X26261Y753440D01*
X38344Y798535D01*
X56210Y841668D01*
X79552Y882097D01*
X107973Y919136D01*
X140983Y952147D01*
X178021Y980567D01*
X218451Y1003909D01*
X261584Y1021776D01*
X306679Y1033858D01*
X352963Y1039952D01*
X376306Y1039952D01*
X376344Y1039959D01*
X376382Y1039952D01*
X620417Y1040862D01*
X620711Y1040922D01*
X621008Y1040873D01*
X640656Y1041516D01*
X641641Y1041745D01*
X642650Y1041679D01*
X681608Y1046808D01*
X682883Y1047241D01*
X684225Y1047329D01*
X722181Y1057499D01*
X723387Y1058094D01*
X724706Y1058356D01*
X761010Y1073394D01*
X762129Y1074141D01*
X763403Y1074573D01*
X797433Y1094221D01*
X798444Y1095108D01*
X799651Y1095703D01*
X830826Y1119624D01*
X831713Y1120636D01*
X832831Y1121383D01*
X860617Y1149168D01*
X861364Y1150287D01*
X862375Y1151174D01*
X886297Y1182349D01*
X886892Y1183555D01*
X887779Y1184567D01*
X907426Y1218597D01*
X907858Y1219871D01*
X908606Y1220989D01*
X923643Y1257293D01*
X923906Y1258612D01*
X924501Y1259819D01*
X934671Y1297775D01*
X934759Y1299117D01*
X935191Y1300391D01*
X940320Y1339350D01*
X940254Y1340359D01*
X940484Y1341344D01*
X941127Y1360991D01*
X941073Y1361320D01*
X941138Y1361646D01*
X942891Y4129887D01*
X942889Y4129893D01*
X942891Y4129900D01*
Y4562868D01*
X942824Y4563201D01*
X942880Y4563536D01*
X942248Y4582836D01*
X942018Y4583821D01*
X942084Y4584830D01*
X937046Y4623101D01*
X936613Y4624375D01*
X936525Y4625717D01*
X926534Y4663002D01*
X925939Y4664209D01*
X925677Y4665528D01*
X910905Y4701191D01*
X910158Y4702309D01*
X909726Y4703583D01*
X890425Y4737013D01*
X889538Y4738024D01*
X888943Y4739230D01*
X865445Y4769855D01*
X864433Y4770742D01*
X863686Y4771860D01*
X836391Y4799155D01*
X835272Y4799903D01*
X834385Y4800914D01*
X803761Y4824412D01*
X802554Y4825008D01*
X801543Y4825894D01*
X768114Y4845195D01*
X766840Y4845627D01*
X765722Y4846375D01*
X730059Y4861146D01*
X728740Y4861409D01*
X727533Y4862003D01*
X690248Y4871994D01*
X688906Y4872082D01*
X687632Y4872515D01*
X649361Y4877553D01*
X648352Y4877487D01*
X647367Y4877717D01*
X628066Y4878349D01*
X627757Y4878298D01*
X627450Y4878360D01*
X391490Y4878953D01*
X129338Y4879631D01*
X129311Y4879626D01*
X129285Y4879631D01*
X118545D01*
X97479Y4883822D01*
X77634Y4892042D01*
X59774Y4903975D01*
X44585Y4919164D01*
X32651Y4937024D01*
X24431Y4956870D01*
X20241Y4977935D01*
Y4988676D01*
X20042Y4989674D01*
X20141Y4990687D01*
X13922Y5053422D01*
X4590Y5179181D01*
X-1627Y5305111D01*
X-4728Y5431177D01*
X-4709Y5557270D01*
X-1571Y5683324D01*
X4684Y5809263D01*
X14053Y5935008D01*
X16819Y5962835D01*
X20161Y5996440D01*
X42330Y6092035D01*
X95888Y6283580D01*
X157967Y6472546D01*
X228437Y6658537D01*
X307161Y6841192D01*
X393978Y7020138D01*
X488716Y7195020D01*
X591185Y7365490D01*
X701182Y7531205D01*
X818480Y7691827D01*
X942850Y7847041D01*
X1074042Y7996534D01*
X1211790Y8140007D01*
X1355824Y8277174D01*
X1505850Y8407756D01*
X1661568Y8531494D01*
X1822666Y8648139D01*
X1988826Y8757461D01*
X2159706Y8859234D01*
X2334972Y8953260D01*
X2514274Y9039351D01*
X2697243Y9117330D01*
X2883524Y9187045D01*
X3072736Y9248354D01*
X3264505Y9301135D01*
X3458435Y9345280D01*
X3654149Y9380703D01*
X3851257Y9407333D01*
X4049350Y9425116D01*
X4248054Y9434016D01*
X4446944Y9434016D01*
X4645643Y9425116D01*
D02*
G37*
G36*
X7170172Y6074802D02*
X7176479Y6063778D01*
X7174930Y6061095D01*
X7169440Y6040606D01*
Y6019394D01*
X7174930Y5998905D01*
X7185536Y5980535D01*
X7200535Y5965536D01*
X7218905Y5954930D01*
X7239394Y5949440D01*
X7260606D01*
X7281095Y5954930D01*
X7299465Y5965536D01*
X7314464Y5980535D01*
X7325070Y5998905D01*
X7330560Y6019394D01*
Y6040606D01*
X7325070Y6061095D01*
X7324221Y6062565D01*
X7330614Y6073539D01*
X7765472Y6070114D01*
X7768708Y6067029D01*
X7773926Y6057347D01*
X7769440Y6040606D01*
Y6019394D01*
X7774930Y5998905D01*
X7785536Y5980535D01*
X7800535Y5965536D01*
X7818905Y5954930D01*
X7839394Y5949440D01*
X7860606D01*
X7881095Y5954930D01*
X7889955Y5960045D01*
X7990000Y5860000D01*
Y4868043D01*
X7967467Y4862005D01*
X7966260Y4861410D01*
X7964941Y4861148D01*
X7929278Y4846376D01*
X7928160Y4845629D01*
X7926886Y4845197D01*
X7893456Y4825896D01*
X7892445Y4825009D01*
X7891239Y4824414D01*
X7860614Y4800915D01*
X7859727Y4799904D01*
X7858609Y4799157D01*
X7831314Y4771862D01*
X7830567Y4770743D01*
X7829555Y4769856D01*
X7806057Y4739232D01*
X7805461Y4738025D01*
X7804575Y4737014D01*
X7785274Y4703585D01*
X7784842Y4702311D01*
X7784094Y4701193D01*
X7769323Y4665530D01*
X7769060Y4664211D01*
X7768466Y4663004D01*
X7758475Y4625719D01*
X7758387Y4624377D01*
X7757954Y4623103D01*
X7752916Y4584832D01*
X7752982Y4583823D01*
X7752752Y4582838D01*
X7752121Y4563537D01*
X7752176Y4563202D01*
X7752110Y4562870D01*
X7752109Y4129902D01*
X7752111Y4129895D01*
X7752109Y4129889D01*
X7752418Y3642418D01*
X7470000Y3360000D01*
X4943245D01*
X4942569Y3372420D01*
X4964533Y3378305D01*
X4984226Y3389675D01*
X5000305Y3405754D01*
X5011674Y3425446D01*
X5017559Y3447410D01*
Y3470150D01*
X5011674Y3492114D01*
X5000305Y3511806D01*
X4984226Y3527885D01*
X4964533Y3539255D01*
X4942569Y3545140D01*
X4919830D01*
X4897866Y3539255D01*
X4878173Y3527885D01*
X4862094Y3511806D01*
X4850725Y3492114D01*
X4844839Y3470150D01*
Y3447410D01*
X4850725Y3425446D01*
X4862094Y3405754D01*
X4878173Y3389675D01*
X4897866Y3378305D01*
X4919830Y3372420D01*
X4919154Y3360000D01*
X2570000D01*
Y3930000D01*
X2859999Y4220000D01*
X6350000D01*
X6730000Y4600000D01*
Y5660000D01*
X6460000D01*
Y6030000D01*
X6510000Y6080000D01*
X7170172Y6074802D01*
D02*
G37*
%LPC*%
G36*
X4398494Y8542700D02*
X4381507D01*
X4365813Y8536199D01*
X4353801Y8524187D01*
X4347300Y8508494D01*
Y8491507D01*
X4353801Y8475813D01*
X4365813Y8463801D01*
X4381507Y8457300D01*
X4398494D01*
X4414188Y8463801D01*
X4426199Y8475813D01*
X4432700Y8491507D01*
Y8508494D01*
X4426199Y8524187D01*
X4414188Y8536199D01*
X4398494Y8542700D01*
D02*
G37*
G36*
X4607499Y8037700D02*
X4592501D01*
X4578645Y8031961D01*
X4568039Y8021355D01*
X4562300Y8007499D01*
Y7992501D01*
X4568039Y7978645D01*
X4578645Y7968039D01*
X4592501Y7962300D01*
X4607499D01*
X4621355Y7968039D01*
X4631961Y7978645D01*
X4637700Y7992501D01*
Y8007499D01*
X4631961Y8021355D01*
X4621355Y8031961D01*
X4607499Y8037700D01*
D02*
G37*
G36*
X5989199Y8013300D02*
X5974201D01*
X5960345Y8007561D01*
X5949739Y7996955D01*
X5944000Y7983099D01*
Y7968101D01*
X5949739Y7954245D01*
X5960345Y7943639D01*
X5974201Y7937900D01*
X5989199D01*
X6003055Y7943639D01*
X6013661Y7954245D01*
X6019400Y7968101D01*
Y7983099D01*
X6013661Y7996955D01*
X6003055Y8007561D01*
X5989199Y8013300D01*
D02*
G37*
G36*
X5431193Y8051799D02*
X5405222Y8047219D01*
X5381320Y8036074D01*
X5361117Y8019122D01*
X5345991Y7997518D01*
X5336971Y7972736D01*
X5334672Y7946464D01*
X5339251Y7920492D01*
X5350397Y7896591D01*
X5363481Y7880998D01*
X5355940Y7870227D01*
X5340568Y7875822D01*
X5316918Y7877892D01*
X5293539Y7873769D01*
X5272024Y7863736D01*
X5253839Y7848477D01*
X5240222Y7829031D01*
X5232103Y7806723D01*
X5230033Y7783073D01*
X5234156Y7759694D01*
X5244189Y7738179D01*
X5259448Y7719994D01*
X5278894Y7706377D01*
X5301202Y7698258D01*
X5324852Y7696189D01*
X5348231Y7700311D01*
X5369746Y7710344D01*
X5387931Y7725604D01*
X5401548Y7745050D01*
X5409667Y7767357D01*
X5411736Y7791007D01*
X5407614Y7814386D01*
X5397581Y7835901D01*
X5387065Y7848433D01*
X5394607Y7859203D01*
X5413734Y7852241D01*
X5440007Y7849942D01*
X5465978Y7854522D01*
X5489880Y7865668D01*
X5510083Y7882619D01*
X5525209Y7904223D01*
X5534229Y7929005D01*
X5536528Y7955277D01*
X5531949Y7981249D01*
X5520803Y8005151D01*
X5503851Y8025353D01*
X5482248Y8040480D01*
X5457466Y8049500D01*
X5431193Y8051799D01*
D02*
G37*
G36*
X3492471Y8206617D02*
X3466199Y8204318D01*
X3441417Y8195298D01*
X3419813Y8180171D01*
X3402861Y8159968D01*
X3391716Y8136067D01*
X3387136Y8110095D01*
X3389435Y8083823D01*
X3398455Y8059041D01*
X3413582Y8037437D01*
X3433784Y8020485D01*
X3457686Y8009340D01*
X3483658Y8004760D01*
X3509930Y8007059D01*
X3529058Y8014021D01*
X3536600Y8003251D01*
X3526084Y7990719D01*
X3516051Y7969204D01*
X3511928Y7945825D01*
X3513998Y7922175D01*
X3522117Y7899867D01*
X3535734Y7880421D01*
X3553919Y7865162D01*
X3575434Y7855129D01*
X3598813Y7851006D01*
X3622463Y7853076D01*
X3644770Y7861195D01*
X3664216Y7874812D01*
X3679476Y7892997D01*
X3689509Y7914512D01*
X3693631Y7937891D01*
X3691562Y7961541D01*
X3683443Y7983848D01*
X3669826Y8003294D01*
X3651641Y8018554D01*
X3630126Y8028587D01*
X3606747Y8032709D01*
X3583097Y8030640D01*
X3567725Y8025045D01*
X3560183Y8035815D01*
X3573267Y8051408D01*
X3584413Y8075310D01*
X3588993Y8101282D01*
X3586694Y8127554D01*
X3577674Y8152336D01*
X3562547Y8173939D01*
X3542344Y8190891D01*
X3518443Y8202037D01*
X3492471Y8206617D01*
D02*
G37*
G36*
X4101599Y7620500D02*
X4086601D01*
X4072745Y7614760D01*
X4062139Y7604155D01*
X4056400Y7590299D01*
Y7575301D01*
X4062139Y7561445D01*
X4072745Y7550839D01*
X4086601Y7545100D01*
X4101599D01*
X4115455Y7550839D01*
X4126061Y7561445D01*
X4131800Y7575301D01*
Y7590299D01*
X4126061Y7604155D01*
X4115455Y7614760D01*
X4101599Y7620500D01*
D02*
G37*
G36*
X1870194Y7448100D02*
X1853207D01*
X1837513Y7441599D01*
X1825501Y7429587D01*
X1819000Y7413893D01*
Y7396906D01*
X1825501Y7381213D01*
X1837513Y7369201D01*
X1853207Y7362700D01*
X1870194D01*
X1885888Y7369201D01*
X1897899Y7381213D01*
X1904400Y7396906D01*
Y7413893D01*
X1897899Y7429587D01*
X1885888Y7441599D01*
X1870194Y7448100D01*
D02*
G37*
G36*
X4839099Y7435500D02*
X4824101D01*
X4810245Y7429761D01*
X4799639Y7419155D01*
X4793900Y7405299D01*
Y7390301D01*
X4799639Y7376445D01*
X4810245Y7365839D01*
X4824101Y7360100D01*
X4839099D01*
X4852955Y7365839D01*
X4863561Y7376445D01*
X4869300Y7390301D01*
Y7405299D01*
X4863561Y7419155D01*
X4852955Y7429761D01*
X4839099Y7435500D01*
D02*
G37*
G36*
X5257499Y7277700D02*
X5242501D01*
X5228645Y7271961D01*
X5218039Y7261355D01*
X5212300Y7247499D01*
Y7232501D01*
X5218039Y7218645D01*
X5228645Y7208039D01*
X5242501Y7202300D01*
X5257499D01*
X5271355Y7208039D01*
X5281960Y7218645D01*
X5287700Y7232501D01*
Y7247499D01*
X5281960Y7261355D01*
X5271355Y7271961D01*
X5257499Y7277700D01*
D02*
G37*
G36*
X7017499Y7236208D02*
X7002501D01*
X6988645Y7230469D01*
X6978040Y7219863D01*
X6972300Y7206007D01*
Y7191009D01*
X6978040Y7177153D01*
X6988645Y7166548D01*
X7002501Y7160808D01*
X7017499D01*
X7031356Y7166548D01*
X7041961Y7177153D01*
X7047700Y7191009D01*
Y7206007D01*
X7041961Y7219863D01*
X7031356Y7230469D01*
X7017499Y7236208D01*
D02*
G37*
G36*
X6318494Y7232700D02*
X6301507D01*
X6285813Y7226199D01*
X6273801Y7214188D01*
X6267300Y7198494D01*
Y7181507D01*
X6273801Y7165813D01*
X6285813Y7153801D01*
X6301507Y7147300D01*
X6318494D01*
X6334187Y7153801D01*
X6346199Y7165813D01*
X6352700Y7181507D01*
Y7198494D01*
X6346199Y7214188D01*
X6334187Y7226199D01*
X6318494Y7232700D01*
D02*
G37*
G36*
X3611599Y7083000D02*
X3596601D01*
X3582745Y7077261D01*
X3572139Y7066655D01*
X3566400Y7052799D01*
Y7037801D01*
X3572139Y7023945D01*
X3582745Y7013340D01*
X3596601Y7007600D01*
X3611599D01*
X3625455Y7013340D01*
X3636061Y7023945D01*
X3641800Y7037801D01*
Y7052799D01*
X3636061Y7066655D01*
X3625455Y7077261D01*
X3611599Y7083000D01*
D02*
G37*
G36*
X4738493Y7012700D02*
X4721506D01*
X4705813Y7006199D01*
X4693801Y6994187D01*
X4687300Y6978494D01*
Y6961507D01*
X4693801Y6945813D01*
X4705813Y6933801D01*
X4721506Y6927300D01*
X4738493D01*
X4754187Y6933801D01*
X4766199Y6945813D01*
X4772700Y6961507D01*
Y6978494D01*
X4766199Y6994187D01*
X4754187Y7006199D01*
X4738493Y7012700D01*
D02*
G37*
G36*
X2028093Y6944899D02*
X2011106D01*
X1995412Y6938399D01*
X1983400Y6926387D01*
X1976900Y6910693D01*
Y6893706D01*
X1983400Y6878012D01*
X1995412Y6866000D01*
X2011106Y6859500D01*
X2028093D01*
X2043787Y6866000D01*
X2055799Y6878012D01*
X2062299Y6893706D01*
Y6910693D01*
X2055799Y6926387D01*
X2043787Y6938399D01*
X2028093Y6944899D01*
D02*
G37*
G36*
X4738493Y6622700D02*
X4721506D01*
X4705813Y6616199D01*
X4693801Y6604187D01*
X4687300Y6588494D01*
Y6571507D01*
X4693801Y6555813D01*
X4705813Y6543801D01*
X4721506Y6537300D01*
X4738493D01*
X4754187Y6543801D01*
X4766199Y6555813D01*
X4772700Y6571507D01*
Y6588494D01*
X4766199Y6604187D01*
X4754187Y6616199D01*
X4738493Y6622700D01*
D02*
G37*
G36*
X4658494Y6522700D02*
X4641507D01*
X4625813Y6516199D01*
X4613801Y6504187D01*
X4607300Y6488493D01*
Y6471506D01*
X4613801Y6455813D01*
X4625813Y6443801D01*
X4641507Y6437300D01*
X4658494D01*
X4674188Y6443801D01*
X4686199Y6455813D01*
X4692700Y6471506D01*
Y6488493D01*
X4686199Y6504187D01*
X4674188Y6516199D01*
X4658494Y6522700D01*
D02*
G37*
G36*
X7760186Y6780360D02*
X7733814D01*
X7708340Y6773534D01*
X7685500Y6760348D01*
X7666852Y6741700D01*
X7653666Y6718860D01*
X7646840Y6693386D01*
Y6667014D01*
X7653666Y6641540D01*
X7666852Y6618700D01*
X7685500Y6600052D01*
X7708340Y6586866D01*
X7728001Y6581598D01*
Y6568449D01*
X7712200Y6564215D01*
X7691640Y6552346D01*
X7674854Y6535559D01*
X7662984Y6515000D01*
X7656840Y6492070D01*
Y6468330D01*
X7662984Y6445400D01*
X7674854Y6424840D01*
X7691640Y6408054D01*
X7712200Y6396184D01*
X7735130Y6390040D01*
X7758870D01*
X7781800Y6396184D01*
X7802360Y6408054D01*
X7819146Y6424840D01*
X7831016Y6445400D01*
X7837160Y6468330D01*
Y6492070D01*
X7831016Y6515000D01*
X7819146Y6535559D01*
X7802360Y6552346D01*
X7781800Y6564215D01*
X7765999Y6568449D01*
Y6581598D01*
X7785660Y6586866D01*
X7808500Y6600052D01*
X7827148Y6618700D01*
X7840334Y6641540D01*
X7847160Y6667014D01*
Y6693386D01*
X7840334Y6718860D01*
X7827148Y6741700D01*
X7808500Y6760348D01*
X7785660Y6773534D01*
X7760186Y6780360D01*
D02*
G37*
G36*
X1257786D02*
X1231414D01*
X1205940Y6773534D01*
X1183100Y6760348D01*
X1164452Y6741700D01*
X1151266Y6718860D01*
X1144440Y6693386D01*
Y6667014D01*
X1151266Y6641540D01*
X1164452Y6618700D01*
X1183100Y6600052D01*
X1205940Y6586866D01*
X1225601Y6581598D01*
Y6568449D01*
X1209800Y6564215D01*
X1189240Y6552346D01*
X1172454Y6535559D01*
X1160584Y6515000D01*
X1154440Y6492070D01*
Y6468330D01*
X1160584Y6445400D01*
X1172454Y6424840D01*
X1189240Y6408054D01*
X1209800Y6396184D01*
X1232730Y6390040D01*
X1256470D01*
X1279400Y6396184D01*
X1299960Y6408054D01*
X1316746Y6424840D01*
X1328616Y6445400D01*
X1334760Y6468330D01*
Y6492070D01*
X1328616Y6515000D01*
X1316746Y6535559D01*
X1299960Y6552346D01*
X1279400Y6564215D01*
X1263599Y6568449D01*
Y6581598D01*
X1283260Y6586866D01*
X1306100Y6600052D01*
X1324748Y6618700D01*
X1337934Y6641540D01*
X1344760Y6667014D01*
Y6693386D01*
X1337934Y6718860D01*
X1324748Y6741700D01*
X1306100Y6760348D01*
X1283260Y6773534D01*
X1257786Y6780360D01*
D02*
G37*
G36*
X6568494Y6472700D02*
X6551507D01*
X6535813Y6466199D01*
X6523801Y6454187D01*
X6517300Y6438494D01*
Y6421507D01*
X6523801Y6405813D01*
X6535813Y6393801D01*
X6551507Y6387300D01*
X6568494D01*
X6584187Y6393801D01*
X6596199Y6405813D01*
X6602700Y6421507D01*
Y6438494D01*
X6596199Y6454187D01*
X6584187Y6466199D01*
X6568494Y6472700D01*
D02*
G37*
G36*
X5126599Y6450500D02*
X5111601D01*
X5097745Y6444761D01*
X5087139Y6434155D01*
X5081400Y6420299D01*
Y6405301D01*
X5087139Y6391445D01*
X5097745Y6380839D01*
X5111601Y6375100D01*
X5126599D01*
X5140455Y6380839D01*
X5151061Y6391445D01*
X5156800Y6405301D01*
Y6420299D01*
X5151061Y6434155D01*
X5140455Y6444761D01*
X5126599Y6450500D01*
D02*
G37*
G36*
X5862499Y6442543D02*
X5847501D01*
X5833645Y6436803D01*
X5823040Y6426198D01*
X5817300Y6412342D01*
Y6397344D01*
X5823040Y6383488D01*
X5833645Y6372882D01*
X5847501Y6367143D01*
X5862499D01*
X5876356Y6372882D01*
X5886961Y6383488D01*
X5892700Y6397344D01*
Y6412342D01*
X5886961Y6426198D01*
X5876356Y6436803D01*
X5862499Y6442543D01*
D02*
G37*
G36*
X3727499Y6367700D02*
X3712501D01*
X3698645Y6361961D01*
X3688039Y6351355D01*
X3682300Y6337499D01*
Y6322501D01*
X3688039Y6308645D01*
X3698645Y6298039D01*
X3712501Y6292300D01*
X3727499D01*
X3741355Y6298039D01*
X3751960Y6308645D01*
X3757700Y6322501D01*
Y6337499D01*
X3751960Y6351355D01*
X3741355Y6361961D01*
X3727499Y6367700D01*
D02*
G37*
G36*
X5018493Y6372700D02*
X5001506D01*
X4985812Y6366199D01*
X4973801Y6354187D01*
X4967300Y6338494D01*
Y6321507D01*
X4973801Y6305813D01*
X4985812Y6293801D01*
X5001506Y6287300D01*
X5018493D01*
X5034187Y6293801D01*
X5046199Y6305813D01*
X5052700Y6321507D01*
Y6338494D01*
X5046199Y6354187D01*
X5034187Y6366199D01*
X5018493Y6372700D01*
D02*
G37*
G36*
X4258493Y6292700D02*
X4241506D01*
X4225812Y6286199D01*
X4213801Y6274187D01*
X4207300Y6258493D01*
Y6241506D01*
X4213801Y6225813D01*
X4225812Y6213801D01*
X4241506Y6207300D01*
X4258493D01*
X4274187Y6213801D01*
X4286199Y6225813D01*
X4292700Y6241506D01*
Y6258493D01*
X4286199Y6274187D01*
X4274187Y6286199D01*
X4258493Y6292700D01*
D02*
G37*
G36*
X698494Y6095200D02*
X681507D01*
X665813Y6088699D01*
X653801Y6076687D01*
X647300Y6060993D01*
Y6044006D01*
X653801Y6028313D01*
X665813Y6016301D01*
X681507Y6009800D01*
X698494D01*
X714188Y6016301D01*
X726199Y6028313D01*
X732700Y6044006D01*
Y6060993D01*
X726199Y6076687D01*
X714188Y6088699D01*
X698494Y6095200D01*
D02*
G37*
G36*
X5398493Y6052700D02*
X5381506D01*
X5365812Y6046199D01*
X5353801Y6034188D01*
X5347300Y6018494D01*
Y6001507D01*
X5353801Y5985813D01*
X5365812Y5973801D01*
X5381506Y5967300D01*
X5398493D01*
X5414187Y5973801D01*
X5426199Y5985813D01*
X5432700Y6001507D01*
Y6018494D01*
X5426199Y6034188D01*
X5414187Y6046199D01*
X5398493Y6052700D01*
D02*
G37*
G36*
X4077499Y6027700D02*
X4062501D01*
X4048645Y6021961D01*
X4038039Y6011355D01*
X4032300Y5997499D01*
Y5982501D01*
X4038039Y5968645D01*
X4048645Y5958039D01*
X4062501Y5952300D01*
X4077499D01*
X4091355Y5958039D01*
X4101961Y5968645D01*
X4107700Y5982501D01*
Y5997499D01*
X4101961Y6011355D01*
X4091355Y6021961D01*
X4077499Y6027700D01*
D02*
G37*
G36*
X698494Y5975200D02*
X681507D01*
X665813Y5968699D01*
X653801Y5956687D01*
X647300Y5940993D01*
Y5924006D01*
X653801Y5908313D01*
X665813Y5896301D01*
X681507Y5889800D01*
X698494D01*
X714188Y5896301D01*
X726199Y5908313D01*
X732700Y5924006D01*
Y5935957D01*
D01*
Y5940993D01*
X726199Y5956687D01*
X714188Y5968699D01*
X698494Y5975200D01*
D02*
G37*
G36*
X4548494Y5932700D02*
X4531507D01*
X4515813Y5926199D01*
X4503801Y5914187D01*
X4497300Y5898493D01*
Y5881506D01*
X4503801Y5865812D01*
X4515813Y5853801D01*
X4531507Y5847300D01*
X4548494D01*
X4564187Y5853801D01*
X4576199Y5865812D01*
X4582700Y5881506D01*
Y5898493D01*
X4576199Y5914187D01*
X4564187Y5926199D01*
X4548494Y5932700D01*
D02*
G37*
G36*
X2858493Y5892700D02*
X2841506D01*
X2825812Y5886199D01*
X2813801Y5874187D01*
X2807300Y5858493D01*
Y5841506D01*
X2813801Y5825813D01*
X2825812Y5813801D01*
X2841506Y5807300D01*
X2858493D01*
X2874187Y5813801D01*
X2886199Y5825813D01*
X2892700Y5841506D01*
Y5858493D01*
X2886199Y5874187D01*
X2874187Y5886199D01*
X2858493Y5892700D01*
D02*
G37*
G36*
X2727499Y5737700D02*
X2712501D01*
X2698645Y5731961D01*
X2688039Y5721355D01*
X2682300Y5707499D01*
Y5692501D01*
X2688039Y5678645D01*
X2698645Y5668039D01*
X2712501Y5662300D01*
X2727499D01*
X2741355Y5668039D01*
X2751960Y5678645D01*
X2757700Y5692501D01*
Y5707499D01*
X2751960Y5721355D01*
X2741355Y5731961D01*
X2727499Y5737700D01*
D02*
G37*
G36*
X708494Y5635200D02*
X691507D01*
X675813Y5628699D01*
X663801Y5616687D01*
X657300Y5600993D01*
Y5584006D01*
X663801Y5568312D01*
X675813Y5556301D01*
X691507Y5549800D01*
X708494D01*
X724188Y5556301D01*
X736199Y5568312D01*
X742700Y5584006D01*
Y5600993D01*
X736199Y5616687D01*
X724188Y5628699D01*
X708494Y5635200D01*
D02*
G37*
G36*
X3137499Y5617700D02*
X3122501D01*
X3108645Y5611961D01*
X3098040Y5601355D01*
X3092300Y5587499D01*
Y5572501D01*
X3098040Y5558645D01*
X3108645Y5548039D01*
X3122501Y5542300D01*
X3137499D01*
X3151355Y5548039D01*
X3161961Y5558645D01*
X3167700Y5572501D01*
Y5587499D01*
X3161961Y5601355D01*
X3151355Y5611961D01*
X3137499Y5617700D01*
D02*
G37*
G36*
X708494Y5525200D02*
X691507D01*
X675813Y5518699D01*
X663801Y5506687D01*
X657300Y5490993D01*
Y5474006D01*
X663801Y5458312D01*
X675813Y5446301D01*
X691507Y5439800D01*
X708494D01*
X724188Y5446301D01*
X736199Y5458312D01*
X742700Y5474006D01*
Y5490993D01*
X736199Y5506687D01*
X724188Y5518699D01*
X708494Y5525200D01*
D02*
G37*
G36*
X5438494Y5322700D02*
X5421507D01*
X5405813Y5316199D01*
X5393801Y5304188D01*
X5387300Y5288494D01*
Y5271507D01*
X5393801Y5255813D01*
X5405813Y5243801D01*
X5421507Y5237300D01*
X5438494D01*
X5454187Y5243801D01*
X5466199Y5255813D01*
X5472700Y5271507D01*
Y5288494D01*
X5466199Y5304188D01*
X5454187Y5316199D01*
X5438494Y5322700D01*
D02*
G37*
G36*
X708494Y5165200D02*
X691507D01*
X675813Y5158699D01*
X663801Y5146687D01*
X657300Y5130993D01*
Y5114006D01*
X663801Y5098312D01*
X675813Y5086301D01*
X691507Y5079800D01*
X708494D01*
X724188Y5086301D01*
X736199Y5098312D01*
X742700Y5114006D01*
Y5130993D01*
X736199Y5146687D01*
X724188Y5158699D01*
X708494Y5165200D01*
D02*
G37*
G36*
Y5055200D02*
X691507D01*
X675813Y5048699D01*
X663801Y5036687D01*
X657300Y5020993D01*
Y5004006D01*
X663801Y4988312D01*
X675813Y4976301D01*
X691507Y4969800D01*
X708494D01*
X724188Y4976301D01*
X736199Y4988312D01*
X742700Y5004006D01*
Y5020993D01*
X736199Y5036687D01*
X724188Y5048699D01*
X708494Y5055200D01*
D02*
G37*
G36*
X4109488Y4887700D02*
X4090512D01*
X4072980Y4880438D01*
X4059562Y4867020D01*
X4052300Y4849488D01*
Y4830512D01*
X4059562Y4812980D01*
X4072980Y4799562D01*
X4090512Y4792300D01*
X4109488D01*
X4127020Y4799562D01*
X4140438Y4812980D01*
X4147700Y4830512D01*
Y4849488D01*
X4140438Y4867020D01*
X4127020Y4880438D01*
X4109488Y4887700D01*
D02*
G37*
G36*
X5689488Y4877700D02*
X5670512D01*
X5652980Y4870438D01*
X5639562Y4857020D01*
X5632300Y4839488D01*
Y4820512D01*
X5639562Y4802980D01*
X5652980Y4789562D01*
X5670512Y4782300D01*
X5689488D01*
X5707020Y4789562D01*
X5720438Y4802980D01*
X5727700Y4820512D01*
Y4839488D01*
X5720438Y4857020D01*
X5707020Y4870438D01*
X5689488Y4877700D01*
D02*
G37*
G36*
X3773264Y3147104D02*
X3750525D01*
X3728561Y3141219D01*
X3708868Y3129849D01*
X3692789Y3113771D01*
X3681420Y3094078D01*
X3675534Y3072114D01*
Y3049375D01*
X3681420Y3027411D01*
X3692789Y3007718D01*
X3708868Y2991639D01*
X3728561Y2980269D01*
X3750525Y2974384D01*
X3773264D01*
X3795228Y2980269D01*
X3814921Y2991639D01*
X3831000Y3007718D01*
X3842369Y3027411D01*
X3848254Y3049375D01*
Y3072114D01*
X3842369Y3094078D01*
X3831000Y3113771D01*
X3814921Y3129849D01*
X3795228Y3141219D01*
X3773264Y3147104D01*
D02*
G37*
G36*
X4942569Y2945700D02*
X4919830D01*
X4897866Y2939815D01*
X4878173Y2928445D01*
X4862094Y2912366D01*
X4850725Y2892674D01*
X4844839Y2870710D01*
Y2847970D01*
X4850725Y2826006D01*
X4862094Y2806314D01*
X4878173Y2790235D01*
X4897866Y2778865D01*
X4919830Y2772980D01*
X4942569D01*
X4964533Y2778865D01*
X4984226Y2790235D01*
X5000305Y2806314D01*
X5011674Y2826006D01*
X5017559Y2847970D01*
Y2870710D01*
X5011674Y2892674D01*
X5000305Y2912366D01*
X4984226Y2928445D01*
X4964533Y2939815D01*
X4942569Y2945700D01*
D02*
G37*
G36*
X3773264Y2750864D02*
X3750525D01*
X3728561Y2744979D01*
X3708868Y2733609D01*
X3692789Y2717531D01*
X3681420Y2697838D01*
X3675534Y2675874D01*
Y2653135D01*
X3681420Y2631171D01*
X3692789Y2611478D01*
X3708868Y2595399D01*
X3728561Y2584029D01*
X3750525Y2578144D01*
X3773264D01*
X3795228Y2584029D01*
X3814921Y2595399D01*
X3831000Y2611478D01*
X3842369Y2631171D01*
X3848254Y2653135D01*
Y2675874D01*
X3842369Y2697838D01*
X3831000Y2717531D01*
X3814921Y2733609D01*
X3795228Y2744979D01*
X3773264Y2750864D01*
D02*
G37*
G36*
X4942569Y2745040D02*
X4919830D01*
X4897866Y2739155D01*
X4878173Y2727785D01*
X4862094Y2711706D01*
X4850725Y2692014D01*
X4844839Y2670050D01*
Y2647310D01*
X4850725Y2625346D01*
X4862094Y2605654D01*
X4878173Y2589575D01*
X4897866Y2578205D01*
X4919830Y2572320D01*
X4942569D01*
X4964533Y2578205D01*
X4984226Y2589575D01*
X5000305Y2605654D01*
X5011674Y2625346D01*
X5017559Y2647310D01*
Y2670050D01*
X5011674Y2692014D01*
X5000305Y2711706D01*
X4984226Y2727785D01*
X4964533Y2739155D01*
X4942569Y2745040D01*
D02*
G37*
G36*
X3773264Y2547664D02*
X3750525D01*
X3728561Y2541779D01*
X3708868Y2530409D01*
X3692789Y2514331D01*
X3681420Y2494638D01*
X3675534Y2472674D01*
Y2449935D01*
X3681420Y2427971D01*
X3692789Y2408278D01*
X3708868Y2392199D01*
X3728561Y2380829D01*
X3750525Y2374944D01*
X3773264D01*
X3795228Y2380829D01*
X3814921Y2392199D01*
X3831000Y2408278D01*
X3842369Y2427971D01*
X3848254Y2449935D01*
Y2472674D01*
X3842369Y2494638D01*
X3831000Y2514331D01*
X3814921Y2530409D01*
X3795228Y2541779D01*
X3773264Y2547664D01*
D02*
G37*
G36*
X4942569Y2546920D02*
X4919830D01*
X4897866Y2541035D01*
X4878173Y2529665D01*
X4862094Y2513586D01*
X4850725Y2493894D01*
X4844839Y2471930D01*
Y2449190D01*
X4850725Y2427226D01*
X4862094Y2407534D01*
X4878173Y2391455D01*
X4897866Y2380085D01*
X4919830Y2374200D01*
X4942569D01*
X4964533Y2380085D01*
X4984226Y2391455D01*
X5000305Y2407534D01*
X5011674Y2427226D01*
X5017559Y2449190D01*
Y2471930D01*
X5011674Y2493894D01*
X5000305Y2513586D01*
X4984226Y2529665D01*
X4964533Y2541035D01*
X4942569Y2546920D01*
D02*
G37*
G36*
X2398254Y2292719D02*
X2077934D01*
Y1972399D01*
X2398254D01*
Y2292719D01*
D02*
G37*
G36*
X6615160Y2283985D02*
X6294840D01*
Y1963665D01*
X6615160D01*
Y2283985D01*
D02*
G37*
G36*
X5152794Y612700D02*
X5135807D01*
X5120113Y606199D01*
X5108101Y594188D01*
X5101600Y578494D01*
Y561507D01*
X5108101Y545813D01*
X5120113Y533801D01*
X5135807Y527300D01*
X5152794D01*
X5168488Y533801D01*
X5180499Y545813D01*
X5187000Y561507D01*
Y578494D01*
X5180499Y594188D01*
X5168488Y606199D01*
X5152794Y612700D01*
D02*
G37*
G36*
X5783360Y369060D02*
X5585240D01*
Y170940D01*
X5783360D01*
Y369060D01*
D02*
G37*
G36*
X4663060D02*
X4464940D01*
Y170940D01*
X4663060D01*
Y369060D01*
D02*
G37*
G36*
X4409060D02*
X4210940D01*
Y170940D01*
X4409060D01*
Y369060D01*
D02*
G37*
G36*
X4155060D02*
X3956940D01*
Y170940D01*
X4155060D01*
Y369060D01*
D02*
G37*
G36*
X3251060Y359060D02*
X3052940D01*
Y160940D01*
X3251060D01*
Y359060D01*
D02*
G37*
G36*
X2743060D02*
X2544940D01*
Y160940D01*
X2743060D01*
Y359060D01*
D02*
G37*
G36*
X2489060D02*
X2290940D01*
Y160940D01*
X2489060D01*
Y359060D01*
D02*
G37*
G36*
X2235060D02*
X2036940D01*
Y160940D01*
X2235060D01*
Y359060D01*
D02*
G37*
G36*
X7860606Y5860560D02*
X7839394D01*
X7818905Y5855070D01*
X7800535Y5844464D01*
X7785536Y5829465D01*
X7774930Y5811095D01*
X7769440Y5790606D01*
Y5769394D01*
X7774930Y5748905D01*
X7785536Y5730535D01*
X7800535Y5715536D01*
X7818905Y5704930D01*
X7839394Y5699440D01*
X7860606D01*
X7881095Y5704930D01*
X7899465Y5715536D01*
X7914464Y5730535D01*
X7925070Y5748905D01*
X7930560Y5769394D01*
Y5790606D01*
X7925070Y5811095D01*
X7914464Y5829465D01*
X7899465Y5844464D01*
X7881095Y5855070D01*
X7860606Y5860560D01*
D02*
G37*
G36*
Y5610560D02*
X7839394D01*
X7818905Y5605070D01*
X7800535Y5594464D01*
X7785536Y5579465D01*
X7774930Y5561095D01*
X7769440Y5540606D01*
Y5519394D01*
X7774930Y5498905D01*
X7785536Y5480535D01*
X7800535Y5465536D01*
X7818905Y5454930D01*
X7839394Y5449440D01*
X7860606D01*
X7881095Y5454930D01*
X7899465Y5465536D01*
X7914464Y5480535D01*
X7925070Y5498905D01*
X7930560Y5519394D01*
Y5540606D01*
X7925070Y5561095D01*
X7914464Y5579465D01*
X7899465Y5594464D01*
X7881095Y5605070D01*
X7860606Y5610560D01*
D02*
G37*
G36*
X7260606D02*
X7239394D01*
X7218905Y5605070D01*
X7200535Y5594464D01*
X7185536Y5579465D01*
X7174930Y5561095D01*
X7169440Y5540606D01*
Y5519394D01*
X7174930Y5498905D01*
X7185536Y5480535D01*
X7200535Y5465536D01*
X7218905Y5454930D01*
X7239394Y5449440D01*
X7260606D01*
X7281095Y5454930D01*
X7299465Y5465536D01*
X7314464Y5480535D01*
X7325070Y5498905D01*
X7330560Y5519394D01*
Y5540606D01*
X7325070Y5561095D01*
X7314464Y5579465D01*
X7299465Y5594464D01*
X7281095Y5605070D01*
X7260606Y5610560D01*
D02*
G37*
G36*
X7350160Y4800160D02*
X7169840D01*
Y4619840D01*
X7350160D01*
Y4800160D01*
D02*
G37*
G36*
X3800588Y4038310D02*
X3781612D01*
X3764080Y4031048D01*
X3750662Y4017630D01*
X3743400Y4000098D01*
Y3981122D01*
X3750662Y3963590D01*
X3764080Y3950172D01*
X3781612Y3942910D01*
X3800588D01*
X3818120Y3950172D01*
X3831538Y3963590D01*
X3838800Y3981122D01*
Y4000098D01*
X3831538Y4017630D01*
X3818120Y4031048D01*
X3800588Y4038310D01*
D02*
G37*
G36*
X5389488Y4027700D02*
X5370512D01*
X5352980Y4020438D01*
X5339562Y4007020D01*
X5332300Y3989488D01*
Y3970512D01*
X5339562Y3952980D01*
X5352980Y3939562D01*
X5370512Y3932300D01*
X5389488D01*
X5407020Y3939562D01*
X5420438Y3952980D01*
X5427700Y3970512D01*
Y3989488D01*
X5420438Y4007020D01*
X5407020Y4020438D01*
X5389488Y4027700D01*
D02*
G37*
G36*
X6615160Y3947685D02*
X6294840D01*
Y3627365D01*
X6615160D01*
Y3947685D01*
D02*
G37*
G36*
X3773264Y3545884D02*
X3750525D01*
X3728561Y3539999D01*
X3708868Y3528629D01*
X3692789Y3512551D01*
X3681420Y3492858D01*
X3675534Y3470894D01*
Y3448155D01*
X3681420Y3426191D01*
X3692789Y3406498D01*
X3708868Y3390419D01*
X3728561Y3379049D01*
X3750525Y3373164D01*
X3773264D01*
X3795228Y3379049D01*
X3814921Y3390419D01*
X3831000Y3406498D01*
X3842369Y3426191D01*
X3848254Y3448155D01*
Y3470894D01*
X3842369Y3492858D01*
X3831000Y3512551D01*
X3814921Y3528629D01*
X3795228Y3539999D01*
X3773264Y3545884D01*
D02*
G37*
%LPD*%
D36*
X6030000Y4260000D02*
X6090000Y4320000D01*
Y4910000D01*
X2193640Y5116361D02*
X3050000Y4260000D01*
X6030000D01*
X2150000Y5120000D02*
X2153639Y5116361D01*
X2193640D01*
D39*
X2150000Y4830000D02*
X2878356Y4101645D01*
X2150000Y4830000D02*
Y4970000D01*
D42*
X5227536Y8096559D02*
D03*
X5112820Y7932728D02*
D03*
D43*
X5435600Y7950871D02*
D03*
X3488064Y8105688D02*
D03*
X1244600Y6680200D02*
D03*
X7747000D02*
D03*
D44*
X5320885Y7787040D02*
D03*
X3602780Y7941858D02*
D03*
X1244600Y6480200D02*
D03*
X7747000D02*
D03*
X7260000Y4960000D02*
D03*
D45*
X8310000Y5352300D02*
D03*
X8310000Y5890000D02*
D03*
D46*
X2238094Y2132559D02*
D03*
Y3796259D02*
D03*
X6455000Y3787525D02*
D03*
Y2123825D02*
D03*
D47*
X3761894Y3459524D02*
D03*
Y3261404D02*
D03*
Y3060744D02*
D03*
Y2860084D02*
D03*
Y2664504D02*
D03*
Y2461304D02*
D03*
X4931199Y2460560D02*
D03*
Y2658680D02*
D03*
Y2859340D02*
D03*
Y3060000D02*
D03*
Y3255580D02*
D03*
Y3458780D02*
D03*
D48*
X7850000Y5530000D02*
D03*
Y5780000D02*
D03*
Y6030000D02*
D03*
X7250000Y5530000D02*
D03*
Y5780000D02*
D03*
Y6030000D02*
D03*
D49*
X5684300Y270000D02*
D03*
X5938300D02*
D03*
X4564000D02*
D03*
X4310000D02*
D03*
X4056000D02*
D03*
X4818000D02*
D03*
X2644000Y260000D02*
D03*
X2898000D02*
D03*
X3152000D02*
D03*
X2390000D02*
D03*
X2136000D02*
D03*
D50*
X3394715Y7796170D02*
D03*
X3280000Y7960000D02*
D03*
D51*
X990600Y6480200D02*
D03*
Y6680200D02*
D03*
X7493000Y6480200D02*
D03*
Y6680200D02*
D03*
D52*
X7260000Y4710000D02*
D03*
D53*
X5680000Y4830000D02*
D03*
X4100000Y4840000D02*
D03*
X3851100Y4370610D02*
D03*
Y4517700D02*
D03*
X3621100Y4370610D02*
D03*
X3791100Y3990610D02*
D03*
X3621100Y4517700D02*
D03*
X3221100Y4030610D02*
D03*
X3731100Y4370610D02*
D03*
X3021100Y4030610D02*
D03*
X3731100Y4517700D02*
D03*
X3361100Y4160610D02*
D03*
X5440000Y4370000D02*
D03*
X5320000Y4500000D02*
D03*
X4820000Y4020000D02*
D03*
X4970000Y4720000D02*
D03*
X5320000Y4370000D02*
D03*
X5440000Y4500000D02*
D03*
X5210000D02*
D03*
X5380000Y3980000D02*
D03*
X4960000Y4060000D02*
D03*
Y4560000D02*
D03*
X5210000Y4370000D02*
D03*
X4620000Y4020000D02*
D03*
D54*
X6350000Y6170000D02*
D03*
X5855000Y6404843D02*
D03*
X2720000Y5700000D02*
D03*
X4176600Y5890300D02*
D03*
X3720000Y6330000D02*
D03*
X3130000Y5580000D02*
D03*
X7010000Y7198508D02*
D03*
X4600000Y8000000D02*
D03*
X4000000Y7475000D02*
D03*
X6690000Y5620000D02*
D03*
X6510000Y5580000D02*
D03*
X6390000D02*
D03*
X5250000Y7240000D02*
D03*
X4070000Y5990000D02*
D03*
X5981700Y7975600D02*
D03*
X3604100Y7045300D02*
D03*
X3516600Y6962800D02*
D03*
X5171600Y6487800D02*
D03*
X5119100Y6412800D02*
D03*
X4759100Y7465300D02*
D03*
X4094100Y7582800D02*
D03*
X4831600Y7397800D02*
D03*
D55*
X6560000Y6430000D02*
D03*
X5180000Y6930000D02*
D03*
X700000Y5012500D02*
D03*
Y5122500D02*
D03*
Y5482500D02*
D03*
Y5592500D02*
D03*
X690000Y5932500D02*
D03*
Y6052500D02*
D03*
X7080000Y5680000D02*
D03*
X6970000Y5580000D02*
D03*
X6970000Y5380000D02*
D03*
Y5480000D02*
D03*
X7080000Y5380000D02*
D03*
X7080000Y5580000D02*
D03*
X7080000Y5480000D02*
D03*
X6970000Y5680000D02*
D03*
X3220000Y4440000D02*
D03*
X3371100Y4560610D02*
D03*
Y4720610D02*
D03*
X3031100Y4512700D02*
D03*
X5430000Y5280000D02*
D03*
X4610000Y4520000D02*
D03*
X4820000Y4440000D02*
D03*
X5430000Y5510000D02*
D03*
X2150000Y4970000D02*
D03*
Y5120000D02*
D03*
X5144300Y570000D02*
D03*
X6090000Y4910000D02*
D03*
X2150000Y5260000D02*
D03*
X4540000Y5890000D02*
D03*
X5010000Y6330000D02*
D03*
X4730000Y6580000D02*
D03*
X4650000Y6480000D02*
D03*
X4730000Y6970000D02*
D03*
X4250000Y6250000D02*
D03*
X4390000Y8500000D02*
D03*
X5390000Y6010000D02*
D03*
X2850000Y5960000D02*
D03*
Y5850000D02*
D03*
X6240000Y5880000D02*
D03*
Y5970000D02*
D03*
X2990000Y5580000D02*
D03*
X4827300Y5382300D02*
D03*
Y5512300D02*
D03*
Y5642300D02*
D03*
X6137300Y5112300D02*
D03*
X2019599Y6902200D02*
D03*
X1861700Y7405400D02*
D03*
X6310000Y7190000D02*
D03*
%TF.MD5,98f2e1a86abd75132dc2281198934fc1*%
M02*
