%TF.GenerationSoftware,Altium Limited,Altium Designer,24.5.1 (21)*%
G04 Layer_Color=16711935*
%FSLAX45Y45*%
%MOMM*%
%TF.SameCoordinates,583913BB-816E-4693-BEF2-A62C45BB8311*%
%TF.FilePolarity,Positive*%
%TF.FileFunction,Other,Top_Assembly*%
%TF.Part,Single*%
G01*
G75*
%TA.AperFunction,NonConductor*%
%ADD60C,0.20000*%
G36*
X5925088Y6502960D02*
X5888106D01*
X5888013D01*
X5887736D01*
X5887273D01*
X5886719D01*
X5886072Y6502867D01*
X5885239D01*
X5883483Y6502775D01*
X5881449Y6502590D01*
X5879415Y6502312D01*
X5877473Y6501943D01*
X5876641Y6501758D01*
X5875809Y6501480D01*
X5875624Y6501388D01*
X5875162Y6501203D01*
X5874515Y6500741D01*
X5873590Y6500186D01*
X5872665Y6499539D01*
X5871648Y6498614D01*
X5870631Y6497505D01*
X5869799Y6496210D01*
X5869707Y6496025D01*
X5869429Y6495563D01*
X5869152Y6494731D01*
X5868782Y6493622D01*
X5868320Y6492327D01*
X5868043Y6490663D01*
X5867765Y6488906D01*
X5867673Y6486965D01*
Y6486040D01*
X5867765Y6485485D01*
Y6484653D01*
X5867858Y6483821D01*
X5868228Y6481787D01*
X5868690Y6479568D01*
X5869429Y6477442D01*
X5870446Y6475408D01*
X5871094Y6474483D01*
X5871833Y6473651D01*
X5871926Y6473559D01*
X5872018Y6473466D01*
X5872296Y6473281D01*
X5872665Y6473004D01*
X5873220Y6472726D01*
X5873775Y6472357D01*
X5874607Y6471987D01*
X5875439Y6471617D01*
X5876456Y6471247D01*
X5877658Y6470970D01*
X5879045Y6470600D01*
X5880524Y6470323D01*
X5882188Y6470045D01*
X5883945Y6469860D01*
X5885979Y6469675D01*
X5888106D01*
X5925088D01*
Y6461169D01*
X5888106D01*
X5888013D01*
X5887643D01*
X5887181D01*
X5886534D01*
X5885702Y6461262D01*
X5884777D01*
X5883668Y6461354D01*
X5882558Y6461447D01*
X5880062Y6461724D01*
X5877473Y6462094D01*
X5874977Y6462649D01*
X5873775Y6463019D01*
X5872665Y6463388D01*
X5872573D01*
X5872388Y6463481D01*
X5872111Y6463666D01*
X5871741Y6463851D01*
X5870724Y6464405D01*
X5869429Y6465238D01*
X5867950Y6466347D01*
X5866471Y6467641D01*
X5864899Y6469306D01*
X5863512Y6471340D01*
Y6471432D01*
X5863327Y6471617D01*
X5863235Y6471894D01*
X5862958Y6472357D01*
X5862680Y6472911D01*
X5862403Y6473651D01*
X5862125Y6474391D01*
X5861756Y6475315D01*
X5861386Y6476332D01*
X5861108Y6477442D01*
X5860831Y6478644D01*
X5860554Y6480030D01*
X5860369Y6481417D01*
X5860184Y6482897D01*
X5859999Y6486225D01*
Y6487057D01*
X5860091Y6487704D01*
Y6488444D01*
X5860184Y6489369D01*
X5860276Y6490386D01*
X5860369Y6491403D01*
X5860739Y6493714D01*
X5861293Y6496210D01*
X5862033Y6498614D01*
X5863050Y6500926D01*
Y6501018D01*
X5863235Y6501203D01*
X5863420Y6501480D01*
X5863605Y6501850D01*
X5864344Y6502867D01*
X5865361Y6504069D01*
X5866656Y6505456D01*
X5868135Y6506750D01*
X5869984Y6508045D01*
X5872018Y6509062D01*
X5872111D01*
X5872296Y6509154D01*
X5872665Y6509247D01*
X5873128Y6509431D01*
X5873682Y6509616D01*
X5874422Y6509801D01*
X5875254Y6510079D01*
X5876271Y6510264D01*
X5877381Y6510448D01*
X5878583Y6510726D01*
X5879877Y6510911D01*
X5881264Y6511096D01*
X5882836Y6511281D01*
X5884500Y6511373D01*
X5886256Y6511466D01*
X5888106D01*
X5925088D01*
Y6502960D01*
D02*
G37*
G36*
X5924256Y6408285D02*
X5918061D01*
X5917969Y6408377D01*
X5917784Y6408562D01*
X5917414Y6408932D01*
X5916859Y6409302D01*
X5916212Y6409856D01*
X5915473Y6410596D01*
X5914548Y6411336D01*
X5913439Y6412168D01*
X5912329Y6413000D01*
X5911035Y6414017D01*
X5909555Y6415034D01*
X5908076Y6416051D01*
X5906412Y6417160D01*
X5904655Y6418270D01*
X5902714Y6419379D01*
X5900772Y6420489D01*
X5900680Y6420581D01*
X5900310Y6420766D01*
X5899755Y6421044D01*
X5898923Y6421506D01*
X5897906Y6421968D01*
X5896796Y6422523D01*
X5895502Y6423170D01*
X5894023Y6423817D01*
X5892359Y6424557D01*
X5890694Y6425389D01*
X5888845Y6426129D01*
X5886904Y6426868D01*
X5882928Y6428348D01*
X5878675Y6429734D01*
X5878583D01*
X5878305Y6429827D01*
X5877843Y6429919D01*
X5877288Y6430104D01*
X5876549Y6430289D01*
X5875624Y6430474D01*
X5874607Y6430751D01*
X5873498Y6430936D01*
X5872203Y6431214D01*
X5870816Y6431491D01*
X5867858Y6431953D01*
X5864622Y6432416D01*
X5861108Y6432693D01*
Y6440737D01*
X5861201D01*
X5861478D01*
X5861848D01*
X5862403Y6440644D01*
X5863142D01*
X5864067Y6440552D01*
X5865084Y6440459D01*
X5866193Y6440367D01*
X5867488Y6440182D01*
X5868782Y6439997D01*
X5870354Y6439720D01*
X5871926Y6439442D01*
X5873590Y6439165D01*
X5875439Y6438795D01*
X5879230Y6437871D01*
X5879322D01*
X5879692Y6437778D01*
X5880247Y6437593D01*
X5881079Y6437316D01*
X5882003Y6437038D01*
X5883113Y6436669D01*
X5884407Y6436299D01*
X5885794Y6435744D01*
X5887366Y6435189D01*
X5888938Y6434635D01*
X5892451Y6433248D01*
X5896149Y6431584D01*
X5899847Y6429734D01*
X5899940Y6429642D01*
X5900310Y6429457D01*
X5900772Y6429180D01*
X5901512Y6428810D01*
X5902344Y6428348D01*
X5903361Y6427700D01*
X5904470Y6427053D01*
X5905672Y6426314D01*
X5908353Y6424557D01*
X5911127Y6422708D01*
X5913993Y6420581D01*
X5916674Y6418362D01*
Y6449705D01*
X5924256D01*
Y6408285D01*
D02*
G37*
G36*
X7238736Y4990880D02*
X7239476Y4990787D01*
X7240308Y4990695D01*
X7241325Y4990510D01*
X7242342Y4990325D01*
X7244746Y4989770D01*
X7247242Y4988845D01*
X7248537Y4988291D01*
X7249739Y4987551D01*
X7251033Y4986811D01*
X7252235Y4985887D01*
X7252327Y4985794D01*
X7252605Y4985610D01*
X7252975Y4985240D01*
X7253437Y4984777D01*
X7253992Y4984130D01*
X7254731Y4983391D01*
X7255378Y4982466D01*
X7256118Y4981449D01*
X7256858Y4980340D01*
X7257505Y4979045D01*
X7258152Y4977658D01*
X7258799Y4976179D01*
X7259262Y4974607D01*
X7259631Y4972851D01*
X7259909Y4971001D01*
X7260001Y4969060D01*
Y4968228D01*
X7259909Y4967581D01*
X7259816Y4966841D01*
X7259724Y4966009D01*
X7259631Y4964992D01*
X7259354Y4963975D01*
X7258799Y4961663D01*
X7257967Y4959352D01*
X7257412Y4958150D01*
X7256765Y4956948D01*
X7256026Y4955839D01*
X7255194Y4954729D01*
X7255101Y4954637D01*
X7255009Y4954452D01*
X7254639Y4954267D01*
X7254269Y4953897D01*
X7253807Y4953435D01*
X7253252Y4952973D01*
X7252512Y4952418D01*
X7251680Y4951956D01*
X7250848Y4951401D01*
X7249831Y4950846D01*
X7247612Y4949829D01*
X7245023Y4948997D01*
X7243637Y4948720D01*
X7242157Y4948535D01*
X7241510Y4956763D01*
X7241602D01*
X7241787D01*
X7242065Y4956856D01*
X7242527Y4956948D01*
X7243544Y4957226D01*
X7244931Y4957595D01*
X7246318Y4958150D01*
X7247889Y4958890D01*
X7249276Y4959814D01*
X7250571Y4960924D01*
X7250663Y4961109D01*
X7251033Y4961479D01*
X7251495Y4962218D01*
X7252050Y4963235D01*
X7252605Y4964345D01*
X7253067Y4965731D01*
X7253437Y4967303D01*
X7253529Y4969060D01*
Y4969615D01*
X7253437Y4969984D01*
X7253344Y4971094D01*
X7252975Y4972388D01*
X7252512Y4973960D01*
X7251773Y4975532D01*
X7250663Y4977196D01*
X7250016Y4977936D01*
X7249276Y4978675D01*
X7249184Y4978768D01*
X7249091Y4978860D01*
X7248814Y4979045D01*
X7248537Y4979323D01*
X7247520Y4979970D01*
X7246225Y4980709D01*
X7244654Y4981357D01*
X7242712Y4982004D01*
X7240401Y4982466D01*
X7239199Y4982651D01*
X7237904D01*
X7237812D01*
X7237627D01*
X7237257D01*
X7236795Y4982558D01*
X7236240D01*
X7235593Y4982466D01*
X7234114Y4982189D01*
X7232357Y4981726D01*
X7230600Y4981079D01*
X7228936Y4980155D01*
X7227364Y4978860D01*
X7227272D01*
X7227179Y4978675D01*
X7226717Y4978213D01*
X7226070Y4977381D01*
X7225330Y4976271D01*
X7224683Y4974792D01*
X7224036Y4973128D01*
X7223574Y4971186D01*
X7223389Y4970077D01*
Y4968320D01*
X7223481Y4967581D01*
X7223574Y4966656D01*
X7223851Y4965547D01*
X7224128Y4964437D01*
X7224591Y4963235D01*
X7225145Y4962033D01*
X7225238Y4961941D01*
X7225423Y4961571D01*
X7225885Y4961016D01*
X7226347Y4960277D01*
X7226994Y4959537D01*
X7227827Y4958797D01*
X7228659Y4957965D01*
X7229676Y4957318D01*
X7228659Y4949922D01*
X7195744Y4956116D01*
Y4987921D01*
X7203233D01*
Y4962311D01*
X7220523Y4958890D01*
X7220430Y4958982D01*
X7220338Y4959167D01*
X7220153Y4959444D01*
X7219875Y4959907D01*
X7219598Y4960462D01*
X7219228Y4961109D01*
X7218488Y4962588D01*
X7217749Y4964437D01*
X7217102Y4966471D01*
X7216639Y4968690D01*
X7216454Y4969800D01*
Y4971834D01*
X7216547Y4972388D01*
X7216639Y4973128D01*
X7216732Y4973960D01*
X7216917Y4974885D01*
X7217194Y4975902D01*
X7217841Y4978121D01*
X7218304Y4979323D01*
X7218951Y4980524D01*
X7219598Y4981726D01*
X7220338Y4982928D01*
X7221262Y4984038D01*
X7222279Y4985147D01*
X7222372Y4985240D01*
X7222557Y4985425D01*
X7222834Y4985702D01*
X7223296Y4986072D01*
X7223943Y4986534D01*
X7224591Y4986996D01*
X7225423Y4987551D01*
X7226347Y4988106D01*
X7227364Y4988568D01*
X7228474Y4989123D01*
X7229768Y4989585D01*
X7231063Y4990047D01*
X7232449Y4990417D01*
X7234021Y4990695D01*
X7235593Y4990880D01*
X7237257Y4990972D01*
X7237350D01*
X7237627D01*
X7238089D01*
X7238736Y4990880D01*
D02*
G37*
G36*
X7258892Y4920521D02*
X7208873D01*
X7208966Y4920428D01*
X7209335Y4919966D01*
X7209890Y4919411D01*
X7210537Y4918486D01*
X7211369Y4917469D01*
X7212294Y4916175D01*
X7213311Y4914696D01*
X7214328Y4913032D01*
Y4912939D01*
X7214420Y4912847D01*
X7214790Y4912292D01*
X7215253Y4911367D01*
X7215807Y4910258D01*
X7216454Y4908964D01*
X7217102Y4907577D01*
X7217749Y4906190D01*
X7218304Y4904803D01*
X7210722D01*
Y4904895D01*
X7210537Y4905080D01*
X7210445Y4905450D01*
X7210167Y4905912D01*
X7209890Y4906467D01*
X7209520Y4907114D01*
X7208596Y4908686D01*
X7207579Y4910535D01*
X7206284Y4912384D01*
X7204805Y4914326D01*
X7203233Y4916268D01*
X7203141Y4916360D01*
X7203048Y4916452D01*
X7202771Y4916730D01*
X7202494Y4917100D01*
X7201569Y4917932D01*
X7200460Y4919041D01*
X7199165Y4920151D01*
X7197686Y4921353D01*
X7196207Y4922370D01*
X7194635Y4923294D01*
Y4928379D01*
X7258892D01*
Y4920521D01*
D02*
G37*
G36*
X7239106Y4891489D02*
X7239661Y4891304D01*
X7240401Y4891027D01*
X7241233Y4890750D01*
X7242250Y4890380D01*
X7243359Y4889918D01*
X7244561Y4889363D01*
X7247150Y4888068D01*
X7249739Y4886404D01*
X7251033Y4885387D01*
X7252327Y4884370D01*
X7253437Y4883261D01*
X7254546Y4881966D01*
X7254639Y4881874D01*
X7254824Y4881689D01*
X7255009Y4881227D01*
X7255378Y4880764D01*
X7255841Y4880025D01*
X7256303Y4879285D01*
X7256765Y4878268D01*
X7257228Y4877251D01*
X7257782Y4876049D01*
X7258245Y4874755D01*
X7258707Y4873368D01*
X7259169Y4871889D01*
X7259539Y4870317D01*
X7259724Y4868653D01*
X7259909Y4866896D01*
X7260001Y4865047D01*
Y4864030D01*
X7259909Y4863290D01*
Y4862458D01*
X7259816Y4861441D01*
X7259631Y4860332D01*
X7259446Y4859037D01*
X7258984Y4856356D01*
X7258245Y4853582D01*
X7257228Y4850809D01*
X7256580Y4849514D01*
X7255841Y4848220D01*
X7255748Y4848127D01*
X7255656Y4847943D01*
X7255378Y4847573D01*
X7255009Y4847203D01*
X7254639Y4846648D01*
X7254084Y4846001D01*
X7253437Y4845261D01*
X7252697Y4844522D01*
X7251865Y4843782D01*
X7251033Y4842950D01*
X7248907Y4841286D01*
X7246410Y4839714D01*
X7243637Y4838327D01*
X7243544D01*
X7243267Y4838142D01*
X7242804Y4838050D01*
X7242250Y4837772D01*
X7241510Y4837587D01*
X7240585Y4837310D01*
X7239568Y4836940D01*
X7238459Y4836663D01*
X7237257Y4836386D01*
X7235870Y4836016D01*
X7233004Y4835553D01*
X7229768Y4835184D01*
X7226440Y4834999D01*
X7226347D01*
X7225977D01*
X7225423D01*
X7224775Y4835091D01*
X7223851D01*
X7222926Y4835184D01*
X7221724Y4835276D01*
X7220523Y4835461D01*
X7217841Y4835923D01*
X7214883Y4836570D01*
X7211924Y4837495D01*
X7209058Y4838789D01*
X7208966Y4838882D01*
X7208688Y4838974D01*
X7208318Y4839159D01*
X7207856Y4839529D01*
X7207209Y4839899D01*
X7206469Y4840361D01*
X7204805Y4841563D01*
X7202956Y4843135D01*
X7201107Y4844984D01*
X7199258Y4847110D01*
X7197686Y4849607D01*
X7197593Y4849699D01*
X7197501Y4849977D01*
X7197316Y4850346D01*
X7197039Y4850809D01*
X7196761Y4851548D01*
X7196484Y4852288D01*
X7196114Y4853213D01*
X7195744Y4854230D01*
X7195374Y4855339D01*
X7195005Y4856541D01*
X7194450Y4859130D01*
X7193988Y4862088D01*
X7193803Y4865139D01*
Y4866064D01*
X7193895Y4866711D01*
X7193988Y4867543D01*
X7194080Y4868560D01*
X7194173Y4869577D01*
X7194450Y4870779D01*
X7195005Y4873275D01*
X7195837Y4876049D01*
X7196392Y4877436D01*
X7197039Y4878730D01*
X7197871Y4880025D01*
X7198703Y4881319D01*
X7198795Y4881412D01*
X7198888Y4881597D01*
X7199165Y4881966D01*
X7199627Y4882429D01*
X7200090Y4882891D01*
X7200737Y4883538D01*
X7201477Y4884185D01*
X7202216Y4884925D01*
X7203141Y4885665D01*
X7204250Y4886404D01*
X7205360Y4887236D01*
X7206562Y4887976D01*
X7207948Y4888623D01*
X7209335Y4889363D01*
X7210815Y4889918D01*
X7212479Y4890472D01*
X7214420Y4882151D01*
X7214328D01*
X7214143Y4882059D01*
X7213773Y4881874D01*
X7213311Y4881689D01*
X7212756Y4881504D01*
X7212017Y4881227D01*
X7210537Y4880487D01*
X7208873Y4879563D01*
X7207209Y4878453D01*
X7205637Y4877066D01*
X7204250Y4875587D01*
X7204065Y4875402D01*
X7203696Y4874847D01*
X7203233Y4873923D01*
X7202586Y4872721D01*
X7202031Y4871149D01*
X7201477Y4869392D01*
X7201107Y4867266D01*
X7201014Y4864954D01*
Y4864215D01*
X7201107Y4863753D01*
Y4863105D01*
X7201199Y4862366D01*
X7201477Y4860609D01*
X7201846Y4858667D01*
X7202494Y4856633D01*
X7203418Y4854507D01*
X7204620Y4852565D01*
Y4852473D01*
X7204805Y4852380D01*
X7205267Y4851733D01*
X7206007Y4850901D01*
X7207116Y4849884D01*
X7208503Y4848682D01*
X7210075Y4847573D01*
X7212017Y4846556D01*
X7214143Y4845631D01*
X7214236D01*
X7214420Y4845539D01*
X7214698Y4845446D01*
X7215160Y4845354D01*
X7215715Y4845169D01*
X7216362Y4844984D01*
X7217934Y4844707D01*
X7219783Y4844337D01*
X7221817Y4843967D01*
X7224036Y4843782D01*
X7226440Y4843690D01*
X7226532D01*
X7226810D01*
X7227272D01*
X7227827D01*
X7228474Y4843782D01*
X7229306D01*
X7230230Y4843874D01*
X7231247Y4843967D01*
X7233466Y4844244D01*
X7235870Y4844707D01*
X7238274Y4845261D01*
X7240678Y4846001D01*
X7240770D01*
X7240955Y4846093D01*
X7241233Y4846278D01*
X7241695Y4846463D01*
X7242804Y4847018D01*
X7244099Y4847850D01*
X7245578Y4848867D01*
X7247150Y4850161D01*
X7248537Y4851641D01*
X7249831Y4853397D01*
Y4853490D01*
X7249924Y4853675D01*
X7250108Y4853952D01*
X7250293Y4854322D01*
X7250478Y4854784D01*
X7250756Y4855339D01*
X7251310Y4856633D01*
X7251865Y4858298D01*
X7252327Y4860147D01*
X7252697Y4862181D01*
X7252790Y4864307D01*
Y4864954D01*
X7252697Y4865509D01*
Y4866156D01*
X7252605Y4866804D01*
X7252235Y4868468D01*
X7251773Y4870409D01*
X7251033Y4872351D01*
X7250016Y4874385D01*
X7249461Y4875402D01*
X7248722Y4876327D01*
X7248629Y4876419D01*
X7248537Y4876511D01*
X7248259Y4876789D01*
X7247982Y4877159D01*
X7247520Y4877528D01*
X7246965Y4877991D01*
X7246410Y4878545D01*
X7245671Y4879008D01*
X7244838Y4879563D01*
X7243914Y4880210D01*
X7242989Y4880764D01*
X7241880Y4881319D01*
X7240678Y4881781D01*
X7239384Y4882244D01*
X7237997Y4882706D01*
X7236517Y4883076D01*
X7238644Y4891582D01*
X7238736D01*
X7239106Y4891489D01*
D02*
G37*
D60*
X5705000Y6680000D02*
X6015000D01*
X5705000Y6342929D02*
Y6680000D01*
Y6342929D02*
X6015000D01*
Y6680000D01*
%TF.MD5,b7c486f795dbebae85e16bc27178f163*%
M02*
