%TF.GenerationSoftware,Altium Limited,Altium Designer,24.5.1 (21)*%
G04 Layer_Physical_Order=1*
G04 Layer_Color=255*
%FSLAX45Y45*%
%MOMM*%
%TF.SameCoordinates,583913BB-816E-4693-BEF2-A62C45BB8311*%
%TF.FilePolarity,Positive*%
%TF.FileFunction,Copper,L1,Top,Signal*%
%TF.Part,Single*%
G01*
G75*
%TA.AperFunction,SMDPad,CuDef*%
%ADD10C,1.00000*%
%ADD11R,0.95000X0.80000*%
%ADD12R,1.00000X0.80000*%
G04:AMPARAMS|DCode=13|XSize=1.03828mm|YSize=0.53796mm|CornerRadius=0.26898mm|HoleSize=0mm|Usage=FLASHONLY|Rotation=270.000|XOffset=0mm|YOffset=0mm|HoleType=Round|Shape=RoundedRectangle|*
%AMROUNDEDRECTD13*
21,1,1.03828,0.00000,0,0,270.0*
21,1,0.50032,0.53796,0,0,270.0*
1,1,0.53796,0.00000,-0.25016*
1,1,0.53796,0.00000,0.25016*
1,1,0.53796,0.00000,0.25016*
1,1,0.53796,0.00000,-0.25016*
%
%ADD13ROUNDEDRECTD13*%
%ADD14R,0.53796X1.03828*%
%ADD15R,0.80000X1.00000*%
%ADD16R,3.40360X2.71780*%
%ADD17R,0.55880X1.46050*%
%ADD18R,1.50000X0.90000*%
%ADD19R,1.50000X1.30000*%
%ADD20R,1.30000X1.50000*%
%ADD21R,0.90000X1.50000*%
%ADD22R,0.80000X0.95000*%
%ADD23R,0.57658X0.35154*%
%ADD24R,0.35154X0.57658*%
G04:AMPARAMS|DCode=25|XSize=0.95mm|YSize=0.8mm|CornerRadius=0mm|HoleSize=0mm|Usage=FLASHONLY|Rotation=45.000|XOffset=0mm|YOffset=0mm|HoleType=Round|Shape=Rectangle|*
%AMROTATEDRECTD25*
4,1,4,-0.05303,-0.61872,-0.61872,-0.05303,0.05303,0.61872,0.61872,0.05303,-0.05303,-0.61872,0.0*
%
%ADD25ROTATEDRECTD25*%

G04:AMPARAMS|DCode=26|XSize=0.95mm|YSize=0.8mm|CornerRadius=0mm|HoleSize=0mm|Usage=FLASHONLY|Rotation=135.000|XOffset=0mm|YOffset=0mm|HoleType=Round|Shape=Rectangle|*
%AMROTATEDRECTD26*
4,1,4,0.61872,-0.05303,0.05303,-0.61872,-0.61872,0.05303,-0.05303,0.61872,0.61872,-0.05303,0.0*
%
%ADD26ROTATEDRECTD26*%

G04:AMPARAMS|DCode=27|XSize=0.3mm|YSize=1.6mm|CornerRadius=0mm|HoleSize=0mm|Usage=FLASHONLY|Rotation=315.000|XOffset=0mm|YOffset=0mm|HoleType=Round|Shape=Round|*
%AMOVALD27*
21,1,1.30000,0.30000,0.00000,0.00000,45.0*
1,1,0.30000,-0.45962,-0.45962*
1,1,0.30000,0.45962,0.45962*
%
%ADD27OVALD27*%

G04:AMPARAMS|DCode=28|XSize=0.3mm|YSize=1.6mm|CornerRadius=0mm|HoleSize=0mm|Usage=FLASHONLY|Rotation=225.000|XOffset=0mm|YOffset=0mm|HoleType=Round|Shape=Round|*
%AMOVALD28*
21,1,1.30000,0.30000,0.00000,0.00000,315.0*
1,1,0.30000,-0.45962,0.45962*
1,1,0.30000,0.45962,-0.45962*
%
%ADD28OVALD28*%

%TA.AperFunction,SMDPad,SMDef*%
%ADD29R,0.50000X0.60000*%
%ADD30R,2.00000X1.20000*%
%TA.AperFunction,SMDPad,CuDef*%
G04:AMPARAMS|DCode=31|XSize=0.9mm|YSize=1.75mm|CornerRadius=0.0495mm|HoleSize=0mm|Usage=FLASHONLY|Rotation=270.000|XOffset=0mm|YOffset=0mm|HoleType=Round|Shape=RoundedRectangle|*
%AMROUNDEDRECTD31*
21,1,0.90000,1.65100,0,0,270.0*
21,1,0.80100,1.75000,0,0,270.0*
1,1,0.09900,-0.82550,-0.40050*
1,1,0.09900,-0.82550,0.40050*
1,1,0.09900,0.82550,0.40050*
1,1,0.09900,0.82550,-0.40050*
%
%ADD31ROUNDEDRECTD31*%
G04:AMPARAMS|DCode=32|XSize=3.2mm|YSize=1.75mm|CornerRadius=0.0525mm|HoleSize=0mm|Usage=FLASHONLY|Rotation=270.000|XOffset=0mm|YOffset=0mm|HoleType=Round|Shape=RoundedRectangle|*
%AMROUNDEDRECTD32*
21,1,3.20000,1.64500,0,0,270.0*
21,1,3.09500,1.75000,0,0,270.0*
1,1,0.10500,-0.82250,-1.54750*
1,1,0.10500,-0.82250,1.54750*
1,1,0.10500,0.82250,1.54750*
1,1,0.10500,0.82250,-1.54750*
%
%ADD32ROUNDEDRECTD32*%
%ADD33R,1.30000X0.70000*%
%ADD34R,0.90000X0.95000*%
%ADD35R,0.95000X0.90000*%
%TA.AperFunction,Conductor*%
%ADD36C,0.40000*%
%ADD37C,0.30000*%
%ADD38C,0.20000*%
%ADD39C,0.80000*%
%ADD40C,0.50000*%
%ADD41C,0.60000*%
%TA.AperFunction,ComponentPad*%
%ADD42P,2.26274X4X370.0*%
%ADD43C,1.80000*%
%ADD44C,1.60000*%
%ADD45R,3.75000X3.75000*%
%ADD46R,3.00000X3.00000*%
%ADD47C,1.52400*%
%ADD48C,1.40800*%
%ADD49R,1.77800X1.77800*%
%ADD50P,2.26274X4X80.0*%
%ADD51R,1.60000X1.60000*%
%ADD52R,1.60000X1.60000*%
%TA.AperFunction,ViaPad*%
%ADD53C,0.70000*%
%ADD54C,0.50000*%
%ADD55C,0.60000*%
G36*
X920000Y4952500D02*
X650000D01*
Y6112500D01*
X750000Y6212500D01*
X920000D01*
Y4952500D01*
D02*
G37*
G36*
X3139766Y4213193D02*
X3269767D01*
X3299767Y4243193D01*
X3569767D01*
Y4013193D01*
X3519767Y3963193D01*
X2959766Y3963193D01*
X2919766Y4003193D01*
X2919767Y4243193D01*
X2929767Y4253193D01*
X3099766D01*
X3139766Y4213193D01*
D02*
G37*
G36*
X4730000Y4210000D02*
X4860000D01*
X4890000Y4240000D01*
X5160000D01*
Y4010000D01*
X5110000Y3960000D01*
X4550000Y3960000D01*
X4509999Y4000000D01*
X4510000Y4240000D01*
X4520000Y4250000D01*
X4690000D01*
X4730000Y4210000D01*
D02*
G37*
G36*
X5130000Y5670000D02*
Y5350000D01*
X5080000Y5300000D01*
X4830000D01*
X4780000Y5350000D01*
Y5690000D01*
X4820000Y5730000D01*
X5070000Y5730000D01*
X5130000Y5670000D01*
D02*
G37*
G36*
X6440000Y5760000D02*
X6370000D01*
X6340000Y5790000D01*
X6030000D01*
X6010000Y5810000D01*
Y5950000D01*
X6080000Y6020000D01*
X6440000D01*
Y5760000D01*
D02*
G37*
G36*
X6020000Y5730000D02*
X6370000D01*
X6380000Y5720000D01*
Y5660000D01*
X6340000D01*
X6330000Y5650000D01*
Y5520000D01*
X6340000Y5510000D01*
X6380000D01*
Y5450000D01*
X6370000Y5440000D01*
X6310000D01*
X6290000Y5420000D01*
Y5220000D01*
X6260000Y5190000D01*
X6120000D01*
X6090000Y5160000D01*
Y5060000D01*
X6130000Y5020000D01*
X6270000D01*
X6290000Y5000000D01*
Y4850000D01*
X6280000Y4840000D01*
X6070000D01*
X5990000Y4920000D01*
Y5490000D01*
X5850000Y5630000D01*
X5600000Y5630000D01*
X5560000Y5670000D01*
Y5870000D01*
X5562300Y5872300D01*
X5877700D01*
X6020000Y5730000D01*
D02*
G37*
G36*
X7174997Y6059440D02*
X7171513Y6051031D01*
X7168745Y6030000D01*
X7171513Y6008970D01*
X7179631Y5989373D01*
X7192544Y5972544D01*
X7209372Y5959631D01*
X7228970Y5951514D01*
X7250000Y5948745D01*
X7271030Y5951514D01*
X7290628Y5959631D01*
X7307456Y5972544D01*
X7320369Y5989373D01*
X7323971Y5998069D01*
X7338952Y6001049D01*
X7520004Y5819997D01*
X7520000Y4870000D01*
X7020000D01*
X6920000Y4970000D01*
X6919999Y5670000D01*
X6860000Y5730000D01*
X6720000D01*
X6650000Y5660000D01*
X6460000D01*
Y5720000D01*
X6461765Y5721765D01*
X6470000Y6010000D01*
Y6040000D01*
X6500000Y6070000D01*
X7167941D01*
X7174997Y6059440D01*
D02*
G37*
%LPC*%
G36*
X7250000Y5611255D02*
X7228970Y5608487D01*
X7209372Y5600369D01*
X7192544Y5587456D01*
X7179631Y5570628D01*
X7171513Y5551031D01*
X7168745Y5530000D01*
X7171513Y5508970D01*
X7179631Y5489373D01*
X7192544Y5472544D01*
X7209372Y5459631D01*
X7228970Y5451514D01*
X7250000Y5448745D01*
X7271030Y5451514D01*
X7290628Y5459631D01*
X7307456Y5472544D01*
X7320369Y5489373D01*
X7328486Y5508970D01*
X7331255Y5530000D01*
X7328486Y5551031D01*
X7320369Y5570628D01*
X7307456Y5587456D01*
X7290628Y5600369D01*
X7271030Y5608487D01*
X7250000Y5611255D01*
D02*
G37*
%LPD*%
D10*
X5230000Y6790000D02*
D03*
X6200000Y6290000D02*
D03*
X4270000Y5300000D02*
D03*
X4512654Y5307654D02*
D03*
X4270000Y7550000D02*
D03*
X4160000Y5440000D02*
D03*
X4390000D02*
D03*
X3670000Y3840000D02*
D03*
X3920000Y3860000D02*
D03*
X5510000Y3880000D02*
D03*
X5260000D02*
D03*
X5307653Y6670700D02*
D03*
X2546646Y6899692D02*
D03*
X3180000Y7370000D02*
D03*
X3610000Y7650000D02*
D03*
X3670000Y5240000D02*
D03*
X3800000Y5430000D02*
D03*
X3930000Y5240000D02*
D03*
X5360000Y5050000D02*
D03*
X5110000D02*
D03*
X7030000Y5260000D02*
D03*
X4929800Y5512300D02*
D03*
X5870000Y5740000D02*
D03*
X5484753Y6913172D02*
D03*
X5660000Y7010000D02*
D03*
X5789050Y7190200D02*
D03*
X4640000Y7550000D02*
D03*
X2150000Y5450000D02*
D03*
Y5610000D02*
D03*
Y5760000D02*
D03*
X3320000Y5840000D02*
D03*
X3370000Y6020000D02*
D03*
X3440000Y6240000D02*
D03*
X3168463Y6238463D02*
D03*
X2160000Y5920000D02*
D03*
X2150000Y6080000D02*
D03*
Y6250000D02*
D03*
D11*
X5988000Y6231465D02*
D03*
X5832000D02*
D03*
X2712000Y5580000D02*
D03*
X2868000D02*
D03*
X5665300Y6012300D02*
D03*
X5509300D02*
D03*
D12*
X5580000Y6610000D02*
D03*
Y6450000D02*
D03*
X6140000Y6600000D02*
D03*
Y6440000D02*
D03*
X6327438Y6595100D02*
D03*
Y6755101D02*
D03*
D13*
X5955000Y6404843D02*
D03*
X5765000D02*
D03*
Y6618086D02*
D03*
X5860000D02*
D03*
D14*
X5955000D02*
D03*
D15*
X6636940Y6169998D02*
D03*
X6476940D02*
D03*
X6990000Y6170000D02*
D03*
X6830000D02*
D03*
X6170000Y7000000D02*
D03*
X6010000D02*
D03*
X4474200Y7835900D02*
D03*
X4314200D02*
D03*
X2130000Y6900000D02*
D03*
X2290000D02*
D03*
X5680000Y4980000D02*
D03*
X5520000D02*
D03*
X4091100Y4990610D02*
D03*
X3931100D02*
D03*
X6407300Y4932300D02*
D03*
X6247300D02*
D03*
Y5282300D02*
D03*
X6407300D02*
D03*
X6407299Y5109707D02*
D03*
X6247299D02*
D03*
X1548300Y5125600D02*
D03*
X1708300D02*
D03*
X1705400Y5926000D02*
D03*
X1545400D02*
D03*
X1548300Y4974767D02*
D03*
X1708300D02*
D03*
X1548299Y5276391D02*
D03*
X1708300D02*
D03*
X1705400Y6086123D02*
D03*
X1545400D02*
D03*
X1705400Y6246134D02*
D03*
X1545400D02*
D03*
X1705400Y5766000D02*
D03*
X1545400D02*
D03*
X1705400Y5606000D02*
D03*
X1545400D02*
D03*
X1705400Y5446000D02*
D03*
X1545400D02*
D03*
D16*
X3731100Y4440610D02*
D03*
X5320000Y4440000D02*
D03*
D17*
X3921600Y4168195D02*
D03*
X3794600D02*
D03*
X3667600D02*
D03*
X3540600D02*
D03*
Y4713025D02*
D03*
X3667600D02*
D03*
X3794600D02*
D03*
X3921600D02*
D03*
X5510500Y4167585D02*
D03*
X5383500D02*
D03*
X5256500D02*
D03*
X5129500D02*
D03*
Y4712415D02*
D03*
X5256500D02*
D03*
X5383500D02*
D03*
X5510500D02*
D03*
D18*
X5314300Y370000D02*
D03*
Y570000D02*
D03*
X1849001Y6481171D02*
D03*
Y6681171D02*
D03*
X4070000Y8050000D02*
D03*
Y8250000D02*
D03*
X7010000Y6457439D02*
D03*
Y6657440D02*
D03*
X7010000Y6900000D02*
D03*
Y7100000D02*
D03*
X5977313Y7648968D02*
D03*
Y7848968D02*
D03*
X1861700Y7075200D02*
D03*
Y7275200D02*
D03*
X5740000Y7640000D02*
D03*
Y7440000D02*
D03*
D19*
X6108700Y5867400D02*
D03*
Y5664200D02*
D03*
X3029100Y4380010D02*
D03*
Y4176810D02*
D03*
X4611800Y4379400D02*
D03*
Y4176200D02*
D03*
D20*
X6362700Y5930900D02*
D03*
X6565900D02*
D03*
D21*
X4050000Y8500000D02*
D03*
X4250000D02*
D03*
D22*
X2720000Y5812000D02*
D03*
Y5968000D02*
D03*
X4820000Y4318000D02*
D03*
Y4162000D02*
D03*
X4820000Y4562000D02*
D03*
Y4718000D02*
D03*
X3219600Y4318310D02*
D03*
Y4162310D02*
D03*
X3221100Y4562610D02*
D03*
Y4718610D02*
D03*
X6790000Y5638000D02*
D03*
Y5482000D02*
D03*
X5917300Y5430300D02*
D03*
Y5274300D02*
D03*
D23*
X3167555Y5916445D02*
D03*
Y5866445D02*
D03*
Y5816446D02*
D03*
X2976295D02*
D03*
Y5866445D02*
D03*
Y5916445D02*
D03*
D24*
X3146925Y5745415D02*
D03*
X3096925D02*
D03*
X3046925D02*
D03*
X2996925D02*
D03*
Y5987475D02*
D03*
X3046925D02*
D03*
X3096925D02*
D03*
X3146925D02*
D03*
D25*
X3446754Y7267954D02*
D03*
X3336446Y7157646D02*
D03*
X3551754Y7152954D02*
D03*
X3441446Y7042646D02*
D03*
X5204846Y6314846D02*
D03*
X5315154Y6425154D02*
D03*
X4004854Y7675154D02*
D03*
X3894546Y7564846D02*
D03*
D26*
X4004846Y5885154D02*
D03*
X4115154Y5774846D02*
D03*
X4936754Y7490146D02*
D03*
X4826446Y7600454D02*
D03*
X5184254Y7175146D02*
D03*
X5073946Y7285454D02*
D03*
X5056754Y7617646D02*
D03*
X4946446Y7727954D02*
D03*
D27*
X5029810Y6880925D02*
D03*
X4994455Y6916280D02*
D03*
X4959100Y6951635D02*
D03*
X4923745Y6986990D02*
D03*
X4888389Y7022346D02*
D03*
X4853034Y7057701D02*
D03*
X4817678Y7093056D02*
D03*
X4782323Y7128412D02*
D03*
X4746968Y7163767D02*
D03*
X4711613Y7199123D02*
D03*
X4676257Y7234478D02*
D03*
X4640902Y7269833D02*
D03*
X4605547Y7305188D02*
D03*
X4570191Y7340544D02*
D03*
X4534836Y7375899D02*
D03*
X4499480Y7411254D02*
D03*
X3679236Y6591011D02*
D03*
X3714592Y6555655D02*
D03*
X3749947Y6520300D02*
D03*
X3785303Y6484945D02*
D03*
X3820658Y6449589D02*
D03*
X3856013Y6414234D02*
D03*
X3891369Y6378879D02*
D03*
X3926724Y6343523D02*
D03*
X3962079Y6308168D02*
D03*
X3997435Y6272812D02*
D03*
X4032790Y6237457D02*
D03*
X4068145Y6202102D02*
D03*
X4103501Y6166747D02*
D03*
X4138856Y6131391D02*
D03*
X4174211Y6096036D02*
D03*
X4209567Y6060681D02*
D03*
D28*
Y7411254D02*
D03*
X4174211Y7375899D02*
D03*
X4138856Y7340544D02*
D03*
X4103501Y7305188D02*
D03*
X4068145Y7269833D02*
D03*
X4032790Y7234478D02*
D03*
X3997435Y7199123D02*
D03*
X3962079Y7163767D02*
D03*
X3926724Y7128412D02*
D03*
X3891369Y7093056D02*
D03*
X3856013Y7057701D02*
D03*
X3820658Y7022346D02*
D03*
X3785303Y6986990D02*
D03*
X3749947Y6951635D02*
D03*
X3714592Y6916280D02*
D03*
X3679236Y6880924D02*
D03*
X4499480Y6060681D02*
D03*
X4534836Y6096036D02*
D03*
X4570191Y6131391D02*
D03*
X4605547Y6166747D02*
D03*
X4640902Y6202102D02*
D03*
X4676257Y6237457D02*
D03*
X4711613Y6272812D02*
D03*
X4746968Y6308168D02*
D03*
X4782323Y6343523D02*
D03*
X4817678Y6378879D02*
D03*
X4853034Y6414234D02*
D03*
X4888389Y6449589D02*
D03*
X4923745Y6484945D02*
D03*
X4959100Y6520300D02*
D03*
X4994455Y6555655D02*
D03*
X5029810Y6591010D02*
D03*
D29*
X6549800Y5687300D02*
D03*
X6484800D02*
D03*
X6419800D02*
D03*
X6354800D02*
D03*
Y5477300D02*
D03*
X6419800D02*
D03*
X6484800D02*
D03*
X6549800D02*
D03*
D30*
X6452300Y5582300D02*
D03*
D31*
X5667300Y5282300D02*
D03*
Y5512300D02*
D03*
Y5742300D02*
D03*
D32*
X5042300Y5512300D02*
D03*
D33*
X847900Y5946000D02*
D03*
Y6056000D02*
D03*
Y6166000D02*
D03*
X1142900D02*
D03*
Y6056000D02*
D03*
Y5946000D02*
D03*
X847900Y5486000D02*
D03*
Y5596000D02*
D03*
Y5706000D02*
D03*
X1142900D02*
D03*
Y5596000D02*
D03*
Y5486000D02*
D03*
X847900Y5015600D02*
D03*
Y5125600D02*
D03*
Y5235600D02*
D03*
X1142900D02*
D03*
Y5125600D02*
D03*
Y5015600D02*
D03*
D34*
X2096900Y6679500D02*
D03*
X2191900Y6429500D02*
D03*
X2286900Y6679500D02*
D03*
X4489200Y8003000D02*
D03*
X4394200Y8253000D02*
D03*
X4299200Y8003000D02*
D03*
X6178300Y7190200D02*
D03*
X6083300Y7440200D02*
D03*
X5988300Y7190200D02*
D03*
D35*
X6555000Y6565000D02*
D03*
X6805000Y6660000D02*
D03*
X6555000Y6755000D02*
D03*
D36*
X5680000Y4830000D02*
Y4980000D01*
X5431150Y5281150D02*
X5668450D01*
X3221100Y4718610D02*
X3222100Y4719610D01*
X4095550Y4844450D02*
X4100000Y4840000D01*
X4095550Y4844450D02*
Y4986160D01*
X4091100Y4990610D02*
X4095550Y4986160D01*
X3371100Y4720610D02*
X3533015D01*
X3370100Y4719610D02*
X3371100Y4720610D01*
X3222100Y4719610D02*
X3370100D01*
X3533015Y4720610D02*
X3540600Y4713025D01*
X5668450Y5281150D02*
X5671300Y5278300D01*
X5430000Y5280000D02*
X5431150Y5281150D01*
X4969000Y4719000D02*
X4970000Y4720000D01*
X4821000Y4719000D02*
X4969000D01*
X4970000Y4720000D02*
X5121915D01*
X5129500Y4712415D01*
X4820000Y4718000D02*
X4821000Y4719000D01*
X5431150Y5511150D02*
X5666150D01*
X5667300Y5512300D01*
X5430000Y5510000D02*
X5431150Y5511150D01*
X4116754Y5776754D02*
X4119666Y5773842D01*
X4116754Y5762646D02*
Y5776754D01*
X5144300Y570000D02*
X5314300D01*
X4176600Y5816601D02*
Y5890300D01*
X4001142Y5921142D02*
X4070000Y5990000D01*
X5665300Y5744300D02*
X5667300Y5742300D01*
X5665300Y5744300D02*
Y6012300D01*
X3546451Y7119366D02*
Y7147651D01*
Y7119366D02*
X3602187Y7063631D01*
X3546451Y7147651D02*
X3551754Y7152954D01*
X3602187Y7047213D02*
Y7063631D01*
Y7047213D02*
X3604100Y7045300D01*
X3516600Y6962800D02*
Y6965145D01*
X3441446Y7040300D02*
Y7042646D01*
Y7040300D02*
X3516600Y6965145D01*
X3336446Y7152645D02*
X3441446Y7047645D01*
X3336446Y7152645D02*
Y7157646D01*
X3441446Y7042646D02*
Y7047645D01*
X4833513Y7399713D02*
X4846322D01*
X4831600Y7397800D02*
X4833513Y7399713D01*
X4846322D02*
X4936754Y7490146D01*
Y7493895D02*
X5056754Y7613895D01*
Y7617646D01*
X4936754Y7490146D02*
Y7493895D01*
X6691913Y5621913D02*
X6773913D01*
X6790000Y5638000D01*
X6690000Y5620000D02*
X6691913Y5621913D01*
X6362700Y5817300D02*
X6419800Y5760200D01*
X6362700Y5817300D02*
Y5930900D01*
X6419800Y5687300D02*
Y5760200D01*
X5171600Y6487800D02*
X5173513Y6485887D01*
X5119100Y6412800D02*
X5121013Y6410887D01*
Y6398678D02*
X5204846Y6314846D01*
X5121013Y6398678D02*
Y6410887D01*
X5295198Y6425154D02*
X5315154D01*
X5234466Y6485887D02*
X5295198Y6425154D01*
X5173513Y6485887D02*
X5234466D01*
X4133842Y5773842D02*
X4176600Y5816601D01*
X4133842Y5773842D02*
X4133842Y5773842D01*
X4119666D02*
X4133842D01*
X5835300Y5512300D02*
X5889800Y5457800D01*
X5897300D02*
X5917300Y5437800D01*
X5889800Y5457800D02*
X5897300D01*
X5667300Y5512300D02*
X5835300D01*
X5917300Y5430300D02*
Y5437800D01*
X5671300Y5278300D02*
X5913300D01*
X5917300Y5274300D01*
X6138597Y5111003D02*
X6246002D01*
X6247299Y5109707D01*
X6137300Y5112300D02*
X6138597Y5111003D01*
D37*
X3520000Y5630000D02*
Y5866088D01*
X3290000Y5400000D02*
X3520000Y5630000D01*
X2360000Y5400000D02*
X3290000D01*
X7010000Y6340000D02*
X7040000Y6310000D01*
X7010000Y6340000D02*
Y6457439D01*
X7040000Y6310000D02*
X7100000D01*
X7100000Y6310000D01*
X7600000D01*
X5930000Y6080000D02*
X5988000Y6138000D01*
X5930000Y5667866D02*
Y6080000D01*
X6350000Y6170000D02*
X6476938D01*
X6476940Y6169998D01*
X5988000Y6138000D02*
Y6231465D01*
X6560000Y6430000D02*
Y6560000D01*
X6555000Y6565000D02*
X6560000Y6560000D01*
X7007439Y6660000D02*
X7010000Y6657440D01*
X6805000Y6660000D02*
X7007439D01*
X6324888Y6592550D02*
X6327438Y6595100D01*
X6540000Y6580000D02*
X6555000Y6565000D01*
X6327438Y6595100D02*
X6342538Y6580000D01*
X6540000D01*
X6332438Y6750100D02*
X6507100D01*
X6327438Y6755101D02*
X6332438Y6750100D01*
X6890000Y6000000D02*
X6890000Y6000000D01*
X6980000Y6880000D02*
X7620000D01*
X5176887Y6926887D02*
X5180000Y6930000D01*
X5075772Y6926887D02*
X5176887D01*
X3420000Y5836799D02*
X3926724Y6343523D01*
X3420000Y5660000D02*
Y5836799D01*
X3250000Y5490000D02*
X3420000Y5660000D01*
X3520000Y5866088D02*
X3962079Y6308168D01*
X3610000Y5590000D02*
Y5885378D01*
X3997435Y6272812D01*
X3323500Y5303500D02*
X3610000Y5590000D01*
X2712103Y5960000D02*
X2850000D01*
X2420000Y5490000D02*
X3250000D01*
X1713067Y4970000D02*
X2150000D01*
X1708300Y5125600D02*
X1713900Y5120000D01*
X2150000D01*
X1724690Y5260000D02*
X2150000D01*
X1708300Y5276391D02*
X1724690Y5260000D01*
X2150000Y5610000D02*
X2360000Y5400000D01*
X1709266Y6250000D02*
X2150000D01*
X1705400Y6246134D02*
X1709266Y6250000D01*
X1705400Y6086123D02*
X1711524Y6080000D01*
X2150000D01*
X1711400Y5920000D02*
X2160000D01*
X1705400Y5926000D02*
X1711400Y5920000D01*
X1705400Y5766000D02*
X1711400Y5760000D01*
X2150000D01*
X1705400Y5606000D02*
X1709400Y5610000D01*
X2150000D01*
X1709400Y5450000D02*
X2150000D01*
X1705400Y5446000D02*
X1709400Y5450000D01*
X2150000D02*
X2296500Y5303500D01*
X3323500D01*
X2160000Y5920000D02*
X2490000D01*
X2150000Y6080000D02*
X2480000D01*
X2150000Y6250000D02*
X2440000D01*
X2207800Y5702199D02*
X2420000Y5490000D01*
X2207800Y5702199D02*
Y5702200D01*
X2150000Y5760000D02*
X2207800Y5702200D01*
X5029810Y6880925D02*
X5075772Y6926887D01*
X1978830Y6481171D02*
X2050000Y6410000D01*
X2172400D01*
X1849001Y6481171D02*
X1978830D01*
X2172400Y6410000D02*
X2191900Y6429500D01*
X4140000Y5932312D02*
X4176600Y5895712D01*
X4140000Y5932312D02*
Y5991114D01*
X4176600Y5890300D02*
Y5895712D01*
X5467925Y7640000D02*
X5740000D01*
X5320885Y7787040D02*
X5467925Y7640000D01*
X5740000Y7450000D02*
X5749800Y7440200D01*
X6083300D01*
X1386900Y5015600D02*
X1427733Y4974767D01*
X1142900Y5015600D02*
X1386900D01*
X1427733Y4974767D02*
X1548300D01*
X1142900Y5125600D02*
X1548300D01*
X1363100Y5235600D02*
X1403891Y5276391D01*
X1142900Y5235600D02*
X1363100D01*
X1403891Y5276391D02*
X1548299D01*
X1353500Y6166000D02*
X1433634Y6246134D01*
X1142900Y6166000D02*
X1353500D01*
X1433634Y6246134D02*
X1545400D01*
X1353500Y6056000D02*
X1383623Y6086123D01*
X1142900Y6056000D02*
X1353500D01*
X1383623Y6086123D02*
X1545400D01*
X1142900Y5946000D02*
X1366500D01*
X1386500Y5926000D01*
X1545400D01*
X1313500Y5706000D02*
X1373500Y5766000D01*
X1142900Y5706000D02*
X1313500D01*
X1373500Y5766000D02*
X1545400D01*
X1142900Y5596000D02*
X1535400D01*
X1545400Y5606000D01*
X1376500Y5486000D02*
X1416500Y5446000D01*
X1142900Y5486000D02*
X1376500D01*
X1416500Y5446000D02*
X1545400D01*
X3115049Y6545049D02*
X3633274D01*
X2490000Y5920000D02*
X3115049Y6545049D01*
X2480000Y6080000D02*
X3090000Y6690000D01*
X3760000D01*
X2440000Y6250000D02*
X2940000Y6750000D01*
X3727574D01*
X3856013Y7057701D02*
X3979431Y6934283D01*
Y6909431D02*
Y6934283D01*
X3760000Y6690000D02*
X3979431Y6909431D01*
X3633274Y6545049D02*
X3679236Y6591011D01*
X3897862Y6920289D02*
Y6945141D01*
X3866620Y6976383D02*
X3897862Y6945141D01*
X3727574Y6750000D02*
X3897862Y6920289D01*
X3866620Y6976383D02*
Y6976383D01*
X3820658Y7022346D02*
X3866620Y6976383D01*
X4250000Y8500000D02*
X4390000D01*
X3921600Y4713025D02*
X3926350Y4717775D01*
X5609130Y7950871D02*
X5882353Y7677648D01*
X5435600Y7950871D02*
X5609130D01*
X2286900Y6679500D02*
X2290401Y6683000D01*
Y6857800D01*
X7010000Y7100000D02*
Y7198508D01*
X7010000Y7100000D02*
X7010000Y7100000D01*
X7747000Y6457000D02*
Y6480200D01*
X7600000Y6310000D02*
X7747000Y6457000D01*
X7718299Y6708901D02*
Y6781701D01*
Y6708901D02*
X7747000Y6680200D01*
X7620000Y6880000D02*
X7718299Y6781701D01*
X6170000Y7181900D02*
X6178300Y7190200D01*
X6170000Y7000000D02*
Y7181900D01*
X6178500Y7190000D02*
X6310000D01*
X6178300Y7190200D02*
X6178500Y7190000D01*
X6010000Y7000000D02*
Y7168500D01*
X5988300Y7190200D02*
X6010000Y7168500D01*
X5977313Y7848968D02*
X5981700Y7853355D01*
Y7975600D01*
X5948633Y7677648D02*
X5977313Y7648968D01*
X5882353Y7677648D02*
X5948633D01*
X4314200Y7835900D02*
Y7988000D01*
X4299200Y8003000D02*
X4314200Y7988000D01*
X4492200Y8000000D02*
X4600000D01*
X4489200Y8003000D02*
X4492200Y8000000D01*
X4474200Y7988000D02*
X4489200Y8003000D01*
X4474200Y7835900D02*
Y7988000D01*
X4391200Y8250000D02*
X4394200Y8253000D01*
X4070000Y8250000D02*
X4391200D01*
X3710922Y8050000D02*
X4070000D01*
X3602780Y7941858D02*
X3710922Y8050000D01*
X3882376Y8500000D02*
X4050000D01*
X3488064Y8105688D02*
X3882376Y8500000D01*
X1244600Y6680200D02*
X1639600Y7075200D01*
X1861700D01*
X1530200Y6480200D02*
X1731171Y6681171D01*
X1244600Y6480200D02*
X1530200D01*
X1731171Y6681171D02*
X1849001D01*
X1861700Y7275200D02*
Y7405400D01*
X2019599Y6902200D02*
X2127800D01*
X2130000Y6900000D01*
X2126900Y6709500D02*
Y6729334D01*
X2127141Y6729574D01*
X2096900Y6679500D02*
X2126900Y6709500D01*
X2127141Y6729574D02*
Y6854060D01*
X2868000Y5580000D02*
X2990000D01*
X2720000Y5700000D02*
Y5812000D01*
X2712000Y5580000D02*
X2720000Y5588000D01*
Y5700000D01*
X3670000Y7031582D02*
Y7190000D01*
Y7031582D02*
X3749947Y6951635D01*
X3550000Y7310000D02*
X3670000Y7190000D01*
X3524156Y7310000D02*
X3550000D01*
X3482110Y7267954D02*
X3524156Y7310000D01*
X3446754Y7267954D02*
X3482110D01*
X3607927Y7022945D02*
X3714592Y6916280D01*
X3516600Y6962800D02*
X3597361D01*
X3679236Y6880924D01*
X3894546Y7564846D02*
X3910154D01*
X4000000Y7475000D01*
X4004400D02*
X4138856Y7340544D01*
X4000000Y7475000D02*
X4004400D01*
X4004854Y7672046D02*
X4094100Y7582800D01*
X4004854Y7672046D02*
Y7675154D01*
X4094100Y7456010D02*
Y7582800D01*
Y7456010D02*
X4174211Y7375899D01*
X4755273Y7461473D02*
X4759100Y7465300D01*
X4605547Y7305188D02*
X4755273Y7454915D01*
Y7461473D01*
X4640902Y7269833D02*
X4721069Y7350000D01*
X4780405D01*
X4828205Y7397800D01*
X4831600D01*
X4761292Y7535300D02*
X4826446Y7600454D01*
X4759100Y7465300D02*
X4761292Y7467492D01*
X4826446Y7600454D02*
Y7600454D01*
X4761292Y7467492D02*
Y7535300D01*
X4826446Y7600454D02*
X4946446Y7720454D01*
Y7727954D01*
X5184254Y7175146D02*
X5185145D01*
X5250000Y7240000D02*
X5250000D01*
X5185145Y7175146D02*
X5250000Y7240000D01*
X5115273Y6416627D02*
X5119100Y6412800D01*
X5115273Y6416627D02*
Y6434837D01*
X4994455Y6555655D02*
X5115273Y6434837D01*
X5167773Y6491627D02*
X5171600Y6487800D01*
X5129194Y6491627D02*
X5167773D01*
X5029810Y6591010D02*
X5129194Y6491627D01*
X4119497Y6039497D02*
Y6041322D01*
X4070000Y5990000D02*
X4119497Y6039497D01*
Y6041322D02*
X4174211Y6096036D01*
X4140000Y5991114D02*
X4209567Y6060681D01*
X6421647Y5124055D02*
Y5267953D01*
X6407299Y5109707D02*
X6421647Y5124055D01*
X6407300Y5282300D02*
X6421647Y5267953D01*
X6407300Y5282300D02*
X6419800Y5294800D01*
Y5477300D01*
X6549800D02*
X6785300D01*
X6790000Y5482000D01*
D38*
X6140000Y6380000D02*
Y6440000D01*
X6210000Y6310000D02*
X6580000D01*
X6140000Y6380000D02*
X6210000Y6310000D01*
X5580000Y6424843D02*
X5749388D01*
X5765000Y6409231D01*
Y6404843D02*
Y6409231D01*
X5505157Y6424843D02*
X5580000D01*
X5484753Y6913172D02*
X5644899Y6755101D01*
X6327438D01*
X4650000Y6930000D02*
Y6996089D01*
X4782323Y7128412D01*
X4650000Y6930000D02*
X4820000Y6760000D01*
X5430000D01*
X5490000Y6700000D01*
Y6440000D02*
Y6700000D01*
Y6440000D02*
X5505157Y6424843D01*
X6631717Y6175221D02*
Y6258283D01*
X6580000Y6310000D02*
X6631717Y6258283D01*
Y6175221D02*
X6636940Y6169998D01*
X6636942Y6170000D01*
X6830000D01*
X6990000Y5980000D02*
Y6170000D01*
X5857500Y6407343D02*
Y6615586D01*
X5855000Y6404843D02*
X5857500Y6407343D01*
X5955000Y6404843D02*
X5958551Y6401292D01*
Y6271465D02*
Y6401292D01*
X5855000Y6242843D02*
Y6404843D01*
X5958551Y6271465D02*
X5988112Y6241904D01*
X5847000Y6234843D02*
X5855000Y6242843D01*
X5830000Y6233464D02*
X5832000Y6231465D01*
X5857500Y6615586D02*
X5860000Y6618086D01*
X5765000Y6602215D02*
Y6618086D01*
X5955000Y6611741D02*
Y6618086D01*
Y6611741D02*
X5971898Y6594843D01*
X5736386Y6584843D02*
X5738147Y6586604D01*
X5749388D01*
X5585000Y6584843D02*
X5736386D01*
X5749388Y6586604D02*
X5765000Y6602215D01*
X5971898Y6594843D02*
X6135000D01*
X1691715Y4958182D02*
X1708300Y4974767D01*
X5510000Y6890000D02*
Y6900000D01*
X5047465Y7040000D02*
X5370000D01*
X5510000Y6900000D01*
X4760000Y6700000D02*
X5278352D01*
X4550000Y6910000D02*
Y7108221D01*
Y6910000D02*
X4760000Y6700000D01*
X4550000Y7108221D02*
X4676257Y7234478D01*
X5330700Y6670700D02*
X5440000Y6561399D01*
X5307653Y6670700D02*
X5330700D01*
X5278352Y6700000D02*
X5307653Y6670700D01*
X5660000Y7010000D02*
X5790000Y6880000D01*
X6980000D01*
X4675367Y7234478D02*
X4676257D01*
X3667600Y5080000D02*
Y5872267D01*
X4032790Y6237457D01*
X5193500Y5216500D02*
X5360000Y5050000D01*
Y5028352D02*
X5383500Y5004852D01*
X5360000Y5028352D02*
Y5050000D01*
X5383500Y4712415D02*
Y5004852D01*
X4690000Y5320000D02*
X4960000Y5050000D01*
X5110000D01*
X5256500Y4712415D02*
Y4903500D01*
X5110000Y5050000D02*
X5256500Y4903500D01*
X4270000Y5300000D02*
X4280000Y5290000D01*
Y3361688D02*
Y5290000D01*
X4270000Y5300000D02*
Y5570000D01*
X3979057Y3060744D02*
X4280000Y3361688D01*
X4470000Y3070000D02*
Y5070000D01*
X4512654Y5112654D02*
Y5307654D01*
X4470000Y5070000D02*
X4512654Y5112654D01*
Y5307654D02*
Y5582654D01*
X4800000Y5870000D01*
X4390000Y2800000D02*
X4531320Y2658680D01*
X4390000Y2800000D02*
Y5440000D01*
X4390000Y5440000D02*
Y5560000D01*
X4620000Y5790000D01*
X4270000Y5570000D02*
X4410000Y5710000D01*
X3976045Y3256045D02*
X4200000Y3480000D01*
Y5090000D01*
X4160000Y5130000D02*
X4200000Y5090000D01*
X4160000Y5130000D02*
Y5440000D01*
Y5560000D01*
X2875200Y7075200D02*
X3175000Y7375000D01*
X3615847Y7510000D02*
X3962079Y7163767D01*
X3175000Y7375000D02*
X3310000Y7510000D01*
X3615847D01*
X5010077Y7221585D02*
X5073946Y7285454D01*
X4817678Y7093056D02*
X4946207Y7221585D01*
X5010077D01*
X4737653Y7013031D02*
X4817678Y7093056D01*
X3928175Y4993535D02*
Y5428175D01*
X3921600Y4981110D02*
X3931100Y4990610D01*
X3921600Y4713025D02*
Y4981110D01*
X3761894Y3060744D02*
X3979057D01*
X3767253Y3256045D02*
X3976045D01*
X3761894Y3261404D02*
X3767253Y3256045D01*
X4531320Y2658680D02*
X4931199D01*
X4680723Y2859277D02*
X4931137D01*
X4931199Y2859340D01*
X4470000Y3070000D02*
X4680723Y2859277D01*
X5193500Y5216500D02*
Y5932347D01*
X5290000Y5300000D02*
X5520000Y5070000D01*
X5290000Y5300000D02*
Y6010000D01*
X5510500Y4712415D02*
Y4970500D01*
X5520000Y4980000D01*
Y5070000D01*
X3667600Y4713025D02*
Y5080000D01*
X3800000Y5081354D02*
Y5933957D01*
Y4718425D02*
Y5081354D01*
Y5933957D02*
X4068145Y6202102D01*
X3794600Y4713025D02*
X3800000Y4718425D01*
X3928175Y4993535D02*
X3931100Y4990610D01*
X3925250Y4996460D02*
X3928175Y4993535D01*
X4690000Y5320000D02*
Y5660000D01*
X4880000Y5850000D01*
X4160000Y5560000D02*
X4360000Y5760000D01*
X2976295Y5916445D02*
X3028284D01*
X2893555D02*
X2976295D01*
X4880000Y5850000D02*
Y6175136D01*
X4800000Y5870000D02*
Y6184425D01*
X4410000Y6760000D02*
X4470000Y6820000D01*
X4410000Y5710000D02*
Y6760000D01*
X4360000Y5760000D02*
Y7201063D01*
X4534836Y7375899D01*
X4620000Y5790000D02*
Y6010872D01*
X5050000Y7460000D02*
X5320000D01*
X4890000Y7300000D02*
X5050000Y7460000D01*
X5320000D02*
X5589800Y7190200D01*
X5988300D01*
X5314300Y370000D02*
X5317584Y366716D01*
Y306716D02*
X5374300Y250000D01*
X5664300D01*
X5317584Y306716D02*
Y366716D01*
X2910000Y6900000D02*
X3420000Y7410000D01*
X2290000Y6900000D02*
X2910000D01*
X4737653Y6977654D02*
Y7013031D01*
X4730000Y6970000D02*
X4737653Y6977654D01*
X4499480Y6060681D02*
X4543529Y6016632D01*
X4540000Y5890000D02*
X4543529Y5893529D01*
Y6016632D01*
X4138856Y6134097D02*
X4250000Y6245241D01*
X4138856Y6131391D02*
Y6134097D01*
X4250000Y6245241D02*
Y6250000D01*
X4889400Y6449589D02*
X5008989Y6330000D01*
X5010000D01*
X4888389Y6449589D02*
X4889400D01*
X4650000Y6480000D02*
X4716557D01*
X4817678Y6378879D01*
X4737653Y6529614D02*
Y6572347D01*
Y6529614D02*
X4853034Y6414234D01*
X4730000Y6580000D02*
X4737653Y6572347D01*
X3725740Y6335740D02*
Y6354671D01*
X3820658Y6449589D01*
X3720000Y6330000D02*
X3725740Y6335740D01*
X3046925Y5663075D02*
X3130000Y5580000D01*
X3046925Y5663075D02*
Y5745415D01*
X3167555Y5866445D02*
X3346445D01*
X3276446Y5916445D02*
X3660000Y6300000D01*
X3167555Y5916445D02*
X3276446D01*
X3200000Y6100000D02*
X3329647D01*
X3749947Y6520300D01*
X3146925Y6046925D02*
X3200000Y6100000D01*
X3146925Y5987475D02*
Y6046925D01*
X2996925Y5987475D02*
Y6066925D01*
X3340000Y6410000D02*
X3568937D01*
X2996925Y6066925D02*
X3340000Y6410000D01*
X3660000Y6300000D02*
Y6359642D01*
X3346445Y5866445D02*
X3780000Y6300000D01*
X4470000Y6820000D02*
Y7240353D01*
X4310000Y5810000D02*
Y6674425D01*
X3928175Y5428175D02*
X4310000Y5810000D01*
X3891369Y7093056D02*
X4310000Y6674425D01*
X4470000Y7240353D02*
X4570191Y7340544D01*
X4782323Y6343523D02*
X5193500Y5932347D01*
X4746968Y6308168D02*
X4880000Y6175136D01*
X4711613Y6272812D02*
X4800000Y6184425D01*
X4534836Y6096036D02*
X4620000Y6010872D01*
X4959100Y6951635D02*
X5047465Y7040000D01*
X5290000Y6010000D02*
X5440000Y6160000D01*
Y6561399D01*
X5050000Y7400000D02*
X5270000D01*
X5660000Y7010000D01*
X4812490Y7300000D02*
X4890000D01*
X4711613Y7199123D02*
X4812490Y7300000D01*
X4746968Y7163767D02*
X4833201Y7250000D01*
X4900000D01*
X5050000Y7400000D01*
X5290000Y8260000D02*
X5435600Y8114400D01*
Y7950871D02*
Y8114400D01*
X5160000Y8260000D02*
X5290000D01*
X4870000Y7970000D02*
X5160000Y8260000D01*
X4870000Y7781774D02*
Y7970000D01*
X4499480Y7411254D02*
X4870000Y7781774D01*
X4173942Y7446879D02*
Y7453412D01*
X4314200Y7593670D02*
Y7835900D01*
X4173942Y7446879D02*
X4209567Y7411254D01*
X4173942Y7453412D02*
X4314200Y7593670D01*
X3470000Y8087624D02*
X3488064Y8105688D01*
X3470000Y7900000D02*
X3610000Y7760000D01*
X3470000Y7900000D02*
Y8087624D01*
X3610000Y7586557D02*
Y7760000D01*
Y7586557D02*
X3997435Y7199123D01*
X1861700Y7075200D02*
X2875200D01*
X3420000Y7410000D02*
X3645136D01*
X3926724Y7128412D01*
X3568937Y6410000D02*
X3714592Y6555655D01*
X3780000Y6338221D02*
X3856013Y6414234D01*
Y6414234D01*
X3780000Y6300000D02*
Y6338221D01*
X3660000Y6359642D02*
X3785303Y6484945D01*
X2993463Y5583463D02*
Y5741953D01*
X2996925Y5745415D01*
X2990000Y5580000D02*
X2993463Y5583463D01*
X2850000Y5960000D02*
X2893555Y5916445D01*
X3028284D02*
X3046925Y5935086D01*
Y5987475D01*
X2860824Y5850000D02*
X2894378Y5816446D01*
X2976295D02*
X3167555D01*
X2850000Y5850000D02*
X2860824D01*
X2894378Y5816446D02*
X2976295D01*
X3046925Y5987475D02*
X3096925D01*
X2976295Y5826446D02*
Y5866445D01*
X6484800Y5477300D02*
X6499800Y5462300D01*
X6472300Y4932300D02*
X6500000Y4960000D01*
X6499800Y5445784D02*
Y5462300D01*
Y5445784D02*
X6500000Y5445584D01*
Y4960000D02*
Y5445584D01*
X6407300Y4932300D02*
X6472300D01*
D39*
X7260000Y5032858D02*
X7347919D01*
X7161921Y4962858D02*
X7347919D01*
X6880000Y5880000D02*
X7080000Y5680000D01*
X7114600Y5714600D01*
Y5888000D02*
X7157500Y5930900D01*
X7114600Y5714600D02*
Y5888000D01*
X6880000Y5880000D02*
Y5910000D01*
X6780000Y5920000D02*
X6867586D01*
X7129840Y4930777D02*
X7161921Y4962858D01*
X7129840Y4921100D02*
Y4930777D01*
X7347919Y5032858D02*
X7380000Y5064939D01*
Y5535000D01*
X6565900Y5930900D02*
X6780000D01*
X7324100D02*
X7415000Y5840000D01*
X7415000Y5570000D02*
Y5840000D01*
X7380000Y5535000D02*
X7415000Y5570000D01*
D40*
X3794600Y3994110D02*
Y4168195D01*
X5383500Y3983500D02*
Y4167585D01*
X3219600Y4318310D02*
X3219800Y4318510D01*
Y4439800D01*
X3220000Y4440000D01*
X3370100Y4561610D02*
X3371100Y4560610D01*
X3029100Y4380010D02*
X3031100Y4382010D01*
Y4512700D01*
X3221100Y4562610D02*
X3222100Y4561610D01*
X3370100D01*
X4820999Y4561000D02*
X4959000D01*
X4820000Y4318000D02*
Y4440000D01*
X4820000Y4562000D02*
X4820999Y4561000D01*
X4610000Y4381200D02*
Y4520000D01*
X4959000Y4561000D02*
X4960000Y4560000D01*
X4610000Y4381200D02*
X4611800Y4379400D01*
X5390000Y6010000D02*
X5392706D01*
X5395006Y6012300D02*
X5509300D01*
X5392706Y6010000D02*
X5395006Y6012300D01*
D41*
X4931199Y3255580D02*
X5125580D01*
X5510000Y3640000D01*
Y3880000D01*
X5510500Y3880500D02*
Y4167585D01*
X5510000Y3880000D02*
X5510500Y3880500D01*
X5260000Y3787580D02*
Y3880000D01*
X4931199Y3458780D02*
X5260000Y3787580D01*
X5256500Y3883500D02*
X5260000Y3880000D01*
X5256500Y3883500D02*
Y4167585D01*
X3540000Y3480000D02*
X3900000Y3840000D01*
X3920000Y3860000D01*
X3747573Y2678826D02*
X3761894Y2664504D01*
X3540000Y2800000D02*
X3661174Y2678826D01*
X3540000Y2800000D02*
Y3480000D01*
X3661174Y2678826D02*
X3747573D01*
X3598696Y2461304D02*
X3761894D01*
X3400000Y2660000D02*
Y3530000D01*
Y2660000D02*
X3598696Y2461304D01*
X3400000Y3530000D02*
X3670000Y3800000D01*
Y3840000D01*
X3920000Y4166595D02*
X3921600Y4168195D01*
X3920000Y3860000D02*
Y4166595D01*
X3667600Y3842400D02*
Y4168195D01*
Y3842400D02*
X3670000Y3840000D01*
D42*
X5227536Y8096559D02*
D03*
X5112820Y7932728D02*
D03*
D43*
X5435600Y7950871D02*
D03*
X3488064Y8105688D02*
D03*
X1244600Y6680200D02*
D03*
X7747000D02*
D03*
D44*
X5320885Y7787040D02*
D03*
X3602780Y7941858D02*
D03*
X1244600Y6480200D02*
D03*
X7747000D02*
D03*
X7260000Y4960000D02*
D03*
D45*
X8310000Y5352300D02*
D03*
X8310000Y5890000D02*
D03*
D46*
X2238094Y2132559D02*
D03*
Y3796259D02*
D03*
X6455000Y3787525D02*
D03*
Y2123825D02*
D03*
D47*
X3761894Y3459524D02*
D03*
Y3261404D02*
D03*
Y3060744D02*
D03*
Y2860084D02*
D03*
Y2664504D02*
D03*
Y2461304D02*
D03*
X4931199Y2460560D02*
D03*
Y2658680D02*
D03*
Y2859340D02*
D03*
Y3060000D02*
D03*
Y3255580D02*
D03*
Y3458780D02*
D03*
D48*
X7850000Y5530000D02*
D03*
Y5780000D02*
D03*
Y6030000D02*
D03*
X7250000Y5530000D02*
D03*
Y5780000D02*
D03*
Y6030000D02*
D03*
D49*
X5684300Y270000D02*
D03*
X5938300D02*
D03*
X4564000D02*
D03*
X4310000D02*
D03*
X4056000D02*
D03*
X4818000D02*
D03*
X2644000Y260000D02*
D03*
X2898000D02*
D03*
X3152000D02*
D03*
X2390000D02*
D03*
X2136000D02*
D03*
D50*
X3394715Y7796170D02*
D03*
X3280000Y7960000D02*
D03*
D51*
X990600Y6480200D02*
D03*
Y6680200D02*
D03*
X7493000Y6480200D02*
D03*
Y6680200D02*
D03*
D52*
X7260000Y4710000D02*
D03*
D53*
X5680000Y4830000D02*
D03*
X4100000Y4840000D02*
D03*
X3851100Y4370610D02*
D03*
Y4517700D02*
D03*
X3621100Y4370610D02*
D03*
X3791100Y3990610D02*
D03*
X3621100Y4517700D02*
D03*
X3221100Y4030610D02*
D03*
X3731100Y4370610D02*
D03*
X3021100Y4030610D02*
D03*
X3731100Y4517700D02*
D03*
X3361100Y4160610D02*
D03*
X5440000Y4370000D02*
D03*
X5320000Y4500000D02*
D03*
X4820000Y4020000D02*
D03*
X4970000Y4720000D02*
D03*
X5320000Y4370000D02*
D03*
X5440000Y4500000D02*
D03*
X5210000D02*
D03*
X5380000Y3980000D02*
D03*
X4960000Y4060000D02*
D03*
Y4560000D02*
D03*
X5210000Y4370000D02*
D03*
X4620000Y4020000D02*
D03*
D54*
X6350000Y6170000D02*
D03*
X5855000Y6404843D02*
D03*
X2720000Y5700000D02*
D03*
X4176600Y5890300D02*
D03*
X3720000Y6330000D02*
D03*
X3130000Y5580000D02*
D03*
X7010000Y7198508D02*
D03*
X4600000Y8000000D02*
D03*
X4000000Y7475000D02*
D03*
X6690000Y5620000D02*
D03*
X6510000Y5580000D02*
D03*
X6390000D02*
D03*
X5250000Y7240000D02*
D03*
X4070000Y5990000D02*
D03*
X5981700Y7975600D02*
D03*
X3604100Y7045300D02*
D03*
X3516600Y6962800D02*
D03*
X5171600Y6487800D02*
D03*
X5119100Y6412800D02*
D03*
X4759100Y7465300D02*
D03*
X4094100Y7582800D02*
D03*
X4831600Y7397800D02*
D03*
D55*
X6560000Y6430000D02*
D03*
X5180000Y6930000D02*
D03*
X700000Y5012500D02*
D03*
Y5122500D02*
D03*
Y5482500D02*
D03*
Y5592500D02*
D03*
X690000Y5932500D02*
D03*
Y6052500D02*
D03*
X7080000Y5680000D02*
D03*
X6970000Y5580000D02*
D03*
X6970000Y5380000D02*
D03*
Y5480000D02*
D03*
X7080000Y5380000D02*
D03*
X7080000Y5580000D02*
D03*
X7080000Y5480000D02*
D03*
X6970000Y5680000D02*
D03*
X3220000Y4440000D02*
D03*
X3371100Y4560610D02*
D03*
Y4720610D02*
D03*
X3031100Y4512700D02*
D03*
X5430000Y5280000D02*
D03*
X4610000Y4520000D02*
D03*
X4820000Y4440000D02*
D03*
X5430000Y5510000D02*
D03*
X2150000Y4970000D02*
D03*
Y5120000D02*
D03*
X5144300Y570000D02*
D03*
X6090000Y4910000D02*
D03*
X2150000Y5260000D02*
D03*
X4540000Y5890000D02*
D03*
X5010000Y6330000D02*
D03*
X4730000Y6580000D02*
D03*
X4650000Y6480000D02*
D03*
X4730000Y6970000D02*
D03*
X4250000Y6250000D02*
D03*
X4390000Y8500000D02*
D03*
X5390000Y6010000D02*
D03*
X2850000Y5960000D02*
D03*
Y5850000D02*
D03*
X6240000Y5880000D02*
D03*
Y5970000D02*
D03*
X2990000Y5580000D02*
D03*
X4827300Y5382300D02*
D03*
Y5512300D02*
D03*
Y5642300D02*
D03*
X6137300Y5112300D02*
D03*
X2019599Y6902200D02*
D03*
X1861700Y7405400D02*
D03*
X6310000Y7190000D02*
D03*
%TF.MD5,d725ee8b2464c0e30cadd64df2ace6d3*%
M02*
